M48
;DRILL file {KiCad 4.0.7} date 02/28/19 19:31:48
;FORMAT={-:-/ absolute / inch / decimal}
FMAT,2
INCH,TZ
T1C0.012
T2C0.016
T3C0.020
T4C0.024
T5C0.031
T6C0.039
T7C0.047
T8C0.120
%
G90
G05
M72
T1
X1.025Y-1.2475
X1.325Y-2.7475
X1.325Y-3.0825
X1.4Y-2.0975
X1.42Y-3.0825
X1.65Y-2.1975
X1.7Y-1.5725
X1.7706Y-1.2956
X1.8Y-2.7225
X2.Y-2.0975
X2.05Y-2.1975
X2.11Y-4.4125
X2.13Y-5.0525
X2.225Y-1.3725
X2.275Y-1.9725
X2.99Y-2.8125
X3.Y-2.4325
X3.05Y-1.3925
X3.05Y-1.5225
X3.0671Y-2.2425
X3.0835Y-2.3825
X3.15Y-2.3125
X3.525Y-1.4225
X3.6079Y-2.2125
X3.6079Y-2.3825
X3.68Y-2.4525
X3.76Y-2.6225
X4.15Y-2.6225
X4.25Y-1.5225
X4.35Y-1.4925
X4.375Y-2.0225
X4.425Y-2.6225
X4.52Y-2.8925
X4.6Y-1.8225
X4.6997Y-4.6441
X4.724Y-4.7343
X4.7536Y-4.7188
X4.8588Y-4.7393
X4.89Y-2.6325
X4.9Y-2.0225
X4.96Y-2.6325
X5.0575Y-4.77
X5.3Y-1.4725
X5.3Y-2.5725
T2
X0.85Y-5.525
X0.89Y-2.795
X0.9Y-4.625
X0.92Y-2.755
X0.93Y-2.895
X0.945Y-2.725
X0.95Y-3.8
X0.955Y-2.88
X0.975Y-2.85
X1.0068Y-2.76
X1.095Y-1.1
X1.215Y-3.5125
X1.235Y-4.465
X1.235Y-4.54
X1.36Y-4.22
X1.3675Y-2.695
X1.37Y-4.3975
X1.375Y-3.1933
X1.4Y-4.545
X1.41Y-1.9725
X1.47Y-3.4375
X1.49Y-4.4
X1.61Y-5.625
X1.615Y-5.42
X1.65Y-3.32
X1.69Y-1.9725
X1.695Y-3.94
X1.78Y-5.13
X1.8125Y-5.015
X1.8388Y-4.686
X1.86Y-5.405
X1.86Y-5.445
X1.86Y-5.485
X1.865Y-4.21
X1.9087Y-4.2914
X1.924Y-4.634
X1.94Y-4.734
X1.9525Y-5.0575
X2.115Y-5.265
X2.12Y-4.0875
X2.14Y-5.29
X2.165Y-5.315
X2.17Y-2.794
X2.175Y-5.2
X2.19Y-5.345
X2.2Y-5.23
X2.225Y-5.255
X2.25Y-5.28
X2.2675Y-5.3725
X2.328Y-2.802
X2.4025Y-4.8825
X2.5425Y-5.5325
X2.5575Y-1.265
X2.748Y-2.214
X2.748Y-2.378
X2.78Y-2.216
X2.78Y-2.378
X2.812Y-2.216
X2.812Y-2.376
X2.844Y-2.218
X2.848Y-2.376
X3.Y-2.174
X3.1Y-2.6425
X3.135Y-4.17
X3.15Y-1.105
X3.1975Y-3.5475
X3.1975Y-3.835
X3.348Y-5.652
X3.415Y-1.095
X3.425Y-3.655
X3.525Y-2.305
X3.545Y-5.275
X3.55Y-5.33
X3.585Y-3.495
X3.6Y-1.455
X3.615Y-3.83
X3.6325Y-3.5675
X3.655Y-3.335
X3.69Y-2.15
X3.695Y-1.87
X3.7Y-2.295
X3.715Y-2.85
X3.715Y-3.83
X3.76Y-3.335
X3.78Y-3.9975
X3.78Y-4.0875
X3.815Y-3.815
X3.835Y-1.91
X3.861Y-3.811
X3.865Y-2.08
X3.8967Y-5.5454
X3.8968Y-5.4712
X3.91Y-4.0775
X3.9125Y-3.9725
X3.93Y-1.775
X3.93Y-5.435
X3.988Y-5.656
X4.045Y-2.26
X4.068Y-5.53
X4.07Y-3.525
X4.0963Y-5.5011
X4.1291Y-4.425
X4.1325Y-4.345
X4.1378Y-4.4681
X4.1486Y-4.4977
X4.1975Y-4.9575
X4.205Y-4.7775
X4.21Y-5.1225
X4.235Y-4.425
X4.235Y-4.46
X4.235Y-4.495
X4.27Y-4.375
X4.3Y-4.385
X4.332Y-5.324
X4.34Y-3.08
X4.34Y-5.1
X4.355Y-5.51
X4.3566Y-4.982
X4.362Y-5.43
X4.37Y-4.9525
X4.38Y-4.44
X4.391Y-4.929
X4.41Y-4.47
X4.425Y-3.5
X4.4257Y-4.9293
X4.44Y-4.53
X4.4425Y-4.8225
X4.4526Y-4.905
X4.455Y-4.6425
X4.47Y-4.565
X4.4841Y-4.9042
X4.4847Y-4.6729
X4.485Y-2.96
X4.4976Y-4.7714
X4.51Y-4.5655
X4.5247Y-4.7554
X4.5281Y-5.313
X4.53Y-3.045
X4.5578Y-3.7056
X4.562Y-4.958
X4.562Y-5.046
X4.565Y-4.74
X4.5715Y-3.734
X4.605Y-3.76
X4.615Y-1.47
X4.6235Y-4.6858
X4.63Y-4.51
X4.6473Y-4.5558
X4.6473Y-4.659
X4.655Y-3.7587
X4.6579Y-3.2929
X4.675Y-2.2
X4.692Y-4.716
X4.698Y-4.7539
X4.7128Y-5.514
X4.725Y-2.1
X4.74Y-5.18
X4.75Y-3.075
X4.75Y-3.425
X4.776Y-4.658
X4.776Y-4.694
X4.7815Y-5.231
X4.8171Y-4.5782
X4.825Y-3.375
X4.83Y-5.1765
X4.8425Y-5.3025
X4.848Y-4.392
X4.855Y-4.01
X4.86Y-5.0495
X4.8606Y-4.4693
X4.8614Y-5.2698
X4.8718Y-4.62
X4.8758Y-4.8982
X4.88Y-3.98
X4.88Y-4.6625
X4.88Y-4.7025
X4.897Y-5.3186
X4.905Y-3.955
X4.9312Y-4.6149
X4.935Y-3.93
X4.94Y-2.325
X4.982Y-4.51
X5.0096Y-5.2417
X5.0293Y-4.894
X5.0409Y-5.2317
X5.07Y-4.7225
X5.07Y-5.18
X5.108Y-4.4555
X5.14Y-4.0875
X5.144Y-4.456
X5.1458Y-4.5663
X5.1499Y-4.5975
X5.1775Y-4.715
X5.2175Y-4.7025
X5.22Y-4.08
X5.23Y-4.0425
X5.2775Y-4.585
X5.3425Y-4.225
X5.3575Y-5.375
T3
X5.1615Y-5.2623
X5.59Y-5.19
T4
X1.7894Y-4.3619
X3.5Y-5.9119
X3.7Y-5.9119
X3.9Y-5.9119
X4.9Y-5.9119
X5.1Y-5.9119
X5.2881Y-5.9119
T5
X4.616Y-5.371
X4.6948Y-5.371
X4.7735Y-5.371
X4.8522Y-5.371
X5.0845Y-5.3528
X5.0845Y-5.4315
X5.251Y-4.8685
X5.251Y-4.9472
X5.251Y-5.026
X5.251Y-5.1047
X5.513Y-3.4543
X5.513Y-3.533
T6
X1.175Y-1.8475
X1.275Y-1.8475
X1.375Y-1.8475
X1.475Y-1.8475
X1.5107Y-5.5306
X1.575Y-1.8475
X1.6107Y-5.5306
X1.7107Y-5.5306
X2.125Y-1.8475
X2.225Y-1.8475
X2.225Y-3.2225
X2.225Y-3.5225
X2.325Y-1.8475
X2.325Y-3.2225
X2.325Y-3.5225
X2.425Y-1.8475
X2.425Y-3.2225
X2.425Y-3.5225
X2.525Y-1.8475
X2.525Y-3.2225
X2.525Y-3.5225
X2.625Y-3.2225
X2.625Y-3.5225
X2.7Y-5.6
X2.7Y-5.7
X2.725Y-3.2225
X2.725Y-3.5225
X2.8Y-5.6
X2.8Y-5.7
X2.825Y-3.2225
X2.825Y-3.5225
X2.85Y-4.545
X2.85Y-4.645
X2.85Y-4.745
X2.85Y-4.845
X2.85Y-4.945
X2.85Y-5.045
X2.85Y-5.145
X2.85Y-5.245
X2.9Y-5.6
X2.9Y-5.7
X2.925Y-3.2225
X2.925Y-3.5225
X3.Y-5.6
X3.Y-5.7
X3.1Y-5.6
X3.1Y-5.7
X3.185Y-5.175
X3.2Y-5.6
X3.2Y-5.7
X3.285Y-5.175
X3.3Y-5.6
X3.3Y-5.7
X3.385Y-5.175
X3.4Y-5.6
X3.4Y-5.7
X3.5Y-5.6
X3.5Y-5.7
X3.6Y-5.6
X3.6Y-5.7
X3.7Y-5.6
X3.7Y-5.7
X3.7325Y-4.5475
X3.7325Y-4.6475
X3.7325Y-4.7475
X3.7325Y-4.8475
X3.7325Y-4.9475
X3.7325Y-5.0475
X3.7325Y-5.1475
X3.7325Y-5.2475
X3.8Y-5.6
X3.8Y-5.7
X3.9Y-5.6
X3.9Y-5.7
X4.Y-1.8475
X4.1Y-1.8475
X4.1Y-5.6
X4.1Y-5.7
X4.2Y-1.8475
X4.2Y-5.6
X4.2Y-5.7
X4.3Y-1.8475
X4.3Y-5.6
X4.3Y-5.7
X4.4Y-1.8475
X4.4Y-5.6
X4.4Y-5.7
X4.5Y-5.6
X4.5Y-5.7
X4.5806Y-5.1393
X4.6Y-5.6
X4.6Y-5.7
X4.6806Y-5.1393
X4.7Y-5.6
X4.7Y-5.7
X4.7806Y-5.1393
X4.8Y-5.6
X4.8Y-5.7
X4.8806Y-5.1393
X4.9Y-5.6
X4.9Y-5.7
X4.925Y-1.8475
X4.9806Y-5.1393
X5.Y-5.6
X5.Y-5.7
X5.025Y-1.8475
X5.1Y-5.6
X5.1Y-5.7
X5.125Y-1.8475
X5.2Y-5.6
X5.2Y-5.7
X5.225Y-1.8475
X5.2825Y-3.66
X5.2825Y-3.96
X5.3Y-5.6
X5.3Y-5.7
X5.325Y-1.8475
X5.3825Y-3.66
X5.3825Y-3.96
X5.4825Y-3.66
X5.4825Y-3.96
X5.5825Y-3.66
X5.5825Y-3.96
T7
X0.9Y-5.05
X0.9Y-5.15
X2.344Y-5.698
X2.444Y-5.698
X2.544Y-5.698
T8
X1.1Y-5.7
X1.66Y-1.
X5.2Y-1.
X5.525Y-5.7
T0
M30
