G04 #@! TF.GenerationSoftware,KiCad,Pcbnew,5.0.2-bee76a0~70~ubuntu18.04.1*
G04 #@! TF.CreationDate,2019-12-02T21:21:03-05:00*
G04 #@! TF.ProjectId,synth-wavetable,73796e74-682d-4776-9176-657461626c65,rev?*
G04 #@! TF.SameCoordinates,Original*
G04 #@! TF.FileFunction,Soldermask,Bot*
G04 #@! TF.FilePolarity,Negative*
%FSLAX46Y46*%
G04 Gerber Fmt 4.6, Leading zero omitted, Abs format (unit mm)*
G04 Created by KiCad (PCBNEW 5.0.2-bee76a0~70~ubuntu18.04.1) date Mon 02 Dec 2019 09:21:03 PM EST*
%MOMM*%
%LPD*%
G01*
G04 APERTURE LIST*
%ADD10C,0.100000*%
G04 APERTURE END LIST*
D10*
G36*
X7431150Y-11730685D02*
X7644633Y-11773149D01*
X7811227Y-11842155D01*
X8046826Y-11939743D01*
X8408796Y-12181603D01*
X8716617Y-12489424D01*
X8958477Y-12851394D01*
X9125071Y-13253588D01*
X9210000Y-13680553D01*
X9210000Y-14115887D01*
X9125071Y-14542852D01*
X8958477Y-14945046D01*
X8716617Y-15307016D01*
X8408796Y-15614837D01*
X8046826Y-15856697D01*
X7811227Y-15954285D01*
X7644633Y-16023291D01*
X7431150Y-16065755D01*
X7217667Y-16108220D01*
X6782333Y-16108220D01*
X6568850Y-16065755D01*
X6355367Y-16023291D01*
X6188773Y-15954285D01*
X5953174Y-15856697D01*
X5591204Y-15614837D01*
X5283383Y-15307016D01*
X5041523Y-14945046D01*
X4874929Y-14542852D01*
X4790000Y-14115887D01*
X4790000Y-13680553D01*
X4874929Y-13253588D01*
X5041523Y-12851394D01*
X5283383Y-12489424D01*
X5591204Y-12181603D01*
X5953174Y-11939743D01*
X6188773Y-11842155D01*
X6355367Y-11773149D01*
X6568850Y-11730685D01*
X6782333Y-11688220D01*
X7217667Y-11688220D01*
X7431150Y-11730685D01*
X7431150Y-11730685D01*
G37*
G36*
X12130150Y-8730945D02*
X12343633Y-8773409D01*
X12510227Y-8842415D01*
X12745826Y-8940003D01*
X13107796Y-9181863D01*
X13415617Y-9489684D01*
X13657477Y-9851654D01*
X13824071Y-10253848D01*
X13909000Y-10680813D01*
X13909000Y-11116147D01*
X13824071Y-11543112D01*
X13657477Y-11945306D01*
X13415617Y-12307276D01*
X13107796Y-12615097D01*
X12745826Y-12856957D01*
X12510227Y-12954545D01*
X12343633Y-13023551D01*
X12130149Y-13066016D01*
X11916667Y-13108480D01*
X11481333Y-13108480D01*
X11267851Y-13066016D01*
X11054367Y-13023551D01*
X10887773Y-12954545D01*
X10652174Y-12856957D01*
X10290204Y-12615097D01*
X9982383Y-12307276D01*
X9740523Y-11945306D01*
X9573929Y-11543112D01*
X9489000Y-11116147D01*
X9489000Y-10680813D01*
X9573929Y-10253848D01*
X9740523Y-9851654D01*
X9982383Y-9489684D01*
X10290204Y-9181863D01*
X10652174Y-8940003D01*
X10887773Y-8842415D01*
X11054367Y-8773409D01*
X11267850Y-8730945D01*
X11481333Y-8688480D01*
X11916667Y-8688480D01*
X12130150Y-8730945D01*
X12130150Y-8730945D01*
G37*
G36*
X7431149Y-5731204D02*
X7644633Y-5773669D01*
X7811227Y-5842675D01*
X8046826Y-5940263D01*
X8408796Y-6182123D01*
X8716617Y-6489944D01*
X8958477Y-6851914D01*
X9125071Y-7254108D01*
X9210000Y-7681073D01*
X9210000Y-8116407D01*
X9125071Y-8543372D01*
X8958477Y-8945566D01*
X8716617Y-9307536D01*
X8408796Y-9615357D01*
X8046826Y-9857217D01*
X7811227Y-9954805D01*
X7644633Y-10023811D01*
X7431150Y-10066275D01*
X7217667Y-10108740D01*
X6782333Y-10108740D01*
X6568850Y-10066275D01*
X6355367Y-10023811D01*
X6188773Y-9954805D01*
X5953174Y-9857217D01*
X5591204Y-9615357D01*
X5283383Y-9307536D01*
X5041523Y-8945566D01*
X4874929Y-8543372D01*
X4790000Y-8116407D01*
X4790000Y-7681073D01*
X4874929Y-7254108D01*
X5041523Y-6851914D01*
X5283383Y-6489944D01*
X5591204Y-6182123D01*
X5953174Y-5940263D01*
X6188773Y-5842675D01*
X6355367Y-5773669D01*
X6568851Y-5731204D01*
X6782333Y-5688740D01*
X7217667Y-5688740D01*
X7431149Y-5731204D01*
X7431149Y-5731204D01*
G37*
M02*
