M48
;DRILL file {KiCad 5.0.2-bee76a0~70~ubuntu18.04.1} date Mon 02 Dec 2019 09:21:14 PM EST
;FORMAT={-:-/ absolute / inch / decimal}
FMAT,2
INCH,TZ
T1C0.0118
T2C0.0157
T3C0.0197
T4C0.0295
T5C0.0320
T6C0.0394
T7C0.0400
T8C0.0787
T9C0.1180
%
G90
G05
T1
X0.2362Y-3.5433
X0.3307Y-2.9291
X0.3307Y-3.1654
X0.3307Y-3.2677
X0.3366Y-2.8661
X0.3386Y-3.3622
X0.4682Y-1.8855
X0.4787Y-1.9915
X0.5463Y-1.4045
X0.626Y-1.6811
X0.6486Y-2.4311
X0.7165Y-1.7638
X0.7441Y-1.4961
X0.7475Y-1.4704
X0.7594Y-1.4501
X0.7756Y-2.7549
X0.7953Y-2.7323
X0.7972Y-1.8012
X0.8071Y-3.1831
X0.811Y-1.4724
X0.8268Y-1.6142
X0.8346Y-1.685
X0.8465Y-1.4646
X0.8583Y-3.6299
X0.874Y-1.2362
X0.8976Y-1.622
X0.937Y-1.6142
X0.9409Y-1.2441
X0.9547Y-1.4961
X0.9685Y-1.9449
X0.9921Y-2.7795
X0.9921Y-2.8031
X0.9941Y-1.4961
X1.Y-1.5984
X1.063Y-1.811
X1.063Y-2.8346
X1.0787Y-1.0945
X1.0787Y-1.7795
X1.0827Y-2.8819
X1.1024Y-0.9882
X1.1102Y-3.3937
X1.1122Y-2.7756
X1.1319Y-2.7559
X1.1654Y-1.7717
X1.1732Y-0.3701
X1.2106Y-3.0906
X1.2303Y-2.7854
X1.2327Y-2.76
X1.2402Y-2.687
X1.2402Y-2.7362
X1.2795Y-2.7756
X1.2924Y-2.8197
X1.3189Y-2.687
X1.4075Y-2.8346
X1.4075Y-2.874
X1.4075Y-2.9134
X1.5915Y-1.5709
X1.5945Y-3.0315
X1.6339Y-3.0315
X1.6339Y-3.1398
X1.6437Y-3.248
X1.6634Y-3.0315
X1.6634Y-3.1398
X1.6929Y-0.4252
X1.6929Y-3.0118
X1.6929Y-3.1338
X1.752Y-3.0217
X1.7872Y-3.057
X2.1417Y-1.5512
X2.1575Y-1.7717
X2.2244Y-1.1969
X2.2362Y-1.8504
X2.5906Y-2.0315
X2.5906Y-2.2126
X2.6063Y-1.2756
X2.7078Y-2.1504
X2.8268Y-2.2835
X2.937Y-3.0787
X3.0079Y-1.315
X3.0945Y-1.
X3.5669Y-2.189
X3.6299Y-2.2835
X3.685Y-1.5118
X3.6929Y-1.2992
X3.8031Y-1.1654
T2
X0.4488Y-3.1181
X0.5591Y-3.1181
X0.7008Y-2.7087
X0.7008Y-2.748
X0.7283Y-2.7953
X0.7382Y-3.435
X0.7864Y-2.6504
X0.796Y-1.7262
X0.7972Y-3.0512
X0.8169Y-3.4646
X0.8558Y-3.1698
X0.8858Y-3.1693
X0.8858Y-3.4646
X0.8957Y-1.752
X0.8976Y-1.1417
X0.9154Y-2.4114
X0.9252Y-3.0217
X0.9449Y-2.8622
X0.9449Y-3.2972
X0.9646Y-2.5984
X0.9744Y-3.4449
X0.9843Y-2.9134
X1.0039Y-1.8504
X1.0138Y-3.2972
X1.063Y-1.5846
X1.063Y-3.0217
X1.2106Y-3.3957
X1.2205Y-2.1752
X1.2362Y-2.5039
X1.2992Y-1.998
X1.2992Y-2.2933
X1.3307Y-2.4173
X1.3386Y-2.2736
X1.3484Y-3.1299
X1.3583Y-2.4705
X1.3858Y-0.6339
X1.393Y-2.3871
X1.4272Y-2.5984
X1.4272Y-2.7953
X1.4272Y-3.2874
X1.4764Y-3.2776
X1.5197Y-1.378
X1.5256Y-2.2146
X1.5315Y-0.5039
X1.6339Y-0.5118
X1.7028Y-2.0669
X1.7815Y-1.3091
X1.7815Y-2.1457
X1.7913Y-2.9232
X1.811Y-2.7953
X1.8268Y-1.4094
X1.8346Y-1.315
X1.8504Y-2.0669
X1.939Y-2.8346
X2.0177Y-3.0807
X2.0374Y-2.2933
X2.0571Y-1.4764
X2.1063Y-3.0807
X2.1161Y-3.002
X2.1555Y-1.2234
X2.1949Y-0.3248
X2.3425Y-0.3248
X2.4016Y-1.2913
X2.4173Y-1.1732
X2.4508Y-0.3248
X2.5492Y-0.3248
X2.6476Y-0.3248
X2.776Y-1.3242
X2.8248Y-0.3248
X2.8543Y-3.5925
X2.8543Y-3.8091
X2.8605Y-1.4538
X2.8937Y-2.6772
X2.8937Y-2.7854
X3.0906Y-1.5354
X3.1496Y-1.4764
X3.2776Y-2.5689
X3.2992Y-1.1575
X3.4449Y-2.1949
X3.622Y-2.0472
X3.6516Y-2.5689
T3
X0.189Y-3.5197
X0.189Y-3.6535
X0.3582Y-2.7686
X0.4626Y-1.3848
X0.4961Y-1.4016
X0.5118Y-2.5197
X0.5979Y-1.6691
X0.622Y-1.8661
X0.7185Y-2.665
X0.7186Y-1.5968
X1.5906Y-2.1181
X2.81Y-1.5903
X2.8425Y-1.5512
X2.9088Y-1.6835
X2.9764Y-1.4724
X3.1417Y-3.7244
X3.2205Y-1.7638
X3.315Y-1.7953
X3.5276Y-1.8189
X3.8386Y-1.6772
T4
X0.7008Y-1.3228
X0.7929Y-2.85
X0.9449Y-2.7264
X1.1339Y-1.1102
X1.3228Y-1.0945
X1.4173Y-2.4213
X1.4488Y-1.1185
X1.5039Y-0.7914
X1.5059Y-2.3327
X1.5449Y-1.9603
X1.9272Y-2.9722
X2.0768Y-3.0315
X2.4543Y-1.2979
X2.4678Y-1.1686
X2.6378Y-2.628
T5
X1.3067Y-0.9445
X1.3067Y-1.2445
X1.4067Y-0.9445
X1.4067Y-1.2445
X1.5067Y-0.9445
X1.5067Y-1.2445
X1.6067Y-0.9445
X1.6067Y-1.2445
T6
X0.3051Y-1.0433
X1.1319Y-1.3761
X2.2047Y-1.7224
X2.2244Y-1.0433
X2.6378Y-2.815
T7
X3.7874Y-0.4008
X3.7874Y-0.5008
X3.7874Y-0.6008
X3.7874Y-0.7008
X3.7874Y-0.8008
X3.7874Y-0.9008
X1.8268Y-0.9213
X1.8268Y-1.0213
X1.4882Y-1.6772
X1.4882Y-1.7772
X3.0646Y-0.0886
X3.1646Y-0.0886
X3.2646Y-0.0886
X3.3646Y-0.0886
X3.4646Y-0.0886
X3.5646Y-0.0886
X0.1362Y-2.3646
X0.1362Y-2.4646
X0.1362Y-2.5646
X0.1362Y-2.6646
X0.1362Y-2.7646
X0.1362Y-2.8646
X0.1362Y-2.9646
X0.1362Y-3.0646
X0.1362Y-3.1646
X0.1362Y-3.2646
X0.1362Y-3.3646
X0.1362Y-3.4646
X0.2362Y-2.3646
X0.2362Y-2.4646
X0.2362Y-2.5646
X0.2362Y-2.6646
X0.2362Y-2.7646
X0.2362Y-2.8646
X0.2362Y-2.9646
X0.2362Y-3.0646
X0.2362Y-3.1646
X0.2362Y-3.2646
X0.2362Y-3.3646
X0.2362Y-3.4646
X3.5512Y-0.5047
X3.5512Y-0.6047
X3.5512Y-0.7047
X2.2969Y-0.0886
X2.3969Y-0.0886
X2.4969Y-0.0886
X2.5969Y-0.0886
X2.6969Y-0.0886
X1.4472Y-0.311
X1.5472Y-0.311
X1.6472Y-0.311
X1.7472Y-0.311
X0.8882Y-0.311
X0.9882Y-0.311
X1.0882Y-0.311
T8
X2.4606Y-0.7972
X2.9823Y-0.7972
T9
X0.2756Y-0.311
X0.2756Y-0.5472
X0.4606Y-0.4291
T0
M30
