G04 #@! TF.GenerationSoftware,KiCad,Pcbnew,5.0.2-bee76a0~70~ubuntu18.04.1*
G04 #@! TF.CreationDate,2019-12-02T21:21:03-05:00*
G04 #@! TF.ProjectId,synth-wavetable,73796e74-682d-4776-9176-657461626c65,rev?*
G04 #@! TF.SameCoordinates,Original*
G04 #@! TF.FileFunction,Copper,L2,Bot*
G04 #@! TF.FilePolarity,Positive*
%FSLAX46Y46*%
G04 Gerber Fmt 4.6, Leading zero omitted, Abs format (unit mm)*
G04 Created by KiCad (PCBNEW 5.0.2-bee76a0~70~ubuntu18.04.1) date Mon 02 Dec 2019 09:21:03 PM EST*
%MOMM*%
%LPD*%
G01*
G04 APERTURE LIST*
G04 #@! TA.AperFunction,ComponentPad*
%ADD10C,1.879600*%
G04 #@! TD*
G04 #@! TA.AperFunction,ComponentPad*
%ADD11C,4.318000*%
G04 #@! TD*
G04 #@! TA.AperFunction,ComponentPad*
%ADD12O,1.320800X2.641600*%
G04 #@! TD*
G04 #@! TA.AperFunction,ComponentPad*
%ADD13R,1.879600X1.879600*%
G04 #@! TD*
G04 #@! TA.AperFunction,ComponentPad*
%ADD14O,1.524000X3.048000*%
G04 #@! TD*
G04 #@! TA.AperFunction,ViaPad*
%ADD15C,0.800000*%
G04 #@! TD*
G04 #@! TA.AperFunction,ViaPad*
%ADD16C,0.400000*%
G04 #@! TD*
G04 #@! TA.AperFunction,ViaPad*
%ADD17C,0.500000*%
G04 #@! TD*
G04 #@! TA.AperFunction,ViaPad*
%ADD18C,2.000000*%
G04 #@! TD*
G04 #@! TA.AperFunction,ViaPad*
%ADD19C,0.750000*%
G04 #@! TD*
G04 #@! TA.AperFunction,ViaPad*
%ADD20C,1.000000*%
G04 #@! TD*
G04 #@! TA.AperFunction,ViaPad*
%ADD21C,3.000000*%
G04 #@! TD*
G04 #@! TA.AperFunction,Conductor*
%ADD22C,0.500000*%
G04 #@! TD*
G04 #@! TA.AperFunction,Conductor*
%ADD23C,0.200000*%
G04 #@! TD*
G04 #@! TA.AperFunction,Conductor*
%ADD24C,0.750000*%
G04 #@! TD*
G04 #@! TA.AperFunction,Conductor*
%ADD25C,0.400000*%
G04 #@! TD*
G04 #@! TA.AperFunction,Conductor*
%ADD26C,0.250000*%
G04 #@! TD*
G04 #@! TA.AperFunction,Conductor*
%ADD27C,2.000000*%
G04 #@! TD*
G04 #@! TA.AperFunction,Conductor*
%ADD28C,1.000000*%
G04 #@! TD*
G04 #@! TA.AperFunction,Conductor*
%ADD29C,0.254000*%
G04 #@! TD*
G04 APERTURE END LIST*
D10*
G04 #@! TO.P,J1,1*
G04 #@! TO.N,3.3V*
X58340000Y-2250000D03*
G04 #@! TO.P,J1,2*
G04 #@! TO.N,GNDD*
X60880000Y-2250000D03*
G04 #@! TO.P,J1,3*
G04 #@! TO.N,/Control/XRES*
X63420000Y-2250000D03*
G04 #@! TO.P,J1,4*
G04 #@! TO.N,/Control/SCLK*
X65960000Y-2250000D03*
G04 #@! TO.P,J1,5*
G04 #@! TO.N,/Control/SDAT*
X68500000Y-2250000D03*
G04 #@! TD*
G04 #@! TO.P,J3,2*
G04 #@! TO.N,Net-(J3-Pad2)*
X46400000Y-23400000D03*
G04 #@! TO.P,J3,1*
G04 #@! TO.N,Net-(D1-Pad1)*
X46400000Y-25940000D03*
G04 #@! TD*
G04 #@! TO.P,J4,1*
G04 #@! TO.N,Net-(J4-Pad1)*
X37800000Y-42600000D03*
G04 #@! TO.P,J4,2*
G04 #@! TO.N,Net-(J4-Pad2)*
X37800000Y-45140000D03*
G04 #@! TD*
G04 #@! TO.P,J5,1*
G04 #@! TO.N,/Audio Engine/VDD_TARGET*
X77840000Y-2250000D03*
G04 #@! TO.P,J5,2*
G04 #@! TO.N,/Audio Engine/SWCLK*
X80380000Y-2250000D03*
G04 #@! TO.P,J5,3*
G04 #@! TO.N,GNDD*
X82920000Y-2250000D03*
G04 #@! TO.P,J5,4*
G04 #@! TO.N,/Audio Engine/SWDIO*
X85460000Y-2250000D03*
G04 #@! TO.P,J5,5*
G04 #@! TO.N,/Audio Engine/NRST*
X88000000Y-2250000D03*
G04 #@! TO.P,J5,6*
G04 #@! TO.N,/Audio Engine/SWO*
X90540000Y-2250000D03*
G04 #@! TD*
D11*
G04 #@! TO.P,J7,GND*
G04 #@! TO.N,GND*
X7000000Y-7898740D03*
G04 #@! TO.P,J7,GNDBREAK*
G04 #@! TO.N,N/C*
X11699000Y-10898480D03*
G04 #@! TO.P,J7,PWR*
G04 #@! TO.N,Net-(D2-Pad2)*
X7000000Y-13898220D03*
G04 #@! TD*
D10*
G04 #@! TO.P,J8,1*
G04 #@! TO.N,3.3V*
X6000000Y-88000000D03*
G04 #@! TO.P,J8,2*
G04 #@! TO.N,GND*
X3460000Y-88000000D03*
G04 #@! TO.P,J8,3*
G04 #@! TO.N,/Connectors/osc1_tune*
X6000000Y-85460000D03*
G04 #@! TO.P,J8,4*
G04 #@! TO.N,/Connectors/sustain*
X3460000Y-85460000D03*
G04 #@! TO.P,J8,5*
G04 #@! TO.N,/Connectors/osc1_waveshape*
X6000000Y-82920000D03*
G04 #@! TO.P,J8,6*
G04 #@! TO.N,/Connectors/release*
X3460000Y-82920000D03*
G04 #@! TO.P,J8,7*
G04 #@! TO.N,/Connectors/osc2_tune*
X6000000Y-80380000D03*
G04 #@! TO.P,J8,8*
G04 #@! TO.N,/Connectors/lfo_rate*
X3460000Y-80380000D03*
G04 #@! TO.P,J8,9*
G04 #@! TO.N,/Connectors/osc2_waveshape*
X6000000Y-77840000D03*
G04 #@! TO.P,J8,10*
G04 #@! TO.N,/Connectors/lfo_depth*
X3460000Y-77840000D03*
G04 #@! TO.P,J8,11*
G04 #@! TO.N,/Connectors/attack*
X6000000Y-75300000D03*
G04 #@! TO.P,J8,12*
G04 #@! TO.N,/Connectors/global_lfo_rate*
X3460000Y-75300000D03*
G04 #@! TO.P,J8,13*
G04 #@! TO.N,/Connectors/decay*
X6000000Y-72760000D03*
G04 #@! TO.P,J8,14*
G04 #@! TO.N,/Connectors/global_lfo_depth*
X3460000Y-72760000D03*
G04 #@! TO.P,J8,15*
G04 #@! TO.N,/Connectors/filter_freq*
X6000000Y-70220000D03*
G04 #@! TO.P,J8,16*
G04 #@! TO.N,/Connectors/filter_resonance*
X3460000Y-70220000D03*
G04 #@! TO.P,J8,17*
G04 #@! TO.N,/Connectors/mod1*
X6000000Y-67680000D03*
G04 #@! TO.P,J8,18*
G04 #@! TO.N,/Connectors/mod2*
X3460000Y-67680000D03*
G04 #@! TO.P,J8,19*
G04 #@! TO.N,/Connectors/mod3*
X6000000Y-65140000D03*
G04 #@! TO.P,J8,20*
G04 #@! TO.N,/Connectors/mod4*
X3460000Y-65140000D03*
G04 #@! TO.P,J8,21*
G04 #@! TO.N,/Connectors/mod5*
X6000000Y-62600000D03*
G04 #@! TO.P,J8,22*
G04 #@! TO.N,/Connectors/mod6*
X3460000Y-62600000D03*
G04 #@! TO.P,J8,23*
G04 #@! TO.N,/Connectors/mod7*
X6000000Y-60060000D03*
G04 #@! TO.P,J8,24*
G04 #@! TO.N,/Connectors/mod8*
X3460000Y-60060000D03*
G04 #@! TD*
D12*
G04 #@! TO.P,U2,1*
G04 #@! TO.N,Net-(D1-Pad1)*
X33190000Y-31610000D03*
G04 #@! TO.P,U2,2*
G04 #@! TO.N,Net-(D1-Pad2)*
X35730000Y-31610000D03*
G04 #@! TO.P,U2,3*
G04 #@! TO.N,Net-(U2-Pad3)*
X38270000Y-31610000D03*
G04 #@! TO.P,U2,4*
G04 #@! TO.N,GNDD*
X40810000Y-31610000D03*
G04 #@! TO.P,U2,5*
G04 #@! TO.N,/Control/MIDI_IN*
X40810000Y-23990000D03*
G04 #@! TO.P,U2,6*
G04 #@! TO.N,+5V*
X38270000Y-23990000D03*
G04 #@! TO.P,U2,7*
G04 #@! TO.N,N/C*
X35730000Y-23990000D03*
G04 #@! TO.P,U2,8*
X33190000Y-23990000D03*
G04 #@! TD*
D10*
G04 #@! TO.P,J6,1*
G04 #@! TO.N,Net-(C49-Pad2)*
X90200000Y-17900000D03*
G04 #@! TO.P,J6,2*
G04 #@! TO.N,Net-(J6-Pad2)*
X90200000Y-15360000D03*
G04 #@! TO.P,J6,3*
G04 #@! TO.N,GND*
X90200000Y-12820000D03*
G04 #@! TD*
G04 #@! TO.P,J9,1*
G04 #@! TO.N,Net-(J6-Pad2)*
X96200000Y-10180000D03*
G04 #@! TO.P,J9,2*
G04 #@! TO.N,GND*
X96200000Y-12720000D03*
G04 #@! TO.P,J9,3*
G04 #@! TO.N,Net-(J6-Pad2)*
X96200000Y-15260000D03*
G04 #@! TO.P,J9,4*
G04 #@! TO.N,GND*
X96200000Y-17800000D03*
G04 #@! TO.P,J9,5*
X96200000Y-20340000D03*
G04 #@! TO.P,J9,6*
X96200000Y-22880000D03*
G04 #@! TD*
D13*
G04 #@! TO.P,J2,1*
G04 #@! TO.N,Net-(J2-Pad1)*
X36760000Y-7900000D03*
D10*
G04 #@! TO.P,J2,2*
G04 #@! TO.N,Net-(J2-Pad2)*
X39300000Y-7900000D03*
G04 #@! TO.P,J2,3*
G04 #@! TO.N,VBUS*
X41840000Y-7900000D03*
G04 #@! TO.P,J2,4*
G04 #@! TO.N,GNDD*
X44380000Y-7900000D03*
G04 #@! TD*
D14*
G04 #@! TO.P,U6,1*
G04 #@! TO.N,+15V*
X22560000Y-7900000D03*
G04 #@! TO.P,U6,2*
G04 #@! TO.N,GND*
X25100000Y-7900000D03*
G04 #@! TO.P,U6,3*
G04 #@! TO.N,+5V*
X27640000Y-7900000D03*
G04 #@! TD*
D15*
G04 #@! TO.N,GNDD*
X25500000Y-47000000D03*
D16*
X20500000Y-80849720D03*
D17*
X27000000Y-76750000D03*
X20250000Y-77500000D03*
X25750000Y-83750000D03*
X18750000Y-87250000D03*
X24750000Y-87500000D03*
D18*
X7750000Y-26500000D03*
D15*
X14200000Y-79200000D03*
D16*
X13876741Y-35674990D03*
X16474990Y-61750000D03*
D19*
X15800000Y-47400000D03*
D16*
X43000000Y-10800000D03*
X22200000Y-31400000D03*
D20*
X20140693Y-72390693D03*
D15*
X24500000Y-66000000D03*
X34500000Y-62750000D03*
X36250000Y-71000000D03*
X36250000Y-66000000D03*
X45250000Y-33250000D03*
X45250000Y-54500000D03*
X45500000Y-74250000D03*
X46000000Y-71000000D03*
X38600000Y-35000000D03*
X11400000Y-79200000D03*
D19*
X15187652Y-42394708D03*
D15*
X20219428Y-43846526D03*
D19*
X18252235Y-40557801D03*
D17*
G04 #@! TO.N,+5V*
X51248920Y-78250000D03*
X53500000Y-78250000D03*
X53750000Y-76250000D03*
D18*
X56500000Y-26500000D03*
X56000000Y-43750000D03*
X67000000Y-71500000D03*
D20*
X67000000Y-66750000D03*
X38200000Y-20100840D03*
D16*
X56500000Y-30400000D03*
D20*
G04 #@! TO.N,GND*
X52750000Y-77000000D03*
D16*
X6000000Y-90000000D03*
X28200000Y-86200000D03*
X29800000Y-9400000D03*
X65800000Y-51600000D03*
X65800000Y-56200000D03*
X54800000Y-45000000D03*
X54400000Y-39400000D03*
X56800000Y-47000000D03*
X90600000Y-55600000D03*
X92200000Y-58000000D03*
X68779290Y-54620710D03*
X71800000Y-58000000D03*
X74600000Y-78200000D03*
X21800000Y-92200000D03*
X93600000Y-38400000D03*
X93800000Y-33000000D03*
X96600000Y-29600000D03*
D15*
X52250000Y-37500000D03*
X47000000Y-52500000D03*
X43250000Y-52500000D03*
X38750000Y-56250000D03*
X31000000Y-55250000D03*
X80000000Y-37500000D03*
X78500000Y-39000000D03*
X55750000Y-8250000D03*
X71750000Y-8250000D03*
X59500000Y-8250000D03*
X62250000Y-8250000D03*
X64750000Y-8250000D03*
X67250000Y-8250000D03*
D17*
G04 #@! TO.N,Net-(C24-Pad1)*
X20750000Y-88000000D03*
X21736084Y-80513916D03*
G04 #@! TO.N,Net-(C25-Pad1)*
X22500000Y-88000000D03*
X22500000Y-80500000D03*
D15*
G04 #@! TO.N,3.3V*
X22750000Y-44500000D03*
X27000000Y-40250000D03*
D16*
X20250000Y-45750000D03*
D20*
X24000000Y-69250000D03*
D17*
X24000000Y-72700000D03*
X22797940Y-29000000D03*
X24000000Y-83750000D03*
X23500000Y-76750000D03*
D18*
X28750000Y-34952060D03*
D17*
X34000000Y-57750000D03*
X34250000Y-79500000D03*
D16*
X12157861Y-50584616D03*
D20*
X48950310Y-75493172D03*
D17*
X19975010Y-67320148D03*
G04 #@! TO.N,+3.3VA*
X51750000Y-58250000D03*
X30750000Y-86250000D03*
G04 #@! TO.N,VREF*
X70509640Y-33635000D03*
X72500000Y-91250000D03*
X72500000Y-96750000D03*
X92000000Y-52000000D03*
X83250000Y-65250000D03*
X92750000Y-65250000D03*
G04 #@! TO.N,Net-(C48-Pad2)*
X87500000Y-55750000D03*
X72655524Y-36926291D03*
D20*
G04 #@! TO.N,Net-(C48-Pad1)*
X62338361Y-32965493D03*
X62683371Y-29683371D03*
D15*
G04 #@! TO.N,Net-(C49-Pad2)*
X83800000Y-29400000D03*
D21*
G04 #@! TO.N,+15V*
X62500000Y-20250000D03*
X75750000Y-20250000D03*
D19*
X97500000Y-42600000D03*
D16*
X66200000Y-32400000D03*
X76400000Y-33400000D03*
X78600000Y-25400000D03*
D17*
X54750000Y-31075021D03*
G04 #@! TO.N,Net-(C79-Pad2)*
X73500000Y-70750000D03*
X73500000Y-68000000D03*
D16*
G04 #@! TO.N,/Control/XRES*
X11892351Y-47892351D03*
G04 #@! TO.N,/Control/SCLK*
X24250000Y-38000000D03*
G04 #@! TO.N,/Control/SDAT*
X25250000Y-38000000D03*
D20*
G04 #@! TO.N,Net-(D1-Pad1)*
X33600000Y-27800000D03*
D15*
G04 #@! TO.N,/Audio Engine/SWCLK*
X46600000Y-33400000D03*
X46400000Y-35800000D03*
X31400000Y-63600000D03*
X17800000Y-68800000D03*
D20*
G04 #@! TO.N,/Audio Engine/SWDIO*
X39241624Y-49791634D03*
D15*
X33000000Y-50750000D03*
D17*
G04 #@! TO.N,/Audio Engine/NRST*
X25000000Y-74000000D03*
X18500000Y-71000000D03*
D20*
X36000000Y-61500000D03*
X38250000Y-59250000D03*
D15*
G04 #@! TO.N,/Audio Engine/SWO*
X61400000Y-29800000D03*
X61000000Y-32800000D03*
X33800000Y-61400000D03*
X17800000Y-69800000D03*
D20*
G04 #@! TO.N,Net-(D1-Pad2)*
X36800000Y-28410831D03*
G04 #@! TO.N,/Control/MIDI_IN*
X28800000Y-28200000D03*
X17800000Y-33600000D03*
D16*
X21200000Y-42800000D03*
X18200000Y-44800000D03*
G04 #@! TO.N,/Control/MIDI_OUT*
X25400000Y-40600000D03*
X40424140Y-39901998D03*
G04 #@! TO.N,Net-(R36-Pad1)*
X32827811Y-71620689D03*
D19*
G04 #@! TO.N,Net-(R43-Pad1)*
X72200000Y-39400000D03*
X75600000Y-37400000D03*
G04 #@! TO.N,Net-(R46-Pad2)*
X81800000Y-44800000D03*
X84200000Y-45600000D03*
X73882702Y-42760333D03*
X71374990Y-40394624D03*
D17*
G04 #@! TO.N,/Audio Engine/I2C_SCL*
X36250000Y-83500000D03*
D16*
X25200000Y-71200000D03*
X19699990Y-69973639D03*
X27499990Y-73200000D03*
D17*
G04 #@! TO.N,/Audio Engine/I2C_SDA*
X37500000Y-83250000D03*
D16*
X20200000Y-69400000D03*
X25200000Y-70600000D03*
X27000000Y-72000000D03*
G04 #@! TO.N,/Audio Engine/PDN*
X33500000Y-68250000D03*
X31500000Y-68250000D03*
G04 #@! TO.N,/Audio Engine/CSN*
X30750000Y-78500000D03*
X28250000Y-70500000D03*
G04 #@! TO.N,/Audio Engine/DIF0*
X43000000Y-76500000D03*
X32500000Y-70500000D03*
X31500000Y-69500000D03*
X43000000Y-79598259D03*
G04 #@! TO.N,/Audio Engine/DIF1*
X35750000Y-72000000D03*
X42250000Y-77000000D03*
X42250000Y-79750000D03*
X31311412Y-70104291D03*
G04 #@! TO.N,/Audio Engine/DIF2*
X41500000Y-79750000D03*
X41500000Y-77000000D03*
X35750000Y-73000000D03*
X31250000Y-70750000D03*
G04 #@! TO.N,/Audio Engine/CAD1*
X41750000Y-82500000D03*
X40500000Y-77000000D03*
X35750000Y-74000000D03*
X28750000Y-70000000D03*
G04 #@! TO.N,/Audio Engine/I2S_WCLK*
X44500000Y-76750000D03*
X45395992Y-77646887D03*
D17*
G04 #@! TO.N,/Audio Engine/I2S_LRCLK*
X33000000Y-58250000D03*
X35381594Y-60631594D03*
G04 #@! TO.N,/Audio Engine/MCLK*
X49250000Y-72000000D03*
X23250000Y-61250000D03*
D16*
G04 #@! TO.N,/Connectors/osc1_tune*
X8600000Y-85400000D03*
X29600000Y-45000000D03*
G04 #@! TO.N,/Connectors/sustain*
X22800000Y-41200000D03*
G04 #@! TO.N,/Connectors/osc1_waveshape*
X8400000Y-83000000D03*
X27400000Y-45200000D03*
G04 #@! TO.N,/Connectors/osc2_tune*
X8400000Y-80400000D03*
X27000000Y-46000000D03*
G04 #@! TO.N,/Connectors/attack*
X8400000Y-74400000D03*
X24600000Y-49400000D03*
G04 #@! TO.N,/Connectors/decay*
X23800000Y-41000000D03*
X8549979Y-72800000D03*
G04 #@! TO.N,/Connectors/release*
X21000000Y-41000000D03*
G04 #@! TO.N,/Connectors/lfo_rate*
X20600000Y-37400000D03*
G04 #@! TO.N,/Connectors/lfo_depth*
X19289531Y-36832009D03*
G04 #@! TO.N,/Connectors/global_lfo_rate*
X18985679Y-37349395D03*
G04 #@! TO.N,/Connectors/global_lfo_depth*
X18900010Y-38000000D03*
D19*
G04 #@! TO.N,/Connectors/filter_freq*
X40400000Y-53800000D03*
X13000000Y-64000000D03*
X18249979Y-67690303D03*
X9098062Y-70322695D03*
G04 #@! TO.N,/Connectors/filter_resonance*
X4800000Y-89400000D03*
X4800000Y-92800000D03*
X79800000Y-94600000D03*
X89600000Y-46200000D03*
D15*
G04 #@! TO.N,VBUS*
X41500000Y-13000000D03*
D16*
X15900000Y-42700000D03*
X21500000Y-37200000D03*
X23900000Y-31600000D03*
X27400000Y-27800000D03*
X28000000Y-25100000D03*
D19*
G04 #@! TO.N,Net-(J2-Pad1)*
X12600000Y-35600000D03*
D15*
X35200000Y-16100000D03*
D19*
G04 #@! TO.N,Net-(J2-Pad2)*
X11750284Y-35175142D03*
D15*
X38900000Y-12800000D03*
G04 #@! TD*
D22*
G04 #@! TO.N,GNDD*
X38071882Y-10800000D02*
X35671882Y-13200000D01*
X43000000Y-10800000D02*
X38071882Y-10800000D01*
X21050000Y-13200000D02*
X7750000Y-26500000D01*
X35671882Y-13200000D02*
X21050000Y-13200000D01*
X22200000Y-31400000D02*
X22600000Y-31400000D01*
X22600000Y-31400000D02*
X27400000Y-26600000D01*
X40810000Y-30949600D02*
X40810000Y-31610000D01*
X36460400Y-26600000D02*
X40810000Y-30949600D01*
X27400000Y-26600000D02*
X36460400Y-26600000D01*
D23*
X20500000Y-73000000D02*
X20540692Y-72959308D01*
X27000000Y-76750000D02*
X24500000Y-76750000D01*
D24*
X14200000Y-79200000D02*
X14200000Y-78131386D01*
X14200000Y-78131386D02*
X19540694Y-72790692D01*
D25*
X18750000Y-73581386D02*
X19540694Y-72790692D01*
X18750000Y-87250000D02*
X18750000Y-73581386D01*
D23*
X25750000Y-78000000D02*
X20540692Y-72790692D01*
X24500000Y-76750000D02*
X20540692Y-72790692D01*
X20540692Y-72959308D02*
X20540692Y-72790692D01*
X25750000Y-83750000D02*
X25750000Y-78000000D01*
D25*
X24750000Y-77000000D02*
X20540692Y-72790692D01*
D23*
X20250000Y-72500000D02*
X20140693Y-72390693D01*
X20250000Y-77500000D02*
X20250000Y-72500000D01*
D25*
X19940693Y-72390693D02*
X20140693Y-72390693D01*
X20540692Y-72790692D02*
X20140693Y-72390693D01*
X24750000Y-87500000D02*
X24750000Y-77000000D01*
X19540694Y-72790692D02*
X19940693Y-72390693D01*
D26*
X81980201Y-1310201D02*
X82920000Y-2250000D01*
X81170000Y-500000D02*
X81980201Y-1310201D01*
X62630000Y-500000D02*
X81170000Y-500000D01*
X60880000Y-2250000D02*
X62630000Y-500000D01*
X24500000Y-66000000D02*
X30000000Y-66000000D01*
X31250000Y-66000000D02*
X34500000Y-62750000D01*
X30000000Y-66000000D02*
X31250000Y-66000000D01*
X36250000Y-71000000D02*
X36250000Y-66000000D01*
D24*
X45250000Y-33250000D02*
X45250000Y-50000000D01*
X45250000Y-50000000D02*
X45250000Y-54500000D01*
D23*
X46000000Y-73750000D02*
X46000000Y-71000000D01*
X45500000Y-74250000D02*
X46000000Y-73750000D01*
X19876046Y-35674990D02*
X14159583Y-35674990D01*
X14159583Y-35674990D02*
X13876741Y-35674990D01*
X20651055Y-36449999D02*
X19876046Y-35674990D01*
X60880000Y-14886898D02*
X39316899Y-36449999D01*
X39316899Y-36449999D02*
X20651055Y-36449999D01*
X60880000Y-2250000D02*
X60880000Y-14886898D01*
D22*
X38600000Y-33820000D02*
X40810000Y-31610000D01*
X38600000Y-35000000D02*
X38600000Y-33820000D01*
D23*
X11400000Y-79200000D02*
X14200000Y-79200000D01*
D24*
X20619427Y-44246525D02*
X20219428Y-43846526D01*
D25*
X16665954Y-47400000D02*
X19819429Y-44246525D01*
D24*
X23372902Y-47000000D02*
X20619427Y-44246525D01*
X25500000Y-47000000D02*
X23372902Y-47000000D01*
D25*
X19819429Y-44246525D02*
X20219428Y-43846526D01*
X15187652Y-42394708D02*
X17024559Y-40557801D01*
X17721905Y-40557801D02*
X18252235Y-40557801D01*
X15800000Y-47400000D02*
X16665954Y-47400000D01*
X17024559Y-40557801D02*
X17721905Y-40557801D01*
D23*
G04 #@! TO.N,+5V*
X51248920Y-78250000D02*
X53500000Y-78250000D01*
X53500000Y-78250000D02*
X53750000Y-78000000D01*
X53750000Y-78000000D02*
X53750000Y-76250000D01*
D27*
X56500000Y-43250000D02*
X56000000Y-43750000D01*
D24*
X67000000Y-71500000D02*
X67000000Y-66750000D01*
X67000000Y-71500000D02*
X56000000Y-71500000D01*
X51248920Y-76251080D02*
X51248920Y-78250000D01*
X56000000Y-71500000D02*
X51248920Y-76251080D01*
D27*
X56500000Y-26500000D02*
X56500000Y-30400000D01*
X56500000Y-30400000D02*
X56500000Y-43250000D01*
D26*
G04 #@! TO.N,GND*
X6000000Y-90000000D02*
X24400000Y-90000000D01*
X24400000Y-90000000D02*
X28200000Y-86200000D01*
D22*
X54800000Y-45000000D02*
X54400000Y-44600000D01*
X54400000Y-44600000D02*
X54400000Y-39400000D01*
X68779290Y-54979290D02*
X71800000Y-58000000D01*
X68779290Y-54620710D02*
X68779290Y-54979290D01*
D23*
X93800000Y-33000000D02*
X96600000Y-30200000D01*
X96600000Y-30200000D02*
X96600000Y-29600000D01*
D24*
X52250000Y-37500000D02*
X52250000Y-47250000D01*
X52250000Y-47250000D02*
X47000000Y-52500000D01*
X38750000Y-56250000D02*
X37000000Y-56250000D01*
X37000000Y-56250000D02*
X36000000Y-55250000D01*
X36000000Y-55250000D02*
X31000000Y-55250000D01*
D28*
X7000000Y-7898740D02*
X9648740Y-5250000D01*
X52750000Y-5250000D02*
X55750000Y-8250000D01*
X9648740Y-5250000D02*
X52750000Y-5250000D01*
D25*
G04 #@! TO.N,Net-(C24-Pad1)*
X20750000Y-81500000D02*
X21486085Y-80763915D01*
X21486085Y-80763915D02*
X21736084Y-80513916D01*
X20750000Y-88000000D02*
X20750000Y-81500000D01*
G04 #@! TO.N,Net-(C25-Pad1)*
X22500000Y-80500000D02*
X22500000Y-88000000D01*
D23*
G04 #@! TO.N,3.3V*
X24000000Y-83750000D02*
X23500000Y-83250000D01*
X23500000Y-83250000D02*
X23500000Y-76750000D01*
X12440703Y-50584616D02*
X12157861Y-50584616D01*
X15415384Y-50584616D02*
X12440703Y-50584616D01*
X20250000Y-45750000D02*
X15415384Y-50584616D01*
D25*
X34000000Y-57750000D02*
X48950310Y-72700310D01*
D23*
X48243204Y-75493172D02*
X48950310Y-75493172D01*
D25*
X48950310Y-74786066D02*
X48950310Y-75493172D01*
D23*
X34250000Y-79500000D02*
X38256828Y-75493172D01*
D25*
X48950310Y-72700310D02*
X48950310Y-74786066D01*
D23*
X38256828Y-75493172D02*
X48243204Y-75493172D01*
X24000000Y-69250000D02*
X22070148Y-67320148D01*
X22070148Y-67320148D02*
X20328563Y-67320148D01*
X20328563Y-67320148D02*
X19975010Y-67320148D01*
X58340000Y-16861198D02*
X39201198Y-36000000D01*
X58340000Y-2250000D02*
X58340000Y-16861198D01*
X39201198Y-36000000D02*
X29797940Y-36000000D01*
X29749999Y-35952059D02*
X28750000Y-34952060D01*
X29797940Y-36000000D02*
X29749999Y-35952059D01*
D24*
G04 #@! TO.N,+3.3VA*
X50298909Y-76451091D02*
X40500000Y-86250000D01*
X31103553Y-86250000D02*
X30750000Y-86250000D01*
X51750000Y-58250000D02*
X50298909Y-59701091D01*
X40500000Y-86250000D02*
X31103553Y-86250000D01*
X50298909Y-59701091D02*
X50298909Y-76451091D01*
D25*
G04 #@! TO.N,VREF*
X72500000Y-91250000D02*
X72500000Y-96750000D01*
X92000000Y-56500000D02*
X92000000Y-52000000D01*
X83250000Y-65250000D02*
X92000000Y-56500000D01*
X92750000Y-65250000D02*
X93250000Y-64750000D01*
X92249999Y-52249999D02*
X92000000Y-52000000D01*
X93250000Y-53250000D02*
X92249999Y-52249999D01*
X93250000Y-64750000D02*
X93250000Y-53250000D01*
X92000000Y-50812848D02*
X74822152Y-33635000D01*
X92000000Y-52000000D02*
X92000000Y-50812848D01*
X74822152Y-33635000D02*
X70863193Y-33635000D01*
X70863193Y-33635000D02*
X70509640Y-33635000D01*
X70024998Y-34119642D02*
X70259641Y-33884999D01*
X70259641Y-33884999D02*
X70509640Y-33635000D01*
X72500000Y-57780746D02*
X70024998Y-55305744D01*
X72500000Y-91250000D02*
X72500000Y-57780746D01*
X70024998Y-55305744D02*
X70024998Y-34119642D01*
G04 #@! TO.N,Net-(C48-Pad2)*
X87500000Y-55750000D02*
X87500000Y-51927806D01*
X72905523Y-37333329D02*
X72905523Y-37176290D01*
X87500000Y-51927806D02*
X72905523Y-37333329D01*
X72905523Y-37176290D02*
X72655524Y-36926291D01*
D22*
G04 #@! TO.N,Net-(C48-Pad1)*
X62338361Y-32965493D02*
X62338361Y-30028381D01*
X62338361Y-30028381D02*
X62683371Y-29683371D01*
D24*
G04 #@! TO.N,Net-(C49-Pad2)*
X90200000Y-23000000D02*
X90200000Y-17900000D01*
X83800000Y-29400000D02*
X90200000Y-23000000D01*
D27*
G04 #@! TO.N,+15V*
X62500000Y-20250000D02*
X75750000Y-20250000D01*
D22*
X66200000Y-23950000D02*
X62500000Y-20250000D01*
X66200000Y-32400000D02*
X66200000Y-23950000D01*
X76400000Y-33400000D02*
X78600000Y-31200000D01*
X78600000Y-31200000D02*
X78600000Y-25400000D01*
X62500000Y-20250000D02*
X60378680Y-20250000D01*
X54750000Y-25878680D02*
X54750000Y-30721468D01*
X54750000Y-30721468D02*
X54750000Y-31075021D01*
X60378680Y-20250000D02*
X54750000Y-25878680D01*
D23*
G04 #@! TO.N,Net-(C79-Pad2)*
X73500000Y-70750000D02*
X73500000Y-68000000D01*
G04 #@! TO.N,/Control/XRES*
X23601056Y-37000000D02*
X18876045Y-41725011D01*
X12092350Y-47692352D02*
X11892351Y-47892351D01*
X63420000Y-12912598D02*
X39332598Y-37000000D01*
X63420000Y-2250000D02*
X63420000Y-12912598D01*
X39332598Y-37000000D02*
X23601056Y-37000000D01*
X18876045Y-41725011D02*
X18059691Y-41725011D01*
X18059691Y-41725011D02*
X12092350Y-47692352D01*
G04 #@! TO.N,/Control/SCLK*
X39448320Y-37449978D02*
X44748310Y-32149988D01*
X24800022Y-37449978D02*
X39448320Y-37449978D01*
X44748310Y-32149988D02*
X45425718Y-32149988D01*
X45425718Y-32149988D02*
X65960000Y-11615706D01*
X24250000Y-38000000D02*
X24800022Y-37449978D01*
X65960000Y-3579077D02*
X65960000Y-2250000D01*
X65960000Y-11615706D02*
X65960000Y-3579077D01*
G04 #@! TO.N,/Control/SDAT*
X44913999Y-32549999D02*
X45591407Y-32549999D01*
X39463998Y-38000000D02*
X44913999Y-32549999D01*
X68500000Y-3579077D02*
X68500000Y-2250000D01*
X68500000Y-9641406D02*
X68500000Y-3579077D01*
X25250000Y-38000000D02*
X39463998Y-38000000D01*
X45591407Y-32549999D02*
X68500000Y-9641406D01*
D28*
G04 #@! TO.N,Net-(D1-Pad1)*
X33190000Y-31610000D02*
X33190000Y-28210000D01*
X33190000Y-28210000D02*
X33600000Y-27800000D01*
D26*
G04 #@! TO.N,/Audio Engine/SWCLK*
X46600000Y-33400000D02*
X46600000Y-35600000D01*
X46600000Y-35600000D02*
X46400000Y-35800000D01*
X18365685Y-68800000D02*
X17800000Y-68800000D01*
X18949989Y-68215696D02*
X18365685Y-68800000D01*
X21963589Y-63600000D02*
X18949989Y-66613600D01*
X18949989Y-66613600D02*
X18949989Y-68215696D01*
X31400000Y-63600000D02*
X21963589Y-63600000D01*
G04 #@! TO.N,/Audio Engine/SWDIO*
X38283258Y-50750000D02*
X39241624Y-49791634D01*
X33000000Y-50750000D02*
X38283258Y-50750000D01*
D23*
G04 #@! TO.N,/Audio Engine/NRST*
X21250000Y-71000000D02*
X18500000Y-71000000D01*
X25000000Y-74000000D02*
X24250000Y-74000000D01*
X24250000Y-74000000D02*
X21250000Y-71000000D01*
D25*
X38250000Y-59250000D02*
X42479914Y-59250000D01*
X42479914Y-59250000D02*
X88000000Y-13729914D01*
X88000000Y-3579077D02*
X88000000Y-2250000D01*
X88000000Y-13729914D02*
X88000000Y-3579077D01*
X30974989Y-66525011D02*
X31908993Y-66525011D01*
X31908993Y-66525011D02*
X36000000Y-62434004D01*
X25000000Y-72500000D02*
X30974989Y-66525011D01*
X36000000Y-62207106D02*
X36000000Y-61500000D01*
X36000000Y-62434004D02*
X36000000Y-62207106D01*
X25000000Y-74000000D02*
X25000000Y-72500000D01*
D26*
G04 #@! TO.N,/Audio Engine/SWO*
X61400000Y-29800000D02*
X61000000Y-30200000D01*
X61000000Y-30200000D02*
X61000000Y-32800000D01*
X31600000Y-64600000D02*
X21600000Y-64600000D01*
X19400000Y-66800000D02*
X19400000Y-68765685D01*
X33400001Y-62799999D02*
X31600000Y-64600000D01*
X18365685Y-69800000D02*
X17800000Y-69800000D01*
X33800000Y-61400000D02*
X33400001Y-61799999D01*
X19400000Y-68765685D02*
X18365685Y-69800000D01*
X33400001Y-61799999D02*
X33400001Y-62799999D01*
X21600000Y-64600000D02*
X19400000Y-66800000D01*
D28*
G04 #@! TO.N,Net-(D1-Pad2)*
X35730000Y-29289200D02*
X36608369Y-28410831D01*
X36608369Y-28410831D02*
X36800000Y-28410831D01*
X35730000Y-31610000D02*
X35730000Y-29289200D01*
G04 #@! TO.N,/Control/MIDI_IN*
X28300001Y-28699999D02*
X28100001Y-28699999D01*
X28800000Y-28200000D02*
X28300001Y-28699999D01*
X28100001Y-28699999D02*
X24000000Y-32800000D01*
X24000000Y-32800000D02*
X18600000Y-32800000D01*
X18600000Y-32800000D02*
X17800000Y-33600000D01*
D23*
X18399999Y-44600001D02*
X18200000Y-44800000D01*
X20275990Y-42800000D02*
X18475989Y-44600001D01*
X21200000Y-42800000D02*
X20275990Y-42800000D01*
X18475989Y-44600001D02*
X18399999Y-44600001D01*
G04 #@! TO.N,/Control/MIDI_OUT*
X26000000Y-41200000D02*
X39126138Y-41200000D01*
X25400000Y-40600000D02*
X26000000Y-41200000D01*
X39126138Y-41200000D02*
X40224141Y-40101997D01*
X40224141Y-40101997D02*
X40424140Y-39901998D01*
D22*
G04 #@! TO.N,Net-(R43-Pad1)*
X72200000Y-38869670D02*
X71400000Y-38069670D01*
X72200000Y-39400000D02*
X72200000Y-38869670D01*
X71400000Y-38069670D02*
X71400000Y-36800000D01*
X72000000Y-36200000D02*
X74400000Y-36200000D01*
X74400000Y-36200000D02*
X75600000Y-37400000D01*
X71400000Y-36800000D02*
X72000000Y-36200000D01*
G04 #@! TO.N,Net-(R46-Pad2)*
X83400000Y-44800000D02*
X84200000Y-45600000D01*
X81800000Y-44800000D02*
X83400000Y-44800000D01*
X71516993Y-40394624D02*
X71374990Y-40394624D01*
X73882702Y-42760333D02*
X71516993Y-40394624D01*
D23*
G04 #@! TO.N,/Audio Engine/I2C_SCL*
X19982832Y-69973639D02*
X19699990Y-69973639D01*
X25200000Y-71200000D02*
X22800000Y-71200000D01*
X21573639Y-69973639D02*
X19982832Y-69973639D01*
X22800000Y-71200000D02*
X21573639Y-69973639D01*
X36250000Y-83500000D02*
X32100000Y-83500000D01*
X32100000Y-83500000D02*
X27599989Y-78999989D01*
X27599989Y-78999989D02*
X27599989Y-73582841D01*
X27499990Y-73482842D02*
X27499990Y-73200000D01*
X27599989Y-73582841D02*
X27499990Y-73482842D01*
G04 #@! TO.N,/Audio Engine/I2C_SDA*
X20200000Y-69400000D02*
X21800000Y-69400000D01*
X21800000Y-69400000D02*
X23000000Y-70600000D01*
X23000000Y-70600000D02*
X25200000Y-70600000D01*
X27000000Y-72000000D02*
X27199999Y-72199999D01*
X27199999Y-72199999D02*
X27599999Y-72199999D01*
X27599999Y-72199999D02*
X28000000Y-72600000D01*
X28000000Y-72600000D02*
X28000000Y-78000000D01*
X28000000Y-78000000D02*
X32600000Y-82600000D01*
X36850000Y-82600000D02*
X37500000Y-83250000D01*
X32600000Y-82600000D02*
X36850000Y-82600000D01*
G04 #@! TO.N,/Audio Engine/PDN*
X33500000Y-68250000D02*
X31500000Y-68250000D01*
G04 #@! TO.N,/Audio Engine/CSN*
X28600009Y-70850009D02*
X28449999Y-70699999D01*
X28449999Y-70699999D02*
X28250000Y-70500000D01*
X28600009Y-76350009D02*
X28600009Y-70850009D01*
X30750000Y-78500000D02*
X28600009Y-76350009D01*
G04 #@! TO.N,/Audio Engine/DIF0*
X32500000Y-70500000D02*
X31500000Y-69500000D01*
X43000000Y-76500000D02*
X43000000Y-79598259D01*
G04 #@! TO.N,/Audio Engine/DIF1*
X42250000Y-77000000D02*
X42250000Y-79750000D01*
X32207121Y-71000000D02*
X31511411Y-70304290D01*
X31511411Y-70304290D02*
X31311412Y-70104291D01*
X35750000Y-72000000D02*
X34750000Y-71000000D01*
X34750000Y-71000000D02*
X32207121Y-71000000D01*
G04 #@! TO.N,/Audio Engine/DIF2*
X41500000Y-79750000D02*
X41500000Y-77000000D01*
X33500000Y-73000000D02*
X31250000Y-70750000D01*
X35750000Y-73000000D02*
X33500000Y-73000000D01*
G04 #@! TO.N,/Audio Engine/CAD1*
X41750000Y-82500000D02*
X40500000Y-81250000D01*
X40500000Y-81250000D02*
X40500000Y-77000000D01*
X35750000Y-74000000D02*
X32750000Y-74000000D01*
X32750000Y-74000000D02*
X28750000Y-70000000D01*
G04 #@! TO.N,/Audio Engine/I2S_WCLK*
X45395992Y-77645992D02*
X45395992Y-77646887D01*
X44500000Y-76750000D02*
X45395992Y-77645992D01*
G04 #@! TO.N,/Audio Engine/I2S_LRCLK*
X33000000Y-58250000D02*
X35381594Y-60631594D01*
G04 #@! TO.N,/Audio Engine/MCLK*
X49250000Y-72000000D02*
X34000000Y-56750000D01*
X34000000Y-56750000D02*
X31750000Y-56750000D01*
X31750000Y-56750000D02*
X27750000Y-56750000D01*
X27750000Y-56750000D02*
X23250000Y-61250000D01*
D26*
G04 #@! TO.N,/Connectors/osc1_tune*
X8600000Y-85400000D02*
X10400000Y-83600000D01*
X10400000Y-83600000D02*
X10400000Y-77800000D01*
X10400000Y-77800000D02*
X17000000Y-71200000D01*
X17000000Y-71200000D02*
X17000000Y-55000000D01*
X17000000Y-55000000D02*
X20000000Y-52000000D01*
X20000000Y-52000000D02*
X25400000Y-52000000D01*
X25400000Y-52000000D02*
X29800000Y-47600000D01*
X29800000Y-47600000D02*
X29800000Y-45200000D01*
X29800000Y-45200000D02*
X29600000Y-45000000D01*
G04 #@! TO.N,/Connectors/sustain*
X7264801Y-80935199D02*
X6544801Y-81655199D01*
X19138491Y-42700033D02*
X18499967Y-42700033D01*
X4735199Y-84184801D02*
X4399799Y-84520201D01*
X18499967Y-42700033D02*
X7264801Y-53935199D01*
X22800000Y-41200000D02*
X22200000Y-41800000D01*
X6544801Y-81655199D02*
X5392895Y-81655199D01*
X7264801Y-53935199D02*
X7264801Y-80935199D01*
X5392895Y-81655199D02*
X4735199Y-82312895D01*
X20038524Y-41800000D02*
X19138491Y-42700033D01*
X22200000Y-41800000D02*
X20038524Y-41800000D01*
X4399799Y-84520201D02*
X3460000Y-85460000D01*
X4735199Y-82312895D02*
X4735199Y-84184801D01*
G04 #@! TO.N,/Connectors/osc1_waveshape*
X8400000Y-83000000D02*
X9400000Y-82000000D01*
X9400000Y-82000000D02*
X9400000Y-78000000D01*
X9400000Y-78000000D02*
X15800000Y-71600000D01*
X15800000Y-71600000D02*
X15800000Y-55000000D01*
X15800000Y-55000000D02*
X19800000Y-51000000D01*
X19800000Y-51000000D02*
X25000000Y-51000000D01*
X25000000Y-51000000D02*
X27600000Y-48400000D01*
X27600000Y-45400000D02*
X27400000Y-45200000D01*
X27600000Y-48400000D02*
X27600000Y-45400000D01*
G04 #@! TO.N,/Connectors/osc2_tune*
X27000000Y-46282842D02*
X27000000Y-46000000D01*
X8400000Y-80400000D02*
X8400000Y-78363590D01*
X19000000Y-50400000D02*
X24800000Y-50400000D01*
X27000000Y-48200000D02*
X27000000Y-46282842D01*
X15000000Y-71763590D02*
X15000000Y-54400000D01*
X8400000Y-78363590D02*
X15000000Y-71763590D01*
X15000000Y-54400000D02*
X19000000Y-50400000D01*
X24800000Y-50400000D02*
X27000000Y-48200000D01*
G04 #@! TO.N,/Connectors/attack*
X8400000Y-74400000D02*
X14200000Y-68600000D01*
X14200000Y-68600000D02*
X14200000Y-54200000D01*
X14200000Y-54200000D02*
X19000000Y-49400000D01*
X19000000Y-49400000D02*
X24600000Y-49400000D01*
G04 #@! TO.N,/Connectors/decay*
X19324890Y-43150044D02*
X18849958Y-43150044D01*
X8349980Y-72600001D02*
X8549979Y-72800000D01*
X22525001Y-42274999D02*
X20199935Y-42274999D01*
X20199935Y-42274999D02*
X19324890Y-43150044D01*
X23800000Y-41000000D02*
X22525001Y-42274999D01*
X18849958Y-43150044D02*
X8600000Y-53400000D01*
X8600000Y-53400000D02*
X8600000Y-69784755D01*
X8600000Y-69784755D02*
X8349980Y-70034775D01*
X8349980Y-70034775D02*
X8349980Y-72600001D01*
G04 #@! TO.N,/Connectors/release*
X18313568Y-42250022D02*
X4735199Y-55828391D01*
X4399799Y-81980201D02*
X3460000Y-82920000D01*
X21000000Y-41000000D02*
X20202112Y-41000000D01*
X20202112Y-41000000D02*
X18952090Y-42250022D01*
X18952090Y-42250022D02*
X18313568Y-42250022D01*
X4735199Y-55828391D02*
X4735199Y-81644801D01*
X4735199Y-81644801D02*
X4399799Y-81980201D01*
G04 #@! TO.N,/Connectors/lfo_rate*
X19500001Y-36300001D02*
X11499999Y-36300001D01*
X845166Y-46954834D02*
X845166Y-77765166D01*
X11499999Y-36300001D02*
X845166Y-46954834D01*
X2520201Y-79440201D02*
X3460000Y-80380000D01*
X20600000Y-37400000D02*
X19500001Y-36300001D01*
X845166Y-77765166D02*
X2520201Y-79440201D01*
G04 #@! TO.N,/Connectors/lfo_depth*
X12649988Y-36750012D02*
X19207534Y-36750012D01*
X19207534Y-36750012D02*
X19289531Y-36832009D01*
X1295177Y-75675177D02*
X1295177Y-48104823D01*
X1295177Y-48104823D02*
X12649988Y-36750012D01*
X3460000Y-77840000D02*
X1295177Y-75675177D01*
G04 #@! TO.N,/Connectors/global_lfo_rate*
X1745188Y-68473505D02*
X1745188Y-66886495D01*
X2195199Y-63843515D02*
X1745188Y-63393505D01*
X1745188Y-69426495D02*
X2195199Y-68976485D01*
X3460000Y-75300000D02*
X1745188Y-73585188D01*
X2195199Y-48604801D02*
X13450605Y-37349395D01*
X1745188Y-60853505D02*
X1745188Y-59266495D01*
X1745188Y-61806495D02*
X2195199Y-61356485D01*
X2195199Y-68923515D02*
X1745188Y-68473505D01*
X1745188Y-64346495D02*
X2195199Y-63896485D01*
X2195199Y-68976485D02*
X2195199Y-68923515D01*
X1745188Y-66886495D02*
X2195199Y-66436485D01*
X2195199Y-63896485D02*
X2195199Y-63843515D01*
X1745188Y-73585188D02*
X1745188Y-69426495D01*
X1745188Y-65933505D02*
X1745188Y-64346495D01*
X1745188Y-59266495D02*
X2195199Y-58816485D01*
X2195199Y-66436485D02*
X2195199Y-66383515D01*
X2195199Y-58816485D02*
X2195199Y-48604801D01*
X2195199Y-61356485D02*
X2195199Y-61303515D01*
X1745188Y-63393505D02*
X1745188Y-61806495D01*
X13450605Y-37349395D02*
X18702837Y-37349395D01*
X2195199Y-61303515D02*
X1745188Y-60853505D01*
X18702837Y-37349395D02*
X18985679Y-37349395D01*
X2195199Y-66383515D02*
X1745188Y-65933505D01*
G04 #@! TO.N,/Connectors/global_lfo_depth*
X2195199Y-65747105D02*
X2195199Y-64532895D01*
X2195199Y-64532895D02*
X2645210Y-64082884D01*
X2645210Y-53771958D02*
X18417168Y-38000000D01*
X2195199Y-60667105D02*
X2195199Y-59452895D01*
X2195199Y-63207105D02*
X2195199Y-61992895D01*
X2645210Y-68737116D02*
X2195199Y-68287105D01*
X2645210Y-61117116D02*
X2195199Y-60667105D01*
X2195199Y-69612895D02*
X2645210Y-69162884D01*
X2645210Y-66622884D02*
X2645210Y-66197116D01*
X2645210Y-66197116D02*
X2195199Y-65747105D01*
X2195199Y-67072895D02*
X2645210Y-66622884D01*
X2645210Y-69162884D02*
X2645210Y-68737116D01*
X18617168Y-38000000D02*
X18900010Y-38000000D01*
X2645210Y-63657116D02*
X2195199Y-63207105D01*
X3460000Y-72760000D02*
X2195199Y-71495199D01*
X2645210Y-59002884D02*
X2645210Y-53771958D01*
X2645210Y-61542884D02*
X2645210Y-61117116D01*
X2195199Y-59452895D02*
X2645210Y-59002884D01*
X2195199Y-71495199D02*
X2195199Y-69612895D01*
X18417168Y-38000000D02*
X18617168Y-38000000D01*
X2645210Y-64082884D02*
X2645210Y-63657116D01*
X2195199Y-68287105D02*
X2195199Y-67072895D01*
X2195199Y-61992895D02*
X2645210Y-61542884D01*
D22*
G04 #@! TO.N,/Connectors/filter_freq*
X18249979Y-67159973D02*
X18249979Y-67690303D01*
X27600000Y-53800000D02*
X18249979Y-63150021D01*
X18249979Y-63150021D02*
X18249979Y-67159973D01*
X40400000Y-53800000D02*
X27600000Y-53800000D01*
X13000000Y-64000000D02*
X13000000Y-66420757D01*
X9473061Y-69947696D02*
X9098062Y-70322695D01*
X13000000Y-66420757D02*
X9473061Y-69947696D01*
D23*
G04 #@! TO.N,/Connectors/filter_resonance*
X4800000Y-89400000D02*
X4800000Y-92800000D01*
D22*
X79800000Y-94069670D02*
X95200000Y-78669670D01*
X79800000Y-94600000D02*
X79800000Y-94069670D01*
X95200000Y-78669670D02*
X95200000Y-49200000D01*
X95200000Y-49200000D02*
X92200000Y-46200000D01*
X92200000Y-46200000D02*
X89600000Y-46200000D01*
G04 #@! TO.N,VBUS*
X41500000Y-13000000D02*
X40700000Y-13000000D01*
X36300000Y-17400000D02*
X32400000Y-17400000D01*
D26*
X15900000Y-42700000D02*
X17333521Y-41266479D01*
X17333521Y-41266479D02*
X18533521Y-41266479D01*
X18533521Y-41266479D02*
X19000000Y-40800000D01*
X19000000Y-40800000D02*
X19000000Y-40300000D01*
X19000000Y-40300000D02*
X21500000Y-37800000D01*
X21500000Y-37800000D02*
X21500000Y-37200000D01*
X23900000Y-31600000D02*
X23900000Y-31300000D01*
X23900000Y-31300000D02*
X27400000Y-27800000D01*
X28000000Y-24817158D02*
X29917158Y-22900000D01*
X28000000Y-25100000D02*
X28000000Y-24817158D01*
X29917158Y-22900000D02*
X30800000Y-22900000D01*
D22*
X40700000Y-13000000D02*
X37000000Y-16700000D01*
D26*
X30800000Y-22900000D02*
X37000000Y-16700000D01*
D22*
X37000000Y-16700000D02*
X36300000Y-17400000D01*
D25*
G04 #@! TO.N,Net-(J2-Pad1)*
X12600000Y-35600000D02*
X32200000Y-16000000D01*
D22*
X32200000Y-16000000D02*
X35100000Y-16000000D01*
X35100000Y-16000000D02*
X35200000Y-16100000D01*
G04 #@! TO.N,Net-(J2-Pad2)*
X32194226Y-14731200D02*
X12125283Y-34800143D01*
X12125283Y-34800143D02*
X11750284Y-35175142D01*
X32194226Y-14731200D02*
X36968800Y-14731200D01*
X36968800Y-14731200D02*
X38900000Y-12800000D01*
G04 #@! TD*
D29*
G04 #@! TO.N,GND*
G36*
X97873000Y-41661285D02*
X97700901Y-41590000D01*
X97299099Y-41590000D01*
X96927881Y-41743763D01*
X96643763Y-42027881D01*
X96490000Y-42399099D01*
X96490000Y-42800901D01*
X96643763Y-43172119D01*
X96927881Y-43456237D01*
X97299099Y-43610000D01*
X97700901Y-43610000D01*
X97873000Y-43538715D01*
X97873000Y-97873000D01*
X2127000Y-97873000D01*
X2127000Y-88850890D01*
X2351032Y-88929363D01*
X3280395Y-88000000D01*
X2351032Y-87070637D01*
X2127000Y-87149110D01*
X2127000Y-86354103D01*
X2565214Y-86792317D01*
X2530637Y-86891032D01*
X3460000Y-87820395D01*
X4389363Y-86891032D01*
X4354786Y-86792317D01*
X4730000Y-86417103D01*
X5042897Y-86730000D01*
X4667683Y-87105214D01*
X4568968Y-87070637D01*
X3639605Y-88000000D01*
X3653748Y-88014143D01*
X3474143Y-88193748D01*
X3460000Y-88179605D01*
X2530637Y-89108968D01*
X2621923Y-89369580D01*
X3209833Y-89586045D01*
X3790000Y-89562879D01*
X3790000Y-89600901D01*
X3943763Y-89972119D01*
X4065000Y-90093356D01*
X4065001Y-92106643D01*
X3943763Y-92227881D01*
X3790000Y-92599099D01*
X3790000Y-93000901D01*
X3943763Y-93372119D01*
X4227881Y-93656237D01*
X4599099Y-93810000D01*
X5000901Y-93810000D01*
X5372119Y-93656237D01*
X5656237Y-93372119D01*
X5810000Y-93000901D01*
X5810000Y-92599099D01*
X5656237Y-92227881D01*
X5535000Y-92106644D01*
X5535000Y-90093356D01*
X5656237Y-89972119D01*
X5810000Y-89600901D01*
X5810000Y-89574800D01*
X6313247Y-89574800D01*
X6892052Y-89335051D01*
X7335051Y-88892052D01*
X7574800Y-88313247D01*
X7574800Y-87686753D01*
X7335051Y-87107948D01*
X6957103Y-86730000D01*
X7335051Y-86352052D01*
X7574800Y-85773247D01*
X7574800Y-85146753D01*
X7335051Y-84567948D01*
X6957103Y-84190000D01*
X7335051Y-83812052D01*
X7574800Y-83233247D01*
X7574800Y-83189751D01*
X7692121Y-83472990D01*
X7927010Y-83707879D01*
X8233908Y-83835000D01*
X8566092Y-83835000D01*
X8872990Y-83707879D01*
X9107879Y-83472990D01*
X9182880Y-83291921D01*
X9640000Y-82834802D01*
X9640000Y-83285197D01*
X8308079Y-84617120D01*
X8127010Y-84692121D01*
X7892121Y-84927010D01*
X7765000Y-85233908D01*
X7765000Y-85566092D01*
X7892121Y-85872990D01*
X8127010Y-86107879D01*
X8433908Y-86235000D01*
X8766092Y-86235000D01*
X9072990Y-86107879D01*
X9307879Y-85872990D01*
X9382880Y-85691921D01*
X10884476Y-84190327D01*
X10947929Y-84147929D01*
X10990327Y-84084476D01*
X10990329Y-84084474D01*
X11115903Y-83896538D01*
X11115904Y-83896537D01*
X11160000Y-83674852D01*
X11160000Y-83674848D01*
X11174888Y-83600001D01*
X11160000Y-83525154D01*
X11160000Y-80220865D01*
X11194126Y-80235000D01*
X11605874Y-80235000D01*
X11986280Y-80077431D01*
X12128711Y-79935000D01*
X13471289Y-79935000D01*
X13613720Y-80077431D01*
X13994126Y-80235000D01*
X14405874Y-80235000D01*
X14786280Y-80077431D01*
X15077431Y-79786280D01*
X15235000Y-79405874D01*
X15235000Y-78994126D01*
X15210000Y-78933771D01*
X15210000Y-78549741D01*
X17915001Y-75844741D01*
X17915000Y-86953252D01*
X17865000Y-87073963D01*
X17865000Y-87426037D01*
X17999733Y-87751312D01*
X18248688Y-88000267D01*
X18573963Y-88135000D01*
X18926037Y-88135000D01*
X19251312Y-88000267D01*
X19500267Y-87751312D01*
X19635000Y-87426037D01*
X19635000Y-87073963D01*
X19585000Y-86953252D01*
X19585000Y-78086579D01*
X19748688Y-78250267D01*
X20073963Y-78385000D01*
X20426037Y-78385000D01*
X20751312Y-78250267D01*
X21000267Y-78001312D01*
X21135000Y-77676037D01*
X21135000Y-77323963D01*
X21000267Y-76998688D01*
X20985000Y-76983421D01*
X20985000Y-74415868D01*
X22783776Y-76214645D01*
X22749733Y-76248688D01*
X22615000Y-76573963D01*
X22615000Y-76926037D01*
X22749733Y-77251312D01*
X22765001Y-77266580D01*
X22765001Y-79651850D01*
X22676037Y-79615000D01*
X22323963Y-79615000D01*
X22101244Y-79707253D01*
X21912121Y-79628916D01*
X21560047Y-79628916D01*
X21234772Y-79763649D01*
X20985817Y-80012604D01*
X20938246Y-80127450D01*
X20666092Y-80014720D01*
X20333908Y-80014720D01*
X20027010Y-80141841D01*
X19792121Y-80376730D01*
X19665000Y-80683628D01*
X19665000Y-81015812D01*
X19792121Y-81322710D01*
X19910384Y-81440973D01*
X19898643Y-81500000D01*
X19915001Y-81582238D01*
X19915000Y-87703252D01*
X19865000Y-87823963D01*
X19865000Y-88176037D01*
X19999733Y-88501312D01*
X20248688Y-88750267D01*
X20573963Y-88885000D01*
X20926037Y-88885000D01*
X21251312Y-88750267D01*
X21500267Y-88501312D01*
X21625000Y-88200179D01*
X21749733Y-88501312D01*
X21998688Y-88750267D01*
X22323963Y-88885000D01*
X22676037Y-88885000D01*
X23001312Y-88750267D01*
X23250267Y-88501312D01*
X23385000Y-88176037D01*
X23385000Y-87823963D01*
X23335000Y-87703252D01*
X23335000Y-84336579D01*
X23498688Y-84500267D01*
X23823963Y-84635000D01*
X23915000Y-84635000D01*
X23915000Y-87203252D01*
X23865000Y-87323963D01*
X23865000Y-87676037D01*
X23999733Y-88001312D01*
X24248688Y-88250267D01*
X24573963Y-88385000D01*
X24926037Y-88385000D01*
X25251312Y-88250267D01*
X25500267Y-88001312D01*
X25635000Y-87676037D01*
X25635000Y-87323963D01*
X25585000Y-87203252D01*
X25585000Y-84635000D01*
X25926037Y-84635000D01*
X26251312Y-84500267D01*
X26500267Y-84251312D01*
X26635000Y-83926037D01*
X26635000Y-83573963D01*
X26500267Y-83248688D01*
X26485000Y-83233421D01*
X26485000Y-78072383D01*
X26499398Y-77999999D01*
X26485000Y-77927615D01*
X26485000Y-77927612D01*
X26442354Y-77713217D01*
X26289864Y-77485000D01*
X26483421Y-77485000D01*
X26498688Y-77500267D01*
X26823963Y-77635000D01*
X26864989Y-77635000D01*
X26864989Y-78927605D01*
X26850591Y-78999989D01*
X26864989Y-79072373D01*
X26864989Y-79072376D01*
X26907635Y-79286771D01*
X27070084Y-79529894D01*
X27131454Y-79570900D01*
X31529091Y-83968538D01*
X31570095Y-84029905D01*
X31813217Y-84192354D01*
X32027612Y-84235000D01*
X32100000Y-84249399D01*
X32172388Y-84235000D01*
X35733421Y-84235000D01*
X35748688Y-84250267D01*
X36073963Y-84385000D01*
X36426037Y-84385000D01*
X36751312Y-84250267D01*
X37000267Y-84001312D01*
X37000405Y-84000978D01*
X37323963Y-84135000D01*
X37676037Y-84135000D01*
X38001312Y-84000267D01*
X38250267Y-83751312D01*
X38385000Y-83426037D01*
X38385000Y-83073963D01*
X38250267Y-82748688D01*
X38001312Y-82499733D01*
X37676037Y-82365000D01*
X37654446Y-82365000D01*
X37420911Y-82131465D01*
X37379905Y-82070095D01*
X37136783Y-81907646D01*
X36922388Y-81865000D01*
X36922384Y-81865000D01*
X36850000Y-81850602D01*
X36777616Y-81865000D01*
X32904447Y-81865000D01*
X28735000Y-77695554D01*
X28735000Y-77524446D01*
X29942121Y-78731568D01*
X30042121Y-78972990D01*
X30277010Y-79207879D01*
X30583908Y-79335000D01*
X30916092Y-79335000D01*
X31222990Y-79207879D01*
X31457879Y-78972990D01*
X31585000Y-78666092D01*
X31585000Y-78333908D01*
X31457879Y-78027010D01*
X31222990Y-77792121D01*
X30981568Y-77692121D01*
X29335009Y-76045563D01*
X29335009Y-71624455D01*
X32179091Y-74468538D01*
X32220095Y-74529905D01*
X32463217Y-74692354D01*
X32677612Y-74735000D01*
X32677615Y-74735000D01*
X32749999Y-74749398D01*
X32822383Y-74735000D01*
X35342486Y-74735000D01*
X35583908Y-74835000D01*
X35916092Y-74835000D01*
X36222990Y-74707879D01*
X36457879Y-74472990D01*
X36585000Y-74166092D01*
X36585000Y-73833908D01*
X36457879Y-73527010D01*
X36430869Y-73500000D01*
X36457879Y-73472990D01*
X36585000Y-73166092D01*
X36585000Y-72833908D01*
X36457879Y-72527010D01*
X36430869Y-72500000D01*
X36457879Y-72472990D01*
X36585000Y-72166092D01*
X36585000Y-71981514D01*
X36836280Y-71877431D01*
X37127431Y-71586280D01*
X37285000Y-71205874D01*
X37285000Y-70794126D01*
X37127431Y-70413720D01*
X37010000Y-70296289D01*
X37010000Y-66703711D01*
X37127431Y-66586280D01*
X37285000Y-66205874D01*
X37285000Y-65794126D01*
X37127431Y-65413720D01*
X36836280Y-65122569D01*
X36455874Y-64965000D01*
X36044126Y-64965000D01*
X35663720Y-65122569D01*
X35372569Y-65413720D01*
X35215000Y-65794126D01*
X35215000Y-66205874D01*
X35372569Y-66586280D01*
X35490001Y-66703712D01*
X35490000Y-70296289D01*
X35372569Y-70413720D01*
X35322952Y-70533506D01*
X35320911Y-70531465D01*
X35279905Y-70470095D01*
X35036783Y-70307646D01*
X34822388Y-70265000D01*
X34822384Y-70265000D01*
X34750000Y-70250602D01*
X34677616Y-70265000D01*
X33306457Y-70265000D01*
X33207879Y-70027010D01*
X32972990Y-69792121D01*
X32731567Y-69692121D01*
X32307880Y-69268433D01*
X32207879Y-69027010D01*
X32165869Y-68985000D01*
X33092486Y-68985000D01*
X33333908Y-69085000D01*
X33666092Y-69085000D01*
X33972990Y-68957879D01*
X34207879Y-68722990D01*
X34335000Y-68416092D01*
X34335000Y-68083908D01*
X34207879Y-67777010D01*
X33972990Y-67542121D01*
X33666092Y-67415000D01*
X33333908Y-67415000D01*
X33092486Y-67515000D01*
X31907514Y-67515000D01*
X31666092Y-67415000D01*
X31333908Y-67415000D01*
X31217758Y-67463111D01*
X31320858Y-67360011D01*
X31826760Y-67360011D01*
X31908993Y-67376368D01*
X31991226Y-67360011D01*
X31991230Y-67360011D01*
X32234794Y-67311563D01*
X32510994Y-67127012D01*
X32557580Y-67057291D01*
X36532283Y-63082589D01*
X36602001Y-63036005D01*
X36786552Y-62759805D01*
X36835000Y-62516241D01*
X36835000Y-62516240D01*
X36851358Y-62434004D01*
X36835000Y-62351767D01*
X36835000Y-62270133D01*
X36962207Y-62142926D01*
X37035387Y-61966254D01*
X45302711Y-70233578D01*
X45122569Y-70413720D01*
X44965000Y-70794126D01*
X44965000Y-71205874D01*
X45122569Y-71586280D01*
X45265001Y-71728712D01*
X45265000Y-73227064D01*
X44913720Y-73372569D01*
X44622569Y-73663720D01*
X44465000Y-74044126D01*
X44465000Y-74455874D01*
X44590216Y-74758172D01*
X38329211Y-74758172D01*
X38256827Y-74743774D01*
X38184443Y-74758172D01*
X38184440Y-74758172D01*
X37970045Y-74800818D01*
X37726923Y-74963267D01*
X37685919Y-75024634D01*
X34095554Y-78615000D01*
X34073963Y-78615000D01*
X33748688Y-78749733D01*
X33499733Y-78998688D01*
X33365000Y-79323963D01*
X33365000Y-79676037D01*
X33499733Y-80001312D01*
X33748688Y-80250267D01*
X34073963Y-80385000D01*
X34426037Y-80385000D01*
X34751312Y-80250267D01*
X35000267Y-80001312D01*
X35135000Y-79676037D01*
X35135000Y-79654446D01*
X38561275Y-76228172D01*
X40181397Y-76228172D01*
X40027010Y-76292121D01*
X39792121Y-76527010D01*
X39665000Y-76833908D01*
X39665000Y-77166092D01*
X39765001Y-77407516D01*
X39765000Y-81177616D01*
X39750602Y-81250000D01*
X39765000Y-81322384D01*
X39765000Y-81322387D01*
X39807646Y-81536782D01*
X39970095Y-81779905D01*
X40031465Y-81820911D01*
X40942121Y-82731568D01*
X41042121Y-82972990D01*
X41277010Y-83207879D01*
X41583908Y-83335000D01*
X41916092Y-83335000D01*
X42036533Y-83285112D01*
X40081645Y-85240000D01*
X30650524Y-85240000D01*
X30355918Y-85298601D01*
X30021831Y-85521831D01*
X29798601Y-85855918D01*
X29720213Y-86250000D01*
X29798601Y-86644082D01*
X30021831Y-86978169D01*
X30355918Y-87201399D01*
X30650524Y-87260000D01*
X40400529Y-87260000D01*
X40500000Y-87279786D01*
X40599471Y-87260000D01*
X40599476Y-87260000D01*
X40894082Y-87201399D01*
X41228169Y-86978169D01*
X41284518Y-86893837D01*
X50238921Y-77939435D01*
X50238921Y-78349476D01*
X50297522Y-78644082D01*
X50520752Y-78978169D01*
X50854839Y-79201399D01*
X51248920Y-79279787D01*
X51643002Y-79201399D01*
X51966866Y-78985000D01*
X52983421Y-78985000D01*
X52998688Y-79000267D01*
X53323963Y-79135000D01*
X53676037Y-79135000D01*
X54001312Y-79000267D01*
X54250267Y-78751312D01*
X54385000Y-78426037D01*
X54385000Y-78372619D01*
X54442354Y-78286783D01*
X54485000Y-78072388D01*
X54485000Y-78072385D01*
X54499398Y-78000001D01*
X54485000Y-77927617D01*
X54485000Y-76766579D01*
X54500267Y-76751312D01*
X54635000Y-76426037D01*
X54635000Y-76073963D01*
X54500267Y-75748688D01*
X54251312Y-75499733D01*
X53926037Y-75365000D01*
X53573963Y-75365000D01*
X53555855Y-75372501D01*
X56418356Y-72510000D01*
X65697761Y-72510000D01*
X66073847Y-72886086D01*
X66674778Y-73135000D01*
X67325222Y-73135000D01*
X67926153Y-72886086D01*
X68386086Y-72426153D01*
X68635000Y-71825222D01*
X68635000Y-71174778D01*
X68386086Y-70573847D01*
X68010000Y-70197761D01*
X68010000Y-67277543D01*
X68135000Y-66975766D01*
X68135000Y-66524234D01*
X67962207Y-66107074D01*
X67642926Y-65787793D01*
X67225766Y-65615000D01*
X66774234Y-65615000D01*
X66357074Y-65787793D01*
X66037793Y-66107074D01*
X65865000Y-66524234D01*
X65865000Y-66975766D01*
X65990001Y-67277545D01*
X65990000Y-70197761D01*
X65697761Y-70490000D01*
X56099471Y-70490000D01*
X56000000Y-70470214D01*
X55900529Y-70490000D01*
X55900524Y-70490000D01*
X55605918Y-70548601D01*
X55550328Y-70585745D01*
X55356162Y-70715482D01*
X55356160Y-70715484D01*
X55271831Y-70771831D01*
X55215484Y-70856160D01*
X51308909Y-74762736D01*
X51308909Y-60119446D01*
X52534518Y-58893838D01*
X52701399Y-58644083D01*
X52779786Y-58250000D01*
X52701399Y-57855918D01*
X52478169Y-57521831D01*
X52144082Y-57298601D01*
X51750000Y-57220214D01*
X51355917Y-57298601D01*
X51106162Y-57465482D01*
X49655071Y-58916574D01*
X49570740Y-58972922D01*
X49514392Y-59057253D01*
X49514391Y-59057254D01*
X49477129Y-59113021D01*
X49347510Y-59307010D01*
X49288909Y-59601616D01*
X49288909Y-59601620D01*
X49269123Y-59701091D01*
X49288909Y-59800562D01*
X49288910Y-70999463D01*
X38616254Y-60326808D01*
X38892926Y-60212207D01*
X39020133Y-60085000D01*
X42397681Y-60085000D01*
X42479914Y-60101357D01*
X42562147Y-60085000D01*
X42562151Y-60085000D01*
X42805715Y-60036552D01*
X43081915Y-59852001D01*
X43128501Y-59782280D01*
X69746843Y-33163939D01*
X69709373Y-33254399D01*
X69492715Y-33471057D01*
X69422998Y-33517641D01*
X69365601Y-33603542D01*
X69238446Y-33793842D01*
X69173641Y-34119642D01*
X69189999Y-34201880D01*
X69189998Y-55223511D01*
X69173641Y-55305744D01*
X69189998Y-55387977D01*
X69189998Y-55387980D01*
X69238446Y-55631544D01*
X69422997Y-55907745D01*
X69492718Y-55954331D01*
X71665001Y-58126616D01*
X71665000Y-90953252D01*
X71615000Y-91073963D01*
X71615000Y-91426037D01*
X71665000Y-91546748D01*
X71665001Y-96453250D01*
X71615000Y-96573963D01*
X71615000Y-96926037D01*
X71749733Y-97251312D01*
X71998688Y-97500267D01*
X72323963Y-97635000D01*
X72676037Y-97635000D01*
X73001312Y-97500267D01*
X73250267Y-97251312D01*
X73385000Y-96926037D01*
X73385000Y-96573963D01*
X73335000Y-96453252D01*
X73335000Y-91546748D01*
X73385000Y-91426037D01*
X73385000Y-91073963D01*
X73335000Y-90953252D01*
X73335000Y-71635000D01*
X73676037Y-71635000D01*
X74001312Y-71500267D01*
X74250267Y-71251312D01*
X74385000Y-70926037D01*
X74385000Y-70573963D01*
X74250267Y-70248688D01*
X74235000Y-70233421D01*
X74235000Y-68516579D01*
X74250267Y-68501312D01*
X74385000Y-68176037D01*
X74385000Y-67823963D01*
X74250267Y-67498688D01*
X74001312Y-67249733D01*
X73676037Y-67115000D01*
X73335000Y-67115000D01*
X73335000Y-57862978D01*
X73351357Y-57780745D01*
X73335000Y-57698512D01*
X73335000Y-57698509D01*
X73286552Y-57454945D01*
X73182086Y-57298601D01*
X73148584Y-57248461D01*
X73148583Y-57248460D01*
X73102001Y-57178745D01*
X73032285Y-57132163D01*
X70859998Y-54959877D01*
X70859998Y-41274524D01*
X71174089Y-41404624D01*
X71275415Y-41404624D01*
X72901465Y-43030675D01*
X73026465Y-43332452D01*
X73310583Y-43616570D01*
X73681801Y-43770333D01*
X74083603Y-43770333D01*
X74454821Y-43616570D01*
X74738939Y-43332452D01*
X74892702Y-42961234D01*
X74892702Y-42559432D01*
X74738939Y-42188214D01*
X74454821Y-41904096D01*
X74153044Y-41779096D01*
X72671756Y-40297809D01*
X72772119Y-40256237D01*
X73056237Y-39972119D01*
X73210000Y-39600901D01*
X73210000Y-39199099D01*
X73092997Y-38916627D01*
X73102337Y-38869670D01*
X73085000Y-38782509D01*
X73085000Y-38782505D01*
X73062943Y-38671616D01*
X86665001Y-52273676D01*
X86665000Y-55453252D01*
X86615000Y-55573963D01*
X86615000Y-55926037D01*
X86749733Y-56251312D01*
X86998688Y-56500267D01*
X87323963Y-56635000D01*
X87676037Y-56635000D01*
X88001312Y-56500267D01*
X88250267Y-56251312D01*
X88385000Y-55926037D01*
X88385000Y-55573963D01*
X88335000Y-55453252D01*
X88335000Y-52010038D01*
X88351357Y-51927805D01*
X88335000Y-51845572D01*
X88335000Y-51845569D01*
X88286552Y-51602005D01*
X88195612Y-51465903D01*
X88148584Y-51395521D01*
X88148583Y-51395520D01*
X88102001Y-51325805D01*
X88032286Y-51279223D01*
X82438062Y-45685000D01*
X83033422Y-45685000D01*
X83218763Y-45870342D01*
X83343763Y-46172119D01*
X83627881Y-46456237D01*
X83999099Y-46610000D01*
X84400901Y-46610000D01*
X84772119Y-46456237D01*
X85056237Y-46172119D01*
X85210000Y-45800901D01*
X85210000Y-45399099D01*
X85071844Y-45065560D01*
X91165001Y-51158717D01*
X91165000Y-51703251D01*
X91115000Y-51823963D01*
X91115000Y-52176037D01*
X91165001Y-52296750D01*
X91165000Y-56154132D01*
X82869401Y-64449732D01*
X82748688Y-64499733D01*
X82499733Y-64748688D01*
X82365000Y-65073963D01*
X82365000Y-65426037D01*
X82499733Y-65751312D01*
X82748688Y-66000267D01*
X83073963Y-66135000D01*
X83426037Y-66135000D01*
X83751312Y-66000267D01*
X84000267Y-65751312D01*
X84050268Y-65630599D01*
X92415001Y-57265867D01*
X92415000Y-64404133D01*
X92369401Y-64449732D01*
X92248688Y-64499733D01*
X91999733Y-64748688D01*
X91865000Y-65073963D01*
X91865000Y-65426037D01*
X91999733Y-65751312D01*
X92248688Y-66000267D01*
X92573963Y-66135000D01*
X92926037Y-66135000D01*
X93251312Y-66000267D01*
X93500267Y-65751312D01*
X93550268Y-65630599D01*
X93782280Y-65398587D01*
X93852001Y-65352001D01*
X94036552Y-65075801D01*
X94085000Y-64832237D01*
X94085000Y-64832236D01*
X94101358Y-64750000D01*
X94085000Y-64667763D01*
X94085000Y-53332233D01*
X94101357Y-53250000D01*
X94085000Y-53167767D01*
X94085000Y-53167763D01*
X94036552Y-52924199D01*
X93852001Y-52647999D01*
X93782282Y-52601415D01*
X92835000Y-51654133D01*
X92835000Y-50895085D01*
X92851358Y-50812848D01*
X92786552Y-50487048D01*
X92786552Y-50487047D01*
X92602001Y-50210847D01*
X92532283Y-50164263D01*
X89578020Y-47210000D01*
X89800901Y-47210000D01*
X90102679Y-47085000D01*
X91833422Y-47085000D01*
X94315001Y-49566580D01*
X94315000Y-78303091D01*
X79235845Y-93382247D01*
X79161952Y-93431621D01*
X78966348Y-93724360D01*
X78915000Y-93982505D01*
X78915000Y-93982509D01*
X78897663Y-94069670D01*
X78907003Y-94116627D01*
X78790000Y-94399099D01*
X78790000Y-94800901D01*
X78943763Y-95172119D01*
X79227881Y-95456237D01*
X79599099Y-95610000D01*
X80000901Y-95610000D01*
X80372119Y-95456237D01*
X80656237Y-95172119D01*
X80810000Y-94800901D01*
X80810000Y-94399099D01*
X80784269Y-94336979D01*
X95764157Y-79357092D01*
X95838049Y-79307719D01*
X95904761Y-79207879D01*
X96033652Y-79014980D01*
X96053539Y-78915000D01*
X96085000Y-78756835D01*
X96085000Y-78756831D01*
X96102337Y-78669670D01*
X96085000Y-78582509D01*
X96085000Y-49287161D01*
X96102337Y-49200000D01*
X96085000Y-49112839D01*
X96085000Y-49112835D01*
X96033652Y-48854690D01*
X95962316Y-48747929D01*
X95887424Y-48635845D01*
X95887423Y-48635844D01*
X95838049Y-48561951D01*
X95764156Y-48512577D01*
X92887425Y-45635847D01*
X92838049Y-45561951D01*
X92545310Y-45366348D01*
X92287165Y-45315000D01*
X92287161Y-45315000D01*
X92200000Y-45297663D01*
X92112839Y-45315000D01*
X90102679Y-45315000D01*
X89800901Y-45190000D01*
X89399099Y-45190000D01*
X89027881Y-45343763D01*
X88743763Y-45627881D01*
X88590000Y-45999099D01*
X88590000Y-46221980D01*
X76625502Y-34257483D01*
X76745309Y-34233652D01*
X76964154Y-34087424D01*
X79164156Y-31887423D01*
X79238049Y-31838049D01*
X79300017Y-31745309D01*
X79433652Y-31545310D01*
X79433652Y-31545309D01*
X79485000Y-31287165D01*
X79485000Y-31287161D01*
X79502337Y-31200000D01*
X79485000Y-31112839D01*
X79485000Y-29194126D01*
X82765000Y-29194126D01*
X82765000Y-29605874D01*
X82922569Y-29986280D01*
X83213720Y-30277431D01*
X83594126Y-30435000D01*
X84005874Y-30435000D01*
X84386280Y-30277431D01*
X84677431Y-29986280D01*
X84702431Y-29925924D01*
X90639387Y-23988968D01*
X95270637Y-23988968D01*
X95361923Y-24249580D01*
X95949833Y-24466045D01*
X96575828Y-24441049D01*
X97038077Y-24249580D01*
X97129363Y-23988968D01*
X96200000Y-23059605D01*
X95270637Y-23988968D01*
X90639387Y-23988968D01*
X90843841Y-23784515D01*
X90928169Y-23728169D01*
X90984516Y-23643840D01*
X90984518Y-23643838D01*
X91101411Y-23468895D01*
X91151399Y-23394082D01*
X91210000Y-23099476D01*
X91210000Y-23099471D01*
X91229786Y-23000000D01*
X91210000Y-22900529D01*
X91210000Y-22629833D01*
X94613955Y-22629833D01*
X94638951Y-23255828D01*
X94830420Y-23718077D01*
X95091032Y-23809363D01*
X96020395Y-22880000D01*
X96379605Y-22880000D01*
X97308968Y-23809363D01*
X97569580Y-23718077D01*
X97786045Y-23130167D01*
X97761049Y-22504172D01*
X97569580Y-22041923D01*
X97308968Y-21950637D01*
X96379605Y-22880000D01*
X96020395Y-22880000D01*
X95091032Y-21950637D01*
X94830420Y-22041923D01*
X94613955Y-22629833D01*
X91210000Y-22629833D01*
X91210000Y-21448968D01*
X95270637Y-21448968D01*
X95327043Y-21610000D01*
X95270637Y-21771032D01*
X96200000Y-22700395D01*
X97129363Y-21771032D01*
X97072957Y-21610000D01*
X97129363Y-21448968D01*
X96200000Y-20519605D01*
X95270637Y-21448968D01*
X91210000Y-21448968D01*
X91210000Y-20089833D01*
X94613955Y-20089833D01*
X94638951Y-20715828D01*
X94830420Y-21178077D01*
X95091032Y-21269363D01*
X96020395Y-20340000D01*
X96379605Y-20340000D01*
X97308968Y-21269363D01*
X97569580Y-21178077D01*
X97786045Y-20590167D01*
X97761049Y-19964172D01*
X97569580Y-19501923D01*
X97308968Y-19410637D01*
X96379605Y-20340000D01*
X96020395Y-20340000D01*
X95091032Y-19410637D01*
X94830420Y-19501923D01*
X94613955Y-20089833D01*
X91210000Y-20089833D01*
X91210000Y-19117103D01*
X91418135Y-18908968D01*
X95270637Y-18908968D01*
X95327043Y-19070000D01*
X95270637Y-19231032D01*
X96200000Y-20160395D01*
X97129363Y-19231032D01*
X97072957Y-19070000D01*
X97129363Y-18908968D01*
X96200000Y-17979605D01*
X95270637Y-18908968D01*
X91418135Y-18908968D01*
X91535051Y-18792052D01*
X91774800Y-18213247D01*
X91774800Y-17586753D01*
X91759508Y-17549833D01*
X94613955Y-17549833D01*
X94638951Y-18175828D01*
X94830420Y-18638077D01*
X95091032Y-18729363D01*
X96020395Y-17800000D01*
X96379605Y-17800000D01*
X97308968Y-18729363D01*
X97569580Y-18638077D01*
X97786045Y-18050167D01*
X97761049Y-17424172D01*
X97569580Y-16961923D01*
X97308968Y-16870637D01*
X96379605Y-17800000D01*
X96020395Y-17800000D01*
X95091032Y-16870637D01*
X94830420Y-16961923D01*
X94613955Y-17549833D01*
X91759508Y-17549833D01*
X91535051Y-17007948D01*
X91157103Y-16630000D01*
X91535051Y-16252052D01*
X91774800Y-15673247D01*
X91774800Y-15046753D01*
X91733379Y-14946753D01*
X94625200Y-14946753D01*
X94625200Y-15573247D01*
X94864949Y-16152052D01*
X95305214Y-16592317D01*
X95270637Y-16691032D01*
X96200000Y-17620395D01*
X97129363Y-16691032D01*
X97094786Y-16592317D01*
X97535051Y-16152052D01*
X97774800Y-15573247D01*
X97774800Y-14946753D01*
X97535051Y-14367948D01*
X97094786Y-13927683D01*
X97129363Y-13828968D01*
X96200000Y-12899605D01*
X95270637Y-13828968D01*
X95305214Y-13927683D01*
X94864949Y-14367948D01*
X94625200Y-14946753D01*
X91733379Y-14946753D01*
X91535051Y-14467948D01*
X91094786Y-14027683D01*
X91129363Y-13928968D01*
X90200000Y-12999605D01*
X89270637Y-13928968D01*
X89305214Y-14027683D01*
X88864949Y-14467948D01*
X88625200Y-15046753D01*
X88625200Y-15673247D01*
X88864949Y-16252052D01*
X89242897Y-16630000D01*
X88864949Y-17007948D01*
X88625200Y-17586753D01*
X88625200Y-18213247D01*
X88864949Y-18792052D01*
X89190001Y-19117104D01*
X89190000Y-22581644D01*
X83274076Y-28497569D01*
X83213720Y-28522569D01*
X82922569Y-28813720D01*
X82765000Y-29194126D01*
X79485000Y-29194126D01*
X79485000Y-25312835D01*
X79433652Y-25054690D01*
X79238049Y-24761951D01*
X78945310Y-24566348D01*
X78600000Y-24497662D01*
X78366717Y-24544065D01*
X88532283Y-14378499D01*
X88602001Y-14331915D01*
X88786552Y-14055715D01*
X88835000Y-13812151D01*
X88835000Y-13812147D01*
X88851357Y-13729914D01*
X88837566Y-13660580D01*
X89091032Y-13749363D01*
X90020395Y-12820000D01*
X90379605Y-12820000D01*
X91308968Y-13749363D01*
X91569580Y-13658077D01*
X91786045Y-13070167D01*
X91762074Y-12469833D01*
X94613955Y-12469833D01*
X94638951Y-13095828D01*
X94830420Y-13558077D01*
X95091032Y-13649363D01*
X96020395Y-12720000D01*
X96379605Y-12720000D01*
X97308968Y-13649363D01*
X97569580Y-13558077D01*
X97786045Y-12970167D01*
X97761049Y-12344172D01*
X97569580Y-11881923D01*
X97308968Y-11790637D01*
X96379605Y-12720000D01*
X96020395Y-12720000D01*
X95091032Y-11790637D01*
X94830420Y-11881923D01*
X94613955Y-12469833D01*
X91762074Y-12469833D01*
X91761049Y-12444172D01*
X91569580Y-11981923D01*
X91308968Y-11890637D01*
X90379605Y-12820000D01*
X90020395Y-12820000D01*
X89091032Y-11890637D01*
X88835000Y-11980319D01*
X88835000Y-11711032D01*
X89270637Y-11711032D01*
X90200000Y-12640395D01*
X91129363Y-11711032D01*
X91038077Y-11450420D01*
X90450167Y-11233955D01*
X89824172Y-11258951D01*
X89361923Y-11450420D01*
X89270637Y-11711032D01*
X88835000Y-11711032D01*
X88835000Y-9866753D01*
X94625200Y-9866753D01*
X94625200Y-10493247D01*
X94864949Y-11072052D01*
X95305214Y-11512317D01*
X95270637Y-11611032D01*
X96200000Y-12540395D01*
X97129363Y-11611032D01*
X97094786Y-11512317D01*
X97535051Y-11072052D01*
X97774800Y-10493247D01*
X97774800Y-9866753D01*
X97535051Y-9287948D01*
X97092052Y-8844949D01*
X96513247Y-8605200D01*
X95886753Y-8605200D01*
X95307948Y-8844949D01*
X94864949Y-9287948D01*
X94625200Y-9866753D01*
X88835000Y-9866753D01*
X88835000Y-3608683D01*
X88892052Y-3585051D01*
X89270000Y-3207103D01*
X89647948Y-3585051D01*
X90226753Y-3824800D01*
X90853247Y-3824800D01*
X91432052Y-3585051D01*
X91875051Y-3142052D01*
X92114800Y-2563247D01*
X92114800Y-2127000D01*
X97873000Y-2127000D01*
X97873000Y-41661285D01*
X97873000Y-41661285D01*
G37*
X97873000Y-41661285D02*
X97700901Y-41590000D01*
X97299099Y-41590000D01*
X96927881Y-41743763D01*
X96643763Y-42027881D01*
X96490000Y-42399099D01*
X96490000Y-42800901D01*
X96643763Y-43172119D01*
X96927881Y-43456237D01*
X97299099Y-43610000D01*
X97700901Y-43610000D01*
X97873000Y-43538715D01*
X97873000Y-97873000D01*
X2127000Y-97873000D01*
X2127000Y-88850890D01*
X2351032Y-88929363D01*
X3280395Y-88000000D01*
X2351032Y-87070637D01*
X2127000Y-87149110D01*
X2127000Y-86354103D01*
X2565214Y-86792317D01*
X2530637Y-86891032D01*
X3460000Y-87820395D01*
X4389363Y-86891032D01*
X4354786Y-86792317D01*
X4730000Y-86417103D01*
X5042897Y-86730000D01*
X4667683Y-87105214D01*
X4568968Y-87070637D01*
X3639605Y-88000000D01*
X3653748Y-88014143D01*
X3474143Y-88193748D01*
X3460000Y-88179605D01*
X2530637Y-89108968D01*
X2621923Y-89369580D01*
X3209833Y-89586045D01*
X3790000Y-89562879D01*
X3790000Y-89600901D01*
X3943763Y-89972119D01*
X4065000Y-90093356D01*
X4065001Y-92106643D01*
X3943763Y-92227881D01*
X3790000Y-92599099D01*
X3790000Y-93000901D01*
X3943763Y-93372119D01*
X4227881Y-93656237D01*
X4599099Y-93810000D01*
X5000901Y-93810000D01*
X5372119Y-93656237D01*
X5656237Y-93372119D01*
X5810000Y-93000901D01*
X5810000Y-92599099D01*
X5656237Y-92227881D01*
X5535000Y-92106644D01*
X5535000Y-90093356D01*
X5656237Y-89972119D01*
X5810000Y-89600901D01*
X5810000Y-89574800D01*
X6313247Y-89574800D01*
X6892052Y-89335051D01*
X7335051Y-88892052D01*
X7574800Y-88313247D01*
X7574800Y-87686753D01*
X7335051Y-87107948D01*
X6957103Y-86730000D01*
X7335051Y-86352052D01*
X7574800Y-85773247D01*
X7574800Y-85146753D01*
X7335051Y-84567948D01*
X6957103Y-84190000D01*
X7335051Y-83812052D01*
X7574800Y-83233247D01*
X7574800Y-83189751D01*
X7692121Y-83472990D01*
X7927010Y-83707879D01*
X8233908Y-83835000D01*
X8566092Y-83835000D01*
X8872990Y-83707879D01*
X9107879Y-83472990D01*
X9182880Y-83291921D01*
X9640000Y-82834802D01*
X9640000Y-83285197D01*
X8308079Y-84617120D01*
X8127010Y-84692121D01*
X7892121Y-84927010D01*
X7765000Y-85233908D01*
X7765000Y-85566092D01*
X7892121Y-85872990D01*
X8127010Y-86107879D01*
X8433908Y-86235000D01*
X8766092Y-86235000D01*
X9072990Y-86107879D01*
X9307879Y-85872990D01*
X9382880Y-85691921D01*
X10884476Y-84190327D01*
X10947929Y-84147929D01*
X10990327Y-84084476D01*
X10990329Y-84084474D01*
X11115903Y-83896538D01*
X11115904Y-83896537D01*
X11160000Y-83674852D01*
X11160000Y-83674848D01*
X11174888Y-83600001D01*
X11160000Y-83525154D01*
X11160000Y-80220865D01*
X11194126Y-80235000D01*
X11605874Y-80235000D01*
X11986280Y-80077431D01*
X12128711Y-79935000D01*
X13471289Y-79935000D01*
X13613720Y-80077431D01*
X13994126Y-80235000D01*
X14405874Y-80235000D01*
X14786280Y-80077431D01*
X15077431Y-79786280D01*
X15235000Y-79405874D01*
X15235000Y-78994126D01*
X15210000Y-78933771D01*
X15210000Y-78549741D01*
X17915001Y-75844741D01*
X17915000Y-86953252D01*
X17865000Y-87073963D01*
X17865000Y-87426037D01*
X17999733Y-87751312D01*
X18248688Y-88000267D01*
X18573963Y-88135000D01*
X18926037Y-88135000D01*
X19251312Y-88000267D01*
X19500267Y-87751312D01*
X19635000Y-87426037D01*
X19635000Y-87073963D01*
X19585000Y-86953252D01*
X19585000Y-78086579D01*
X19748688Y-78250267D01*
X20073963Y-78385000D01*
X20426037Y-78385000D01*
X20751312Y-78250267D01*
X21000267Y-78001312D01*
X21135000Y-77676037D01*
X21135000Y-77323963D01*
X21000267Y-76998688D01*
X20985000Y-76983421D01*
X20985000Y-74415868D01*
X22783776Y-76214645D01*
X22749733Y-76248688D01*
X22615000Y-76573963D01*
X22615000Y-76926037D01*
X22749733Y-77251312D01*
X22765001Y-77266580D01*
X22765001Y-79651850D01*
X22676037Y-79615000D01*
X22323963Y-79615000D01*
X22101244Y-79707253D01*
X21912121Y-79628916D01*
X21560047Y-79628916D01*
X21234772Y-79763649D01*
X20985817Y-80012604D01*
X20938246Y-80127450D01*
X20666092Y-80014720D01*
X20333908Y-80014720D01*
X20027010Y-80141841D01*
X19792121Y-80376730D01*
X19665000Y-80683628D01*
X19665000Y-81015812D01*
X19792121Y-81322710D01*
X19910384Y-81440973D01*
X19898643Y-81500000D01*
X19915001Y-81582238D01*
X19915000Y-87703252D01*
X19865000Y-87823963D01*
X19865000Y-88176037D01*
X19999733Y-88501312D01*
X20248688Y-88750267D01*
X20573963Y-88885000D01*
X20926037Y-88885000D01*
X21251312Y-88750267D01*
X21500267Y-88501312D01*
X21625000Y-88200179D01*
X21749733Y-88501312D01*
X21998688Y-88750267D01*
X22323963Y-88885000D01*
X22676037Y-88885000D01*
X23001312Y-88750267D01*
X23250267Y-88501312D01*
X23385000Y-88176037D01*
X23385000Y-87823963D01*
X23335000Y-87703252D01*
X23335000Y-84336579D01*
X23498688Y-84500267D01*
X23823963Y-84635000D01*
X23915000Y-84635000D01*
X23915000Y-87203252D01*
X23865000Y-87323963D01*
X23865000Y-87676037D01*
X23999733Y-88001312D01*
X24248688Y-88250267D01*
X24573963Y-88385000D01*
X24926037Y-88385000D01*
X25251312Y-88250267D01*
X25500267Y-88001312D01*
X25635000Y-87676037D01*
X25635000Y-87323963D01*
X25585000Y-87203252D01*
X25585000Y-84635000D01*
X25926037Y-84635000D01*
X26251312Y-84500267D01*
X26500267Y-84251312D01*
X26635000Y-83926037D01*
X26635000Y-83573963D01*
X26500267Y-83248688D01*
X26485000Y-83233421D01*
X26485000Y-78072383D01*
X26499398Y-77999999D01*
X26485000Y-77927615D01*
X26485000Y-77927612D01*
X26442354Y-77713217D01*
X26289864Y-77485000D01*
X26483421Y-77485000D01*
X26498688Y-77500267D01*
X26823963Y-77635000D01*
X26864989Y-77635000D01*
X26864989Y-78927605D01*
X26850591Y-78999989D01*
X26864989Y-79072373D01*
X26864989Y-79072376D01*
X26907635Y-79286771D01*
X27070084Y-79529894D01*
X27131454Y-79570900D01*
X31529091Y-83968538D01*
X31570095Y-84029905D01*
X31813217Y-84192354D01*
X32027612Y-84235000D01*
X32100000Y-84249399D01*
X32172388Y-84235000D01*
X35733421Y-84235000D01*
X35748688Y-84250267D01*
X36073963Y-84385000D01*
X36426037Y-84385000D01*
X36751312Y-84250267D01*
X37000267Y-84001312D01*
X37000405Y-84000978D01*
X37323963Y-84135000D01*
X37676037Y-84135000D01*
X38001312Y-84000267D01*
X38250267Y-83751312D01*
X38385000Y-83426037D01*
X38385000Y-83073963D01*
X38250267Y-82748688D01*
X38001312Y-82499733D01*
X37676037Y-82365000D01*
X37654446Y-82365000D01*
X37420911Y-82131465D01*
X37379905Y-82070095D01*
X37136783Y-81907646D01*
X36922388Y-81865000D01*
X36922384Y-81865000D01*
X36850000Y-81850602D01*
X36777616Y-81865000D01*
X32904447Y-81865000D01*
X28735000Y-77695554D01*
X28735000Y-77524446D01*
X29942121Y-78731568D01*
X30042121Y-78972990D01*
X30277010Y-79207879D01*
X30583908Y-79335000D01*
X30916092Y-79335000D01*
X31222990Y-79207879D01*
X31457879Y-78972990D01*
X31585000Y-78666092D01*
X31585000Y-78333908D01*
X31457879Y-78027010D01*
X31222990Y-77792121D01*
X30981568Y-77692121D01*
X29335009Y-76045563D01*
X29335009Y-71624455D01*
X32179091Y-74468538D01*
X32220095Y-74529905D01*
X32463217Y-74692354D01*
X32677612Y-74735000D01*
X32677615Y-74735000D01*
X32749999Y-74749398D01*
X32822383Y-74735000D01*
X35342486Y-74735000D01*
X35583908Y-74835000D01*
X35916092Y-74835000D01*
X36222990Y-74707879D01*
X36457879Y-74472990D01*
X36585000Y-74166092D01*
X36585000Y-73833908D01*
X36457879Y-73527010D01*
X36430869Y-73500000D01*
X36457879Y-73472990D01*
X36585000Y-73166092D01*
X36585000Y-72833908D01*
X36457879Y-72527010D01*
X36430869Y-72500000D01*
X36457879Y-72472990D01*
X36585000Y-72166092D01*
X36585000Y-71981514D01*
X36836280Y-71877431D01*
X37127431Y-71586280D01*
X37285000Y-71205874D01*
X37285000Y-70794126D01*
X37127431Y-70413720D01*
X37010000Y-70296289D01*
X37010000Y-66703711D01*
X37127431Y-66586280D01*
X37285000Y-66205874D01*
X37285000Y-65794126D01*
X37127431Y-65413720D01*
X36836280Y-65122569D01*
X36455874Y-64965000D01*
X36044126Y-64965000D01*
X35663720Y-65122569D01*
X35372569Y-65413720D01*
X35215000Y-65794126D01*
X35215000Y-66205874D01*
X35372569Y-66586280D01*
X35490001Y-66703712D01*
X35490000Y-70296289D01*
X35372569Y-70413720D01*
X35322952Y-70533506D01*
X35320911Y-70531465D01*
X35279905Y-70470095D01*
X35036783Y-70307646D01*
X34822388Y-70265000D01*
X34822384Y-70265000D01*
X34750000Y-70250602D01*
X34677616Y-70265000D01*
X33306457Y-70265000D01*
X33207879Y-70027010D01*
X32972990Y-69792121D01*
X32731567Y-69692121D01*
X32307880Y-69268433D01*
X32207879Y-69027010D01*
X32165869Y-68985000D01*
X33092486Y-68985000D01*
X33333908Y-69085000D01*
X33666092Y-69085000D01*
X33972990Y-68957879D01*
X34207879Y-68722990D01*
X34335000Y-68416092D01*
X34335000Y-68083908D01*
X34207879Y-67777010D01*
X33972990Y-67542121D01*
X33666092Y-67415000D01*
X33333908Y-67415000D01*
X33092486Y-67515000D01*
X31907514Y-67515000D01*
X31666092Y-67415000D01*
X31333908Y-67415000D01*
X31217758Y-67463111D01*
X31320858Y-67360011D01*
X31826760Y-67360011D01*
X31908993Y-67376368D01*
X31991226Y-67360011D01*
X31991230Y-67360011D01*
X32234794Y-67311563D01*
X32510994Y-67127012D01*
X32557580Y-67057291D01*
X36532283Y-63082589D01*
X36602001Y-63036005D01*
X36786552Y-62759805D01*
X36835000Y-62516241D01*
X36835000Y-62516240D01*
X36851358Y-62434004D01*
X36835000Y-62351767D01*
X36835000Y-62270133D01*
X36962207Y-62142926D01*
X37035387Y-61966254D01*
X45302711Y-70233578D01*
X45122569Y-70413720D01*
X44965000Y-70794126D01*
X44965000Y-71205874D01*
X45122569Y-71586280D01*
X45265001Y-71728712D01*
X45265000Y-73227064D01*
X44913720Y-73372569D01*
X44622569Y-73663720D01*
X44465000Y-74044126D01*
X44465000Y-74455874D01*
X44590216Y-74758172D01*
X38329211Y-74758172D01*
X38256827Y-74743774D01*
X38184443Y-74758172D01*
X38184440Y-74758172D01*
X37970045Y-74800818D01*
X37726923Y-74963267D01*
X37685919Y-75024634D01*
X34095554Y-78615000D01*
X34073963Y-78615000D01*
X33748688Y-78749733D01*
X33499733Y-78998688D01*
X33365000Y-79323963D01*
X33365000Y-79676037D01*
X33499733Y-80001312D01*
X33748688Y-80250267D01*
X34073963Y-80385000D01*
X34426037Y-80385000D01*
X34751312Y-80250267D01*
X35000267Y-80001312D01*
X35135000Y-79676037D01*
X35135000Y-79654446D01*
X38561275Y-76228172D01*
X40181397Y-76228172D01*
X40027010Y-76292121D01*
X39792121Y-76527010D01*
X39665000Y-76833908D01*
X39665000Y-77166092D01*
X39765001Y-77407516D01*
X39765000Y-81177616D01*
X39750602Y-81250000D01*
X39765000Y-81322384D01*
X39765000Y-81322387D01*
X39807646Y-81536782D01*
X39970095Y-81779905D01*
X40031465Y-81820911D01*
X40942121Y-82731568D01*
X41042121Y-82972990D01*
X41277010Y-83207879D01*
X41583908Y-83335000D01*
X41916092Y-83335000D01*
X42036533Y-83285112D01*
X40081645Y-85240000D01*
X30650524Y-85240000D01*
X30355918Y-85298601D01*
X30021831Y-85521831D01*
X29798601Y-85855918D01*
X29720213Y-86250000D01*
X29798601Y-86644082D01*
X30021831Y-86978169D01*
X30355918Y-87201399D01*
X30650524Y-87260000D01*
X40400529Y-87260000D01*
X40500000Y-87279786D01*
X40599471Y-87260000D01*
X40599476Y-87260000D01*
X40894082Y-87201399D01*
X41228169Y-86978169D01*
X41284518Y-86893837D01*
X50238921Y-77939435D01*
X50238921Y-78349476D01*
X50297522Y-78644082D01*
X50520752Y-78978169D01*
X50854839Y-79201399D01*
X51248920Y-79279787D01*
X51643002Y-79201399D01*
X51966866Y-78985000D01*
X52983421Y-78985000D01*
X52998688Y-79000267D01*
X53323963Y-79135000D01*
X53676037Y-79135000D01*
X54001312Y-79000267D01*
X54250267Y-78751312D01*
X54385000Y-78426037D01*
X54385000Y-78372619D01*
X54442354Y-78286783D01*
X54485000Y-78072388D01*
X54485000Y-78072385D01*
X54499398Y-78000001D01*
X54485000Y-77927617D01*
X54485000Y-76766579D01*
X54500267Y-76751312D01*
X54635000Y-76426037D01*
X54635000Y-76073963D01*
X54500267Y-75748688D01*
X54251312Y-75499733D01*
X53926037Y-75365000D01*
X53573963Y-75365000D01*
X53555855Y-75372501D01*
X56418356Y-72510000D01*
X65697761Y-72510000D01*
X66073847Y-72886086D01*
X66674778Y-73135000D01*
X67325222Y-73135000D01*
X67926153Y-72886086D01*
X68386086Y-72426153D01*
X68635000Y-71825222D01*
X68635000Y-71174778D01*
X68386086Y-70573847D01*
X68010000Y-70197761D01*
X68010000Y-67277543D01*
X68135000Y-66975766D01*
X68135000Y-66524234D01*
X67962207Y-66107074D01*
X67642926Y-65787793D01*
X67225766Y-65615000D01*
X66774234Y-65615000D01*
X66357074Y-65787793D01*
X66037793Y-66107074D01*
X65865000Y-66524234D01*
X65865000Y-66975766D01*
X65990001Y-67277545D01*
X65990000Y-70197761D01*
X65697761Y-70490000D01*
X56099471Y-70490000D01*
X56000000Y-70470214D01*
X55900529Y-70490000D01*
X55900524Y-70490000D01*
X55605918Y-70548601D01*
X55550328Y-70585745D01*
X55356162Y-70715482D01*
X55356160Y-70715484D01*
X55271831Y-70771831D01*
X55215484Y-70856160D01*
X51308909Y-74762736D01*
X51308909Y-60119446D01*
X52534518Y-58893838D01*
X52701399Y-58644083D01*
X52779786Y-58250000D01*
X52701399Y-57855918D01*
X52478169Y-57521831D01*
X52144082Y-57298601D01*
X51750000Y-57220214D01*
X51355917Y-57298601D01*
X51106162Y-57465482D01*
X49655071Y-58916574D01*
X49570740Y-58972922D01*
X49514392Y-59057253D01*
X49514391Y-59057254D01*
X49477129Y-59113021D01*
X49347510Y-59307010D01*
X49288909Y-59601616D01*
X49288909Y-59601620D01*
X49269123Y-59701091D01*
X49288909Y-59800562D01*
X49288910Y-70999463D01*
X38616254Y-60326808D01*
X38892926Y-60212207D01*
X39020133Y-60085000D01*
X42397681Y-60085000D01*
X42479914Y-60101357D01*
X42562147Y-60085000D01*
X42562151Y-60085000D01*
X42805715Y-60036552D01*
X43081915Y-59852001D01*
X43128501Y-59782280D01*
X69746843Y-33163939D01*
X69709373Y-33254399D01*
X69492715Y-33471057D01*
X69422998Y-33517641D01*
X69365601Y-33603542D01*
X69238446Y-33793842D01*
X69173641Y-34119642D01*
X69189999Y-34201880D01*
X69189998Y-55223511D01*
X69173641Y-55305744D01*
X69189998Y-55387977D01*
X69189998Y-55387980D01*
X69238446Y-55631544D01*
X69422997Y-55907745D01*
X69492718Y-55954331D01*
X71665001Y-58126616D01*
X71665000Y-90953252D01*
X71615000Y-91073963D01*
X71615000Y-91426037D01*
X71665000Y-91546748D01*
X71665001Y-96453250D01*
X71615000Y-96573963D01*
X71615000Y-96926037D01*
X71749733Y-97251312D01*
X71998688Y-97500267D01*
X72323963Y-97635000D01*
X72676037Y-97635000D01*
X73001312Y-97500267D01*
X73250267Y-97251312D01*
X73385000Y-96926037D01*
X73385000Y-96573963D01*
X73335000Y-96453252D01*
X73335000Y-91546748D01*
X73385000Y-91426037D01*
X73385000Y-91073963D01*
X73335000Y-90953252D01*
X73335000Y-71635000D01*
X73676037Y-71635000D01*
X74001312Y-71500267D01*
X74250267Y-71251312D01*
X74385000Y-70926037D01*
X74385000Y-70573963D01*
X74250267Y-70248688D01*
X74235000Y-70233421D01*
X74235000Y-68516579D01*
X74250267Y-68501312D01*
X74385000Y-68176037D01*
X74385000Y-67823963D01*
X74250267Y-67498688D01*
X74001312Y-67249733D01*
X73676037Y-67115000D01*
X73335000Y-67115000D01*
X73335000Y-57862978D01*
X73351357Y-57780745D01*
X73335000Y-57698512D01*
X73335000Y-57698509D01*
X73286552Y-57454945D01*
X73182086Y-57298601D01*
X73148584Y-57248461D01*
X73148583Y-57248460D01*
X73102001Y-57178745D01*
X73032285Y-57132163D01*
X70859998Y-54959877D01*
X70859998Y-41274524D01*
X71174089Y-41404624D01*
X71275415Y-41404624D01*
X72901465Y-43030675D01*
X73026465Y-43332452D01*
X73310583Y-43616570D01*
X73681801Y-43770333D01*
X74083603Y-43770333D01*
X74454821Y-43616570D01*
X74738939Y-43332452D01*
X74892702Y-42961234D01*
X74892702Y-42559432D01*
X74738939Y-42188214D01*
X74454821Y-41904096D01*
X74153044Y-41779096D01*
X72671756Y-40297809D01*
X72772119Y-40256237D01*
X73056237Y-39972119D01*
X73210000Y-39600901D01*
X73210000Y-39199099D01*
X73092997Y-38916627D01*
X73102337Y-38869670D01*
X73085000Y-38782509D01*
X73085000Y-38782505D01*
X73062943Y-38671616D01*
X86665001Y-52273676D01*
X86665000Y-55453252D01*
X86615000Y-55573963D01*
X86615000Y-55926037D01*
X86749733Y-56251312D01*
X86998688Y-56500267D01*
X87323963Y-56635000D01*
X87676037Y-56635000D01*
X88001312Y-56500267D01*
X88250267Y-56251312D01*
X88385000Y-55926037D01*
X88385000Y-55573963D01*
X88335000Y-55453252D01*
X88335000Y-52010038D01*
X88351357Y-51927805D01*
X88335000Y-51845572D01*
X88335000Y-51845569D01*
X88286552Y-51602005D01*
X88195612Y-51465903D01*
X88148584Y-51395521D01*
X88148583Y-51395520D01*
X88102001Y-51325805D01*
X88032286Y-51279223D01*
X82438062Y-45685000D01*
X83033422Y-45685000D01*
X83218763Y-45870342D01*
X83343763Y-46172119D01*
X83627881Y-46456237D01*
X83999099Y-46610000D01*
X84400901Y-46610000D01*
X84772119Y-46456237D01*
X85056237Y-46172119D01*
X85210000Y-45800901D01*
X85210000Y-45399099D01*
X85071844Y-45065560D01*
X91165001Y-51158717D01*
X91165000Y-51703251D01*
X91115000Y-51823963D01*
X91115000Y-52176037D01*
X91165001Y-52296750D01*
X91165000Y-56154132D01*
X82869401Y-64449732D01*
X82748688Y-64499733D01*
X82499733Y-64748688D01*
X82365000Y-65073963D01*
X82365000Y-65426037D01*
X82499733Y-65751312D01*
X82748688Y-66000267D01*
X83073963Y-66135000D01*
X83426037Y-66135000D01*
X83751312Y-66000267D01*
X84000267Y-65751312D01*
X84050268Y-65630599D01*
X92415001Y-57265867D01*
X92415000Y-64404133D01*
X92369401Y-64449732D01*
X92248688Y-64499733D01*
X91999733Y-64748688D01*
X91865000Y-65073963D01*
X91865000Y-65426037D01*
X91999733Y-65751312D01*
X92248688Y-66000267D01*
X92573963Y-66135000D01*
X92926037Y-66135000D01*
X93251312Y-66000267D01*
X93500267Y-65751312D01*
X93550268Y-65630599D01*
X93782280Y-65398587D01*
X93852001Y-65352001D01*
X94036552Y-65075801D01*
X94085000Y-64832237D01*
X94085000Y-64832236D01*
X94101358Y-64750000D01*
X94085000Y-64667763D01*
X94085000Y-53332233D01*
X94101357Y-53250000D01*
X94085000Y-53167767D01*
X94085000Y-53167763D01*
X94036552Y-52924199D01*
X93852001Y-52647999D01*
X93782282Y-52601415D01*
X92835000Y-51654133D01*
X92835000Y-50895085D01*
X92851358Y-50812848D01*
X92786552Y-50487048D01*
X92786552Y-50487047D01*
X92602001Y-50210847D01*
X92532283Y-50164263D01*
X89578020Y-47210000D01*
X89800901Y-47210000D01*
X90102679Y-47085000D01*
X91833422Y-47085000D01*
X94315001Y-49566580D01*
X94315000Y-78303091D01*
X79235845Y-93382247D01*
X79161952Y-93431621D01*
X78966348Y-93724360D01*
X78915000Y-93982505D01*
X78915000Y-93982509D01*
X78897663Y-94069670D01*
X78907003Y-94116627D01*
X78790000Y-94399099D01*
X78790000Y-94800901D01*
X78943763Y-95172119D01*
X79227881Y-95456237D01*
X79599099Y-95610000D01*
X80000901Y-95610000D01*
X80372119Y-95456237D01*
X80656237Y-95172119D01*
X80810000Y-94800901D01*
X80810000Y-94399099D01*
X80784269Y-94336979D01*
X95764157Y-79357092D01*
X95838049Y-79307719D01*
X95904761Y-79207879D01*
X96033652Y-79014980D01*
X96053539Y-78915000D01*
X96085000Y-78756835D01*
X96085000Y-78756831D01*
X96102337Y-78669670D01*
X96085000Y-78582509D01*
X96085000Y-49287161D01*
X96102337Y-49200000D01*
X96085000Y-49112839D01*
X96085000Y-49112835D01*
X96033652Y-48854690D01*
X95962316Y-48747929D01*
X95887424Y-48635845D01*
X95887423Y-48635844D01*
X95838049Y-48561951D01*
X95764156Y-48512577D01*
X92887425Y-45635847D01*
X92838049Y-45561951D01*
X92545310Y-45366348D01*
X92287165Y-45315000D01*
X92287161Y-45315000D01*
X92200000Y-45297663D01*
X92112839Y-45315000D01*
X90102679Y-45315000D01*
X89800901Y-45190000D01*
X89399099Y-45190000D01*
X89027881Y-45343763D01*
X88743763Y-45627881D01*
X88590000Y-45999099D01*
X88590000Y-46221980D01*
X76625502Y-34257483D01*
X76745309Y-34233652D01*
X76964154Y-34087424D01*
X79164156Y-31887423D01*
X79238049Y-31838049D01*
X79300017Y-31745309D01*
X79433652Y-31545310D01*
X79433652Y-31545309D01*
X79485000Y-31287165D01*
X79485000Y-31287161D01*
X79502337Y-31200000D01*
X79485000Y-31112839D01*
X79485000Y-29194126D01*
X82765000Y-29194126D01*
X82765000Y-29605874D01*
X82922569Y-29986280D01*
X83213720Y-30277431D01*
X83594126Y-30435000D01*
X84005874Y-30435000D01*
X84386280Y-30277431D01*
X84677431Y-29986280D01*
X84702431Y-29925924D01*
X90639387Y-23988968D01*
X95270637Y-23988968D01*
X95361923Y-24249580D01*
X95949833Y-24466045D01*
X96575828Y-24441049D01*
X97038077Y-24249580D01*
X97129363Y-23988968D01*
X96200000Y-23059605D01*
X95270637Y-23988968D01*
X90639387Y-23988968D01*
X90843841Y-23784515D01*
X90928169Y-23728169D01*
X90984516Y-23643840D01*
X90984518Y-23643838D01*
X91101411Y-23468895D01*
X91151399Y-23394082D01*
X91210000Y-23099476D01*
X91210000Y-23099471D01*
X91229786Y-23000000D01*
X91210000Y-22900529D01*
X91210000Y-22629833D01*
X94613955Y-22629833D01*
X94638951Y-23255828D01*
X94830420Y-23718077D01*
X95091032Y-23809363D01*
X96020395Y-22880000D01*
X96379605Y-22880000D01*
X97308968Y-23809363D01*
X97569580Y-23718077D01*
X97786045Y-23130167D01*
X97761049Y-22504172D01*
X97569580Y-22041923D01*
X97308968Y-21950637D01*
X96379605Y-22880000D01*
X96020395Y-22880000D01*
X95091032Y-21950637D01*
X94830420Y-22041923D01*
X94613955Y-22629833D01*
X91210000Y-22629833D01*
X91210000Y-21448968D01*
X95270637Y-21448968D01*
X95327043Y-21610000D01*
X95270637Y-21771032D01*
X96200000Y-22700395D01*
X97129363Y-21771032D01*
X97072957Y-21610000D01*
X97129363Y-21448968D01*
X96200000Y-20519605D01*
X95270637Y-21448968D01*
X91210000Y-21448968D01*
X91210000Y-20089833D01*
X94613955Y-20089833D01*
X94638951Y-20715828D01*
X94830420Y-21178077D01*
X95091032Y-21269363D01*
X96020395Y-20340000D01*
X96379605Y-20340000D01*
X97308968Y-21269363D01*
X97569580Y-21178077D01*
X97786045Y-20590167D01*
X97761049Y-19964172D01*
X97569580Y-19501923D01*
X97308968Y-19410637D01*
X96379605Y-20340000D01*
X96020395Y-20340000D01*
X95091032Y-19410637D01*
X94830420Y-19501923D01*
X94613955Y-20089833D01*
X91210000Y-20089833D01*
X91210000Y-19117103D01*
X91418135Y-18908968D01*
X95270637Y-18908968D01*
X95327043Y-19070000D01*
X95270637Y-19231032D01*
X96200000Y-20160395D01*
X97129363Y-19231032D01*
X97072957Y-19070000D01*
X97129363Y-18908968D01*
X96200000Y-17979605D01*
X95270637Y-18908968D01*
X91418135Y-18908968D01*
X91535051Y-18792052D01*
X91774800Y-18213247D01*
X91774800Y-17586753D01*
X91759508Y-17549833D01*
X94613955Y-17549833D01*
X94638951Y-18175828D01*
X94830420Y-18638077D01*
X95091032Y-18729363D01*
X96020395Y-17800000D01*
X96379605Y-17800000D01*
X97308968Y-18729363D01*
X97569580Y-18638077D01*
X97786045Y-18050167D01*
X97761049Y-17424172D01*
X97569580Y-16961923D01*
X97308968Y-16870637D01*
X96379605Y-17800000D01*
X96020395Y-17800000D01*
X95091032Y-16870637D01*
X94830420Y-16961923D01*
X94613955Y-17549833D01*
X91759508Y-17549833D01*
X91535051Y-17007948D01*
X91157103Y-16630000D01*
X91535051Y-16252052D01*
X91774800Y-15673247D01*
X91774800Y-15046753D01*
X91733379Y-14946753D01*
X94625200Y-14946753D01*
X94625200Y-15573247D01*
X94864949Y-16152052D01*
X95305214Y-16592317D01*
X95270637Y-16691032D01*
X96200000Y-17620395D01*
X97129363Y-16691032D01*
X97094786Y-16592317D01*
X97535051Y-16152052D01*
X97774800Y-15573247D01*
X97774800Y-14946753D01*
X97535051Y-14367948D01*
X97094786Y-13927683D01*
X97129363Y-13828968D01*
X96200000Y-12899605D01*
X95270637Y-13828968D01*
X95305214Y-13927683D01*
X94864949Y-14367948D01*
X94625200Y-14946753D01*
X91733379Y-14946753D01*
X91535051Y-14467948D01*
X91094786Y-14027683D01*
X91129363Y-13928968D01*
X90200000Y-12999605D01*
X89270637Y-13928968D01*
X89305214Y-14027683D01*
X88864949Y-14467948D01*
X88625200Y-15046753D01*
X88625200Y-15673247D01*
X88864949Y-16252052D01*
X89242897Y-16630000D01*
X88864949Y-17007948D01*
X88625200Y-17586753D01*
X88625200Y-18213247D01*
X88864949Y-18792052D01*
X89190001Y-19117104D01*
X89190000Y-22581644D01*
X83274076Y-28497569D01*
X83213720Y-28522569D01*
X82922569Y-28813720D01*
X82765000Y-29194126D01*
X79485000Y-29194126D01*
X79485000Y-25312835D01*
X79433652Y-25054690D01*
X79238049Y-24761951D01*
X78945310Y-24566348D01*
X78600000Y-24497662D01*
X78366717Y-24544065D01*
X88532283Y-14378499D01*
X88602001Y-14331915D01*
X88786552Y-14055715D01*
X88835000Y-13812151D01*
X88835000Y-13812147D01*
X88851357Y-13729914D01*
X88837566Y-13660580D01*
X89091032Y-13749363D01*
X90020395Y-12820000D01*
X90379605Y-12820000D01*
X91308968Y-13749363D01*
X91569580Y-13658077D01*
X91786045Y-13070167D01*
X91762074Y-12469833D01*
X94613955Y-12469833D01*
X94638951Y-13095828D01*
X94830420Y-13558077D01*
X95091032Y-13649363D01*
X96020395Y-12720000D01*
X96379605Y-12720000D01*
X97308968Y-13649363D01*
X97569580Y-13558077D01*
X97786045Y-12970167D01*
X97761049Y-12344172D01*
X97569580Y-11881923D01*
X97308968Y-11790637D01*
X96379605Y-12720000D01*
X96020395Y-12720000D01*
X95091032Y-11790637D01*
X94830420Y-11881923D01*
X94613955Y-12469833D01*
X91762074Y-12469833D01*
X91761049Y-12444172D01*
X91569580Y-11981923D01*
X91308968Y-11890637D01*
X90379605Y-12820000D01*
X90020395Y-12820000D01*
X89091032Y-11890637D01*
X88835000Y-11980319D01*
X88835000Y-11711032D01*
X89270637Y-11711032D01*
X90200000Y-12640395D01*
X91129363Y-11711032D01*
X91038077Y-11450420D01*
X90450167Y-11233955D01*
X89824172Y-11258951D01*
X89361923Y-11450420D01*
X89270637Y-11711032D01*
X88835000Y-11711032D01*
X88835000Y-9866753D01*
X94625200Y-9866753D01*
X94625200Y-10493247D01*
X94864949Y-11072052D01*
X95305214Y-11512317D01*
X95270637Y-11611032D01*
X96200000Y-12540395D01*
X97129363Y-11611032D01*
X97094786Y-11512317D01*
X97535051Y-11072052D01*
X97774800Y-10493247D01*
X97774800Y-9866753D01*
X97535051Y-9287948D01*
X97092052Y-8844949D01*
X96513247Y-8605200D01*
X95886753Y-8605200D01*
X95307948Y-8844949D01*
X94864949Y-9287948D01*
X94625200Y-9866753D01*
X88835000Y-9866753D01*
X88835000Y-3608683D01*
X88892052Y-3585051D01*
X89270000Y-3207103D01*
X89647948Y-3585051D01*
X90226753Y-3824800D01*
X90853247Y-3824800D01*
X91432052Y-3585051D01*
X91875051Y-3142052D01*
X92114800Y-2563247D01*
X92114800Y-2127000D01*
X97873000Y-2127000D01*
X97873000Y-41661285D01*
G36*
X52865000Y-76073963D02*
X52865000Y-76426037D01*
X52999733Y-76751312D01*
X53015001Y-76766580D01*
X53015000Y-77492976D01*
X52998688Y-77499733D01*
X52983421Y-77515000D01*
X52258920Y-77515000D01*
X52258920Y-76669435D01*
X52872501Y-76055854D01*
X52865000Y-76073963D01*
X52865000Y-76073963D01*
G37*
X52865000Y-76073963D02*
X52865000Y-76426037D01*
X52999733Y-76751312D01*
X53015001Y-76766580D01*
X53015000Y-77492976D01*
X52998688Y-77499733D01*
X52983421Y-77515000D01*
X52258920Y-77515000D01*
X52258920Y-76669435D01*
X52872501Y-76055854D01*
X52865000Y-76073963D01*
G36*
X44240001Y-49900520D02*
X44240000Y-49900525D01*
X44240001Y-54233768D01*
X44215000Y-54294126D01*
X44215000Y-54705874D01*
X44372569Y-55086280D01*
X44663720Y-55377431D01*
X45022857Y-55526190D01*
X42134047Y-58415000D01*
X39020133Y-58415000D01*
X38892926Y-58287793D01*
X38475766Y-58115000D01*
X38024234Y-58115000D01*
X37607074Y-58287793D01*
X37287793Y-58607074D01*
X37173192Y-58883746D01*
X34570911Y-56281465D01*
X34529905Y-56220095D01*
X34286783Y-56057646D01*
X34072388Y-56015000D01*
X34072384Y-56015000D01*
X34000000Y-56000602D01*
X33927616Y-56015000D01*
X27822383Y-56015000D01*
X27749999Y-56000602D01*
X27677615Y-56015000D01*
X27677612Y-56015000D01*
X27463217Y-56057646D01*
X27220095Y-56220095D01*
X27179091Y-56281462D01*
X23095554Y-60365000D01*
X23073963Y-60365000D01*
X22748688Y-60499733D01*
X22499733Y-60748688D01*
X22365000Y-61073963D01*
X22365000Y-61426037D01*
X22499733Y-61751312D01*
X22748688Y-62000267D01*
X23073963Y-62135000D01*
X23426037Y-62135000D01*
X23751312Y-62000267D01*
X24000267Y-61751312D01*
X24135000Y-61426037D01*
X24135000Y-61404446D01*
X28054447Y-57485000D01*
X32534257Y-57485000D01*
X32498688Y-57499733D01*
X32249733Y-57748688D01*
X32115000Y-58073963D01*
X32115000Y-58426037D01*
X32249733Y-58751312D01*
X32498688Y-59000267D01*
X32823963Y-59135000D01*
X32845554Y-59135000D01*
X34124824Y-60414271D01*
X34005874Y-60365000D01*
X33594126Y-60365000D01*
X33213720Y-60522569D01*
X32922569Y-60813720D01*
X32765000Y-61194126D01*
X32765000Y-61382383D01*
X32684097Y-61503463D01*
X32640001Y-61725148D01*
X32640001Y-61725152D01*
X32625113Y-61799999D01*
X32640001Y-61874847D01*
X32640002Y-62485196D01*
X32194455Y-62930744D01*
X31986280Y-62722569D01*
X31605874Y-62565000D01*
X31194126Y-62565000D01*
X30813720Y-62722569D01*
X30696289Y-62840000D01*
X22038436Y-62840000D01*
X21963589Y-62825112D01*
X21888742Y-62840000D01*
X21888737Y-62840000D01*
X21667052Y-62884096D01*
X21415660Y-63052071D01*
X21373260Y-63115527D01*
X19134979Y-65353809D01*
X19134979Y-63516599D01*
X27966579Y-54685000D01*
X39897321Y-54685000D01*
X40199099Y-54810000D01*
X40600901Y-54810000D01*
X40972119Y-54656237D01*
X41256237Y-54372119D01*
X41410000Y-54000901D01*
X41410000Y-53599099D01*
X41256237Y-53227881D01*
X40972119Y-52943763D01*
X40600901Y-52790000D01*
X40199099Y-52790000D01*
X39897321Y-52915000D01*
X27687161Y-52915000D01*
X27600000Y-52897663D01*
X27512839Y-52915000D01*
X27512835Y-52915000D01*
X27254690Y-52966348D01*
X27035845Y-53112576D01*
X27035844Y-53112577D01*
X26961951Y-53161951D01*
X26912577Y-53235844D01*
X17760000Y-62388422D01*
X17760000Y-55314801D01*
X20314802Y-52760000D01*
X25325153Y-52760000D01*
X25400000Y-52774888D01*
X25474847Y-52760000D01*
X25474852Y-52760000D01*
X25696537Y-52715904D01*
X25947929Y-52547929D01*
X25990331Y-52484470D01*
X27930675Y-50544126D01*
X31965000Y-50544126D01*
X31965000Y-50955874D01*
X32122569Y-51336280D01*
X32413720Y-51627431D01*
X32794126Y-51785000D01*
X33205874Y-51785000D01*
X33586280Y-51627431D01*
X33703711Y-51510000D01*
X38208411Y-51510000D01*
X38283258Y-51524888D01*
X38358105Y-51510000D01*
X38358110Y-51510000D01*
X38579795Y-51465904D01*
X38831187Y-51297929D01*
X38873589Y-51234470D01*
X39181425Y-50926634D01*
X39467390Y-50926634D01*
X39884550Y-50753841D01*
X40203831Y-50434560D01*
X40376624Y-50017400D01*
X40376624Y-49565868D01*
X40203831Y-49148708D01*
X39884550Y-48829427D01*
X39467390Y-48656634D01*
X39015858Y-48656634D01*
X38598698Y-48829427D01*
X38279417Y-49148708D01*
X38106624Y-49565868D01*
X38106624Y-49851833D01*
X37968457Y-49990000D01*
X33703711Y-49990000D01*
X33586280Y-49872569D01*
X33205874Y-49715000D01*
X32794126Y-49715000D01*
X32413720Y-49872569D01*
X32122569Y-50163720D01*
X31965000Y-50544126D01*
X27930675Y-50544126D01*
X30284473Y-48190329D01*
X30347929Y-48147929D01*
X30407722Y-48058443D01*
X30515904Y-47896538D01*
X30525480Y-47848395D01*
X30560000Y-47674852D01*
X30560000Y-47674848D01*
X30574888Y-47600000D01*
X30560000Y-47525152D01*
X30560000Y-45274848D01*
X30574888Y-45200000D01*
X30560000Y-45125152D01*
X30560000Y-45125148D01*
X30515904Y-44903463D01*
X30378848Y-44698344D01*
X30307879Y-44527010D01*
X30072990Y-44292121D01*
X29766092Y-44165000D01*
X29433908Y-44165000D01*
X29127010Y-44292121D01*
X28892121Y-44527010D01*
X28765000Y-44833908D01*
X28765000Y-45166092D01*
X28892121Y-45472990D01*
X29040001Y-45620870D01*
X29040000Y-47285198D01*
X28360000Y-47965198D01*
X28360000Y-45474848D01*
X28374888Y-45400000D01*
X28360000Y-45325152D01*
X28360000Y-45325148D01*
X28315904Y-45103463D01*
X28178848Y-44898344D01*
X28107879Y-44727010D01*
X27872990Y-44492121D01*
X27566092Y-44365000D01*
X27233908Y-44365000D01*
X26927010Y-44492121D01*
X26692121Y-44727010D01*
X26565000Y-45033908D01*
X26565000Y-45276385D01*
X26527010Y-45292121D01*
X26292121Y-45527010D01*
X26165000Y-45833908D01*
X26165000Y-46166092D01*
X26189888Y-46226177D01*
X26086280Y-46122569D01*
X25705874Y-45965000D01*
X25294126Y-45965000D01*
X25233771Y-45990000D01*
X23791258Y-45990000D01*
X23224846Y-45423588D01*
X23336280Y-45377431D01*
X23627431Y-45086280D01*
X23785000Y-44705874D01*
X23785000Y-44294126D01*
X23627431Y-43913720D01*
X23336280Y-43622569D01*
X22955874Y-43465000D01*
X22544126Y-43465000D01*
X22163720Y-43622569D01*
X21872569Y-43913720D01*
X21826411Y-44025154D01*
X21415706Y-43614449D01*
X21672990Y-43507879D01*
X21907879Y-43272990D01*
X22006458Y-43034999D01*
X22450154Y-43034999D01*
X22525001Y-43049887D01*
X22599848Y-43034999D01*
X22599853Y-43034999D01*
X22821538Y-42990903D01*
X23072930Y-42822928D01*
X23115332Y-42759469D01*
X24091922Y-41782880D01*
X24272990Y-41707879D01*
X24507879Y-41472990D01*
X24635000Y-41166092D01*
X24635000Y-40935087D01*
X24692121Y-41072990D01*
X24927010Y-41307879D01*
X25168433Y-41407879D01*
X25429090Y-41668537D01*
X25470095Y-41729905D01*
X25713217Y-41892354D01*
X25927612Y-41935000D01*
X25927615Y-41935000D01*
X25999999Y-41949398D01*
X26072383Y-41935000D01*
X36370901Y-41935000D01*
X36225200Y-42286753D01*
X36225200Y-42913247D01*
X36464949Y-43492052D01*
X36842897Y-43870000D01*
X36464949Y-44247948D01*
X36225200Y-44826753D01*
X36225200Y-45453247D01*
X36464949Y-46032052D01*
X36907948Y-46475051D01*
X37486753Y-46714800D01*
X38113247Y-46714800D01*
X38692052Y-46475051D01*
X39135051Y-46032052D01*
X39374800Y-45453247D01*
X39374800Y-44826753D01*
X39135051Y-44247948D01*
X38757103Y-43870000D01*
X39135051Y-43492052D01*
X39374800Y-42913247D01*
X39374800Y-42286753D01*
X39226772Y-41929382D01*
X39412921Y-41892354D01*
X39656043Y-41729905D01*
X39697049Y-41668535D01*
X40655708Y-40709877D01*
X40897130Y-40609877D01*
X41132019Y-40374988D01*
X41259140Y-40068090D01*
X41259140Y-39735906D01*
X41132019Y-39429008D01*
X40897130Y-39194119D01*
X40590232Y-39066998D01*
X40258048Y-39066998D01*
X39951150Y-39194119D01*
X39716261Y-39429008D01*
X39616261Y-39670430D01*
X38821692Y-40465000D01*
X28031220Y-40465000D01*
X28035000Y-40455874D01*
X28035000Y-40044126D01*
X27877431Y-39663720D01*
X27586280Y-39372569D01*
X27205874Y-39215000D01*
X26794126Y-39215000D01*
X26413720Y-39372569D01*
X26122569Y-39663720D01*
X25982572Y-40001703D01*
X25872990Y-39892121D01*
X25566092Y-39765000D01*
X25233908Y-39765000D01*
X24927010Y-39892121D01*
X24692121Y-40127010D01*
X24565000Y-40433908D01*
X24565000Y-40664913D01*
X24507879Y-40527010D01*
X24272990Y-40292121D01*
X23966092Y-40165000D01*
X23633908Y-40165000D01*
X23327010Y-40292121D01*
X23169766Y-40449365D01*
X22966092Y-40365000D01*
X22633908Y-40365000D01*
X22327010Y-40492121D01*
X22092121Y-40727010D01*
X22017120Y-40908078D01*
X21885199Y-41040000D01*
X21835000Y-41040000D01*
X21835000Y-40833908D01*
X21707879Y-40527010D01*
X21472990Y-40292121D01*
X21384878Y-40255624D01*
X23432401Y-38208102D01*
X23542121Y-38472990D01*
X23777010Y-38707879D01*
X24083908Y-38835000D01*
X24416092Y-38835000D01*
X24722990Y-38707879D01*
X24750000Y-38680869D01*
X24777010Y-38707879D01*
X25083908Y-38835000D01*
X25416092Y-38835000D01*
X25657514Y-38735000D01*
X39391614Y-38735000D01*
X39463998Y-38749398D01*
X39536382Y-38735000D01*
X39536386Y-38735000D01*
X39750781Y-38692354D01*
X39993903Y-38529905D01*
X40034909Y-38468535D01*
X44240000Y-34263445D01*
X44240001Y-49900520D01*
X44240001Y-49900520D01*
G37*
X44240001Y-49900520D02*
X44240000Y-49900525D01*
X44240001Y-54233768D01*
X44215000Y-54294126D01*
X44215000Y-54705874D01*
X44372569Y-55086280D01*
X44663720Y-55377431D01*
X45022857Y-55526190D01*
X42134047Y-58415000D01*
X39020133Y-58415000D01*
X38892926Y-58287793D01*
X38475766Y-58115000D01*
X38024234Y-58115000D01*
X37607074Y-58287793D01*
X37287793Y-58607074D01*
X37173192Y-58883746D01*
X34570911Y-56281465D01*
X34529905Y-56220095D01*
X34286783Y-56057646D01*
X34072388Y-56015000D01*
X34072384Y-56015000D01*
X34000000Y-56000602D01*
X33927616Y-56015000D01*
X27822383Y-56015000D01*
X27749999Y-56000602D01*
X27677615Y-56015000D01*
X27677612Y-56015000D01*
X27463217Y-56057646D01*
X27220095Y-56220095D01*
X27179091Y-56281462D01*
X23095554Y-60365000D01*
X23073963Y-60365000D01*
X22748688Y-60499733D01*
X22499733Y-60748688D01*
X22365000Y-61073963D01*
X22365000Y-61426037D01*
X22499733Y-61751312D01*
X22748688Y-62000267D01*
X23073963Y-62135000D01*
X23426037Y-62135000D01*
X23751312Y-62000267D01*
X24000267Y-61751312D01*
X24135000Y-61426037D01*
X24135000Y-61404446D01*
X28054447Y-57485000D01*
X32534257Y-57485000D01*
X32498688Y-57499733D01*
X32249733Y-57748688D01*
X32115000Y-58073963D01*
X32115000Y-58426037D01*
X32249733Y-58751312D01*
X32498688Y-59000267D01*
X32823963Y-59135000D01*
X32845554Y-59135000D01*
X34124824Y-60414271D01*
X34005874Y-60365000D01*
X33594126Y-60365000D01*
X33213720Y-60522569D01*
X32922569Y-60813720D01*
X32765000Y-61194126D01*
X32765000Y-61382383D01*
X32684097Y-61503463D01*
X32640001Y-61725148D01*
X32640001Y-61725152D01*
X32625113Y-61799999D01*
X32640001Y-61874847D01*
X32640002Y-62485196D01*
X32194455Y-62930744D01*
X31986280Y-62722569D01*
X31605874Y-62565000D01*
X31194126Y-62565000D01*
X30813720Y-62722569D01*
X30696289Y-62840000D01*
X22038436Y-62840000D01*
X21963589Y-62825112D01*
X21888742Y-62840000D01*
X21888737Y-62840000D01*
X21667052Y-62884096D01*
X21415660Y-63052071D01*
X21373260Y-63115527D01*
X19134979Y-65353809D01*
X19134979Y-63516599D01*
X27966579Y-54685000D01*
X39897321Y-54685000D01*
X40199099Y-54810000D01*
X40600901Y-54810000D01*
X40972119Y-54656237D01*
X41256237Y-54372119D01*
X41410000Y-54000901D01*
X41410000Y-53599099D01*
X41256237Y-53227881D01*
X40972119Y-52943763D01*
X40600901Y-52790000D01*
X40199099Y-52790000D01*
X39897321Y-52915000D01*
X27687161Y-52915000D01*
X27600000Y-52897663D01*
X27512839Y-52915000D01*
X27512835Y-52915000D01*
X27254690Y-52966348D01*
X27035845Y-53112576D01*
X27035844Y-53112577D01*
X26961951Y-53161951D01*
X26912577Y-53235844D01*
X17760000Y-62388422D01*
X17760000Y-55314801D01*
X20314802Y-52760000D01*
X25325153Y-52760000D01*
X25400000Y-52774888D01*
X25474847Y-52760000D01*
X25474852Y-52760000D01*
X25696537Y-52715904D01*
X25947929Y-52547929D01*
X25990331Y-52484470D01*
X27930675Y-50544126D01*
X31965000Y-50544126D01*
X31965000Y-50955874D01*
X32122569Y-51336280D01*
X32413720Y-51627431D01*
X32794126Y-51785000D01*
X33205874Y-51785000D01*
X33586280Y-51627431D01*
X33703711Y-51510000D01*
X38208411Y-51510000D01*
X38283258Y-51524888D01*
X38358105Y-51510000D01*
X38358110Y-51510000D01*
X38579795Y-51465904D01*
X38831187Y-51297929D01*
X38873589Y-51234470D01*
X39181425Y-50926634D01*
X39467390Y-50926634D01*
X39884550Y-50753841D01*
X40203831Y-50434560D01*
X40376624Y-50017400D01*
X40376624Y-49565868D01*
X40203831Y-49148708D01*
X39884550Y-48829427D01*
X39467390Y-48656634D01*
X39015858Y-48656634D01*
X38598698Y-48829427D01*
X38279417Y-49148708D01*
X38106624Y-49565868D01*
X38106624Y-49851833D01*
X37968457Y-49990000D01*
X33703711Y-49990000D01*
X33586280Y-49872569D01*
X33205874Y-49715000D01*
X32794126Y-49715000D01*
X32413720Y-49872569D01*
X32122569Y-50163720D01*
X31965000Y-50544126D01*
X27930675Y-50544126D01*
X30284473Y-48190329D01*
X30347929Y-48147929D01*
X30407722Y-48058443D01*
X30515904Y-47896538D01*
X30525480Y-47848395D01*
X30560000Y-47674852D01*
X30560000Y-47674848D01*
X30574888Y-47600000D01*
X30560000Y-47525152D01*
X30560000Y-45274848D01*
X30574888Y-45200000D01*
X30560000Y-45125152D01*
X30560000Y-45125148D01*
X30515904Y-44903463D01*
X30378848Y-44698344D01*
X30307879Y-44527010D01*
X30072990Y-44292121D01*
X29766092Y-44165000D01*
X29433908Y-44165000D01*
X29127010Y-44292121D01*
X28892121Y-44527010D01*
X28765000Y-44833908D01*
X28765000Y-45166092D01*
X28892121Y-45472990D01*
X29040001Y-45620870D01*
X29040000Y-47285198D01*
X28360000Y-47965198D01*
X28360000Y-45474848D01*
X28374888Y-45400000D01*
X28360000Y-45325152D01*
X28360000Y-45325148D01*
X28315904Y-45103463D01*
X28178848Y-44898344D01*
X28107879Y-44727010D01*
X27872990Y-44492121D01*
X27566092Y-44365000D01*
X27233908Y-44365000D01*
X26927010Y-44492121D01*
X26692121Y-44727010D01*
X26565000Y-45033908D01*
X26565000Y-45276385D01*
X26527010Y-45292121D01*
X26292121Y-45527010D01*
X26165000Y-45833908D01*
X26165000Y-46166092D01*
X26189888Y-46226177D01*
X26086280Y-46122569D01*
X25705874Y-45965000D01*
X25294126Y-45965000D01*
X25233771Y-45990000D01*
X23791258Y-45990000D01*
X23224846Y-45423588D01*
X23336280Y-45377431D01*
X23627431Y-45086280D01*
X23785000Y-44705874D01*
X23785000Y-44294126D01*
X23627431Y-43913720D01*
X23336280Y-43622569D01*
X22955874Y-43465000D01*
X22544126Y-43465000D01*
X22163720Y-43622569D01*
X21872569Y-43913720D01*
X21826411Y-44025154D01*
X21415706Y-43614449D01*
X21672990Y-43507879D01*
X21907879Y-43272990D01*
X22006458Y-43034999D01*
X22450154Y-43034999D01*
X22525001Y-43049887D01*
X22599848Y-43034999D01*
X22599853Y-43034999D01*
X22821538Y-42990903D01*
X23072930Y-42822928D01*
X23115332Y-42759469D01*
X24091922Y-41782880D01*
X24272990Y-41707879D01*
X24507879Y-41472990D01*
X24635000Y-41166092D01*
X24635000Y-40935087D01*
X24692121Y-41072990D01*
X24927010Y-41307879D01*
X25168433Y-41407879D01*
X25429090Y-41668537D01*
X25470095Y-41729905D01*
X25713217Y-41892354D01*
X25927612Y-41935000D01*
X25927615Y-41935000D01*
X25999999Y-41949398D01*
X26072383Y-41935000D01*
X36370901Y-41935000D01*
X36225200Y-42286753D01*
X36225200Y-42913247D01*
X36464949Y-43492052D01*
X36842897Y-43870000D01*
X36464949Y-44247948D01*
X36225200Y-44826753D01*
X36225200Y-45453247D01*
X36464949Y-46032052D01*
X36907948Y-46475051D01*
X37486753Y-46714800D01*
X38113247Y-46714800D01*
X38692052Y-46475051D01*
X39135051Y-46032052D01*
X39374800Y-45453247D01*
X39374800Y-44826753D01*
X39135051Y-44247948D01*
X38757103Y-43870000D01*
X39135051Y-43492052D01*
X39374800Y-42913247D01*
X39374800Y-42286753D01*
X39226772Y-41929382D01*
X39412921Y-41892354D01*
X39656043Y-41729905D01*
X39697049Y-41668535D01*
X40655708Y-40709877D01*
X40897130Y-40609877D01*
X41132019Y-40374988D01*
X41259140Y-40068090D01*
X41259140Y-39735906D01*
X41132019Y-39429008D01*
X40897130Y-39194119D01*
X40590232Y-39066998D01*
X40258048Y-39066998D01*
X39951150Y-39194119D01*
X39716261Y-39429008D01*
X39616261Y-39670430D01*
X38821692Y-40465000D01*
X28031220Y-40465000D01*
X28035000Y-40455874D01*
X28035000Y-40044126D01*
X27877431Y-39663720D01*
X27586280Y-39372569D01*
X27205874Y-39215000D01*
X26794126Y-39215000D01*
X26413720Y-39372569D01*
X26122569Y-39663720D01*
X25982572Y-40001703D01*
X25872990Y-39892121D01*
X25566092Y-39765000D01*
X25233908Y-39765000D01*
X24927010Y-39892121D01*
X24692121Y-40127010D01*
X24565000Y-40433908D01*
X24565000Y-40664913D01*
X24507879Y-40527010D01*
X24272990Y-40292121D01*
X23966092Y-40165000D01*
X23633908Y-40165000D01*
X23327010Y-40292121D01*
X23169766Y-40449365D01*
X22966092Y-40365000D01*
X22633908Y-40365000D01*
X22327010Y-40492121D01*
X22092121Y-40727010D01*
X22017120Y-40908078D01*
X21885199Y-41040000D01*
X21835000Y-41040000D01*
X21835000Y-40833908D01*
X21707879Y-40527010D01*
X21472990Y-40292121D01*
X21384878Y-40255624D01*
X23432401Y-38208102D01*
X23542121Y-38472990D01*
X23777010Y-38707879D01*
X24083908Y-38835000D01*
X24416092Y-38835000D01*
X24722990Y-38707879D01*
X24750000Y-38680869D01*
X24777010Y-38707879D01*
X25083908Y-38835000D01*
X25416092Y-38835000D01*
X25657514Y-38735000D01*
X39391614Y-38735000D01*
X39463998Y-38749398D01*
X39536382Y-38735000D01*
X39536386Y-38735000D01*
X39750781Y-38692354D01*
X39993903Y-38529905D01*
X40034909Y-38468535D01*
X44240000Y-34263445D01*
X44240001Y-49900520D01*
G36*
X76265200Y-2563247D02*
X76504949Y-3142052D01*
X76947948Y-3585051D01*
X77526753Y-3824800D01*
X78153247Y-3824800D01*
X78732052Y-3585051D01*
X79110000Y-3207103D01*
X79487948Y-3585051D01*
X80066753Y-3824800D01*
X80693247Y-3824800D01*
X81272052Y-3585051D01*
X81650000Y-3207103D01*
X82027948Y-3585051D01*
X82606753Y-3824800D01*
X83233247Y-3824800D01*
X83812052Y-3585051D01*
X84190000Y-3207103D01*
X84567948Y-3585051D01*
X85146753Y-3824800D01*
X85773247Y-3824800D01*
X86352052Y-3585051D01*
X86730000Y-3207103D01*
X87107948Y-3585051D01*
X87165000Y-3608683D01*
X87165000Y-3661313D01*
X87165001Y-3661318D01*
X87165000Y-13384046D01*
X58135000Y-42414047D01*
X58135000Y-32594126D01*
X59965000Y-32594126D01*
X59965000Y-33005874D01*
X60122569Y-33386280D01*
X60413720Y-33677431D01*
X60794126Y-33835000D01*
X61205874Y-33835000D01*
X61486497Y-33718762D01*
X61695435Y-33927700D01*
X62112595Y-34100493D01*
X62564127Y-34100493D01*
X62981287Y-33927700D01*
X63300568Y-33608419D01*
X63473361Y-33191259D01*
X63473361Y-32739727D01*
X63300568Y-32322567D01*
X63223361Y-32245360D01*
X63223361Y-30688215D01*
X63326297Y-30645578D01*
X63645578Y-30326297D01*
X63818371Y-29909137D01*
X63818371Y-29457605D01*
X63645578Y-29040445D01*
X63326297Y-28721164D01*
X62909137Y-28548371D01*
X62457605Y-28548371D01*
X62040445Y-28721164D01*
X61882166Y-28879443D01*
X61605874Y-28765000D01*
X61194126Y-28765000D01*
X60813720Y-28922569D01*
X60522569Y-29213720D01*
X60365000Y-29594126D01*
X60365000Y-29782382D01*
X60284096Y-29903464D01*
X60240000Y-30125149D01*
X60240000Y-30125153D01*
X60225112Y-30200000D01*
X60240000Y-30274847D01*
X60240001Y-32096288D01*
X60122569Y-32213720D01*
X59965000Y-32594126D01*
X58135000Y-32594126D01*
X58135000Y-26174778D01*
X58072167Y-26023086D01*
X58040136Y-25862055D01*
X57948919Y-25725539D01*
X57886086Y-25573847D01*
X57769986Y-25457747D01*
X57678769Y-25321231D01*
X57542253Y-25230014D01*
X57426153Y-25113914D01*
X57274459Y-25051080D01*
X57137944Y-24959864D01*
X56976915Y-24927833D01*
X56959598Y-24920660D01*
X60611200Y-21269059D01*
X60690034Y-21459380D01*
X61290620Y-22059966D01*
X62075322Y-22385000D01*
X62924678Y-22385000D01*
X63249059Y-22250637D01*
X65315001Y-24316580D01*
X65315000Y-32487164D01*
X65366348Y-32745309D01*
X65561951Y-33038049D01*
X65854690Y-33233652D01*
X66200000Y-33302338D01*
X66545309Y-33233652D01*
X66838049Y-33038049D01*
X67033652Y-32745310D01*
X67085000Y-32487165D01*
X67085000Y-24037159D01*
X67102337Y-23949999D01*
X67085000Y-23862839D01*
X67085000Y-23862835D01*
X67033652Y-23604690D01*
X66892928Y-23394083D01*
X66887424Y-23385845D01*
X66887423Y-23385844D01*
X66838049Y-23311951D01*
X66764156Y-23262577D01*
X65386579Y-21885000D01*
X74365654Y-21885000D01*
X74540620Y-22059966D01*
X75325322Y-22385000D01*
X76174678Y-22385000D01*
X76959380Y-22059966D01*
X77559966Y-21459380D01*
X77885000Y-20674678D01*
X77885000Y-19825322D01*
X77559966Y-19040620D01*
X76959380Y-18440034D01*
X76174678Y-18115000D01*
X75325322Y-18115000D01*
X74540620Y-18440034D01*
X74365654Y-18615000D01*
X63884346Y-18615000D01*
X63709380Y-18440034D01*
X62924678Y-18115000D01*
X62075322Y-18115000D01*
X61290620Y-18440034D01*
X60690034Y-19040620D01*
X60555671Y-19365000D01*
X60465841Y-19365000D01*
X60378680Y-19347663D01*
X60291519Y-19365000D01*
X60291515Y-19365000D01*
X60033370Y-19416348D01*
X59814525Y-19562576D01*
X59814524Y-19562577D01*
X59740631Y-19611951D01*
X59691257Y-19685844D01*
X54185847Y-25191255D01*
X54111951Y-25240631D01*
X53916348Y-25533371D01*
X53865000Y-25791516D01*
X53865000Y-25791519D01*
X53847663Y-25878680D01*
X53865000Y-25965841D01*
X53865001Y-30634299D01*
X53865000Y-30634304D01*
X53865000Y-31251058D01*
X53899010Y-31333165D01*
X53916348Y-31420331D01*
X53965723Y-31494225D01*
X53999733Y-31576333D01*
X54062579Y-31639179D01*
X54111952Y-31713070D01*
X54185842Y-31762442D01*
X54248688Y-31825288D01*
X54330798Y-31859299D01*
X54404691Y-31908673D01*
X54491855Y-31926011D01*
X54573963Y-31960021D01*
X54662836Y-31960021D01*
X54750000Y-31977359D01*
X54837165Y-31960021D01*
X54865000Y-31960021D01*
X54865001Y-42572760D01*
X54613914Y-42823847D01*
X54551079Y-42975543D01*
X54459865Y-43112055D01*
X54427834Y-43273082D01*
X54365000Y-43424778D01*
X54365000Y-43588970D01*
X54332969Y-43750000D01*
X54365000Y-43911030D01*
X54365000Y-44075222D01*
X54427834Y-44226918D01*
X54459865Y-44387945D01*
X54551079Y-44524456D01*
X54613914Y-44676153D01*
X54730018Y-44792257D01*
X54821232Y-44928768D01*
X54957743Y-45019982D01*
X55073847Y-45136086D01*
X55225544Y-45198921D01*
X55300225Y-45248822D01*
X46276190Y-54272857D01*
X46260000Y-54233771D01*
X46260000Y-36835000D01*
X46605874Y-36835000D01*
X46986280Y-36677431D01*
X47277431Y-36386280D01*
X47435000Y-36005874D01*
X47435000Y-35594126D01*
X47360000Y-35413060D01*
X47360000Y-34103711D01*
X47477431Y-33986280D01*
X47635000Y-33605874D01*
X47635000Y-33194126D01*
X47477431Y-32813720D01*
X47186280Y-32522569D01*
X46812930Y-32367922D01*
X68968538Y-10212315D01*
X69029905Y-10171311D01*
X69192354Y-9928189D01*
X69235000Y-9713794D01*
X69235000Y-9713790D01*
X69249398Y-9641406D01*
X69235000Y-9569022D01*
X69235000Y-3650104D01*
X69392052Y-3585051D01*
X69835051Y-3142052D01*
X70074800Y-2563247D01*
X70074800Y-2127000D01*
X76265200Y-2127000D01*
X76265200Y-2563247D01*
X76265200Y-2563247D01*
G37*
X76265200Y-2563247D02*
X76504949Y-3142052D01*
X76947948Y-3585051D01*
X77526753Y-3824800D01*
X78153247Y-3824800D01*
X78732052Y-3585051D01*
X79110000Y-3207103D01*
X79487948Y-3585051D01*
X80066753Y-3824800D01*
X80693247Y-3824800D01*
X81272052Y-3585051D01*
X81650000Y-3207103D01*
X82027948Y-3585051D01*
X82606753Y-3824800D01*
X83233247Y-3824800D01*
X83812052Y-3585051D01*
X84190000Y-3207103D01*
X84567948Y-3585051D01*
X85146753Y-3824800D01*
X85773247Y-3824800D01*
X86352052Y-3585051D01*
X86730000Y-3207103D01*
X87107948Y-3585051D01*
X87165000Y-3608683D01*
X87165000Y-3661313D01*
X87165001Y-3661318D01*
X87165000Y-13384046D01*
X58135000Y-42414047D01*
X58135000Y-32594126D01*
X59965000Y-32594126D01*
X59965000Y-33005874D01*
X60122569Y-33386280D01*
X60413720Y-33677431D01*
X60794126Y-33835000D01*
X61205874Y-33835000D01*
X61486497Y-33718762D01*
X61695435Y-33927700D01*
X62112595Y-34100493D01*
X62564127Y-34100493D01*
X62981287Y-33927700D01*
X63300568Y-33608419D01*
X63473361Y-33191259D01*
X63473361Y-32739727D01*
X63300568Y-32322567D01*
X63223361Y-32245360D01*
X63223361Y-30688215D01*
X63326297Y-30645578D01*
X63645578Y-30326297D01*
X63818371Y-29909137D01*
X63818371Y-29457605D01*
X63645578Y-29040445D01*
X63326297Y-28721164D01*
X62909137Y-28548371D01*
X62457605Y-28548371D01*
X62040445Y-28721164D01*
X61882166Y-28879443D01*
X61605874Y-28765000D01*
X61194126Y-28765000D01*
X60813720Y-28922569D01*
X60522569Y-29213720D01*
X60365000Y-29594126D01*
X60365000Y-29782382D01*
X60284096Y-29903464D01*
X60240000Y-30125149D01*
X60240000Y-30125153D01*
X60225112Y-30200000D01*
X60240000Y-30274847D01*
X60240001Y-32096288D01*
X60122569Y-32213720D01*
X59965000Y-32594126D01*
X58135000Y-32594126D01*
X58135000Y-26174778D01*
X58072167Y-26023086D01*
X58040136Y-25862055D01*
X57948919Y-25725539D01*
X57886086Y-25573847D01*
X57769986Y-25457747D01*
X57678769Y-25321231D01*
X57542253Y-25230014D01*
X57426153Y-25113914D01*
X57274459Y-25051080D01*
X57137944Y-24959864D01*
X56976915Y-24927833D01*
X56959598Y-24920660D01*
X60611200Y-21269059D01*
X60690034Y-21459380D01*
X61290620Y-22059966D01*
X62075322Y-22385000D01*
X62924678Y-22385000D01*
X63249059Y-22250637D01*
X65315001Y-24316580D01*
X65315000Y-32487164D01*
X65366348Y-32745309D01*
X65561951Y-33038049D01*
X65854690Y-33233652D01*
X66200000Y-33302338D01*
X66545309Y-33233652D01*
X66838049Y-33038049D01*
X67033652Y-32745310D01*
X67085000Y-32487165D01*
X67085000Y-24037159D01*
X67102337Y-23949999D01*
X67085000Y-23862839D01*
X67085000Y-23862835D01*
X67033652Y-23604690D01*
X66892928Y-23394083D01*
X66887424Y-23385845D01*
X66887423Y-23385844D01*
X66838049Y-23311951D01*
X66764156Y-23262577D01*
X65386579Y-21885000D01*
X74365654Y-21885000D01*
X74540620Y-22059966D01*
X75325322Y-22385000D01*
X76174678Y-22385000D01*
X76959380Y-22059966D01*
X77559966Y-21459380D01*
X77885000Y-20674678D01*
X77885000Y-19825322D01*
X77559966Y-19040620D01*
X76959380Y-18440034D01*
X76174678Y-18115000D01*
X75325322Y-18115000D01*
X74540620Y-18440034D01*
X74365654Y-18615000D01*
X63884346Y-18615000D01*
X63709380Y-18440034D01*
X62924678Y-18115000D01*
X62075322Y-18115000D01*
X61290620Y-18440034D01*
X60690034Y-19040620D01*
X60555671Y-19365000D01*
X60465841Y-19365000D01*
X60378680Y-19347663D01*
X60291519Y-19365000D01*
X60291515Y-19365000D01*
X60033370Y-19416348D01*
X59814525Y-19562576D01*
X59814524Y-19562577D01*
X59740631Y-19611951D01*
X59691257Y-19685844D01*
X54185847Y-25191255D01*
X54111951Y-25240631D01*
X53916348Y-25533371D01*
X53865000Y-25791516D01*
X53865000Y-25791519D01*
X53847663Y-25878680D01*
X53865000Y-25965841D01*
X53865001Y-30634299D01*
X53865000Y-30634304D01*
X53865000Y-31251058D01*
X53899010Y-31333165D01*
X53916348Y-31420331D01*
X53965723Y-31494225D01*
X53999733Y-31576333D01*
X54062579Y-31639179D01*
X54111952Y-31713070D01*
X54185842Y-31762442D01*
X54248688Y-31825288D01*
X54330798Y-31859299D01*
X54404691Y-31908673D01*
X54491855Y-31926011D01*
X54573963Y-31960021D01*
X54662836Y-31960021D01*
X54750000Y-31977359D01*
X54837165Y-31960021D01*
X54865000Y-31960021D01*
X54865001Y-42572760D01*
X54613914Y-42823847D01*
X54551079Y-42975543D01*
X54459865Y-43112055D01*
X54427834Y-43273082D01*
X54365000Y-43424778D01*
X54365000Y-43588970D01*
X54332969Y-43750000D01*
X54365000Y-43911030D01*
X54365000Y-44075222D01*
X54427834Y-44226918D01*
X54459865Y-44387945D01*
X54551079Y-44524456D01*
X54613914Y-44676153D01*
X54730018Y-44792257D01*
X54821232Y-44928768D01*
X54957743Y-45019982D01*
X55073847Y-45136086D01*
X55225544Y-45198921D01*
X55300225Y-45248822D01*
X46276190Y-54272857D01*
X46260000Y-54233771D01*
X46260000Y-36835000D01*
X46605874Y-36835000D01*
X46986280Y-36677431D01*
X47277431Y-36386280D01*
X47435000Y-36005874D01*
X47435000Y-35594126D01*
X47360000Y-35413060D01*
X47360000Y-34103711D01*
X47477431Y-33986280D01*
X47635000Y-33605874D01*
X47635000Y-33194126D01*
X47477431Y-32813720D01*
X47186280Y-32522569D01*
X46812930Y-32367922D01*
X68968538Y-10212315D01*
X69029905Y-10171311D01*
X69192354Y-9928189D01*
X69235000Y-9713794D01*
X69235000Y-9713790D01*
X69249398Y-9641406D01*
X69235000Y-9569022D01*
X69235000Y-3650104D01*
X69392052Y-3585051D01*
X69835051Y-3142052D01*
X70074800Y-2563247D01*
X70074800Y-2127000D01*
X76265200Y-2127000D01*
X76265200Y-2563247D01*
G36*
X84734440Y-44728156D02*
X84470342Y-44618763D01*
X84087425Y-44235847D01*
X84038049Y-44161951D01*
X83745310Y-43966348D01*
X83487165Y-43915000D01*
X83487161Y-43915000D01*
X83400000Y-43897663D01*
X83312839Y-43915000D01*
X82302679Y-43915000D01*
X82000901Y-43790000D01*
X81599099Y-43790000D01*
X81227881Y-43943763D01*
X80962353Y-44209291D01*
X73838061Y-37085000D01*
X74033422Y-37085000D01*
X74618763Y-37670342D01*
X74743763Y-37972119D01*
X75027881Y-38256237D01*
X75399099Y-38410000D01*
X75800901Y-38410000D01*
X76172119Y-38256237D01*
X76456237Y-37972119D01*
X76610000Y-37600901D01*
X76610000Y-37199099D01*
X76456237Y-36827881D01*
X76172119Y-36543763D01*
X75870342Y-36418763D01*
X75087425Y-35635847D01*
X75038049Y-35561951D01*
X74745310Y-35366348D01*
X74487165Y-35315000D01*
X74487161Y-35315000D01*
X74400000Y-35297663D01*
X74312839Y-35315000D01*
X72087159Y-35315000D01*
X71999999Y-35297663D01*
X71912839Y-35315000D01*
X71912835Y-35315000D01*
X71654690Y-35366348D01*
X71605675Y-35399099D01*
X71435845Y-35512576D01*
X71435844Y-35512577D01*
X71361951Y-35561951D01*
X71312577Y-35635844D01*
X70859998Y-36088424D01*
X70859998Y-34470000D01*
X74476285Y-34470000D01*
X84734440Y-44728156D01*
X84734440Y-44728156D01*
G37*
X84734440Y-44728156D02*
X84470342Y-44618763D01*
X84087425Y-44235847D01*
X84038049Y-44161951D01*
X83745310Y-43966348D01*
X83487165Y-43915000D01*
X83487161Y-43915000D01*
X83400000Y-43897663D01*
X83312839Y-43915000D01*
X82302679Y-43915000D01*
X82000901Y-43790000D01*
X81599099Y-43790000D01*
X81227881Y-43943763D01*
X80962353Y-44209291D01*
X73838061Y-37085000D01*
X74033422Y-37085000D01*
X74618763Y-37670342D01*
X74743763Y-37972119D01*
X75027881Y-38256237D01*
X75399099Y-38410000D01*
X75800901Y-38410000D01*
X76172119Y-38256237D01*
X76456237Y-37972119D01*
X76610000Y-37600901D01*
X76610000Y-37199099D01*
X76456237Y-36827881D01*
X76172119Y-36543763D01*
X75870342Y-36418763D01*
X75087425Y-35635847D01*
X75038049Y-35561951D01*
X74745310Y-35366348D01*
X74487165Y-35315000D01*
X74487161Y-35315000D01*
X74400000Y-35297663D01*
X74312839Y-35315000D01*
X72087159Y-35315000D01*
X71999999Y-35297663D01*
X71912839Y-35315000D01*
X71912835Y-35315000D01*
X71654690Y-35366348D01*
X71605675Y-35399099D01*
X71435845Y-35512576D01*
X71435844Y-35512577D01*
X71361951Y-35561951D01*
X71312577Y-35635844D01*
X70859998Y-36088424D01*
X70859998Y-34470000D01*
X74476285Y-34470000D01*
X84734440Y-44728156D01*
G36*
X56765200Y-2563247D02*
X57004949Y-3142052D01*
X57447948Y-3585051D01*
X57605000Y-3650104D01*
X57605001Y-16556750D01*
X47974800Y-26186952D01*
X47974800Y-25626753D01*
X47735051Y-25047948D01*
X47357103Y-24670000D01*
X47735051Y-24292052D01*
X47974800Y-23713247D01*
X47974800Y-23086753D01*
X47735051Y-22507948D01*
X47292052Y-22064949D01*
X46713247Y-21825200D01*
X46086753Y-21825200D01*
X45507948Y-22064949D01*
X45064949Y-22507948D01*
X44825200Y-23086753D01*
X44825200Y-23713247D01*
X45064949Y-24292052D01*
X45442897Y-24670000D01*
X45064949Y-25047948D01*
X44825200Y-25626753D01*
X44825200Y-26253247D01*
X45064949Y-26832052D01*
X45507948Y-27275051D01*
X46086753Y-27514800D01*
X46646952Y-27514800D01*
X42105400Y-32056352D01*
X42105400Y-30822016D01*
X42030240Y-30444160D01*
X41743931Y-30015669D01*
X41315440Y-29729360D01*
X40810000Y-29628822D01*
X40752282Y-29640303D01*
X37147825Y-26035847D01*
X37098449Y-25961951D01*
X36805710Y-25766348D01*
X36547565Y-25715000D01*
X36547561Y-25715000D01*
X36486537Y-25702862D01*
X36663931Y-25584331D01*
X36950240Y-25155840D01*
X37000000Y-24905678D01*
X37049760Y-25155839D01*
X37336069Y-25584331D01*
X37764560Y-25870640D01*
X38270000Y-25971178D01*
X38775439Y-25870640D01*
X39203931Y-25584331D01*
X39490240Y-25155840D01*
X39540000Y-24905678D01*
X39589760Y-25155839D01*
X39876069Y-25584331D01*
X40304560Y-25870640D01*
X40810000Y-25971178D01*
X41315439Y-25870640D01*
X41743931Y-25584331D01*
X42030240Y-25155840D01*
X42105400Y-24777984D01*
X42105400Y-23202016D01*
X42030240Y-22824160D01*
X41743931Y-22395669D01*
X41315440Y-22109360D01*
X40810000Y-22008822D01*
X40304561Y-22109360D01*
X39876070Y-22395669D01*
X39589760Y-22824160D01*
X39540000Y-23074321D01*
X39490240Y-22824160D01*
X39203931Y-22395669D01*
X38775440Y-22109360D01*
X38270000Y-22008822D01*
X37764561Y-22109360D01*
X37336070Y-22395669D01*
X37049760Y-22824160D01*
X37000000Y-23074321D01*
X36950240Y-22824160D01*
X36663931Y-22395669D01*
X36235440Y-22109360D01*
X35730000Y-22008822D01*
X35224561Y-22109360D01*
X34796070Y-22395669D01*
X34509760Y-22824160D01*
X34460000Y-23074321D01*
X34410240Y-22824160D01*
X34123931Y-22395669D01*
X33695440Y-22109360D01*
X33190000Y-22008822D01*
X32684561Y-22109360D01*
X32626940Y-22147861D01*
X34899727Y-19875074D01*
X37065000Y-19875074D01*
X37065000Y-20326606D01*
X37237793Y-20743766D01*
X37557074Y-21063047D01*
X37974234Y-21235840D01*
X38425766Y-21235840D01*
X38842926Y-21063047D01*
X39162207Y-20743766D01*
X39335000Y-20326606D01*
X39335000Y-19875074D01*
X39162207Y-19457914D01*
X38842926Y-19138633D01*
X38425766Y-18965840D01*
X37974234Y-18965840D01*
X37557074Y-19138633D01*
X37237793Y-19457914D01*
X37065000Y-19875074D01*
X34899727Y-19875074D01*
X36515287Y-18259515D01*
X36645310Y-18233652D01*
X36938049Y-18038049D01*
X36987425Y-17964153D01*
X37687424Y-17264155D01*
X37687426Y-17264152D01*
X41027160Y-13924419D01*
X41294126Y-14035000D01*
X41705874Y-14035000D01*
X42086280Y-13877431D01*
X42377431Y-13586280D01*
X42535000Y-13205874D01*
X42535000Y-12794126D01*
X42377431Y-12413720D01*
X42086280Y-12122569D01*
X41705874Y-11965000D01*
X41294126Y-11965000D01*
X40931993Y-12115000D01*
X40787159Y-12115000D01*
X40699999Y-12097663D01*
X40612839Y-12115000D01*
X40612835Y-12115000D01*
X40354690Y-12166348D01*
X40354688Y-12166349D01*
X40354689Y-12166349D01*
X40135845Y-12312576D01*
X40135844Y-12312577D01*
X40061951Y-12361951D01*
X40012577Y-12435844D01*
X39911362Y-12537059D01*
X39777431Y-12213720D01*
X39486280Y-11922569D01*
X39105874Y-11765000D01*
X38694126Y-11765000D01*
X38313720Y-11922569D01*
X38022569Y-12213720D01*
X37872569Y-12575852D01*
X36602222Y-13846200D01*
X36297732Y-13846200D01*
X36309931Y-13838049D01*
X36359307Y-13764153D01*
X38438461Y-11685000D01*
X43087165Y-11685000D01*
X43345310Y-11633652D01*
X43638049Y-11438049D01*
X43833652Y-11145310D01*
X43902338Y-10800000D01*
X43833652Y-10454690D01*
X43638049Y-10161951D01*
X43345310Y-9966348D01*
X43087165Y-9915000D01*
X38159043Y-9915000D01*
X38071882Y-9897663D01*
X37984721Y-9915000D01*
X37984717Y-9915000D01*
X37733349Y-9965000D01*
X37726572Y-9966348D01*
X37507727Y-10112576D01*
X37507726Y-10112577D01*
X37433833Y-10161951D01*
X37384459Y-10235844D01*
X35305304Y-12315000D01*
X21137159Y-12315000D01*
X21049999Y-12297663D01*
X20962839Y-12315000D01*
X20962835Y-12315000D01*
X20704690Y-12366348D01*
X20704688Y-12366349D01*
X20704689Y-12366349D01*
X20485845Y-12512576D01*
X20485844Y-12512577D01*
X20411951Y-12561951D01*
X20362577Y-12635844D01*
X8116376Y-24882046D01*
X8075222Y-24865000D01*
X7424778Y-24865000D01*
X6823847Y-25113914D01*
X6363914Y-25573847D01*
X6115000Y-26174778D01*
X6115000Y-26825222D01*
X6363914Y-27426153D01*
X6823847Y-27886086D01*
X7424778Y-28135000D01*
X8075222Y-28135000D01*
X8676153Y-27886086D01*
X9136086Y-27426153D01*
X9385000Y-26825222D01*
X9385000Y-26174778D01*
X9367954Y-26133624D01*
X21416579Y-14085000D01*
X31568376Y-14085000D01*
X31556177Y-14093151D01*
X31506803Y-14167044D01*
X11561129Y-34112719D01*
X11479943Y-34193905D01*
X11178165Y-34318905D01*
X10894047Y-34603023D01*
X10740284Y-34974241D01*
X10740284Y-35376043D01*
X10894047Y-35747261D01*
X10930756Y-35783970D01*
X10909672Y-35815525D01*
X2127000Y-44598199D01*
X2127000Y-13342459D01*
X4206000Y-13342459D01*
X4206000Y-14453981D01*
X4631361Y-15480894D01*
X5417326Y-16266859D01*
X6444239Y-16692220D01*
X7555761Y-16692220D01*
X8582674Y-16266859D01*
X9368639Y-15480894D01*
X9794000Y-14453981D01*
X9794000Y-13342459D01*
X9512808Y-12663601D01*
X10116326Y-13267119D01*
X11143239Y-13692480D01*
X12254761Y-13692480D01*
X13281674Y-13267119D01*
X14067639Y-12481154D01*
X14493000Y-11454241D01*
X14493000Y-10342719D01*
X14067639Y-9315806D01*
X13281674Y-8529841D01*
X12254761Y-8104480D01*
X11143239Y-8104480D01*
X10116326Y-8529841D01*
X9514621Y-9131546D01*
X9796921Y-8439613D01*
X9791001Y-7328106D01*
X9655266Y-7000412D01*
X21163000Y-7000412D01*
X21163000Y-8799587D01*
X21244056Y-9207081D01*
X21552820Y-9669179D01*
X22014918Y-9977944D01*
X22560000Y-10086368D01*
X23105081Y-9977944D01*
X23567179Y-9669180D01*
X23841580Y-9258511D01*
X23857941Y-9313941D01*
X24201974Y-9739630D01*
X24682723Y-10001260D01*
X24756930Y-10016220D01*
X24973000Y-9893720D01*
X24973000Y-8027000D01*
X24953000Y-8027000D01*
X24953000Y-7773000D01*
X24973000Y-7773000D01*
X24973000Y-5906280D01*
X25227000Y-5906280D01*
X25227000Y-7773000D01*
X25247000Y-7773000D01*
X25247000Y-8027000D01*
X25227000Y-8027000D01*
X25227000Y-9893720D01*
X25443070Y-10016220D01*
X25517277Y-10001260D01*
X25998026Y-9739630D01*
X26342059Y-9313941D01*
X26358420Y-9258510D01*
X26632820Y-9669179D01*
X27094918Y-9977944D01*
X27640000Y-10086368D01*
X28185081Y-9977944D01*
X28647179Y-9669180D01*
X28955944Y-9207082D01*
X29037000Y-8799588D01*
X29037000Y-7000412D01*
X29029002Y-6960200D01*
X35172760Y-6960200D01*
X35172760Y-8839800D01*
X35222043Y-9087565D01*
X35362391Y-9297609D01*
X35572435Y-9437957D01*
X35820200Y-9487240D01*
X37699800Y-9487240D01*
X37947565Y-9437957D01*
X38157609Y-9297609D01*
X38282939Y-9110042D01*
X38407948Y-9235051D01*
X38986753Y-9474800D01*
X39613247Y-9474800D01*
X40192052Y-9235051D01*
X40570000Y-8857103D01*
X40947948Y-9235051D01*
X41526753Y-9474800D01*
X42153247Y-9474800D01*
X42732052Y-9235051D01*
X43110000Y-8857103D01*
X43487948Y-9235051D01*
X44066753Y-9474800D01*
X44693247Y-9474800D01*
X45272052Y-9235051D01*
X45715051Y-8792052D01*
X45954800Y-8213247D01*
X45954800Y-7586753D01*
X45715051Y-7007948D01*
X45272052Y-6564949D01*
X44693247Y-6325200D01*
X44066753Y-6325200D01*
X43487948Y-6564949D01*
X43110000Y-6942897D01*
X42732052Y-6564949D01*
X42153247Y-6325200D01*
X41526753Y-6325200D01*
X40947948Y-6564949D01*
X40570000Y-6942897D01*
X40192052Y-6564949D01*
X39613247Y-6325200D01*
X38986753Y-6325200D01*
X38407948Y-6564949D01*
X38282939Y-6689958D01*
X38157609Y-6502391D01*
X37947565Y-6362043D01*
X37699800Y-6312760D01*
X35820200Y-6312760D01*
X35572435Y-6362043D01*
X35362391Y-6502391D01*
X35222043Y-6712435D01*
X35172760Y-6960200D01*
X29029002Y-6960200D01*
X28955944Y-6592918D01*
X28647180Y-6130820D01*
X28185082Y-5822056D01*
X27640000Y-5713632D01*
X27094919Y-5822056D01*
X26632821Y-6130820D01*
X26358420Y-6541490D01*
X26342059Y-6486059D01*
X25998026Y-6060370D01*
X25517277Y-5798740D01*
X25443070Y-5783780D01*
X25227000Y-5906280D01*
X24973000Y-5906280D01*
X24756930Y-5783780D01*
X24682723Y-5798740D01*
X24201974Y-6060370D01*
X23857941Y-6486059D01*
X23841580Y-6541489D01*
X23567180Y-6130820D01*
X23105082Y-5822056D01*
X22560000Y-5713632D01*
X22014919Y-5822056D01*
X21552821Y-6130820D01*
X21244057Y-6592918D01*
X21163000Y-7000412D01*
X9655266Y-7000412D01*
X9377035Y-6328703D01*
X8989790Y-6088555D01*
X7179605Y-7898740D01*
X8989790Y-9708925D01*
X9228963Y-9560603D01*
X8905000Y-10342719D01*
X8905000Y-11454241D01*
X9186192Y-12133099D01*
X8582674Y-11529581D01*
X7555761Y-11104220D01*
X6444239Y-11104220D01*
X5417326Y-11529581D01*
X4631361Y-12315546D01*
X4206000Y-13342459D01*
X2127000Y-13342459D01*
X2127000Y-9888530D01*
X5189815Y-9888530D01*
X5429963Y-10275775D01*
X6459127Y-10695661D01*
X7570634Y-10689741D01*
X8570037Y-10275775D01*
X8810185Y-9888530D01*
X7000000Y-8078345D01*
X5189815Y-9888530D01*
X2127000Y-9888530D01*
X2127000Y-7357867D01*
X4203079Y-7357867D01*
X4208999Y-8469374D01*
X4622965Y-9468777D01*
X5010210Y-9708925D01*
X6820395Y-7898740D01*
X5010210Y-6088555D01*
X4622965Y-6328703D01*
X4203079Y-7357867D01*
X2127000Y-7357867D01*
X2127000Y-5908950D01*
X5189815Y-5908950D01*
X7000000Y-7719135D01*
X8810185Y-5908950D01*
X8570037Y-5521705D01*
X7540873Y-5101819D01*
X6429366Y-5107739D01*
X5429963Y-5521705D01*
X5189815Y-5908950D01*
X2127000Y-5908950D01*
X2127000Y-2127000D01*
X56765200Y-2127000D01*
X56765200Y-2563247D01*
X56765200Y-2563247D01*
G37*
X56765200Y-2563247D02*
X57004949Y-3142052D01*
X57447948Y-3585051D01*
X57605000Y-3650104D01*
X57605001Y-16556750D01*
X47974800Y-26186952D01*
X47974800Y-25626753D01*
X47735051Y-25047948D01*
X47357103Y-24670000D01*
X47735051Y-24292052D01*
X47974800Y-23713247D01*
X47974800Y-23086753D01*
X47735051Y-22507948D01*
X47292052Y-22064949D01*
X46713247Y-21825200D01*
X46086753Y-21825200D01*
X45507948Y-22064949D01*
X45064949Y-22507948D01*
X44825200Y-23086753D01*
X44825200Y-23713247D01*
X45064949Y-24292052D01*
X45442897Y-24670000D01*
X45064949Y-25047948D01*
X44825200Y-25626753D01*
X44825200Y-26253247D01*
X45064949Y-26832052D01*
X45507948Y-27275051D01*
X46086753Y-27514800D01*
X46646952Y-27514800D01*
X42105400Y-32056352D01*
X42105400Y-30822016D01*
X42030240Y-30444160D01*
X41743931Y-30015669D01*
X41315440Y-29729360D01*
X40810000Y-29628822D01*
X40752282Y-29640303D01*
X37147825Y-26035847D01*
X37098449Y-25961951D01*
X36805710Y-25766348D01*
X36547565Y-25715000D01*
X36547561Y-25715000D01*
X36486537Y-25702862D01*
X36663931Y-25584331D01*
X36950240Y-25155840D01*
X37000000Y-24905678D01*
X37049760Y-25155839D01*
X37336069Y-25584331D01*
X37764560Y-25870640D01*
X38270000Y-25971178D01*
X38775439Y-25870640D01*
X39203931Y-25584331D01*
X39490240Y-25155840D01*
X39540000Y-24905678D01*
X39589760Y-25155839D01*
X39876069Y-25584331D01*
X40304560Y-25870640D01*
X40810000Y-25971178D01*
X41315439Y-25870640D01*
X41743931Y-25584331D01*
X42030240Y-25155840D01*
X42105400Y-24777984D01*
X42105400Y-23202016D01*
X42030240Y-22824160D01*
X41743931Y-22395669D01*
X41315440Y-22109360D01*
X40810000Y-22008822D01*
X40304561Y-22109360D01*
X39876070Y-22395669D01*
X39589760Y-22824160D01*
X39540000Y-23074321D01*
X39490240Y-22824160D01*
X39203931Y-22395669D01*
X38775440Y-22109360D01*
X38270000Y-22008822D01*
X37764561Y-22109360D01*
X37336070Y-22395669D01*
X37049760Y-22824160D01*
X37000000Y-23074321D01*
X36950240Y-22824160D01*
X36663931Y-22395669D01*
X36235440Y-22109360D01*
X35730000Y-22008822D01*
X35224561Y-22109360D01*
X34796070Y-22395669D01*
X34509760Y-22824160D01*
X34460000Y-23074321D01*
X34410240Y-22824160D01*
X34123931Y-22395669D01*
X33695440Y-22109360D01*
X33190000Y-22008822D01*
X32684561Y-22109360D01*
X32626940Y-22147861D01*
X34899727Y-19875074D01*
X37065000Y-19875074D01*
X37065000Y-20326606D01*
X37237793Y-20743766D01*
X37557074Y-21063047D01*
X37974234Y-21235840D01*
X38425766Y-21235840D01*
X38842926Y-21063047D01*
X39162207Y-20743766D01*
X39335000Y-20326606D01*
X39335000Y-19875074D01*
X39162207Y-19457914D01*
X38842926Y-19138633D01*
X38425766Y-18965840D01*
X37974234Y-18965840D01*
X37557074Y-19138633D01*
X37237793Y-19457914D01*
X37065000Y-19875074D01*
X34899727Y-19875074D01*
X36515287Y-18259515D01*
X36645310Y-18233652D01*
X36938049Y-18038049D01*
X36987425Y-17964153D01*
X37687424Y-17264155D01*
X37687426Y-17264152D01*
X41027160Y-13924419D01*
X41294126Y-14035000D01*
X41705874Y-14035000D01*
X42086280Y-13877431D01*
X42377431Y-13586280D01*
X42535000Y-13205874D01*
X42535000Y-12794126D01*
X42377431Y-12413720D01*
X42086280Y-12122569D01*
X41705874Y-11965000D01*
X41294126Y-11965000D01*
X40931993Y-12115000D01*
X40787159Y-12115000D01*
X40699999Y-12097663D01*
X40612839Y-12115000D01*
X40612835Y-12115000D01*
X40354690Y-12166348D01*
X40354688Y-12166349D01*
X40354689Y-12166349D01*
X40135845Y-12312576D01*
X40135844Y-12312577D01*
X40061951Y-12361951D01*
X40012577Y-12435844D01*
X39911362Y-12537059D01*
X39777431Y-12213720D01*
X39486280Y-11922569D01*
X39105874Y-11765000D01*
X38694126Y-11765000D01*
X38313720Y-11922569D01*
X38022569Y-12213720D01*
X37872569Y-12575852D01*
X36602222Y-13846200D01*
X36297732Y-13846200D01*
X36309931Y-13838049D01*
X36359307Y-13764153D01*
X38438461Y-11685000D01*
X43087165Y-11685000D01*
X43345310Y-11633652D01*
X43638049Y-11438049D01*
X43833652Y-11145310D01*
X43902338Y-10800000D01*
X43833652Y-10454690D01*
X43638049Y-10161951D01*
X43345310Y-9966348D01*
X43087165Y-9915000D01*
X38159043Y-9915000D01*
X38071882Y-9897663D01*
X37984721Y-9915000D01*
X37984717Y-9915000D01*
X37733349Y-9965000D01*
X37726572Y-9966348D01*
X37507727Y-10112576D01*
X37507726Y-10112577D01*
X37433833Y-10161951D01*
X37384459Y-10235844D01*
X35305304Y-12315000D01*
X21137159Y-12315000D01*
X21049999Y-12297663D01*
X20962839Y-12315000D01*
X20962835Y-12315000D01*
X20704690Y-12366348D01*
X20704688Y-12366349D01*
X20704689Y-12366349D01*
X20485845Y-12512576D01*
X20485844Y-12512577D01*
X20411951Y-12561951D01*
X20362577Y-12635844D01*
X8116376Y-24882046D01*
X8075222Y-24865000D01*
X7424778Y-24865000D01*
X6823847Y-25113914D01*
X6363914Y-25573847D01*
X6115000Y-26174778D01*
X6115000Y-26825222D01*
X6363914Y-27426153D01*
X6823847Y-27886086D01*
X7424778Y-28135000D01*
X8075222Y-28135000D01*
X8676153Y-27886086D01*
X9136086Y-27426153D01*
X9385000Y-26825222D01*
X9385000Y-26174778D01*
X9367954Y-26133624D01*
X21416579Y-14085000D01*
X31568376Y-14085000D01*
X31556177Y-14093151D01*
X31506803Y-14167044D01*
X11561129Y-34112719D01*
X11479943Y-34193905D01*
X11178165Y-34318905D01*
X10894047Y-34603023D01*
X10740284Y-34974241D01*
X10740284Y-35376043D01*
X10894047Y-35747261D01*
X10930756Y-35783970D01*
X10909672Y-35815525D01*
X2127000Y-44598199D01*
X2127000Y-13342459D01*
X4206000Y-13342459D01*
X4206000Y-14453981D01*
X4631361Y-15480894D01*
X5417326Y-16266859D01*
X6444239Y-16692220D01*
X7555761Y-16692220D01*
X8582674Y-16266859D01*
X9368639Y-15480894D01*
X9794000Y-14453981D01*
X9794000Y-13342459D01*
X9512808Y-12663601D01*
X10116326Y-13267119D01*
X11143239Y-13692480D01*
X12254761Y-13692480D01*
X13281674Y-13267119D01*
X14067639Y-12481154D01*
X14493000Y-11454241D01*
X14493000Y-10342719D01*
X14067639Y-9315806D01*
X13281674Y-8529841D01*
X12254761Y-8104480D01*
X11143239Y-8104480D01*
X10116326Y-8529841D01*
X9514621Y-9131546D01*
X9796921Y-8439613D01*
X9791001Y-7328106D01*
X9655266Y-7000412D01*
X21163000Y-7000412D01*
X21163000Y-8799587D01*
X21244056Y-9207081D01*
X21552820Y-9669179D01*
X22014918Y-9977944D01*
X22560000Y-10086368D01*
X23105081Y-9977944D01*
X23567179Y-9669180D01*
X23841580Y-9258511D01*
X23857941Y-9313941D01*
X24201974Y-9739630D01*
X24682723Y-10001260D01*
X24756930Y-10016220D01*
X24973000Y-9893720D01*
X24973000Y-8027000D01*
X24953000Y-8027000D01*
X24953000Y-7773000D01*
X24973000Y-7773000D01*
X24973000Y-5906280D01*
X25227000Y-5906280D01*
X25227000Y-7773000D01*
X25247000Y-7773000D01*
X25247000Y-8027000D01*
X25227000Y-8027000D01*
X25227000Y-9893720D01*
X25443070Y-10016220D01*
X25517277Y-10001260D01*
X25998026Y-9739630D01*
X26342059Y-9313941D01*
X26358420Y-9258510D01*
X26632820Y-9669179D01*
X27094918Y-9977944D01*
X27640000Y-10086368D01*
X28185081Y-9977944D01*
X28647179Y-9669180D01*
X28955944Y-9207082D01*
X29037000Y-8799588D01*
X29037000Y-7000412D01*
X29029002Y-6960200D01*
X35172760Y-6960200D01*
X35172760Y-8839800D01*
X35222043Y-9087565D01*
X35362391Y-9297609D01*
X35572435Y-9437957D01*
X35820200Y-9487240D01*
X37699800Y-9487240D01*
X37947565Y-9437957D01*
X38157609Y-9297609D01*
X38282939Y-9110042D01*
X38407948Y-9235051D01*
X38986753Y-9474800D01*
X39613247Y-9474800D01*
X40192052Y-9235051D01*
X40570000Y-8857103D01*
X40947948Y-9235051D01*
X41526753Y-9474800D01*
X42153247Y-9474800D01*
X42732052Y-9235051D01*
X43110000Y-8857103D01*
X43487948Y-9235051D01*
X44066753Y-9474800D01*
X44693247Y-9474800D01*
X45272052Y-9235051D01*
X45715051Y-8792052D01*
X45954800Y-8213247D01*
X45954800Y-7586753D01*
X45715051Y-7007948D01*
X45272052Y-6564949D01*
X44693247Y-6325200D01*
X44066753Y-6325200D01*
X43487948Y-6564949D01*
X43110000Y-6942897D01*
X42732052Y-6564949D01*
X42153247Y-6325200D01*
X41526753Y-6325200D01*
X40947948Y-6564949D01*
X40570000Y-6942897D01*
X40192052Y-6564949D01*
X39613247Y-6325200D01*
X38986753Y-6325200D01*
X38407948Y-6564949D01*
X38282939Y-6689958D01*
X38157609Y-6502391D01*
X37947565Y-6362043D01*
X37699800Y-6312760D01*
X35820200Y-6312760D01*
X35572435Y-6362043D01*
X35362391Y-6502391D01*
X35222043Y-6712435D01*
X35172760Y-6960200D01*
X29029002Y-6960200D01*
X28955944Y-6592918D01*
X28647180Y-6130820D01*
X28185082Y-5822056D01*
X27640000Y-5713632D01*
X27094919Y-5822056D01*
X26632821Y-6130820D01*
X26358420Y-6541490D01*
X26342059Y-6486059D01*
X25998026Y-6060370D01*
X25517277Y-5798740D01*
X25443070Y-5783780D01*
X25227000Y-5906280D01*
X24973000Y-5906280D01*
X24756930Y-5783780D01*
X24682723Y-5798740D01*
X24201974Y-6060370D01*
X23857941Y-6486059D01*
X23841580Y-6541489D01*
X23567180Y-6130820D01*
X23105082Y-5822056D01*
X22560000Y-5713632D01*
X22014919Y-5822056D01*
X21552821Y-6130820D01*
X21244057Y-6592918D01*
X21163000Y-7000412D01*
X9655266Y-7000412D01*
X9377035Y-6328703D01*
X8989790Y-6088555D01*
X7179605Y-7898740D01*
X8989790Y-9708925D01*
X9228963Y-9560603D01*
X8905000Y-10342719D01*
X8905000Y-11454241D01*
X9186192Y-12133099D01*
X8582674Y-11529581D01*
X7555761Y-11104220D01*
X6444239Y-11104220D01*
X5417326Y-11529581D01*
X4631361Y-12315546D01*
X4206000Y-13342459D01*
X2127000Y-13342459D01*
X2127000Y-9888530D01*
X5189815Y-9888530D01*
X5429963Y-10275775D01*
X6459127Y-10695661D01*
X7570634Y-10689741D01*
X8570037Y-10275775D01*
X8810185Y-9888530D01*
X7000000Y-8078345D01*
X5189815Y-9888530D01*
X2127000Y-9888530D01*
X2127000Y-7357867D01*
X4203079Y-7357867D01*
X4208999Y-8469374D01*
X4622965Y-9468777D01*
X5010210Y-9708925D01*
X6820395Y-7898740D01*
X5010210Y-6088555D01*
X4622965Y-6328703D01*
X4203079Y-7357867D01*
X2127000Y-7357867D01*
X2127000Y-5908950D01*
X5189815Y-5908950D01*
X7000000Y-7719135D01*
X8810185Y-5908950D01*
X8570037Y-5521705D01*
X7540873Y-5101819D01*
X6429366Y-5107739D01*
X5429963Y-5521705D01*
X5189815Y-5908950D01*
X2127000Y-5908950D01*
X2127000Y-2127000D01*
X56765200Y-2127000D01*
X56765200Y-2563247D01*
G36*
X59987948Y-3585051D02*
X60145000Y-3650104D01*
X60145001Y-14582450D01*
X59075000Y-15652451D01*
X59075000Y-3650104D01*
X59232052Y-3585051D01*
X59610000Y-3207103D01*
X59987948Y-3585051D01*
X59987948Y-3585051D01*
G37*
X59987948Y-3585051D02*
X60145000Y-3650104D01*
X60145001Y-14582450D01*
X59075000Y-15652451D01*
X59075000Y-3650104D01*
X59232052Y-3585051D01*
X59610000Y-3207103D01*
X59987948Y-3585051D01*
G36*
X62527948Y-3585051D02*
X62685000Y-3650104D01*
X62685001Y-12608150D01*
X61615000Y-13678151D01*
X61615000Y-3650104D01*
X61772052Y-3585051D01*
X62150000Y-3207103D01*
X62527948Y-3585051D01*
X62527948Y-3585051D01*
G37*
X62527948Y-3585051D02*
X62685000Y-3650104D01*
X62685001Y-12608150D01*
X61615000Y-13678151D01*
X61615000Y-3650104D01*
X61772052Y-3585051D01*
X62150000Y-3207103D01*
X62527948Y-3585051D01*
G36*
X65067948Y-3585051D02*
X65225000Y-3650104D01*
X65225000Y-3651464D01*
X65225001Y-3651469D01*
X65225000Y-11311259D01*
X64155000Y-12381259D01*
X64155000Y-3650104D01*
X64312052Y-3585051D01*
X64690000Y-3207103D01*
X65067948Y-3585051D01*
X65067948Y-3585051D01*
G37*
X65067948Y-3585051D02*
X65225000Y-3650104D01*
X65225000Y-3651464D01*
X65225001Y-3651469D01*
X65225000Y-11311259D01*
X64155000Y-12381259D01*
X64155000Y-3650104D01*
X64312052Y-3585051D01*
X64690000Y-3207103D01*
X65067948Y-3585051D01*
G36*
X67607948Y-3585051D02*
X67765000Y-3650104D01*
X67765000Y-3651464D01*
X67765001Y-3651469D01*
X67765000Y-9336959D01*
X66695000Y-10406959D01*
X66695000Y-3650104D01*
X66852052Y-3585051D01*
X67230000Y-3207103D01*
X67607948Y-3585051D01*
X67607948Y-3585051D01*
G37*
X67607948Y-3585051D02*
X67765000Y-3650104D01*
X67765000Y-3651464D01*
X67765001Y-3651469D01*
X67765000Y-9336959D01*
X66695000Y-10406959D01*
X66695000Y-3650104D01*
X66852052Y-3585051D01*
X67230000Y-3207103D01*
X67607948Y-3585051D01*
G04 #@! TD*
M02*
