M48
;DRILL file {KiCad 5.0.2-bee76a0~70~ubuntu18.04.1} date Mon 02 Dec 2019 09:24:17 PM EST
;FORMAT={-:-/ absolute / inch / decimal}
FMAT,2
INCH,TZ
T1C0.0787
%
G90
G05
T1
X1.0394Y-0.3543
X2.7323Y-2.0866
X3.0787Y-2.0866
X0.3307Y-1.1811
X0.6772Y-1.1811
X1.4724Y-2.0866
X1.8189Y-2.0866
X3.126Y-0.3543
X3.4724Y-0.3543
X2.1024Y-2.0866
X2.4488Y-2.0866
X2.4567Y-0.3543
X2.8031Y-0.3543
X0.3307Y-0.3543
X0.6772Y-0.3543
X3.126Y-1.1811
X3.4724Y-1.1811
X1.3858Y-0.3543
X1.7165Y-1.4567
X2.063Y-1.4567
X2.4567Y-1.1811
X2.8031Y-1.1811
X0.8425Y-2.0866
X1.189Y-2.0866
X1.0394Y-1.1811
X1.3858Y-1.1811
X1.7165Y-0.7874
X2.063Y-0.7874
T0
M30
