G04 #@! TF.GenerationSoftware,KiCad,Pcbnew,5.0.2-bee76a0~70~ubuntu18.04.1*
G04 #@! TF.CreationDate,2019-12-02T21:24:14-05:00*
G04 #@! TF.ProjectId,control,636f6e74-726f-46c2-9e6b-696361645f70,rev?*
G04 #@! TF.SameCoordinates,Original*
G04 #@! TF.FileFunction,Legend,Top*
G04 #@! TF.FilePolarity,Positive*
%FSLAX46Y46*%
G04 Gerber Fmt 4.6, Leading zero omitted, Abs format (unit mm)*
G04 Created by KiCad (PCBNEW 5.0.2-bee76a0~70~ubuntu18.04.1) date Mon 02 Dec 2019 09:24:14 PM EST*
%MOMM*%
%LPD*%
G01*
G04 APERTURE LIST*
%ADD10C,0.066040*%
%ADD11C,0.120000*%
%ADD12C,0.203200*%
%ADD13C,0.150000*%
G04 APERTURE END LIST*
D10*
G04 #@! TO.C,J1*
X8054000Y-87254000D02*
X8054000Y-86746000D01*
X8054000Y-86746000D02*
X7546000Y-86746000D01*
X7546000Y-87254000D02*
X7546000Y-86746000D01*
X8054000Y-87254000D02*
X7546000Y-87254000D01*
X5514000Y-87254000D02*
X5514000Y-86746000D01*
X5514000Y-86746000D02*
X5006000Y-86746000D01*
X5006000Y-87254000D02*
X5006000Y-86746000D01*
X5514000Y-87254000D02*
X5006000Y-87254000D01*
X5514000Y-84714000D02*
X5514000Y-84206000D01*
X5514000Y-84206000D02*
X5006000Y-84206000D01*
X5006000Y-84714000D02*
X5006000Y-84206000D01*
X5514000Y-84714000D02*
X5006000Y-84714000D01*
X8054000Y-84714000D02*
X8054000Y-84206000D01*
X8054000Y-84206000D02*
X7546000Y-84206000D01*
X7546000Y-84714000D02*
X7546000Y-84206000D01*
X8054000Y-84714000D02*
X7546000Y-84714000D01*
X5514000Y-82174000D02*
X5514000Y-81666000D01*
X5514000Y-81666000D02*
X5006000Y-81666000D01*
X5006000Y-82174000D02*
X5006000Y-81666000D01*
X5514000Y-82174000D02*
X5006000Y-82174000D01*
X8054000Y-82174000D02*
X8054000Y-81666000D01*
X8054000Y-81666000D02*
X7546000Y-81666000D01*
X7546000Y-82174000D02*
X7546000Y-81666000D01*
X8054000Y-82174000D02*
X7546000Y-82174000D01*
X8054000Y-79634000D02*
X8054000Y-79126000D01*
X8054000Y-79126000D02*
X7546000Y-79126000D01*
X7546000Y-79634000D02*
X7546000Y-79126000D01*
X8054000Y-79634000D02*
X7546000Y-79634000D01*
X5514000Y-79634000D02*
X5514000Y-79126000D01*
X5514000Y-79126000D02*
X5006000Y-79126000D01*
X5006000Y-79634000D02*
X5006000Y-79126000D01*
X5514000Y-79634000D02*
X5006000Y-79634000D01*
X5514000Y-77094000D02*
X5514000Y-76586000D01*
X5514000Y-76586000D02*
X5006000Y-76586000D01*
X5006000Y-77094000D02*
X5006000Y-76586000D01*
X5514000Y-77094000D02*
X5006000Y-77094000D01*
X8054000Y-77094000D02*
X8054000Y-76586000D01*
X8054000Y-76586000D02*
X7546000Y-76586000D01*
X7546000Y-77094000D02*
X7546000Y-76586000D01*
X8054000Y-77094000D02*
X7546000Y-77094000D01*
X5514000Y-74554000D02*
X5514000Y-74046000D01*
X5514000Y-74046000D02*
X5006000Y-74046000D01*
X5006000Y-74554000D02*
X5006000Y-74046000D01*
X5514000Y-74554000D02*
X5006000Y-74554000D01*
X8054000Y-74554000D02*
X8054000Y-74046000D01*
X8054000Y-74046000D02*
X7546000Y-74046000D01*
X7546000Y-74554000D02*
X7546000Y-74046000D01*
X8054000Y-74554000D02*
X7546000Y-74554000D01*
X8054000Y-72014000D02*
X8054000Y-71506000D01*
X8054000Y-71506000D02*
X7546000Y-71506000D01*
X7546000Y-72014000D02*
X7546000Y-71506000D01*
X8054000Y-72014000D02*
X7546000Y-72014000D01*
X5514000Y-72014000D02*
X5514000Y-71506000D01*
X5514000Y-71506000D02*
X5006000Y-71506000D01*
X5006000Y-72014000D02*
X5006000Y-71506000D01*
X5514000Y-72014000D02*
X5006000Y-72014000D01*
X5514000Y-69474000D02*
X5514000Y-68966000D01*
X5514000Y-68966000D02*
X5006000Y-68966000D01*
X5006000Y-69474000D02*
X5006000Y-68966000D01*
X5514000Y-69474000D02*
X5006000Y-69474000D01*
X8054000Y-69474000D02*
X8054000Y-68966000D01*
X8054000Y-68966000D02*
X7546000Y-68966000D01*
X7546000Y-69474000D02*
X7546000Y-68966000D01*
X8054000Y-69474000D02*
X7546000Y-69474000D01*
X5514000Y-66934000D02*
X5514000Y-66426000D01*
X5514000Y-66426000D02*
X5006000Y-66426000D01*
X5006000Y-66934000D02*
X5006000Y-66426000D01*
X5514000Y-66934000D02*
X5006000Y-66934000D01*
X8054000Y-66934000D02*
X8054000Y-66426000D01*
X8054000Y-66426000D02*
X7546000Y-66426000D01*
X7546000Y-66934000D02*
X7546000Y-66426000D01*
X8054000Y-66934000D02*
X7546000Y-66934000D01*
X8054000Y-64394000D02*
X8054000Y-63886000D01*
X8054000Y-63886000D02*
X7546000Y-63886000D01*
X7546000Y-64394000D02*
X7546000Y-63886000D01*
X8054000Y-64394000D02*
X7546000Y-64394000D01*
X5514000Y-64394000D02*
X5514000Y-63886000D01*
X5514000Y-63886000D02*
X5006000Y-63886000D01*
X5006000Y-64394000D02*
X5006000Y-63886000D01*
X5514000Y-64394000D02*
X5006000Y-64394000D01*
X5514000Y-61854000D02*
X5514000Y-61346000D01*
X5514000Y-61346000D02*
X5006000Y-61346000D01*
X5006000Y-61854000D02*
X5006000Y-61346000D01*
X5514000Y-61854000D02*
X5006000Y-61854000D01*
X8054000Y-61854000D02*
X8054000Y-61346000D01*
X8054000Y-61346000D02*
X7546000Y-61346000D01*
X7546000Y-61854000D02*
X7546000Y-61346000D01*
X8054000Y-61854000D02*
X7546000Y-61854000D01*
X5514000Y-59314000D02*
X5514000Y-58806000D01*
X5514000Y-58806000D02*
X5006000Y-58806000D01*
X5006000Y-59314000D02*
X5006000Y-58806000D01*
X5514000Y-59314000D02*
X5006000Y-59314000D01*
X8054000Y-59314000D02*
X8054000Y-58806000D01*
X8054000Y-58806000D02*
X7546000Y-58806000D01*
X7546000Y-59314000D02*
X7546000Y-58806000D01*
X8054000Y-59314000D02*
X7546000Y-59314000D01*
D11*
G04 #@! TO.C,RV1*
X7779000Y-15120000D02*
X7779000Y-11183000D01*
X7779000Y-6816000D02*
X7779000Y-2880000D01*
X17820000Y-15120000D02*
X17820000Y-11183000D01*
X17820000Y-6816000D02*
X17820000Y-2880000D01*
X7779000Y-15120000D02*
X9429000Y-15120000D01*
X11171000Y-15120000D02*
X11930000Y-15120000D01*
X13671000Y-15120000D02*
X14430000Y-15120000D01*
X16170000Y-15120000D02*
X17820000Y-15120000D01*
X7779000Y-2880000D02*
X17820000Y-2880000D01*
G04 #@! TO.C,RV2*
X20779000Y-59120000D02*
X20779000Y-55183000D01*
X20779000Y-50816000D02*
X20779000Y-46880000D01*
X30820000Y-59120000D02*
X30820000Y-55183000D01*
X30820000Y-50816000D02*
X30820000Y-46880000D01*
X20779000Y-59120000D02*
X22429000Y-59120000D01*
X24171000Y-59120000D02*
X24930000Y-59120000D01*
X26671000Y-59120000D02*
X27430000Y-59120000D01*
X29170000Y-59120000D02*
X30820000Y-59120000D01*
X20779000Y-46880000D02*
X30820000Y-46880000D01*
G04 #@! TO.C,RV3*
X61779000Y-15120000D02*
X61779000Y-11183000D01*
X61779000Y-6816000D02*
X61779000Y-2880000D01*
X71820000Y-15120000D02*
X71820000Y-11183000D01*
X71820000Y-6816000D02*
X71820000Y-2880000D01*
X61779000Y-15120000D02*
X63429000Y-15120000D01*
X65171000Y-15120000D02*
X65930000Y-15120000D01*
X67671000Y-15120000D02*
X68430000Y-15120000D01*
X70170000Y-15120000D02*
X71820000Y-15120000D01*
X61779000Y-2880000D02*
X71820000Y-2880000D01*
G04 #@! TO.C,RV4*
X25779000Y-2880000D02*
X35820000Y-2880000D01*
X34170000Y-15120000D02*
X35820000Y-15120000D01*
X31671000Y-15120000D02*
X32430000Y-15120000D01*
X29171000Y-15120000D02*
X29930000Y-15120000D01*
X25779000Y-15120000D02*
X27429000Y-15120000D01*
X35820000Y-6816000D02*
X35820000Y-2880000D01*
X35820000Y-15120000D02*
X35820000Y-11183000D01*
X25779000Y-6816000D02*
X25779000Y-2880000D01*
X25779000Y-15120000D02*
X25779000Y-11183000D01*
G04 #@! TO.C,RV5*
X36779000Y-59120000D02*
X36779000Y-55183000D01*
X36779000Y-50816000D02*
X36779000Y-46880000D01*
X46820000Y-59120000D02*
X46820000Y-55183000D01*
X46820000Y-50816000D02*
X46820000Y-46880000D01*
X36779000Y-59120000D02*
X38429000Y-59120000D01*
X40171000Y-59120000D02*
X40930000Y-59120000D01*
X42671000Y-59120000D02*
X43430000Y-59120000D01*
X45170000Y-59120000D02*
X46820000Y-59120000D01*
X36779000Y-46880000D02*
X46820000Y-46880000D01*
G04 #@! TO.C,RV6*
X78779000Y-15120000D02*
X78779000Y-11183000D01*
X78779000Y-6816000D02*
X78779000Y-2880000D01*
X88820000Y-15120000D02*
X88820000Y-11183000D01*
X88820000Y-6816000D02*
X88820000Y-2880000D01*
X78779000Y-15120000D02*
X80429000Y-15120000D01*
X82171000Y-15120000D02*
X82930000Y-15120000D01*
X84671000Y-15120000D02*
X85430000Y-15120000D01*
X87170000Y-15120000D02*
X88820000Y-15120000D01*
X78779000Y-2880000D02*
X88820000Y-2880000D01*
G04 #@! TO.C,RV7*
X7779000Y-23880000D02*
X17820000Y-23880000D01*
X16170000Y-36120000D02*
X17820000Y-36120000D01*
X13671000Y-36120000D02*
X14430000Y-36120000D01*
X11171000Y-36120000D02*
X11930000Y-36120000D01*
X7779000Y-36120000D02*
X9429000Y-36120000D01*
X17820000Y-27816000D02*
X17820000Y-23880000D01*
X17820000Y-36120000D02*
X17820000Y-32183000D01*
X7779000Y-27816000D02*
X7779000Y-23880000D01*
X7779000Y-36120000D02*
X7779000Y-32183000D01*
G04 #@! TO.C,RV8*
X52779000Y-46880000D02*
X62820000Y-46880000D01*
X61170000Y-59120000D02*
X62820000Y-59120000D01*
X58671000Y-59120000D02*
X59430000Y-59120000D01*
X56171000Y-59120000D02*
X56930000Y-59120000D01*
X52779000Y-59120000D02*
X54429000Y-59120000D01*
X62820000Y-50816000D02*
X62820000Y-46880000D01*
X62820000Y-59120000D02*
X62820000Y-55183000D01*
X52779000Y-50816000D02*
X52779000Y-46880000D01*
X52779000Y-59120000D02*
X52779000Y-55183000D01*
G04 #@! TO.C,RV9*
X61779000Y-36120000D02*
X61779000Y-32183000D01*
X61779000Y-27816000D02*
X61779000Y-23880000D01*
X71820000Y-36120000D02*
X71820000Y-32183000D01*
X71820000Y-27816000D02*
X71820000Y-23880000D01*
X61779000Y-36120000D02*
X63429000Y-36120000D01*
X65171000Y-36120000D02*
X65930000Y-36120000D01*
X67671000Y-36120000D02*
X68430000Y-36120000D01*
X70170000Y-36120000D02*
X71820000Y-36120000D01*
X61779000Y-23880000D02*
X71820000Y-23880000D01*
G04 #@! TO.C,RV10*
X25779000Y-23880000D02*
X35820000Y-23880000D01*
X34170000Y-36120000D02*
X35820000Y-36120000D01*
X31671000Y-36120000D02*
X32430000Y-36120000D01*
X29171000Y-36120000D02*
X29930000Y-36120000D01*
X25779000Y-36120000D02*
X27429000Y-36120000D01*
X35820000Y-27816000D02*
X35820000Y-23880000D01*
X35820000Y-36120000D02*
X35820000Y-32183000D01*
X25779000Y-27816000D02*
X25779000Y-23880000D01*
X25779000Y-36120000D02*
X25779000Y-32183000D01*
G04 #@! TO.C,RV11*
X68779000Y-46880000D02*
X78820000Y-46880000D01*
X77170000Y-59120000D02*
X78820000Y-59120000D01*
X74671000Y-59120000D02*
X75430000Y-59120000D01*
X72171000Y-59120000D02*
X72930000Y-59120000D01*
X68779000Y-59120000D02*
X70429000Y-59120000D01*
X78820000Y-50816000D02*
X78820000Y-46880000D01*
X78820000Y-59120000D02*
X78820000Y-55183000D01*
X68779000Y-50816000D02*
X68779000Y-46880000D01*
X68779000Y-59120000D02*
X68779000Y-55183000D01*
G04 #@! TO.C,RV12*
X78779000Y-23880000D02*
X88820000Y-23880000D01*
X87170000Y-36120000D02*
X88820000Y-36120000D01*
X84671000Y-36120000D02*
X85430000Y-36120000D01*
X82171000Y-36120000D02*
X82930000Y-36120000D01*
X78779000Y-36120000D02*
X80429000Y-36120000D01*
X88820000Y-27816000D02*
X88820000Y-23880000D01*
X88820000Y-36120000D02*
X88820000Y-32183000D01*
X78779000Y-27816000D02*
X78779000Y-23880000D01*
X78779000Y-36120000D02*
X78779000Y-32183000D01*
D12*
G04 #@! TO.C,S1*
X28260000Y-78492000D02*
X28641000Y-79381000D01*
X28260000Y-79508000D02*
X28260000Y-80270000D01*
X28260000Y-77730000D02*
X28260000Y-78492000D01*
X33340000Y-75952000D02*
X32959000Y-75952000D01*
X28260000Y-75952000D02*
X28641000Y-75952000D01*
X28260000Y-82048000D02*
X28641000Y-82048000D01*
X33340000Y-82048000D02*
X32959000Y-82048000D01*
X27752000Y-81540000D02*
X27752000Y-80016000D01*
X28260000Y-82048000D02*
X27752000Y-81540000D01*
X27752000Y-76460000D02*
X27752000Y-77984000D01*
X28260000Y-75952000D02*
X27752000Y-76460000D01*
X33848000Y-81540000D02*
X33848000Y-80016000D01*
X33340000Y-82048000D02*
X33848000Y-81540000D01*
X33848000Y-76460000D02*
X33340000Y-75952000D01*
X33848000Y-77984000D02*
X33848000Y-76460000D01*
G04 #@! TO.C,S2*
X33848000Y-87984000D02*
X33848000Y-86460000D01*
X33848000Y-86460000D02*
X33340000Y-85952000D01*
X33340000Y-92048000D02*
X33848000Y-91540000D01*
X33848000Y-91540000D02*
X33848000Y-90016000D01*
X28260000Y-85952000D02*
X27752000Y-86460000D01*
X27752000Y-86460000D02*
X27752000Y-87984000D01*
X28260000Y-92048000D02*
X27752000Y-91540000D01*
X27752000Y-91540000D02*
X27752000Y-90016000D01*
X33340000Y-92048000D02*
X32959000Y-92048000D01*
X28260000Y-92048000D02*
X28641000Y-92048000D01*
X28260000Y-85952000D02*
X28641000Y-85952000D01*
X33340000Y-85952000D02*
X32959000Y-85952000D01*
X28260000Y-87730000D02*
X28260000Y-88492000D01*
X28260000Y-89508000D02*
X28260000Y-90270000D01*
X28260000Y-88492000D02*
X28641000Y-89381000D01*
G04 #@! TO.C,S3*
X46848000Y-77984000D02*
X46848000Y-76460000D01*
X46848000Y-76460000D02*
X46340000Y-75952000D01*
X46340000Y-82048000D02*
X46848000Y-81540000D01*
X46848000Y-81540000D02*
X46848000Y-80016000D01*
X41260000Y-75952000D02*
X40752000Y-76460000D01*
X40752000Y-76460000D02*
X40752000Y-77984000D01*
X41260000Y-82048000D02*
X40752000Y-81540000D01*
X40752000Y-81540000D02*
X40752000Y-80016000D01*
X46340000Y-82048000D02*
X45959000Y-82048000D01*
X41260000Y-82048000D02*
X41641000Y-82048000D01*
X41260000Y-75952000D02*
X41641000Y-75952000D01*
X46340000Y-75952000D02*
X45959000Y-75952000D01*
X41260000Y-77730000D02*
X41260000Y-78492000D01*
X41260000Y-79508000D02*
X41260000Y-80270000D01*
X41260000Y-78492000D02*
X41641000Y-79381000D01*
G04 #@! TO.C,S4*
X41260000Y-88492000D02*
X41641000Y-89381000D01*
X41260000Y-89508000D02*
X41260000Y-90270000D01*
X41260000Y-87730000D02*
X41260000Y-88492000D01*
X46340000Y-85952000D02*
X45959000Y-85952000D01*
X41260000Y-85952000D02*
X41641000Y-85952000D01*
X41260000Y-92048000D02*
X41641000Y-92048000D01*
X46340000Y-92048000D02*
X45959000Y-92048000D01*
X40752000Y-91540000D02*
X40752000Y-90016000D01*
X41260000Y-92048000D02*
X40752000Y-91540000D01*
X40752000Y-86460000D02*
X40752000Y-87984000D01*
X41260000Y-85952000D02*
X40752000Y-86460000D01*
X46848000Y-91540000D02*
X46848000Y-90016000D01*
X46340000Y-92048000D02*
X46848000Y-91540000D01*
X46848000Y-86460000D02*
X46340000Y-85952000D01*
X46848000Y-87984000D02*
X46848000Y-86460000D01*
G04 #@! TO.C,S5*
X54260000Y-78492000D02*
X54641000Y-79381000D01*
X54260000Y-79508000D02*
X54260000Y-80270000D01*
X54260000Y-77730000D02*
X54260000Y-78492000D01*
X59340000Y-75952000D02*
X58959000Y-75952000D01*
X54260000Y-75952000D02*
X54641000Y-75952000D01*
X54260000Y-82048000D02*
X54641000Y-82048000D01*
X59340000Y-82048000D02*
X58959000Y-82048000D01*
X53752000Y-81540000D02*
X53752000Y-80016000D01*
X54260000Y-82048000D02*
X53752000Y-81540000D01*
X53752000Y-76460000D02*
X53752000Y-77984000D01*
X54260000Y-75952000D02*
X53752000Y-76460000D01*
X59848000Y-81540000D02*
X59848000Y-80016000D01*
X59340000Y-82048000D02*
X59848000Y-81540000D01*
X59848000Y-76460000D02*
X59340000Y-75952000D01*
X59848000Y-77984000D02*
X59848000Y-76460000D01*
G04 #@! TO.C,S6*
X59848000Y-87984000D02*
X59848000Y-86460000D01*
X59848000Y-86460000D02*
X59340000Y-85952000D01*
X59340000Y-92048000D02*
X59848000Y-91540000D01*
X59848000Y-91540000D02*
X59848000Y-90016000D01*
X54260000Y-85952000D02*
X53752000Y-86460000D01*
X53752000Y-86460000D02*
X53752000Y-87984000D01*
X54260000Y-92048000D02*
X53752000Y-91540000D01*
X53752000Y-91540000D02*
X53752000Y-90016000D01*
X59340000Y-92048000D02*
X58959000Y-92048000D01*
X54260000Y-92048000D02*
X54641000Y-92048000D01*
X54260000Y-85952000D02*
X54641000Y-85952000D01*
X59340000Y-85952000D02*
X58959000Y-85952000D01*
X54260000Y-87730000D02*
X54260000Y-88492000D01*
X54260000Y-89508000D02*
X54260000Y-90270000D01*
X54260000Y-88492000D02*
X54641000Y-89381000D01*
G04 #@! TO.C,S7*
X71848000Y-77984000D02*
X71848000Y-76460000D01*
X71848000Y-76460000D02*
X71340000Y-75952000D01*
X71340000Y-82048000D02*
X71848000Y-81540000D01*
X71848000Y-81540000D02*
X71848000Y-80016000D01*
X66260000Y-75952000D02*
X65752000Y-76460000D01*
X65752000Y-76460000D02*
X65752000Y-77984000D01*
X66260000Y-82048000D02*
X65752000Y-81540000D01*
X65752000Y-81540000D02*
X65752000Y-80016000D01*
X71340000Y-82048000D02*
X70959000Y-82048000D01*
X66260000Y-82048000D02*
X66641000Y-82048000D01*
X66260000Y-75952000D02*
X66641000Y-75952000D01*
X71340000Y-75952000D02*
X70959000Y-75952000D01*
X66260000Y-77730000D02*
X66260000Y-78492000D01*
X66260000Y-79508000D02*
X66260000Y-80270000D01*
X66260000Y-78492000D02*
X66641000Y-79381000D01*
G04 #@! TO.C,S8*
X66260000Y-88492000D02*
X66641000Y-89381000D01*
X66260000Y-89508000D02*
X66260000Y-90270000D01*
X66260000Y-87730000D02*
X66260000Y-88492000D01*
X71340000Y-85952000D02*
X70959000Y-85952000D01*
X66260000Y-85952000D02*
X66641000Y-85952000D01*
X66260000Y-92048000D02*
X66641000Y-92048000D01*
X71340000Y-92048000D02*
X70959000Y-92048000D01*
X65752000Y-91540000D02*
X65752000Y-90016000D01*
X66260000Y-92048000D02*
X65752000Y-91540000D01*
X65752000Y-86460000D02*
X65752000Y-87984000D01*
X66260000Y-85952000D02*
X65752000Y-86460000D01*
X71848000Y-91540000D02*
X71848000Y-90016000D01*
X71340000Y-92048000D02*
X71848000Y-91540000D01*
X71848000Y-86460000D02*
X71340000Y-85952000D01*
X71848000Y-87984000D02*
X71848000Y-86460000D01*
D11*
G04 #@! TO.C,RV13*
X42979000Y-26120000D02*
X42979000Y-22183000D01*
X42979000Y-17816000D02*
X42979000Y-13880000D01*
X53020000Y-26120000D02*
X53020000Y-22183000D01*
X53020000Y-17816000D02*
X53020000Y-13880000D01*
X42979000Y-26120000D02*
X44629000Y-26120000D01*
X46371000Y-26120000D02*
X47130000Y-26120000D01*
X48871000Y-26120000D02*
X49630000Y-26120000D01*
X51370000Y-26120000D02*
X53020000Y-26120000D01*
X42979000Y-13880000D02*
X53020000Y-13880000D01*
G04 #@! TO.C,RV14*
X42979000Y-30880000D02*
X53020000Y-30880000D01*
X51370000Y-43120000D02*
X53020000Y-43120000D01*
X48871000Y-43120000D02*
X49630000Y-43120000D01*
X46371000Y-43120000D02*
X47130000Y-43120000D01*
X42979000Y-43120000D02*
X44629000Y-43120000D01*
X53020000Y-34816000D02*
X53020000Y-30880000D01*
X53020000Y-43120000D02*
X53020000Y-39183000D01*
X42979000Y-34816000D02*
X42979000Y-30880000D01*
X42979000Y-43120000D02*
X42979000Y-39183000D01*
G04 #@! TO.C,RV1*
D13*
X5602380Y-10545238D02*
X5126190Y-10878571D01*
X5602380Y-11116666D02*
X4602380Y-11116666D01*
X4602380Y-10735714D01*
X4650000Y-10640476D01*
X4697619Y-10592857D01*
X4792857Y-10545238D01*
X4935714Y-10545238D01*
X5030952Y-10592857D01*
X5078571Y-10640476D01*
X5126190Y-10735714D01*
X5126190Y-11116666D01*
X4602380Y-10259523D02*
X5602380Y-9926190D01*
X4602380Y-9592857D01*
X5602380Y-8735714D02*
X5602380Y-9307142D01*
X5602380Y-9021428D02*
X4602380Y-9021428D01*
X4745238Y-9116666D01*
X4840476Y-9211904D01*
X4888095Y-9307142D01*
G04 #@! TO.C,RV2*
X18602380Y-54545238D02*
X18126190Y-54878571D01*
X18602380Y-55116666D02*
X17602380Y-55116666D01*
X17602380Y-54735714D01*
X17650000Y-54640476D01*
X17697619Y-54592857D01*
X17792857Y-54545238D01*
X17935714Y-54545238D01*
X18030952Y-54592857D01*
X18078571Y-54640476D01*
X18126190Y-54735714D01*
X18126190Y-55116666D01*
X17602380Y-54259523D02*
X18602380Y-53926190D01*
X17602380Y-53592857D01*
X17697619Y-53307142D02*
X17650000Y-53259523D01*
X17602380Y-53164285D01*
X17602380Y-52926190D01*
X17650000Y-52830952D01*
X17697619Y-52783333D01*
X17792857Y-52735714D01*
X17888095Y-52735714D01*
X18030952Y-52783333D01*
X18602380Y-53354761D01*
X18602380Y-52735714D01*
G04 #@! TO.C,RV3*
X59602380Y-10545238D02*
X59126190Y-10878571D01*
X59602380Y-11116666D02*
X58602380Y-11116666D01*
X58602380Y-10735714D01*
X58650000Y-10640476D01*
X58697619Y-10592857D01*
X58792857Y-10545238D01*
X58935714Y-10545238D01*
X59030952Y-10592857D01*
X59078571Y-10640476D01*
X59126190Y-10735714D01*
X59126190Y-11116666D01*
X58602380Y-10259523D02*
X59602380Y-9926190D01*
X58602380Y-9592857D01*
X58602380Y-9354761D02*
X58602380Y-8735714D01*
X58983333Y-9069047D01*
X58983333Y-8926190D01*
X59030952Y-8830952D01*
X59078571Y-8783333D01*
X59173809Y-8735714D01*
X59411904Y-8735714D01*
X59507142Y-8783333D01*
X59554761Y-8830952D01*
X59602380Y-8926190D01*
X59602380Y-9211904D01*
X59554761Y-9307142D01*
X59507142Y-9354761D01*
G04 #@! TO.C,RV4*
X23602380Y-10545238D02*
X23126190Y-10878571D01*
X23602380Y-11116666D02*
X22602380Y-11116666D01*
X22602380Y-10735714D01*
X22650000Y-10640476D01*
X22697619Y-10592857D01*
X22792857Y-10545238D01*
X22935714Y-10545238D01*
X23030952Y-10592857D01*
X23078571Y-10640476D01*
X23126190Y-10735714D01*
X23126190Y-11116666D01*
X22602380Y-10259523D02*
X23602380Y-9926190D01*
X22602380Y-9592857D01*
X22935714Y-8830952D02*
X23602380Y-8830952D01*
X22554761Y-9069047D02*
X23269047Y-9307142D01*
X23269047Y-8688095D01*
G04 #@! TO.C,RV5*
X34602380Y-54545238D02*
X34126190Y-54878571D01*
X34602380Y-55116666D02*
X33602380Y-55116666D01*
X33602380Y-54735714D01*
X33650000Y-54640476D01*
X33697619Y-54592857D01*
X33792857Y-54545238D01*
X33935714Y-54545238D01*
X34030952Y-54592857D01*
X34078571Y-54640476D01*
X34126190Y-54735714D01*
X34126190Y-55116666D01*
X33602380Y-54259523D02*
X34602380Y-53926190D01*
X33602380Y-53592857D01*
X33602380Y-52783333D02*
X33602380Y-53259523D01*
X34078571Y-53307142D01*
X34030952Y-53259523D01*
X33983333Y-53164285D01*
X33983333Y-52926190D01*
X34030952Y-52830952D01*
X34078571Y-52783333D01*
X34173809Y-52735714D01*
X34411904Y-52735714D01*
X34507142Y-52783333D01*
X34554761Y-52830952D01*
X34602380Y-52926190D01*
X34602380Y-53164285D01*
X34554761Y-53259523D01*
X34507142Y-53307142D01*
G04 #@! TO.C,RV6*
X76602380Y-10545238D02*
X76126190Y-10878571D01*
X76602380Y-11116666D02*
X75602380Y-11116666D01*
X75602380Y-10735714D01*
X75650000Y-10640476D01*
X75697619Y-10592857D01*
X75792857Y-10545238D01*
X75935714Y-10545238D01*
X76030952Y-10592857D01*
X76078571Y-10640476D01*
X76126190Y-10735714D01*
X76126190Y-11116666D01*
X75602380Y-10259523D02*
X76602380Y-9926190D01*
X75602380Y-9592857D01*
X75602380Y-8830952D02*
X75602380Y-9021428D01*
X75650000Y-9116666D01*
X75697619Y-9164285D01*
X75840476Y-9259523D01*
X76030952Y-9307142D01*
X76411904Y-9307142D01*
X76507142Y-9259523D01*
X76554761Y-9211904D01*
X76602380Y-9116666D01*
X76602380Y-8926190D01*
X76554761Y-8830952D01*
X76507142Y-8783333D01*
X76411904Y-8735714D01*
X76173809Y-8735714D01*
X76078571Y-8783333D01*
X76030952Y-8830952D01*
X75983333Y-8926190D01*
X75983333Y-9116666D01*
X76030952Y-9211904D01*
X76078571Y-9259523D01*
X76173809Y-9307142D01*
G04 #@! TO.C,RV7*
X5602380Y-31545238D02*
X5126190Y-31878571D01*
X5602380Y-32116666D02*
X4602380Y-32116666D01*
X4602380Y-31735714D01*
X4650000Y-31640476D01*
X4697619Y-31592857D01*
X4792857Y-31545238D01*
X4935714Y-31545238D01*
X5030952Y-31592857D01*
X5078571Y-31640476D01*
X5126190Y-31735714D01*
X5126190Y-32116666D01*
X4602380Y-31259523D02*
X5602380Y-30926190D01*
X4602380Y-30592857D01*
X4602380Y-30354761D02*
X4602380Y-29688095D01*
X5602380Y-30116666D01*
G04 #@! TO.C,RV8*
X50602380Y-54545238D02*
X50126190Y-54878571D01*
X50602380Y-55116666D02*
X49602380Y-55116666D01*
X49602380Y-54735714D01*
X49650000Y-54640476D01*
X49697619Y-54592857D01*
X49792857Y-54545238D01*
X49935714Y-54545238D01*
X50030952Y-54592857D01*
X50078571Y-54640476D01*
X50126190Y-54735714D01*
X50126190Y-55116666D01*
X49602380Y-54259523D02*
X50602380Y-53926190D01*
X49602380Y-53592857D01*
X50030952Y-53116666D02*
X49983333Y-53211904D01*
X49935714Y-53259523D01*
X49840476Y-53307142D01*
X49792857Y-53307142D01*
X49697619Y-53259523D01*
X49650000Y-53211904D01*
X49602380Y-53116666D01*
X49602380Y-52926190D01*
X49650000Y-52830952D01*
X49697619Y-52783333D01*
X49792857Y-52735714D01*
X49840476Y-52735714D01*
X49935714Y-52783333D01*
X49983333Y-52830952D01*
X50030952Y-52926190D01*
X50030952Y-53116666D01*
X50078571Y-53211904D01*
X50126190Y-53259523D01*
X50221428Y-53307142D01*
X50411904Y-53307142D01*
X50507142Y-53259523D01*
X50554761Y-53211904D01*
X50602380Y-53116666D01*
X50602380Y-52926190D01*
X50554761Y-52830952D01*
X50507142Y-52783333D01*
X50411904Y-52735714D01*
X50221428Y-52735714D01*
X50126190Y-52783333D01*
X50078571Y-52830952D01*
X50030952Y-52926190D01*
G04 #@! TO.C,RV9*
X59602380Y-31545238D02*
X59126190Y-31878571D01*
X59602380Y-32116666D02*
X58602380Y-32116666D01*
X58602380Y-31735714D01*
X58650000Y-31640476D01*
X58697619Y-31592857D01*
X58792857Y-31545238D01*
X58935714Y-31545238D01*
X59030952Y-31592857D01*
X59078571Y-31640476D01*
X59126190Y-31735714D01*
X59126190Y-32116666D01*
X58602380Y-31259523D02*
X59602380Y-30926190D01*
X58602380Y-30592857D01*
X59602380Y-30211904D02*
X59602380Y-30021428D01*
X59554761Y-29926190D01*
X59507142Y-29878571D01*
X59364285Y-29783333D01*
X59173809Y-29735714D01*
X58792857Y-29735714D01*
X58697619Y-29783333D01*
X58650000Y-29830952D01*
X58602380Y-29926190D01*
X58602380Y-30116666D01*
X58650000Y-30211904D01*
X58697619Y-30259523D01*
X58792857Y-30307142D01*
X59030952Y-30307142D01*
X59126190Y-30259523D01*
X59173809Y-30211904D01*
X59221428Y-30116666D01*
X59221428Y-29926190D01*
X59173809Y-29830952D01*
X59126190Y-29783333D01*
X59030952Y-29735714D01*
G04 #@! TO.C,RV10*
X23602380Y-32021428D02*
X23126190Y-32354761D01*
X23602380Y-32592857D02*
X22602380Y-32592857D01*
X22602380Y-32211904D01*
X22650000Y-32116666D01*
X22697619Y-32069047D01*
X22792857Y-32021428D01*
X22935714Y-32021428D01*
X23030952Y-32069047D01*
X23078571Y-32116666D01*
X23126190Y-32211904D01*
X23126190Y-32592857D01*
X22602380Y-31735714D02*
X23602380Y-31402380D01*
X22602380Y-31069047D01*
X23602380Y-30211904D02*
X23602380Y-30783333D01*
X23602380Y-30497619D02*
X22602380Y-30497619D01*
X22745238Y-30592857D01*
X22840476Y-30688095D01*
X22888095Y-30783333D01*
X22602380Y-29592857D02*
X22602380Y-29497619D01*
X22650000Y-29402380D01*
X22697619Y-29354761D01*
X22792857Y-29307142D01*
X22983333Y-29259523D01*
X23221428Y-29259523D01*
X23411904Y-29307142D01*
X23507142Y-29354761D01*
X23554761Y-29402380D01*
X23602380Y-29497619D01*
X23602380Y-29592857D01*
X23554761Y-29688095D01*
X23507142Y-29735714D01*
X23411904Y-29783333D01*
X23221428Y-29830952D01*
X22983333Y-29830952D01*
X22792857Y-29783333D01*
X22697619Y-29735714D01*
X22650000Y-29688095D01*
X22602380Y-29592857D01*
G04 #@! TO.C,RV11*
X66602380Y-55021428D02*
X66126190Y-55354761D01*
X66602380Y-55592857D02*
X65602380Y-55592857D01*
X65602380Y-55211904D01*
X65650000Y-55116666D01*
X65697619Y-55069047D01*
X65792857Y-55021428D01*
X65935714Y-55021428D01*
X66030952Y-55069047D01*
X66078571Y-55116666D01*
X66126190Y-55211904D01*
X66126190Y-55592857D01*
X65602380Y-54735714D02*
X66602380Y-54402380D01*
X65602380Y-54069047D01*
X66602380Y-53211904D02*
X66602380Y-53783333D01*
X66602380Y-53497619D02*
X65602380Y-53497619D01*
X65745238Y-53592857D01*
X65840476Y-53688095D01*
X65888095Y-53783333D01*
X66602380Y-52259523D02*
X66602380Y-52830952D01*
X66602380Y-52545238D02*
X65602380Y-52545238D01*
X65745238Y-52640476D01*
X65840476Y-52735714D01*
X65888095Y-52830952D01*
G04 #@! TO.C,RV12*
X76602380Y-32021428D02*
X76126190Y-32354761D01*
X76602380Y-32592857D02*
X75602380Y-32592857D01*
X75602380Y-32211904D01*
X75650000Y-32116666D01*
X75697619Y-32069047D01*
X75792857Y-32021428D01*
X75935714Y-32021428D01*
X76030952Y-32069047D01*
X76078571Y-32116666D01*
X76126190Y-32211904D01*
X76126190Y-32592857D01*
X75602380Y-31735714D02*
X76602380Y-31402380D01*
X75602380Y-31069047D01*
X76602380Y-30211904D02*
X76602380Y-30783333D01*
X76602380Y-30497619D02*
X75602380Y-30497619D01*
X75745238Y-30592857D01*
X75840476Y-30688095D01*
X75888095Y-30783333D01*
X75697619Y-29830952D02*
X75650000Y-29783333D01*
X75602380Y-29688095D01*
X75602380Y-29450000D01*
X75650000Y-29354761D01*
X75697619Y-29307142D01*
X75792857Y-29259523D01*
X75888095Y-29259523D01*
X76030952Y-29307142D01*
X76602380Y-29878571D01*
X76602380Y-29259523D01*
G04 #@! TO.C,S1*
X18100000Y-79514047D02*
X18281428Y-79574523D01*
X18583809Y-79574523D01*
X18704761Y-79514047D01*
X18765238Y-79453571D01*
X18825714Y-79332619D01*
X18825714Y-79211666D01*
X18765238Y-79090714D01*
X18704761Y-79030238D01*
X18583809Y-78969761D01*
X18341904Y-78909285D01*
X18220952Y-78848809D01*
X18160476Y-78788333D01*
X18100000Y-78667380D01*
X18100000Y-78546428D01*
X18160476Y-78425476D01*
X18220952Y-78365000D01*
X18341904Y-78304523D01*
X18644285Y-78304523D01*
X18825714Y-78365000D01*
X19249047Y-78304523D02*
X19551428Y-79574523D01*
X19793333Y-78667380D01*
X20035238Y-79574523D01*
X20337619Y-78304523D01*
X20821428Y-79574523D02*
X20821428Y-78304523D01*
X21244761Y-78304523D02*
X21970476Y-78304523D01*
X21607619Y-79574523D02*
X21607619Y-78304523D01*
X23119523Y-79453571D02*
X23059047Y-79514047D01*
X22877619Y-79574523D01*
X22756666Y-79574523D01*
X22575238Y-79514047D01*
X22454285Y-79393095D01*
X22393809Y-79272142D01*
X22333333Y-79030238D01*
X22333333Y-78848809D01*
X22393809Y-78606904D01*
X22454285Y-78485952D01*
X22575238Y-78365000D01*
X22756666Y-78304523D01*
X22877619Y-78304523D01*
X23059047Y-78365000D01*
X23119523Y-78425476D01*
X23663809Y-79574523D02*
X23663809Y-78304523D01*
X23663809Y-78909285D02*
X24389523Y-78909285D01*
X24389523Y-79574523D02*
X24389523Y-78304523D01*
X24994285Y-79090714D02*
X25961904Y-79090714D01*
X26566666Y-79574523D02*
X26566666Y-78304523D01*
X26990000Y-79211666D01*
X27413333Y-78304523D01*
X27413333Y-79574523D01*
X28260000Y-78304523D02*
X28501904Y-78304523D01*
X28622857Y-78365000D01*
X28743809Y-78485952D01*
X28804285Y-78727857D01*
X28804285Y-79151190D01*
X28743809Y-79393095D01*
X28622857Y-79514047D01*
X28501904Y-79574523D01*
X28260000Y-79574523D01*
X28139047Y-79514047D01*
X28018095Y-79393095D01*
X27957619Y-79151190D01*
X27957619Y-78727857D01*
X28018095Y-78485952D01*
X28139047Y-78365000D01*
X28260000Y-78304523D01*
X29348571Y-79574523D02*
X29348571Y-78304523D01*
X29771904Y-79211666D01*
X30195238Y-78304523D01*
X30195238Y-79574523D01*
X30800000Y-78909285D02*
X31223333Y-78909285D01*
X31404761Y-79574523D02*
X30800000Y-79574523D01*
X30800000Y-78304523D01*
X31404761Y-78304523D01*
X31949047Y-79574523D02*
X31949047Y-78304523D01*
X32674761Y-79574523D01*
X32674761Y-78304523D01*
X33098095Y-78304523D02*
X33823809Y-78304523D01*
X33460952Y-79574523D02*
X33460952Y-78304523D01*
X34186666Y-79211666D02*
X34791428Y-79211666D01*
X34065714Y-79574523D02*
X34489047Y-78304523D01*
X34912380Y-79574523D01*
X36061428Y-79574523D02*
X35638095Y-78969761D01*
X35335714Y-79574523D02*
X35335714Y-78304523D01*
X35819523Y-78304523D01*
X35940476Y-78365000D01*
X36000952Y-78425476D01*
X36061428Y-78546428D01*
X36061428Y-78727857D01*
X36000952Y-78848809D01*
X35940476Y-78909285D01*
X35819523Y-78969761D01*
X35335714Y-78969761D01*
X36847619Y-78969761D02*
X36847619Y-79574523D01*
X36424285Y-78304523D02*
X36847619Y-78969761D01*
X37270952Y-78304523D01*
X37694285Y-79090714D02*
X38661904Y-79090714D01*
X39206190Y-78425476D02*
X39266666Y-78365000D01*
X39387619Y-78304523D01*
X39690000Y-78304523D01*
X39810952Y-78365000D01*
X39871428Y-78425476D01*
X39931904Y-78546428D01*
X39931904Y-78667380D01*
X39871428Y-78848809D01*
X39145714Y-79574523D01*
X39931904Y-79574523D01*
X40476190Y-79574523D02*
X40476190Y-78304523D01*
X40960000Y-78304523D01*
X41080952Y-78365000D01*
X41141428Y-78425476D01*
X41201904Y-78546428D01*
X41201904Y-78727857D01*
X41141428Y-78848809D01*
X41080952Y-78909285D01*
X40960000Y-78969761D01*
X40476190Y-78969761D01*
X41564761Y-78304523D02*
X42290476Y-78304523D01*
X41927619Y-79574523D02*
X41927619Y-78304523D01*
X42713809Y-79574523D02*
X42713809Y-78304523D01*
X42713809Y-78909285D02*
X43439523Y-78909285D01*
X43439523Y-79574523D02*
X43439523Y-78304523D01*
G04 #@! TO.C,S2*
X18100000Y-89514047D02*
X18281428Y-89574523D01*
X18583809Y-89574523D01*
X18704761Y-89514047D01*
X18765238Y-89453571D01*
X18825714Y-89332619D01*
X18825714Y-89211666D01*
X18765238Y-89090714D01*
X18704761Y-89030238D01*
X18583809Y-88969761D01*
X18341904Y-88909285D01*
X18220952Y-88848809D01*
X18160476Y-88788333D01*
X18100000Y-88667380D01*
X18100000Y-88546428D01*
X18160476Y-88425476D01*
X18220952Y-88365000D01*
X18341904Y-88304523D01*
X18644285Y-88304523D01*
X18825714Y-88365000D01*
X19249047Y-88304523D02*
X19551428Y-89574523D01*
X19793333Y-88667380D01*
X20035238Y-89574523D01*
X20337619Y-88304523D01*
X20821428Y-89574523D02*
X20821428Y-88304523D01*
X21244761Y-88304523D02*
X21970476Y-88304523D01*
X21607619Y-89574523D02*
X21607619Y-88304523D01*
X23119523Y-89453571D02*
X23059047Y-89514047D01*
X22877619Y-89574523D01*
X22756666Y-89574523D01*
X22575238Y-89514047D01*
X22454285Y-89393095D01*
X22393809Y-89272142D01*
X22333333Y-89030238D01*
X22333333Y-88848809D01*
X22393809Y-88606904D01*
X22454285Y-88485952D01*
X22575238Y-88365000D01*
X22756666Y-88304523D01*
X22877619Y-88304523D01*
X23059047Y-88365000D01*
X23119523Y-88425476D01*
X23663809Y-89574523D02*
X23663809Y-88304523D01*
X23663809Y-88909285D02*
X24389523Y-88909285D01*
X24389523Y-89574523D02*
X24389523Y-88304523D01*
X24994285Y-89090714D02*
X25961904Y-89090714D01*
X26566666Y-89574523D02*
X26566666Y-88304523D01*
X26990000Y-89211666D01*
X27413333Y-88304523D01*
X27413333Y-89574523D01*
X28260000Y-88304523D02*
X28501904Y-88304523D01*
X28622857Y-88365000D01*
X28743809Y-88485952D01*
X28804285Y-88727857D01*
X28804285Y-89151190D01*
X28743809Y-89393095D01*
X28622857Y-89514047D01*
X28501904Y-89574523D01*
X28260000Y-89574523D01*
X28139047Y-89514047D01*
X28018095Y-89393095D01*
X27957619Y-89151190D01*
X27957619Y-88727857D01*
X28018095Y-88485952D01*
X28139047Y-88365000D01*
X28260000Y-88304523D01*
X29348571Y-89574523D02*
X29348571Y-88304523D01*
X29771904Y-89211666D01*
X30195238Y-88304523D01*
X30195238Y-89574523D01*
X30800000Y-88909285D02*
X31223333Y-88909285D01*
X31404761Y-89574523D02*
X30800000Y-89574523D01*
X30800000Y-88304523D01*
X31404761Y-88304523D01*
X31949047Y-89574523D02*
X31949047Y-88304523D01*
X32674761Y-89574523D01*
X32674761Y-88304523D01*
X33098095Y-88304523D02*
X33823809Y-88304523D01*
X33460952Y-89574523D02*
X33460952Y-88304523D01*
X34186666Y-89211666D02*
X34791428Y-89211666D01*
X34065714Y-89574523D02*
X34489047Y-88304523D01*
X34912380Y-89574523D01*
X36061428Y-89574523D02*
X35638095Y-88969761D01*
X35335714Y-89574523D02*
X35335714Y-88304523D01*
X35819523Y-88304523D01*
X35940476Y-88365000D01*
X36000952Y-88425476D01*
X36061428Y-88546428D01*
X36061428Y-88727857D01*
X36000952Y-88848809D01*
X35940476Y-88909285D01*
X35819523Y-88969761D01*
X35335714Y-88969761D01*
X36847619Y-88969761D02*
X36847619Y-89574523D01*
X36424285Y-88304523D02*
X36847619Y-88969761D01*
X37270952Y-88304523D01*
X37694285Y-89090714D02*
X38661904Y-89090714D01*
X39206190Y-88425476D02*
X39266666Y-88365000D01*
X39387619Y-88304523D01*
X39690000Y-88304523D01*
X39810952Y-88365000D01*
X39871428Y-88425476D01*
X39931904Y-88546428D01*
X39931904Y-88667380D01*
X39871428Y-88848809D01*
X39145714Y-89574523D01*
X39931904Y-89574523D01*
X40476190Y-89574523D02*
X40476190Y-88304523D01*
X40960000Y-88304523D01*
X41080952Y-88365000D01*
X41141428Y-88425476D01*
X41201904Y-88546428D01*
X41201904Y-88727857D01*
X41141428Y-88848809D01*
X41080952Y-88909285D01*
X40960000Y-88969761D01*
X40476190Y-88969761D01*
X41564761Y-88304523D02*
X42290476Y-88304523D01*
X41927619Y-89574523D02*
X41927619Y-88304523D01*
X42713809Y-89574523D02*
X42713809Y-88304523D01*
X42713809Y-88909285D02*
X43439523Y-88909285D01*
X43439523Y-89574523D02*
X43439523Y-88304523D01*
G04 #@! TO.C,S3*
X31100000Y-79514047D02*
X31281428Y-79574523D01*
X31583809Y-79574523D01*
X31704761Y-79514047D01*
X31765238Y-79453571D01*
X31825714Y-79332619D01*
X31825714Y-79211666D01*
X31765238Y-79090714D01*
X31704761Y-79030238D01*
X31583809Y-78969761D01*
X31341904Y-78909285D01*
X31220952Y-78848809D01*
X31160476Y-78788333D01*
X31100000Y-78667380D01*
X31100000Y-78546428D01*
X31160476Y-78425476D01*
X31220952Y-78365000D01*
X31341904Y-78304523D01*
X31644285Y-78304523D01*
X31825714Y-78365000D01*
X32249047Y-78304523D02*
X32551428Y-79574523D01*
X32793333Y-78667380D01*
X33035238Y-79574523D01*
X33337619Y-78304523D01*
X33821428Y-79574523D02*
X33821428Y-78304523D01*
X34244761Y-78304523D02*
X34970476Y-78304523D01*
X34607619Y-79574523D02*
X34607619Y-78304523D01*
X36119523Y-79453571D02*
X36059047Y-79514047D01*
X35877619Y-79574523D01*
X35756666Y-79574523D01*
X35575238Y-79514047D01*
X35454285Y-79393095D01*
X35393809Y-79272142D01*
X35333333Y-79030238D01*
X35333333Y-78848809D01*
X35393809Y-78606904D01*
X35454285Y-78485952D01*
X35575238Y-78365000D01*
X35756666Y-78304523D01*
X35877619Y-78304523D01*
X36059047Y-78365000D01*
X36119523Y-78425476D01*
X36663809Y-79574523D02*
X36663809Y-78304523D01*
X36663809Y-78909285D02*
X37389523Y-78909285D01*
X37389523Y-79574523D02*
X37389523Y-78304523D01*
X37994285Y-79090714D02*
X38961904Y-79090714D01*
X39566666Y-79574523D02*
X39566666Y-78304523D01*
X39990000Y-79211666D01*
X40413333Y-78304523D01*
X40413333Y-79574523D01*
X41260000Y-78304523D02*
X41501904Y-78304523D01*
X41622857Y-78365000D01*
X41743809Y-78485952D01*
X41804285Y-78727857D01*
X41804285Y-79151190D01*
X41743809Y-79393095D01*
X41622857Y-79514047D01*
X41501904Y-79574523D01*
X41260000Y-79574523D01*
X41139047Y-79514047D01*
X41018095Y-79393095D01*
X40957619Y-79151190D01*
X40957619Y-78727857D01*
X41018095Y-78485952D01*
X41139047Y-78365000D01*
X41260000Y-78304523D01*
X42348571Y-79574523D02*
X42348571Y-78304523D01*
X42771904Y-79211666D01*
X43195238Y-78304523D01*
X43195238Y-79574523D01*
X43800000Y-78909285D02*
X44223333Y-78909285D01*
X44404761Y-79574523D02*
X43800000Y-79574523D01*
X43800000Y-78304523D01*
X44404761Y-78304523D01*
X44949047Y-79574523D02*
X44949047Y-78304523D01*
X45674761Y-79574523D01*
X45674761Y-78304523D01*
X46098095Y-78304523D02*
X46823809Y-78304523D01*
X46460952Y-79574523D02*
X46460952Y-78304523D01*
X47186666Y-79211666D02*
X47791428Y-79211666D01*
X47065714Y-79574523D02*
X47489047Y-78304523D01*
X47912380Y-79574523D01*
X49061428Y-79574523D02*
X48638095Y-78969761D01*
X48335714Y-79574523D02*
X48335714Y-78304523D01*
X48819523Y-78304523D01*
X48940476Y-78365000D01*
X49000952Y-78425476D01*
X49061428Y-78546428D01*
X49061428Y-78727857D01*
X49000952Y-78848809D01*
X48940476Y-78909285D01*
X48819523Y-78969761D01*
X48335714Y-78969761D01*
X49847619Y-78969761D02*
X49847619Y-79574523D01*
X49424285Y-78304523D02*
X49847619Y-78969761D01*
X50270952Y-78304523D01*
X50694285Y-79090714D02*
X51661904Y-79090714D01*
X52206190Y-78425476D02*
X52266666Y-78365000D01*
X52387619Y-78304523D01*
X52690000Y-78304523D01*
X52810952Y-78365000D01*
X52871428Y-78425476D01*
X52931904Y-78546428D01*
X52931904Y-78667380D01*
X52871428Y-78848809D01*
X52145714Y-79574523D01*
X52931904Y-79574523D01*
X53476190Y-79574523D02*
X53476190Y-78304523D01*
X53960000Y-78304523D01*
X54080952Y-78365000D01*
X54141428Y-78425476D01*
X54201904Y-78546428D01*
X54201904Y-78727857D01*
X54141428Y-78848809D01*
X54080952Y-78909285D01*
X53960000Y-78969761D01*
X53476190Y-78969761D01*
X54564761Y-78304523D02*
X55290476Y-78304523D01*
X54927619Y-79574523D02*
X54927619Y-78304523D01*
X55713809Y-79574523D02*
X55713809Y-78304523D01*
X55713809Y-78909285D02*
X56439523Y-78909285D01*
X56439523Y-79574523D02*
X56439523Y-78304523D01*
G04 #@! TO.C,S4*
X31100000Y-89514047D02*
X31281428Y-89574523D01*
X31583809Y-89574523D01*
X31704761Y-89514047D01*
X31765238Y-89453571D01*
X31825714Y-89332619D01*
X31825714Y-89211666D01*
X31765238Y-89090714D01*
X31704761Y-89030238D01*
X31583809Y-88969761D01*
X31341904Y-88909285D01*
X31220952Y-88848809D01*
X31160476Y-88788333D01*
X31100000Y-88667380D01*
X31100000Y-88546428D01*
X31160476Y-88425476D01*
X31220952Y-88365000D01*
X31341904Y-88304523D01*
X31644285Y-88304523D01*
X31825714Y-88365000D01*
X32249047Y-88304523D02*
X32551428Y-89574523D01*
X32793333Y-88667380D01*
X33035238Y-89574523D01*
X33337619Y-88304523D01*
X33821428Y-89574523D02*
X33821428Y-88304523D01*
X34244761Y-88304523D02*
X34970476Y-88304523D01*
X34607619Y-89574523D02*
X34607619Y-88304523D01*
X36119523Y-89453571D02*
X36059047Y-89514047D01*
X35877619Y-89574523D01*
X35756666Y-89574523D01*
X35575238Y-89514047D01*
X35454285Y-89393095D01*
X35393809Y-89272142D01*
X35333333Y-89030238D01*
X35333333Y-88848809D01*
X35393809Y-88606904D01*
X35454285Y-88485952D01*
X35575238Y-88365000D01*
X35756666Y-88304523D01*
X35877619Y-88304523D01*
X36059047Y-88365000D01*
X36119523Y-88425476D01*
X36663809Y-89574523D02*
X36663809Y-88304523D01*
X36663809Y-88909285D02*
X37389523Y-88909285D01*
X37389523Y-89574523D02*
X37389523Y-88304523D01*
X37994285Y-89090714D02*
X38961904Y-89090714D01*
X39566666Y-89574523D02*
X39566666Y-88304523D01*
X39990000Y-89211666D01*
X40413333Y-88304523D01*
X40413333Y-89574523D01*
X41260000Y-88304523D02*
X41501904Y-88304523D01*
X41622857Y-88365000D01*
X41743809Y-88485952D01*
X41804285Y-88727857D01*
X41804285Y-89151190D01*
X41743809Y-89393095D01*
X41622857Y-89514047D01*
X41501904Y-89574523D01*
X41260000Y-89574523D01*
X41139047Y-89514047D01*
X41018095Y-89393095D01*
X40957619Y-89151190D01*
X40957619Y-88727857D01*
X41018095Y-88485952D01*
X41139047Y-88365000D01*
X41260000Y-88304523D01*
X42348571Y-89574523D02*
X42348571Y-88304523D01*
X42771904Y-89211666D01*
X43195238Y-88304523D01*
X43195238Y-89574523D01*
X43800000Y-88909285D02*
X44223333Y-88909285D01*
X44404761Y-89574523D02*
X43800000Y-89574523D01*
X43800000Y-88304523D01*
X44404761Y-88304523D01*
X44949047Y-89574523D02*
X44949047Y-88304523D01*
X45674761Y-89574523D01*
X45674761Y-88304523D01*
X46098095Y-88304523D02*
X46823809Y-88304523D01*
X46460952Y-89574523D02*
X46460952Y-88304523D01*
X47186666Y-89211666D02*
X47791428Y-89211666D01*
X47065714Y-89574523D02*
X47489047Y-88304523D01*
X47912380Y-89574523D01*
X49061428Y-89574523D02*
X48638095Y-88969761D01*
X48335714Y-89574523D02*
X48335714Y-88304523D01*
X48819523Y-88304523D01*
X48940476Y-88365000D01*
X49000952Y-88425476D01*
X49061428Y-88546428D01*
X49061428Y-88727857D01*
X49000952Y-88848809D01*
X48940476Y-88909285D01*
X48819523Y-88969761D01*
X48335714Y-88969761D01*
X49847619Y-88969761D02*
X49847619Y-89574523D01*
X49424285Y-88304523D02*
X49847619Y-88969761D01*
X50270952Y-88304523D01*
X50694285Y-89090714D02*
X51661904Y-89090714D01*
X52206190Y-88425476D02*
X52266666Y-88365000D01*
X52387619Y-88304523D01*
X52690000Y-88304523D01*
X52810952Y-88365000D01*
X52871428Y-88425476D01*
X52931904Y-88546428D01*
X52931904Y-88667380D01*
X52871428Y-88848809D01*
X52145714Y-89574523D01*
X52931904Y-89574523D01*
X53476190Y-89574523D02*
X53476190Y-88304523D01*
X53960000Y-88304523D01*
X54080952Y-88365000D01*
X54141428Y-88425476D01*
X54201904Y-88546428D01*
X54201904Y-88727857D01*
X54141428Y-88848809D01*
X54080952Y-88909285D01*
X53960000Y-88969761D01*
X53476190Y-88969761D01*
X54564761Y-88304523D02*
X55290476Y-88304523D01*
X54927619Y-89574523D02*
X54927619Y-88304523D01*
X55713809Y-89574523D02*
X55713809Y-88304523D01*
X55713809Y-88909285D02*
X56439523Y-88909285D01*
X56439523Y-89574523D02*
X56439523Y-88304523D01*
G04 #@! TO.C,S5*
X44100000Y-79514047D02*
X44281428Y-79574523D01*
X44583809Y-79574523D01*
X44704761Y-79514047D01*
X44765238Y-79453571D01*
X44825714Y-79332619D01*
X44825714Y-79211666D01*
X44765238Y-79090714D01*
X44704761Y-79030238D01*
X44583809Y-78969761D01*
X44341904Y-78909285D01*
X44220952Y-78848809D01*
X44160476Y-78788333D01*
X44100000Y-78667380D01*
X44100000Y-78546428D01*
X44160476Y-78425476D01*
X44220952Y-78365000D01*
X44341904Y-78304523D01*
X44644285Y-78304523D01*
X44825714Y-78365000D01*
X45249047Y-78304523D02*
X45551428Y-79574523D01*
X45793333Y-78667380D01*
X46035238Y-79574523D01*
X46337619Y-78304523D01*
X46821428Y-79574523D02*
X46821428Y-78304523D01*
X47244761Y-78304523D02*
X47970476Y-78304523D01*
X47607619Y-79574523D02*
X47607619Y-78304523D01*
X49119523Y-79453571D02*
X49059047Y-79514047D01*
X48877619Y-79574523D01*
X48756666Y-79574523D01*
X48575238Y-79514047D01*
X48454285Y-79393095D01*
X48393809Y-79272142D01*
X48333333Y-79030238D01*
X48333333Y-78848809D01*
X48393809Y-78606904D01*
X48454285Y-78485952D01*
X48575238Y-78365000D01*
X48756666Y-78304523D01*
X48877619Y-78304523D01*
X49059047Y-78365000D01*
X49119523Y-78425476D01*
X49663809Y-79574523D02*
X49663809Y-78304523D01*
X49663809Y-78909285D02*
X50389523Y-78909285D01*
X50389523Y-79574523D02*
X50389523Y-78304523D01*
X50994285Y-79090714D02*
X51961904Y-79090714D01*
X52566666Y-79574523D02*
X52566666Y-78304523D01*
X52990000Y-79211666D01*
X53413333Y-78304523D01*
X53413333Y-79574523D01*
X54260000Y-78304523D02*
X54501904Y-78304523D01*
X54622857Y-78365000D01*
X54743809Y-78485952D01*
X54804285Y-78727857D01*
X54804285Y-79151190D01*
X54743809Y-79393095D01*
X54622857Y-79514047D01*
X54501904Y-79574523D01*
X54260000Y-79574523D01*
X54139047Y-79514047D01*
X54018095Y-79393095D01*
X53957619Y-79151190D01*
X53957619Y-78727857D01*
X54018095Y-78485952D01*
X54139047Y-78365000D01*
X54260000Y-78304523D01*
X55348571Y-79574523D02*
X55348571Y-78304523D01*
X55771904Y-79211666D01*
X56195238Y-78304523D01*
X56195238Y-79574523D01*
X56800000Y-78909285D02*
X57223333Y-78909285D01*
X57404761Y-79574523D02*
X56800000Y-79574523D01*
X56800000Y-78304523D01*
X57404761Y-78304523D01*
X57949047Y-79574523D02*
X57949047Y-78304523D01*
X58674761Y-79574523D01*
X58674761Y-78304523D01*
X59098095Y-78304523D02*
X59823809Y-78304523D01*
X59460952Y-79574523D02*
X59460952Y-78304523D01*
X60186666Y-79211666D02*
X60791428Y-79211666D01*
X60065714Y-79574523D02*
X60489047Y-78304523D01*
X60912380Y-79574523D01*
X62061428Y-79574523D02*
X61638095Y-78969761D01*
X61335714Y-79574523D02*
X61335714Y-78304523D01*
X61819523Y-78304523D01*
X61940476Y-78365000D01*
X62000952Y-78425476D01*
X62061428Y-78546428D01*
X62061428Y-78727857D01*
X62000952Y-78848809D01*
X61940476Y-78909285D01*
X61819523Y-78969761D01*
X61335714Y-78969761D01*
X62847619Y-78969761D02*
X62847619Y-79574523D01*
X62424285Y-78304523D02*
X62847619Y-78969761D01*
X63270952Y-78304523D01*
X63694285Y-79090714D02*
X64661904Y-79090714D01*
X65206190Y-78425476D02*
X65266666Y-78365000D01*
X65387619Y-78304523D01*
X65690000Y-78304523D01*
X65810952Y-78365000D01*
X65871428Y-78425476D01*
X65931904Y-78546428D01*
X65931904Y-78667380D01*
X65871428Y-78848809D01*
X65145714Y-79574523D01*
X65931904Y-79574523D01*
X66476190Y-79574523D02*
X66476190Y-78304523D01*
X66960000Y-78304523D01*
X67080952Y-78365000D01*
X67141428Y-78425476D01*
X67201904Y-78546428D01*
X67201904Y-78727857D01*
X67141428Y-78848809D01*
X67080952Y-78909285D01*
X66960000Y-78969761D01*
X66476190Y-78969761D01*
X67564761Y-78304523D02*
X68290476Y-78304523D01*
X67927619Y-79574523D02*
X67927619Y-78304523D01*
X68713809Y-79574523D02*
X68713809Y-78304523D01*
X68713809Y-78909285D02*
X69439523Y-78909285D01*
X69439523Y-79574523D02*
X69439523Y-78304523D01*
G04 #@! TO.C,S6*
X44100000Y-89514047D02*
X44281428Y-89574523D01*
X44583809Y-89574523D01*
X44704761Y-89514047D01*
X44765238Y-89453571D01*
X44825714Y-89332619D01*
X44825714Y-89211666D01*
X44765238Y-89090714D01*
X44704761Y-89030238D01*
X44583809Y-88969761D01*
X44341904Y-88909285D01*
X44220952Y-88848809D01*
X44160476Y-88788333D01*
X44100000Y-88667380D01*
X44100000Y-88546428D01*
X44160476Y-88425476D01*
X44220952Y-88365000D01*
X44341904Y-88304523D01*
X44644285Y-88304523D01*
X44825714Y-88365000D01*
X45249047Y-88304523D02*
X45551428Y-89574523D01*
X45793333Y-88667380D01*
X46035238Y-89574523D01*
X46337619Y-88304523D01*
X46821428Y-89574523D02*
X46821428Y-88304523D01*
X47244761Y-88304523D02*
X47970476Y-88304523D01*
X47607619Y-89574523D02*
X47607619Y-88304523D01*
X49119523Y-89453571D02*
X49059047Y-89514047D01*
X48877619Y-89574523D01*
X48756666Y-89574523D01*
X48575238Y-89514047D01*
X48454285Y-89393095D01*
X48393809Y-89272142D01*
X48333333Y-89030238D01*
X48333333Y-88848809D01*
X48393809Y-88606904D01*
X48454285Y-88485952D01*
X48575238Y-88365000D01*
X48756666Y-88304523D01*
X48877619Y-88304523D01*
X49059047Y-88365000D01*
X49119523Y-88425476D01*
X49663809Y-89574523D02*
X49663809Y-88304523D01*
X49663809Y-88909285D02*
X50389523Y-88909285D01*
X50389523Y-89574523D02*
X50389523Y-88304523D01*
X50994285Y-89090714D02*
X51961904Y-89090714D01*
X52566666Y-89574523D02*
X52566666Y-88304523D01*
X52990000Y-89211666D01*
X53413333Y-88304523D01*
X53413333Y-89574523D01*
X54260000Y-88304523D02*
X54501904Y-88304523D01*
X54622857Y-88365000D01*
X54743809Y-88485952D01*
X54804285Y-88727857D01*
X54804285Y-89151190D01*
X54743809Y-89393095D01*
X54622857Y-89514047D01*
X54501904Y-89574523D01*
X54260000Y-89574523D01*
X54139047Y-89514047D01*
X54018095Y-89393095D01*
X53957619Y-89151190D01*
X53957619Y-88727857D01*
X54018095Y-88485952D01*
X54139047Y-88365000D01*
X54260000Y-88304523D01*
X55348571Y-89574523D02*
X55348571Y-88304523D01*
X55771904Y-89211666D01*
X56195238Y-88304523D01*
X56195238Y-89574523D01*
X56800000Y-88909285D02*
X57223333Y-88909285D01*
X57404761Y-89574523D02*
X56800000Y-89574523D01*
X56800000Y-88304523D01*
X57404761Y-88304523D01*
X57949047Y-89574523D02*
X57949047Y-88304523D01*
X58674761Y-89574523D01*
X58674761Y-88304523D01*
X59098095Y-88304523D02*
X59823809Y-88304523D01*
X59460952Y-89574523D02*
X59460952Y-88304523D01*
X60186666Y-89211666D02*
X60791428Y-89211666D01*
X60065714Y-89574523D02*
X60489047Y-88304523D01*
X60912380Y-89574523D01*
X62061428Y-89574523D02*
X61638095Y-88969761D01*
X61335714Y-89574523D02*
X61335714Y-88304523D01*
X61819523Y-88304523D01*
X61940476Y-88365000D01*
X62000952Y-88425476D01*
X62061428Y-88546428D01*
X62061428Y-88727857D01*
X62000952Y-88848809D01*
X61940476Y-88909285D01*
X61819523Y-88969761D01*
X61335714Y-88969761D01*
X62847619Y-88969761D02*
X62847619Y-89574523D01*
X62424285Y-88304523D02*
X62847619Y-88969761D01*
X63270952Y-88304523D01*
X63694285Y-89090714D02*
X64661904Y-89090714D01*
X65206190Y-88425476D02*
X65266666Y-88365000D01*
X65387619Y-88304523D01*
X65690000Y-88304523D01*
X65810952Y-88365000D01*
X65871428Y-88425476D01*
X65931904Y-88546428D01*
X65931904Y-88667380D01*
X65871428Y-88848809D01*
X65145714Y-89574523D01*
X65931904Y-89574523D01*
X66476190Y-89574523D02*
X66476190Y-88304523D01*
X66960000Y-88304523D01*
X67080952Y-88365000D01*
X67141428Y-88425476D01*
X67201904Y-88546428D01*
X67201904Y-88727857D01*
X67141428Y-88848809D01*
X67080952Y-88909285D01*
X66960000Y-88969761D01*
X66476190Y-88969761D01*
X67564761Y-88304523D02*
X68290476Y-88304523D01*
X67927619Y-89574523D02*
X67927619Y-88304523D01*
X68713809Y-89574523D02*
X68713809Y-88304523D01*
X68713809Y-88909285D02*
X69439523Y-88909285D01*
X69439523Y-89574523D02*
X69439523Y-88304523D01*
G04 #@! TO.C,S7*
X56100000Y-79514047D02*
X56281428Y-79574523D01*
X56583809Y-79574523D01*
X56704761Y-79514047D01*
X56765238Y-79453571D01*
X56825714Y-79332619D01*
X56825714Y-79211666D01*
X56765238Y-79090714D01*
X56704761Y-79030238D01*
X56583809Y-78969761D01*
X56341904Y-78909285D01*
X56220952Y-78848809D01*
X56160476Y-78788333D01*
X56100000Y-78667380D01*
X56100000Y-78546428D01*
X56160476Y-78425476D01*
X56220952Y-78365000D01*
X56341904Y-78304523D01*
X56644285Y-78304523D01*
X56825714Y-78365000D01*
X57249047Y-78304523D02*
X57551428Y-79574523D01*
X57793333Y-78667380D01*
X58035238Y-79574523D01*
X58337619Y-78304523D01*
X58821428Y-79574523D02*
X58821428Y-78304523D01*
X59244761Y-78304523D02*
X59970476Y-78304523D01*
X59607619Y-79574523D02*
X59607619Y-78304523D01*
X61119523Y-79453571D02*
X61059047Y-79514047D01*
X60877619Y-79574523D01*
X60756666Y-79574523D01*
X60575238Y-79514047D01*
X60454285Y-79393095D01*
X60393809Y-79272142D01*
X60333333Y-79030238D01*
X60333333Y-78848809D01*
X60393809Y-78606904D01*
X60454285Y-78485952D01*
X60575238Y-78365000D01*
X60756666Y-78304523D01*
X60877619Y-78304523D01*
X61059047Y-78365000D01*
X61119523Y-78425476D01*
X61663809Y-79574523D02*
X61663809Y-78304523D01*
X61663809Y-78909285D02*
X62389523Y-78909285D01*
X62389523Y-79574523D02*
X62389523Y-78304523D01*
X62994285Y-79090714D02*
X63961904Y-79090714D01*
X64566666Y-79574523D02*
X64566666Y-78304523D01*
X64990000Y-79211666D01*
X65413333Y-78304523D01*
X65413333Y-79574523D01*
X66260000Y-78304523D02*
X66501904Y-78304523D01*
X66622857Y-78365000D01*
X66743809Y-78485952D01*
X66804285Y-78727857D01*
X66804285Y-79151190D01*
X66743809Y-79393095D01*
X66622857Y-79514047D01*
X66501904Y-79574523D01*
X66260000Y-79574523D01*
X66139047Y-79514047D01*
X66018095Y-79393095D01*
X65957619Y-79151190D01*
X65957619Y-78727857D01*
X66018095Y-78485952D01*
X66139047Y-78365000D01*
X66260000Y-78304523D01*
X67348571Y-79574523D02*
X67348571Y-78304523D01*
X67771904Y-79211666D01*
X68195238Y-78304523D01*
X68195238Y-79574523D01*
X68800000Y-78909285D02*
X69223333Y-78909285D01*
X69404761Y-79574523D02*
X68800000Y-79574523D01*
X68800000Y-78304523D01*
X69404761Y-78304523D01*
X69949047Y-79574523D02*
X69949047Y-78304523D01*
X70674761Y-79574523D01*
X70674761Y-78304523D01*
X71098095Y-78304523D02*
X71823809Y-78304523D01*
X71460952Y-79574523D02*
X71460952Y-78304523D01*
X72186666Y-79211666D02*
X72791428Y-79211666D01*
X72065714Y-79574523D02*
X72489047Y-78304523D01*
X72912380Y-79574523D01*
X74061428Y-79574523D02*
X73638095Y-78969761D01*
X73335714Y-79574523D02*
X73335714Y-78304523D01*
X73819523Y-78304523D01*
X73940476Y-78365000D01*
X74000952Y-78425476D01*
X74061428Y-78546428D01*
X74061428Y-78727857D01*
X74000952Y-78848809D01*
X73940476Y-78909285D01*
X73819523Y-78969761D01*
X73335714Y-78969761D01*
X74847619Y-78969761D02*
X74847619Y-79574523D01*
X74424285Y-78304523D02*
X74847619Y-78969761D01*
X75270952Y-78304523D01*
X75694285Y-79090714D02*
X76661904Y-79090714D01*
X77206190Y-78425476D02*
X77266666Y-78365000D01*
X77387619Y-78304523D01*
X77690000Y-78304523D01*
X77810952Y-78365000D01*
X77871428Y-78425476D01*
X77931904Y-78546428D01*
X77931904Y-78667380D01*
X77871428Y-78848809D01*
X77145714Y-79574523D01*
X77931904Y-79574523D01*
X78476190Y-79574523D02*
X78476190Y-78304523D01*
X78960000Y-78304523D01*
X79080952Y-78365000D01*
X79141428Y-78425476D01*
X79201904Y-78546428D01*
X79201904Y-78727857D01*
X79141428Y-78848809D01*
X79080952Y-78909285D01*
X78960000Y-78969761D01*
X78476190Y-78969761D01*
X79564761Y-78304523D02*
X80290476Y-78304523D01*
X79927619Y-79574523D02*
X79927619Y-78304523D01*
X80713809Y-79574523D02*
X80713809Y-78304523D01*
X80713809Y-78909285D02*
X81439523Y-78909285D01*
X81439523Y-79574523D02*
X81439523Y-78304523D01*
G04 #@! TO.C,S8*
X56100000Y-89514047D02*
X56281428Y-89574523D01*
X56583809Y-89574523D01*
X56704761Y-89514047D01*
X56765238Y-89453571D01*
X56825714Y-89332619D01*
X56825714Y-89211666D01*
X56765238Y-89090714D01*
X56704761Y-89030238D01*
X56583809Y-88969761D01*
X56341904Y-88909285D01*
X56220952Y-88848809D01*
X56160476Y-88788333D01*
X56100000Y-88667380D01*
X56100000Y-88546428D01*
X56160476Y-88425476D01*
X56220952Y-88365000D01*
X56341904Y-88304523D01*
X56644285Y-88304523D01*
X56825714Y-88365000D01*
X57249047Y-88304523D02*
X57551428Y-89574523D01*
X57793333Y-88667380D01*
X58035238Y-89574523D01*
X58337619Y-88304523D01*
X58821428Y-89574523D02*
X58821428Y-88304523D01*
X59244761Y-88304523D02*
X59970476Y-88304523D01*
X59607619Y-89574523D02*
X59607619Y-88304523D01*
X61119523Y-89453571D02*
X61059047Y-89514047D01*
X60877619Y-89574523D01*
X60756666Y-89574523D01*
X60575238Y-89514047D01*
X60454285Y-89393095D01*
X60393809Y-89272142D01*
X60333333Y-89030238D01*
X60333333Y-88848809D01*
X60393809Y-88606904D01*
X60454285Y-88485952D01*
X60575238Y-88365000D01*
X60756666Y-88304523D01*
X60877619Y-88304523D01*
X61059047Y-88365000D01*
X61119523Y-88425476D01*
X61663809Y-89574523D02*
X61663809Y-88304523D01*
X61663809Y-88909285D02*
X62389523Y-88909285D01*
X62389523Y-89574523D02*
X62389523Y-88304523D01*
X62994285Y-89090714D02*
X63961904Y-89090714D01*
X64566666Y-89574523D02*
X64566666Y-88304523D01*
X64990000Y-89211666D01*
X65413333Y-88304523D01*
X65413333Y-89574523D01*
X66260000Y-88304523D02*
X66501904Y-88304523D01*
X66622857Y-88365000D01*
X66743809Y-88485952D01*
X66804285Y-88727857D01*
X66804285Y-89151190D01*
X66743809Y-89393095D01*
X66622857Y-89514047D01*
X66501904Y-89574523D01*
X66260000Y-89574523D01*
X66139047Y-89514047D01*
X66018095Y-89393095D01*
X65957619Y-89151190D01*
X65957619Y-88727857D01*
X66018095Y-88485952D01*
X66139047Y-88365000D01*
X66260000Y-88304523D01*
X67348571Y-89574523D02*
X67348571Y-88304523D01*
X67771904Y-89211666D01*
X68195238Y-88304523D01*
X68195238Y-89574523D01*
X68800000Y-88909285D02*
X69223333Y-88909285D01*
X69404761Y-89574523D02*
X68800000Y-89574523D01*
X68800000Y-88304523D01*
X69404761Y-88304523D01*
X69949047Y-89574523D02*
X69949047Y-88304523D01*
X70674761Y-89574523D01*
X70674761Y-88304523D01*
X71098095Y-88304523D02*
X71823809Y-88304523D01*
X71460952Y-89574523D02*
X71460952Y-88304523D01*
X72186666Y-89211666D02*
X72791428Y-89211666D01*
X72065714Y-89574523D02*
X72489047Y-88304523D01*
X72912380Y-89574523D01*
X74061428Y-89574523D02*
X73638095Y-88969761D01*
X73335714Y-89574523D02*
X73335714Y-88304523D01*
X73819523Y-88304523D01*
X73940476Y-88365000D01*
X74000952Y-88425476D01*
X74061428Y-88546428D01*
X74061428Y-88727857D01*
X74000952Y-88848809D01*
X73940476Y-88909285D01*
X73819523Y-88969761D01*
X73335714Y-88969761D01*
X74847619Y-88969761D02*
X74847619Y-89574523D01*
X74424285Y-88304523D02*
X74847619Y-88969761D01*
X75270952Y-88304523D01*
X75694285Y-89090714D02*
X76661904Y-89090714D01*
X77206190Y-88425476D02*
X77266666Y-88365000D01*
X77387619Y-88304523D01*
X77690000Y-88304523D01*
X77810952Y-88365000D01*
X77871428Y-88425476D01*
X77931904Y-88546428D01*
X77931904Y-88667380D01*
X77871428Y-88848809D01*
X77145714Y-89574523D01*
X77931904Y-89574523D01*
X78476190Y-89574523D02*
X78476190Y-88304523D01*
X78960000Y-88304523D01*
X79080952Y-88365000D01*
X79141428Y-88425476D01*
X79201904Y-88546428D01*
X79201904Y-88727857D01*
X79141428Y-88848809D01*
X79080952Y-88909285D01*
X78960000Y-88969761D01*
X78476190Y-88969761D01*
X79564761Y-88304523D02*
X80290476Y-88304523D01*
X79927619Y-89574523D02*
X79927619Y-88304523D01*
X80713809Y-89574523D02*
X80713809Y-88304523D01*
X80713809Y-88909285D02*
X81439523Y-88909285D01*
X81439523Y-89574523D02*
X81439523Y-88304523D01*
G04 #@! TO.C,RV13*
X40802380Y-22021428D02*
X40326190Y-22354761D01*
X40802380Y-22592857D02*
X39802380Y-22592857D01*
X39802380Y-22211904D01*
X39850000Y-22116666D01*
X39897619Y-22069047D01*
X39992857Y-22021428D01*
X40135714Y-22021428D01*
X40230952Y-22069047D01*
X40278571Y-22116666D01*
X40326190Y-22211904D01*
X40326190Y-22592857D01*
X39802380Y-21735714D02*
X40802380Y-21402380D01*
X39802380Y-21069047D01*
X40802380Y-20211904D02*
X40802380Y-20783333D01*
X40802380Y-20497619D02*
X39802380Y-20497619D01*
X39945238Y-20592857D01*
X40040476Y-20688095D01*
X40088095Y-20783333D01*
X39802380Y-19878571D02*
X39802380Y-19259523D01*
X40183333Y-19592857D01*
X40183333Y-19450000D01*
X40230952Y-19354761D01*
X40278571Y-19307142D01*
X40373809Y-19259523D01*
X40611904Y-19259523D01*
X40707142Y-19307142D01*
X40754761Y-19354761D01*
X40802380Y-19450000D01*
X40802380Y-19735714D01*
X40754761Y-19830952D01*
X40707142Y-19878571D01*
G04 #@! TO.C,RV14*
X40802380Y-39021428D02*
X40326190Y-39354761D01*
X40802380Y-39592857D02*
X39802380Y-39592857D01*
X39802380Y-39211904D01*
X39850000Y-39116666D01*
X39897619Y-39069047D01*
X39992857Y-39021428D01*
X40135714Y-39021428D01*
X40230952Y-39069047D01*
X40278571Y-39116666D01*
X40326190Y-39211904D01*
X40326190Y-39592857D01*
X39802380Y-38735714D02*
X40802380Y-38402380D01*
X39802380Y-38069047D01*
X40802380Y-37211904D02*
X40802380Y-37783333D01*
X40802380Y-37497619D02*
X39802380Y-37497619D01*
X39945238Y-37592857D01*
X40040476Y-37688095D01*
X40088095Y-37783333D01*
X40135714Y-36354761D02*
X40802380Y-36354761D01*
X39754761Y-36592857D02*
X40469047Y-36830952D01*
X40469047Y-36211904D01*
G04 #@! TD*
M02*
