M48
;DRILL file {KiCad 5.0.2-bee76a0~70~ubuntu18.04.1} date Mon 02 Dec 2019 09:24:17 PM EST
;FORMAT={-:-/ absolute / inch / decimal}
FMAT,2
INCH,TZ
T1C0.0157
T2C0.0394
T3C0.0400
%
G90
G05
T1
X0.4016Y-0.874
X0.4016Y-1.7165
X0.4016Y-2.8583
X0.4803Y-1.7087
X0.5039Y-0.874
X0.5276Y-2.7795
X0.5354Y-1.7638
X0.5748Y-2.4882
X0.5906Y-2.8819
X0.7087Y-2.7638
X0.7874Y-1.7559
X0.7953Y-2.8898
X0.8268Y-2.5197
X0.8583Y-3.4882
X1.0157Y-2.6142
X1.0472Y-1.6614
X1.1024Y-0.8819
X1.2047Y-0.8898
X1.2205Y-1.7165
X1.2362Y-1.189
X1.4094Y-1.3307
X1.4252Y-1.4724
X1.4567Y-1.748
X1.5276Y-1.4646
X1.5354Y-1.3071
X1.5827Y-2.5748
X1.6299Y-1.2126
X1.7087Y-3.4567
X1.7559Y-2.6378
X1.7559Y-3.2913
X1.811Y-2.8268
X1.9921Y-3.2598
X2.1181Y-2.5827
X2.1969Y-3.1969
X2.3228Y-2.5906
X2.4094Y-1.3307
X2.4252Y-2.5827
X2.5276Y-1.7323
X2.5276Y-2.811
X2.5354Y-0.9055
X2.6299Y-0.9055
X2.6299Y-1.7402
X2.811Y-2.622
X2.8189Y-2.8819
X2.9134Y-2.6299
X3.0079Y-2.6457
X3.2047Y-0.9055
X3.2047Y-1.7402
X3.3071Y-0.9134
X3.3071Y-1.748
T2
X2.8071Y-2.3622
X2.9055Y-2.3622
X3.0039Y-2.3622
X0.4055Y-1.4567
X0.5039Y-1.4567
X0.6024Y-1.4567
X1.5472Y-2.3622
X1.6457Y-2.3622
X1.7441Y-2.3622
X3.2008Y-0.6299
X3.2992Y-0.6299
X3.3976Y-0.6299
X2.1772Y-2.3622
X2.2756Y-2.3622
X2.374Y-2.3622
X2.5315Y-0.6299
X2.6299Y-0.6299
X2.7283Y-0.6299
X0.4055Y-0.6299
X0.5039Y-0.6299
X0.6024Y-0.6299
X3.2008Y-1.4567
X3.2992Y-1.4567
X3.3976Y-1.4567
X1.1142Y-0.6299
X1.2126Y-0.6299
X1.311Y-0.6299
X1.7913Y-1.7323
X1.8898Y-1.7323
X1.9882Y-1.7323
X2.5315Y-1.4567
X2.6299Y-1.4567
X2.7283Y-1.4567
X0.9173Y-2.3622
X1.0157Y-2.3622
X1.1142Y-2.3622
X1.1142Y-1.4567
X1.2126Y-1.4567
X1.311Y-1.4567
X1.7913Y-1.063
X1.8898Y-1.063
X1.9882Y-1.063
T3
X1.5964Y-3.4149
X1.5964Y-3.5929
X1.8524Y-3.4149
X1.8524Y-3.5929
X2.5807Y-3.4149
X2.5807Y-3.5929
X2.8367Y-3.4149
X2.8367Y-3.5929
X2.5807Y-3.0212
X2.5807Y-3.1992
X2.8367Y-3.0212
X2.8367Y-3.1992
X1.5964Y-3.0212
X1.5964Y-3.1992
X1.8524Y-3.0212
X1.8524Y-3.1992
X0.2071Y-2.3252
X0.2071Y-2.4252
X0.2071Y-2.5252
X0.2071Y-2.6252
X0.2071Y-2.7252
X0.2071Y-2.8252
X0.2071Y-2.9252
X0.2071Y-3.0252
X0.2071Y-3.1252
X0.2071Y-3.2252
X0.2071Y-3.3252
X0.2071Y-3.4252
X0.3071Y-2.3252
X0.3071Y-2.4252
X0.3071Y-2.5252
X0.3071Y-2.6252
X0.3071Y-2.7252
X0.3071Y-2.8252
X0.3071Y-2.9252
X0.3071Y-3.0252
X0.3071Y-3.1252
X0.3071Y-3.2252
X0.3071Y-3.3252
X0.3071Y-3.4252
X1.0846Y-3.4149
X1.0846Y-3.5929
X1.3406Y-3.4149
X1.3406Y-3.5929
X2.1082Y-3.0212
X2.1082Y-3.1992
X2.3642Y-3.0212
X2.3642Y-3.1992
X1.0846Y-3.0212
X1.0846Y-3.1992
X1.3406Y-3.0212
X1.3406Y-3.1992
X2.1082Y-3.4149
X2.1082Y-3.5929
X2.3642Y-3.4149
X2.3642Y-3.5929
T0
M30
