G04 #@! TF.GenerationSoftware,KiCad,Pcbnew,5.0.2-bee76a0~70~ubuntu18.04.1*
G04 #@! TF.CreationDate,2019-12-02T21:24:14-05:00*
G04 #@! TF.ProjectId,control,636f6e74-726f-46c2-9e6b-696361645f70,rev?*
G04 #@! TF.SameCoordinates,Original*
G04 #@! TF.FileFunction,Soldermask,Top*
G04 #@! TF.FilePolarity,Negative*
%FSLAX46Y46*%
G04 Gerber Fmt 4.6, Leading zero omitted, Abs format (unit mm)*
G04 Created by KiCad (PCBNEW 5.0.2-bee76a0~70~ubuntu18.04.1) date Mon 02 Dec 2019 09:24:14 PM EST*
%MOMM*%
%LPD*%
G01*
G04 APERTURE LIST*
%ADD10C,0.100000*%
G04 APERTURE END LIST*
D10*
G36*
X27837803Y-90307875D02*
X27837805Y-90307876D01*
X27837806Y-90307876D01*
X28018120Y-90382564D01*
X28178210Y-90489533D01*
X28180401Y-90490997D01*
X28318403Y-90628999D01*
X28318405Y-90629002D01*
X28426836Y-90791280D01*
X28501524Y-90971594D01*
X28539600Y-91163015D01*
X28539600Y-91358185D01*
X28501524Y-91549606D01*
X28426836Y-91729920D01*
X28426835Y-91729921D01*
X28318403Y-91892201D01*
X28180401Y-92030203D01*
X28180398Y-92030205D01*
X28018120Y-92138636D01*
X27837806Y-92213324D01*
X27837805Y-92213324D01*
X27837803Y-92213325D01*
X27646387Y-92251400D01*
X27451213Y-92251400D01*
X27259797Y-92213325D01*
X27259795Y-92213324D01*
X27259794Y-92213324D01*
X27079480Y-92138636D01*
X26917202Y-92030205D01*
X26917199Y-92030203D01*
X26779197Y-91892201D01*
X26670765Y-91729921D01*
X26670764Y-91729920D01*
X26596076Y-91549606D01*
X26558000Y-91358185D01*
X26558000Y-91163015D01*
X26596076Y-90971594D01*
X26670764Y-90791280D01*
X26779195Y-90629002D01*
X26779197Y-90628999D01*
X26917199Y-90490997D01*
X26919390Y-90489533D01*
X27079480Y-90382564D01*
X27259794Y-90307876D01*
X27259795Y-90307876D01*
X27259797Y-90307875D01*
X27451213Y-90269800D01*
X27646387Y-90269800D01*
X27837803Y-90307875D01*
X27837803Y-90307875D01*
G37*
G36*
X65837803Y-90307875D02*
X65837805Y-90307876D01*
X65837806Y-90307876D01*
X66018120Y-90382564D01*
X66178210Y-90489533D01*
X66180401Y-90490997D01*
X66318403Y-90628999D01*
X66318405Y-90629002D01*
X66426836Y-90791280D01*
X66501524Y-90971594D01*
X66539600Y-91163015D01*
X66539600Y-91358185D01*
X66501524Y-91549606D01*
X66426836Y-91729920D01*
X66426835Y-91729921D01*
X66318403Y-91892201D01*
X66180401Y-92030203D01*
X66180398Y-92030205D01*
X66018120Y-92138636D01*
X65837806Y-92213324D01*
X65837805Y-92213324D01*
X65837803Y-92213325D01*
X65646387Y-92251400D01*
X65451213Y-92251400D01*
X65259797Y-92213325D01*
X65259795Y-92213324D01*
X65259794Y-92213324D01*
X65079480Y-92138636D01*
X64917202Y-92030205D01*
X64917199Y-92030203D01*
X64779197Y-91892201D01*
X64670765Y-91729921D01*
X64670764Y-91729920D01*
X64596076Y-91549606D01*
X64558000Y-91358185D01*
X64558000Y-91163015D01*
X64596076Y-90971594D01*
X64670764Y-90791280D01*
X64779195Y-90629002D01*
X64779197Y-90628999D01*
X64917199Y-90490997D01*
X64919390Y-90489533D01*
X65079480Y-90382564D01*
X65259794Y-90307876D01*
X65259795Y-90307876D01*
X65259797Y-90307875D01*
X65451213Y-90269800D01*
X65646387Y-90269800D01*
X65837803Y-90307875D01*
X65837803Y-90307875D01*
G37*
G36*
X53837803Y-90307875D02*
X53837805Y-90307876D01*
X53837806Y-90307876D01*
X54018120Y-90382564D01*
X54178210Y-90489533D01*
X54180401Y-90490997D01*
X54318403Y-90628999D01*
X54318405Y-90629002D01*
X54426836Y-90791280D01*
X54501524Y-90971594D01*
X54539600Y-91163015D01*
X54539600Y-91358185D01*
X54501524Y-91549606D01*
X54426836Y-91729920D01*
X54426835Y-91729921D01*
X54318403Y-91892201D01*
X54180401Y-92030203D01*
X54180398Y-92030205D01*
X54018120Y-92138636D01*
X53837806Y-92213324D01*
X53837805Y-92213324D01*
X53837803Y-92213325D01*
X53646387Y-92251400D01*
X53451213Y-92251400D01*
X53259797Y-92213325D01*
X53259795Y-92213324D01*
X53259794Y-92213324D01*
X53079480Y-92138636D01*
X52917202Y-92030205D01*
X52917199Y-92030203D01*
X52779197Y-91892201D01*
X52670765Y-91729921D01*
X52670764Y-91729920D01*
X52596076Y-91549606D01*
X52558000Y-91358185D01*
X52558000Y-91163015D01*
X52596076Y-90971594D01*
X52670764Y-90791280D01*
X52779195Y-90629002D01*
X52779197Y-90628999D01*
X52917199Y-90490997D01*
X52919390Y-90489533D01*
X53079480Y-90382564D01*
X53259794Y-90307876D01*
X53259795Y-90307876D01*
X53259797Y-90307875D01*
X53451213Y-90269800D01*
X53646387Y-90269800D01*
X53837803Y-90307875D01*
X53837803Y-90307875D01*
G37*
G36*
X60340203Y-90307875D02*
X60340205Y-90307876D01*
X60340206Y-90307876D01*
X60520520Y-90382564D01*
X60680610Y-90489533D01*
X60682801Y-90490997D01*
X60820803Y-90628999D01*
X60820805Y-90629002D01*
X60929236Y-90791280D01*
X61003924Y-90971594D01*
X61042000Y-91163015D01*
X61042000Y-91358185D01*
X61003924Y-91549606D01*
X60929236Y-91729920D01*
X60929235Y-91729921D01*
X60820803Y-91892201D01*
X60682801Y-92030203D01*
X60682798Y-92030205D01*
X60520520Y-92138636D01*
X60340206Y-92213324D01*
X60340205Y-92213324D01*
X60340203Y-92213325D01*
X60148787Y-92251400D01*
X59953613Y-92251400D01*
X59762197Y-92213325D01*
X59762195Y-92213324D01*
X59762194Y-92213324D01*
X59581880Y-92138636D01*
X59419602Y-92030205D01*
X59419599Y-92030203D01*
X59281597Y-91892201D01*
X59173165Y-91729921D01*
X59173164Y-91729920D01*
X59098476Y-91549606D01*
X59060400Y-91358185D01*
X59060400Y-91163015D01*
X59098476Y-90971594D01*
X59173164Y-90791280D01*
X59281595Y-90629002D01*
X59281597Y-90628999D01*
X59419599Y-90490997D01*
X59421790Y-90489533D01*
X59581880Y-90382564D01*
X59762194Y-90307876D01*
X59762195Y-90307876D01*
X59762197Y-90307875D01*
X59953613Y-90269800D01*
X60148787Y-90269800D01*
X60340203Y-90307875D01*
X60340203Y-90307875D01*
G37*
G36*
X72340203Y-90307875D02*
X72340205Y-90307876D01*
X72340206Y-90307876D01*
X72520520Y-90382564D01*
X72680610Y-90489533D01*
X72682801Y-90490997D01*
X72820803Y-90628999D01*
X72820805Y-90629002D01*
X72929236Y-90791280D01*
X73003924Y-90971594D01*
X73042000Y-91163015D01*
X73042000Y-91358185D01*
X73003924Y-91549606D01*
X72929236Y-91729920D01*
X72929235Y-91729921D01*
X72820803Y-91892201D01*
X72682801Y-92030203D01*
X72682798Y-92030205D01*
X72520520Y-92138636D01*
X72340206Y-92213324D01*
X72340205Y-92213324D01*
X72340203Y-92213325D01*
X72148787Y-92251400D01*
X71953613Y-92251400D01*
X71762197Y-92213325D01*
X71762195Y-92213324D01*
X71762194Y-92213324D01*
X71581880Y-92138636D01*
X71419602Y-92030205D01*
X71419599Y-92030203D01*
X71281597Y-91892201D01*
X71173165Y-91729921D01*
X71173164Y-91729920D01*
X71098476Y-91549606D01*
X71060400Y-91358185D01*
X71060400Y-91163015D01*
X71098476Y-90971594D01*
X71173164Y-90791280D01*
X71281595Y-90629002D01*
X71281597Y-90628999D01*
X71419599Y-90490997D01*
X71421790Y-90489533D01*
X71581880Y-90382564D01*
X71762194Y-90307876D01*
X71762195Y-90307876D01*
X71762197Y-90307875D01*
X71953613Y-90269800D01*
X72148787Y-90269800D01*
X72340203Y-90307875D01*
X72340203Y-90307875D01*
G37*
G36*
X47340203Y-90307875D02*
X47340205Y-90307876D01*
X47340206Y-90307876D01*
X47520520Y-90382564D01*
X47680610Y-90489533D01*
X47682801Y-90490997D01*
X47820803Y-90628999D01*
X47820805Y-90629002D01*
X47929236Y-90791280D01*
X48003924Y-90971594D01*
X48042000Y-91163015D01*
X48042000Y-91358185D01*
X48003924Y-91549606D01*
X47929236Y-91729920D01*
X47929235Y-91729921D01*
X47820803Y-91892201D01*
X47682801Y-92030203D01*
X47682798Y-92030205D01*
X47520520Y-92138636D01*
X47340206Y-92213324D01*
X47340205Y-92213324D01*
X47340203Y-92213325D01*
X47148787Y-92251400D01*
X46953613Y-92251400D01*
X46762197Y-92213325D01*
X46762195Y-92213324D01*
X46762194Y-92213324D01*
X46581880Y-92138636D01*
X46419602Y-92030205D01*
X46419599Y-92030203D01*
X46281597Y-91892201D01*
X46173165Y-91729921D01*
X46173164Y-91729920D01*
X46098476Y-91549606D01*
X46060400Y-91358185D01*
X46060400Y-91163015D01*
X46098476Y-90971594D01*
X46173164Y-90791280D01*
X46281595Y-90629002D01*
X46281597Y-90628999D01*
X46419599Y-90490997D01*
X46421790Y-90489533D01*
X46581880Y-90382564D01*
X46762194Y-90307876D01*
X46762195Y-90307876D01*
X46762197Y-90307875D01*
X46953613Y-90269800D01*
X47148787Y-90269800D01*
X47340203Y-90307875D01*
X47340203Y-90307875D01*
G37*
G36*
X40837803Y-90307875D02*
X40837805Y-90307876D01*
X40837806Y-90307876D01*
X41018120Y-90382564D01*
X41178210Y-90489533D01*
X41180401Y-90490997D01*
X41318403Y-90628999D01*
X41318405Y-90629002D01*
X41426836Y-90791280D01*
X41501524Y-90971594D01*
X41539600Y-91163015D01*
X41539600Y-91358185D01*
X41501524Y-91549606D01*
X41426836Y-91729920D01*
X41426835Y-91729921D01*
X41318403Y-91892201D01*
X41180401Y-92030203D01*
X41180398Y-92030205D01*
X41018120Y-92138636D01*
X40837806Y-92213324D01*
X40837805Y-92213324D01*
X40837803Y-92213325D01*
X40646387Y-92251400D01*
X40451213Y-92251400D01*
X40259797Y-92213325D01*
X40259795Y-92213324D01*
X40259794Y-92213324D01*
X40079480Y-92138636D01*
X39917202Y-92030205D01*
X39917199Y-92030203D01*
X39779197Y-91892201D01*
X39670765Y-91729921D01*
X39670764Y-91729920D01*
X39596076Y-91549606D01*
X39558000Y-91358185D01*
X39558000Y-91163015D01*
X39596076Y-90971594D01*
X39670764Y-90791280D01*
X39779195Y-90629002D01*
X39779197Y-90628999D01*
X39917199Y-90490997D01*
X39919390Y-90489533D01*
X40079480Y-90382564D01*
X40259794Y-90307876D01*
X40259795Y-90307876D01*
X40259797Y-90307875D01*
X40451213Y-90269800D01*
X40646387Y-90269800D01*
X40837803Y-90307875D01*
X40837803Y-90307875D01*
G37*
G36*
X34340203Y-90307875D02*
X34340205Y-90307876D01*
X34340206Y-90307876D01*
X34520520Y-90382564D01*
X34680610Y-90489533D01*
X34682801Y-90490997D01*
X34820803Y-90628999D01*
X34820805Y-90629002D01*
X34929236Y-90791280D01*
X35003924Y-90971594D01*
X35042000Y-91163015D01*
X35042000Y-91358185D01*
X35003924Y-91549606D01*
X34929236Y-91729920D01*
X34929235Y-91729921D01*
X34820803Y-91892201D01*
X34682801Y-92030203D01*
X34682798Y-92030205D01*
X34520520Y-92138636D01*
X34340206Y-92213324D01*
X34340205Y-92213324D01*
X34340203Y-92213325D01*
X34148787Y-92251400D01*
X33953613Y-92251400D01*
X33762197Y-92213325D01*
X33762195Y-92213324D01*
X33762194Y-92213324D01*
X33581880Y-92138636D01*
X33419602Y-92030205D01*
X33419599Y-92030203D01*
X33281597Y-91892201D01*
X33173165Y-91729921D01*
X33173164Y-91729920D01*
X33098476Y-91549606D01*
X33060400Y-91358185D01*
X33060400Y-91163015D01*
X33098476Y-90971594D01*
X33173164Y-90791280D01*
X33281595Y-90629002D01*
X33281597Y-90628999D01*
X33419599Y-90490997D01*
X33421790Y-90489533D01*
X33581880Y-90382564D01*
X33762194Y-90307876D01*
X33762195Y-90307876D01*
X33762197Y-90307875D01*
X33953613Y-90269800D01*
X34148787Y-90269800D01*
X34340203Y-90307875D01*
X34340203Y-90307875D01*
G37*
G36*
X51250440Y-90849780D02*
X49949560Y-90849780D01*
X49949560Y-89950220D01*
X51250440Y-89950220D01*
X51250440Y-90849780D01*
X51250440Y-90849780D01*
G37*
G36*
X24250440Y-90649780D02*
X22949560Y-90649780D01*
X22949560Y-89750220D01*
X24250440Y-89750220D01*
X24250440Y-90649780D01*
X24250440Y-90649780D01*
G37*
G36*
X63850440Y-90449780D02*
X62549560Y-90449780D01*
X62549560Y-89550220D01*
X63850440Y-89550220D01*
X63850440Y-90449780D01*
X63850440Y-90449780D01*
G37*
G36*
X38850440Y-90249780D02*
X37549560Y-90249780D01*
X37549560Y-89350220D01*
X38850440Y-89350220D01*
X38850440Y-90249780D01*
X38850440Y-90249780D01*
G37*
G36*
X51250440Y-89051460D02*
X49949560Y-89051460D01*
X49949560Y-88151900D01*
X51250440Y-88151900D01*
X51250440Y-89051460D01*
X51250440Y-89051460D01*
G37*
G36*
X24250440Y-88851460D02*
X22949560Y-88851460D01*
X22949560Y-87951900D01*
X24250440Y-87951900D01*
X24250440Y-88851460D01*
X24250440Y-88851460D01*
G37*
G36*
X63850440Y-88651460D02*
X62549560Y-88651460D01*
X62549560Y-87751900D01*
X63850440Y-87751900D01*
X63850440Y-88651460D01*
X63850440Y-88651460D01*
G37*
G36*
X38850440Y-88451460D02*
X37549560Y-88451460D01*
X37549560Y-87551900D01*
X38850440Y-87551900D01*
X38850440Y-88451460D01*
X38850440Y-88451460D01*
G37*
G36*
X5549003Y-86047275D02*
X5549005Y-86047276D01*
X5549006Y-86047276D01*
X5729320Y-86121964D01*
X5729321Y-86121965D01*
X5891601Y-86230397D01*
X6029603Y-86368399D01*
X6029605Y-86368402D01*
X6138036Y-86530680D01*
X6184068Y-86641813D01*
X6212725Y-86710997D01*
X6237786Y-86836987D01*
X6250800Y-86902415D01*
X6250800Y-87097585D01*
X6212724Y-87289006D01*
X6138036Y-87469320D01*
X6039068Y-87617435D01*
X6029603Y-87631601D01*
X5891601Y-87769603D01*
X5891598Y-87769605D01*
X5729320Y-87878036D01*
X5549006Y-87952724D01*
X5549005Y-87952724D01*
X5549003Y-87952725D01*
X5357587Y-87990800D01*
X5162413Y-87990800D01*
X4970997Y-87952725D01*
X4970995Y-87952724D01*
X4970994Y-87952724D01*
X4790680Y-87878036D01*
X4628402Y-87769605D01*
X4628399Y-87769603D01*
X4490397Y-87631601D01*
X4480932Y-87617435D01*
X4381964Y-87469320D01*
X4307276Y-87289006D01*
X4269200Y-87097585D01*
X4269200Y-86902415D01*
X4282214Y-86836987D01*
X4307275Y-86710997D01*
X4335932Y-86641813D01*
X4381964Y-86530680D01*
X4490395Y-86368402D01*
X4490397Y-86368399D01*
X4628399Y-86230397D01*
X4790679Y-86121965D01*
X4790680Y-86121964D01*
X4970994Y-86047276D01*
X4970995Y-86047276D01*
X4970997Y-86047275D01*
X5162413Y-86009200D01*
X5357587Y-86009200D01*
X5549003Y-86047275D01*
X5549003Y-86047275D01*
G37*
G36*
X8089003Y-86047275D02*
X8089005Y-86047276D01*
X8089006Y-86047276D01*
X8269320Y-86121964D01*
X8269321Y-86121965D01*
X8431601Y-86230397D01*
X8569603Y-86368399D01*
X8569605Y-86368402D01*
X8678036Y-86530680D01*
X8724068Y-86641813D01*
X8752725Y-86710997D01*
X8777786Y-86836987D01*
X8790800Y-86902415D01*
X8790800Y-87097585D01*
X8752724Y-87289006D01*
X8678036Y-87469320D01*
X8579068Y-87617435D01*
X8569603Y-87631601D01*
X8431601Y-87769603D01*
X8431598Y-87769605D01*
X8269320Y-87878036D01*
X8089006Y-87952724D01*
X8089005Y-87952724D01*
X8089003Y-87952725D01*
X7897587Y-87990800D01*
X7702413Y-87990800D01*
X7510997Y-87952725D01*
X7510995Y-87952724D01*
X7510994Y-87952724D01*
X7330680Y-87878036D01*
X7168402Y-87769605D01*
X7168399Y-87769603D01*
X7030397Y-87631601D01*
X7020932Y-87617435D01*
X6921964Y-87469320D01*
X6847276Y-87289006D01*
X6809200Y-87097585D01*
X6809200Y-86902415D01*
X6822214Y-86836987D01*
X6847275Y-86710997D01*
X6875932Y-86641813D01*
X6921964Y-86530680D01*
X7030395Y-86368402D01*
X7030397Y-86368399D01*
X7168399Y-86230397D01*
X7330679Y-86121965D01*
X7330680Y-86121964D01*
X7510994Y-86047276D01*
X7510995Y-86047276D01*
X7510997Y-86047275D01*
X7702413Y-86009200D01*
X7897587Y-86009200D01*
X8089003Y-86047275D01*
X8089003Y-86047275D01*
G37*
G36*
X34340203Y-85786675D02*
X34340205Y-85786676D01*
X34340206Y-85786676D01*
X34520520Y-85861364D01*
X34520521Y-85861365D01*
X34682801Y-85969797D01*
X34820803Y-86107799D01*
X34820805Y-86107802D01*
X34929236Y-86270080D01*
X34969962Y-86368402D01*
X35003925Y-86450397D01*
X35042000Y-86641813D01*
X35042000Y-86836987D01*
X35028986Y-86902415D01*
X35003924Y-87028406D01*
X34929236Y-87208720D01*
X34929235Y-87208721D01*
X34820803Y-87371001D01*
X34682801Y-87509003D01*
X34682798Y-87509005D01*
X34520520Y-87617436D01*
X34340206Y-87692124D01*
X34340205Y-87692124D01*
X34340203Y-87692125D01*
X34148787Y-87730200D01*
X33953613Y-87730200D01*
X33762197Y-87692125D01*
X33762195Y-87692124D01*
X33762194Y-87692124D01*
X33581880Y-87617436D01*
X33419602Y-87509005D01*
X33419599Y-87509003D01*
X33281597Y-87371001D01*
X33173165Y-87208721D01*
X33173164Y-87208720D01*
X33098476Y-87028406D01*
X33073415Y-86902415D01*
X33060400Y-86836987D01*
X33060400Y-86641813D01*
X33098475Y-86450397D01*
X33132438Y-86368402D01*
X33173164Y-86270080D01*
X33281595Y-86107802D01*
X33281597Y-86107799D01*
X33419599Y-85969797D01*
X33581879Y-85861365D01*
X33581880Y-85861364D01*
X33762194Y-85786676D01*
X33762195Y-85786676D01*
X33762197Y-85786675D01*
X33953613Y-85748600D01*
X34148787Y-85748600D01*
X34340203Y-85786675D01*
X34340203Y-85786675D01*
G37*
G36*
X72340203Y-85786675D02*
X72340205Y-85786676D01*
X72340206Y-85786676D01*
X72520520Y-85861364D01*
X72520521Y-85861365D01*
X72682801Y-85969797D01*
X72820803Y-86107799D01*
X72820805Y-86107802D01*
X72929236Y-86270080D01*
X72969962Y-86368402D01*
X73003925Y-86450397D01*
X73042000Y-86641813D01*
X73042000Y-86836987D01*
X73028986Y-86902415D01*
X73003924Y-87028406D01*
X72929236Y-87208720D01*
X72929235Y-87208721D01*
X72820803Y-87371001D01*
X72682801Y-87509003D01*
X72682798Y-87509005D01*
X72520520Y-87617436D01*
X72340206Y-87692124D01*
X72340205Y-87692124D01*
X72340203Y-87692125D01*
X72148787Y-87730200D01*
X71953613Y-87730200D01*
X71762197Y-87692125D01*
X71762195Y-87692124D01*
X71762194Y-87692124D01*
X71581880Y-87617436D01*
X71419602Y-87509005D01*
X71419599Y-87509003D01*
X71281597Y-87371001D01*
X71173165Y-87208721D01*
X71173164Y-87208720D01*
X71098476Y-87028406D01*
X71073415Y-86902415D01*
X71060400Y-86836987D01*
X71060400Y-86641813D01*
X71098475Y-86450397D01*
X71132438Y-86368402D01*
X71173164Y-86270080D01*
X71281595Y-86107802D01*
X71281597Y-86107799D01*
X71419599Y-85969797D01*
X71581879Y-85861365D01*
X71581880Y-85861364D01*
X71762194Y-85786676D01*
X71762195Y-85786676D01*
X71762197Y-85786675D01*
X71953613Y-85748600D01*
X72148787Y-85748600D01*
X72340203Y-85786675D01*
X72340203Y-85786675D01*
G37*
G36*
X60340203Y-85786675D02*
X60340205Y-85786676D01*
X60340206Y-85786676D01*
X60520520Y-85861364D01*
X60520521Y-85861365D01*
X60682801Y-85969797D01*
X60820803Y-86107799D01*
X60820805Y-86107802D01*
X60929236Y-86270080D01*
X60969962Y-86368402D01*
X61003925Y-86450397D01*
X61042000Y-86641813D01*
X61042000Y-86836987D01*
X61028986Y-86902415D01*
X61003924Y-87028406D01*
X60929236Y-87208720D01*
X60929235Y-87208721D01*
X60820803Y-87371001D01*
X60682801Y-87509003D01*
X60682798Y-87509005D01*
X60520520Y-87617436D01*
X60340206Y-87692124D01*
X60340205Y-87692124D01*
X60340203Y-87692125D01*
X60148787Y-87730200D01*
X59953613Y-87730200D01*
X59762197Y-87692125D01*
X59762195Y-87692124D01*
X59762194Y-87692124D01*
X59581880Y-87617436D01*
X59419602Y-87509005D01*
X59419599Y-87509003D01*
X59281597Y-87371001D01*
X59173165Y-87208721D01*
X59173164Y-87208720D01*
X59098476Y-87028406D01*
X59073415Y-86902415D01*
X59060400Y-86836987D01*
X59060400Y-86641813D01*
X59098475Y-86450397D01*
X59132438Y-86368402D01*
X59173164Y-86270080D01*
X59281595Y-86107802D01*
X59281597Y-86107799D01*
X59419599Y-85969797D01*
X59581879Y-85861365D01*
X59581880Y-85861364D01*
X59762194Y-85786676D01*
X59762195Y-85786676D01*
X59762197Y-85786675D01*
X59953613Y-85748600D01*
X60148787Y-85748600D01*
X60340203Y-85786675D01*
X60340203Y-85786675D01*
G37*
G36*
X53837803Y-85786675D02*
X53837805Y-85786676D01*
X53837806Y-85786676D01*
X54018120Y-85861364D01*
X54018121Y-85861365D01*
X54180401Y-85969797D01*
X54318403Y-86107799D01*
X54318405Y-86107802D01*
X54426836Y-86270080D01*
X54467562Y-86368402D01*
X54501525Y-86450397D01*
X54539600Y-86641813D01*
X54539600Y-86836987D01*
X54526586Y-86902415D01*
X54501524Y-87028406D01*
X54426836Y-87208720D01*
X54426835Y-87208721D01*
X54318403Y-87371001D01*
X54180401Y-87509003D01*
X54180398Y-87509005D01*
X54018120Y-87617436D01*
X53837806Y-87692124D01*
X53837805Y-87692124D01*
X53837803Y-87692125D01*
X53646387Y-87730200D01*
X53451213Y-87730200D01*
X53259797Y-87692125D01*
X53259795Y-87692124D01*
X53259794Y-87692124D01*
X53079480Y-87617436D01*
X52917202Y-87509005D01*
X52917199Y-87509003D01*
X52779197Y-87371001D01*
X52670765Y-87208721D01*
X52670764Y-87208720D01*
X52596076Y-87028406D01*
X52571015Y-86902415D01*
X52558000Y-86836987D01*
X52558000Y-86641813D01*
X52596075Y-86450397D01*
X52630038Y-86368402D01*
X52670764Y-86270080D01*
X52779195Y-86107802D01*
X52779197Y-86107799D01*
X52917199Y-85969797D01*
X53079479Y-85861365D01*
X53079480Y-85861364D01*
X53259794Y-85786676D01*
X53259795Y-85786676D01*
X53259797Y-85786675D01*
X53451213Y-85748600D01*
X53646387Y-85748600D01*
X53837803Y-85786675D01*
X53837803Y-85786675D01*
G37*
G36*
X47340203Y-85786675D02*
X47340205Y-85786676D01*
X47340206Y-85786676D01*
X47520520Y-85861364D01*
X47520521Y-85861365D01*
X47682801Y-85969797D01*
X47820803Y-86107799D01*
X47820805Y-86107802D01*
X47929236Y-86270080D01*
X47969962Y-86368402D01*
X48003925Y-86450397D01*
X48042000Y-86641813D01*
X48042000Y-86836987D01*
X48028986Y-86902415D01*
X48003924Y-87028406D01*
X47929236Y-87208720D01*
X47929235Y-87208721D01*
X47820803Y-87371001D01*
X47682801Y-87509003D01*
X47682798Y-87509005D01*
X47520520Y-87617436D01*
X47340206Y-87692124D01*
X47340205Y-87692124D01*
X47340203Y-87692125D01*
X47148787Y-87730200D01*
X46953613Y-87730200D01*
X46762197Y-87692125D01*
X46762195Y-87692124D01*
X46762194Y-87692124D01*
X46581880Y-87617436D01*
X46419602Y-87509005D01*
X46419599Y-87509003D01*
X46281597Y-87371001D01*
X46173165Y-87208721D01*
X46173164Y-87208720D01*
X46098476Y-87028406D01*
X46073415Y-86902415D01*
X46060400Y-86836987D01*
X46060400Y-86641813D01*
X46098475Y-86450397D01*
X46132438Y-86368402D01*
X46173164Y-86270080D01*
X46281595Y-86107802D01*
X46281597Y-86107799D01*
X46419599Y-85969797D01*
X46581879Y-85861365D01*
X46581880Y-85861364D01*
X46762194Y-85786676D01*
X46762195Y-85786676D01*
X46762197Y-85786675D01*
X46953613Y-85748600D01*
X47148787Y-85748600D01*
X47340203Y-85786675D01*
X47340203Y-85786675D01*
G37*
G36*
X40837803Y-85786675D02*
X40837805Y-85786676D01*
X40837806Y-85786676D01*
X41018120Y-85861364D01*
X41018121Y-85861365D01*
X41180401Y-85969797D01*
X41318403Y-86107799D01*
X41318405Y-86107802D01*
X41426836Y-86270080D01*
X41467562Y-86368402D01*
X41501525Y-86450397D01*
X41539600Y-86641813D01*
X41539600Y-86836987D01*
X41526586Y-86902415D01*
X41501524Y-87028406D01*
X41426836Y-87208720D01*
X41426835Y-87208721D01*
X41318403Y-87371001D01*
X41180401Y-87509003D01*
X41180398Y-87509005D01*
X41018120Y-87617436D01*
X40837806Y-87692124D01*
X40837805Y-87692124D01*
X40837803Y-87692125D01*
X40646387Y-87730200D01*
X40451213Y-87730200D01*
X40259797Y-87692125D01*
X40259795Y-87692124D01*
X40259794Y-87692124D01*
X40079480Y-87617436D01*
X39917202Y-87509005D01*
X39917199Y-87509003D01*
X39779197Y-87371001D01*
X39670765Y-87208721D01*
X39670764Y-87208720D01*
X39596076Y-87028406D01*
X39571015Y-86902415D01*
X39558000Y-86836987D01*
X39558000Y-86641813D01*
X39596075Y-86450397D01*
X39630038Y-86368402D01*
X39670764Y-86270080D01*
X39779195Y-86107802D01*
X39779197Y-86107799D01*
X39917199Y-85969797D01*
X40079479Y-85861365D01*
X40079480Y-85861364D01*
X40259794Y-85786676D01*
X40259795Y-85786676D01*
X40259797Y-85786675D01*
X40451213Y-85748600D01*
X40646387Y-85748600D01*
X40837803Y-85786675D01*
X40837803Y-85786675D01*
G37*
G36*
X27837803Y-85786675D02*
X27837805Y-85786676D01*
X27837806Y-85786676D01*
X28018120Y-85861364D01*
X28018121Y-85861365D01*
X28180401Y-85969797D01*
X28318403Y-86107799D01*
X28318405Y-86107802D01*
X28426836Y-86270080D01*
X28467562Y-86368402D01*
X28501525Y-86450397D01*
X28539600Y-86641813D01*
X28539600Y-86836987D01*
X28526586Y-86902415D01*
X28501524Y-87028406D01*
X28426836Y-87208720D01*
X28426835Y-87208721D01*
X28318403Y-87371001D01*
X28180401Y-87509003D01*
X28180398Y-87509005D01*
X28018120Y-87617436D01*
X27837806Y-87692124D01*
X27837805Y-87692124D01*
X27837803Y-87692125D01*
X27646387Y-87730200D01*
X27451213Y-87730200D01*
X27259797Y-87692125D01*
X27259795Y-87692124D01*
X27259794Y-87692124D01*
X27079480Y-87617436D01*
X26917202Y-87509005D01*
X26917199Y-87509003D01*
X26779197Y-87371001D01*
X26670765Y-87208721D01*
X26670764Y-87208720D01*
X26596076Y-87028406D01*
X26571015Y-86902415D01*
X26558000Y-86836987D01*
X26558000Y-86641813D01*
X26596075Y-86450397D01*
X26630038Y-86368402D01*
X26670764Y-86270080D01*
X26779195Y-86107802D01*
X26779197Y-86107799D01*
X26917199Y-85969797D01*
X27079479Y-85861365D01*
X27079480Y-85861364D01*
X27259794Y-85786676D01*
X27259795Y-85786676D01*
X27259797Y-85786675D01*
X27451213Y-85748600D01*
X27646387Y-85748600D01*
X27837803Y-85786675D01*
X27837803Y-85786675D01*
G37*
G36*
X65837803Y-85786675D02*
X65837805Y-85786676D01*
X65837806Y-85786676D01*
X66018120Y-85861364D01*
X66018121Y-85861365D01*
X66180401Y-85969797D01*
X66318403Y-86107799D01*
X66318405Y-86107802D01*
X66426836Y-86270080D01*
X66467562Y-86368402D01*
X66501525Y-86450397D01*
X66539600Y-86641813D01*
X66539600Y-86836987D01*
X66526586Y-86902415D01*
X66501524Y-87028406D01*
X66426836Y-87208720D01*
X66426835Y-87208721D01*
X66318403Y-87371001D01*
X66180401Y-87509003D01*
X66180398Y-87509005D01*
X66018120Y-87617436D01*
X65837806Y-87692124D01*
X65837805Y-87692124D01*
X65837803Y-87692125D01*
X65646387Y-87730200D01*
X65451213Y-87730200D01*
X65259797Y-87692125D01*
X65259795Y-87692124D01*
X65259794Y-87692124D01*
X65079480Y-87617436D01*
X64917202Y-87509005D01*
X64917199Y-87509003D01*
X64779197Y-87371001D01*
X64670765Y-87208721D01*
X64670764Y-87208720D01*
X64596076Y-87028406D01*
X64571015Y-86902415D01*
X64558000Y-86836987D01*
X64558000Y-86641813D01*
X64596075Y-86450397D01*
X64630038Y-86368402D01*
X64670764Y-86270080D01*
X64779195Y-86107802D01*
X64779197Y-86107799D01*
X64917199Y-85969797D01*
X65079479Y-85861365D01*
X65079480Y-85861364D01*
X65259794Y-85786676D01*
X65259795Y-85786676D01*
X65259797Y-85786675D01*
X65451213Y-85748600D01*
X65646387Y-85748600D01*
X65837803Y-85786675D01*
X65837803Y-85786675D01*
G37*
G36*
X8089003Y-83507275D02*
X8089005Y-83507276D01*
X8089006Y-83507276D01*
X8269320Y-83581964D01*
X8269321Y-83581965D01*
X8431601Y-83690397D01*
X8569603Y-83828399D01*
X8569605Y-83828402D01*
X8678036Y-83990680D01*
X8752724Y-84170994D01*
X8790800Y-84362415D01*
X8790800Y-84557585D01*
X8752724Y-84749006D01*
X8678036Y-84929320D01*
X8678035Y-84929321D01*
X8569603Y-85091601D01*
X8431601Y-85229603D01*
X8431598Y-85229605D01*
X8269320Y-85338036D01*
X8089006Y-85412724D01*
X8089005Y-85412724D01*
X8089003Y-85412725D01*
X7897587Y-85450800D01*
X7702413Y-85450800D01*
X7510997Y-85412725D01*
X7510995Y-85412724D01*
X7510994Y-85412724D01*
X7330680Y-85338036D01*
X7168402Y-85229605D01*
X7168399Y-85229603D01*
X7030397Y-85091601D01*
X6921965Y-84929321D01*
X6921964Y-84929320D01*
X6847276Y-84749006D01*
X6809200Y-84557585D01*
X6809200Y-84362415D01*
X6847276Y-84170994D01*
X6921964Y-83990680D01*
X7030395Y-83828402D01*
X7030397Y-83828399D01*
X7168399Y-83690397D01*
X7330679Y-83581965D01*
X7330680Y-83581964D01*
X7510994Y-83507276D01*
X7510995Y-83507276D01*
X7510997Y-83507275D01*
X7702413Y-83469200D01*
X7897587Y-83469200D01*
X8089003Y-83507275D01*
X8089003Y-83507275D01*
G37*
G36*
X5549003Y-83507275D02*
X5549005Y-83507276D01*
X5549006Y-83507276D01*
X5729320Y-83581964D01*
X5729321Y-83581965D01*
X5891601Y-83690397D01*
X6029603Y-83828399D01*
X6029605Y-83828402D01*
X6138036Y-83990680D01*
X6212724Y-84170994D01*
X6250800Y-84362415D01*
X6250800Y-84557585D01*
X6212724Y-84749006D01*
X6138036Y-84929320D01*
X6138035Y-84929321D01*
X6029603Y-85091601D01*
X5891601Y-85229603D01*
X5891598Y-85229605D01*
X5729320Y-85338036D01*
X5549006Y-85412724D01*
X5549005Y-85412724D01*
X5549003Y-85412725D01*
X5357587Y-85450800D01*
X5162413Y-85450800D01*
X4970997Y-85412725D01*
X4970995Y-85412724D01*
X4970994Y-85412724D01*
X4790680Y-85338036D01*
X4628402Y-85229605D01*
X4628399Y-85229603D01*
X4490397Y-85091601D01*
X4381965Y-84929321D01*
X4381964Y-84929320D01*
X4307276Y-84749006D01*
X4269200Y-84557585D01*
X4269200Y-84362415D01*
X4307276Y-84170994D01*
X4381964Y-83990680D01*
X4490395Y-83828402D01*
X4490397Y-83828399D01*
X4628399Y-83690397D01*
X4790679Y-83581965D01*
X4790680Y-83581964D01*
X4970994Y-83507276D01*
X4970995Y-83507276D01*
X4970997Y-83507275D01*
X5162413Y-83469200D01*
X5357587Y-83469200D01*
X5549003Y-83507275D01*
X5549003Y-83507275D01*
G37*
G36*
X8089003Y-80967275D02*
X8089005Y-80967276D01*
X8089006Y-80967276D01*
X8269320Y-81041964D01*
X8269321Y-81041965D01*
X8431601Y-81150397D01*
X8569603Y-81288399D01*
X8569605Y-81288402D01*
X8678036Y-81450680D01*
X8719011Y-81549603D01*
X8752725Y-81630997D01*
X8790800Y-81822413D01*
X8790800Y-82017587D01*
X8766722Y-82138636D01*
X8752724Y-82209006D01*
X8678036Y-82389320D01*
X8678035Y-82389321D01*
X8569603Y-82551601D01*
X8431601Y-82689603D01*
X8431598Y-82689605D01*
X8269320Y-82798036D01*
X8089006Y-82872724D01*
X8089005Y-82872724D01*
X8089003Y-82872725D01*
X7897587Y-82910800D01*
X7702413Y-82910800D01*
X7510997Y-82872725D01*
X7510995Y-82872724D01*
X7510994Y-82872724D01*
X7330680Y-82798036D01*
X7168402Y-82689605D01*
X7168399Y-82689603D01*
X7030397Y-82551601D01*
X6921965Y-82389321D01*
X6921964Y-82389320D01*
X6847276Y-82209006D01*
X6833279Y-82138636D01*
X6809200Y-82017587D01*
X6809200Y-81822413D01*
X6847275Y-81630997D01*
X6880989Y-81549603D01*
X6921964Y-81450680D01*
X7030395Y-81288402D01*
X7030397Y-81288399D01*
X7168399Y-81150397D01*
X7330679Y-81041965D01*
X7330680Y-81041964D01*
X7510994Y-80967276D01*
X7510995Y-80967276D01*
X7510997Y-80967275D01*
X7702413Y-80929200D01*
X7897587Y-80929200D01*
X8089003Y-80967275D01*
X8089003Y-80967275D01*
G37*
G36*
X5549003Y-80967275D02*
X5549005Y-80967276D01*
X5549006Y-80967276D01*
X5729320Y-81041964D01*
X5729321Y-81041965D01*
X5891601Y-81150397D01*
X6029603Y-81288399D01*
X6029605Y-81288402D01*
X6138036Y-81450680D01*
X6179011Y-81549603D01*
X6212725Y-81630997D01*
X6250800Y-81822413D01*
X6250800Y-82017587D01*
X6226722Y-82138636D01*
X6212724Y-82209006D01*
X6138036Y-82389320D01*
X6138035Y-82389321D01*
X6029603Y-82551601D01*
X5891601Y-82689603D01*
X5891598Y-82689605D01*
X5729320Y-82798036D01*
X5549006Y-82872724D01*
X5549005Y-82872724D01*
X5549003Y-82872725D01*
X5357587Y-82910800D01*
X5162413Y-82910800D01*
X4970997Y-82872725D01*
X4970995Y-82872724D01*
X4970994Y-82872724D01*
X4790680Y-82798036D01*
X4628402Y-82689605D01*
X4628399Y-82689603D01*
X4490397Y-82551601D01*
X4381965Y-82389321D01*
X4381964Y-82389320D01*
X4307276Y-82209006D01*
X4293279Y-82138636D01*
X4269200Y-82017587D01*
X4269200Y-81822413D01*
X4307275Y-81630997D01*
X4340989Y-81549603D01*
X4381964Y-81450680D01*
X4490395Y-81288402D01*
X4490397Y-81288399D01*
X4628399Y-81150397D01*
X4790679Y-81041965D01*
X4790680Y-81041964D01*
X4970994Y-80967276D01*
X4970995Y-80967276D01*
X4970997Y-80967275D01*
X5162413Y-80929200D01*
X5357587Y-80929200D01*
X5549003Y-80967275D01*
X5549003Y-80967275D01*
G37*
G36*
X60340203Y-80307875D02*
X60340205Y-80307876D01*
X60340206Y-80307876D01*
X60520520Y-80382564D01*
X60520521Y-80382565D01*
X60682801Y-80490997D01*
X60820803Y-80628999D01*
X60820805Y-80629002D01*
X60929236Y-80791280D01*
X60986364Y-80929200D01*
X61003925Y-80971597D01*
X61042000Y-81163013D01*
X61042000Y-81358185D01*
X61003924Y-81549606D01*
X60929236Y-81729920D01*
X60929235Y-81729921D01*
X60820803Y-81892201D01*
X60682801Y-82030203D01*
X60682798Y-82030205D01*
X60520520Y-82138636D01*
X60340206Y-82213324D01*
X60340205Y-82213324D01*
X60340203Y-82213325D01*
X60148787Y-82251400D01*
X59953613Y-82251400D01*
X59762197Y-82213325D01*
X59762195Y-82213324D01*
X59762194Y-82213324D01*
X59581880Y-82138636D01*
X59419602Y-82030205D01*
X59419599Y-82030203D01*
X59281597Y-81892201D01*
X59173165Y-81729921D01*
X59173164Y-81729920D01*
X59098476Y-81549606D01*
X59060400Y-81358185D01*
X59060400Y-81163013D01*
X59098475Y-80971597D01*
X59116036Y-80929200D01*
X59173164Y-80791280D01*
X59281595Y-80629002D01*
X59281597Y-80628999D01*
X59419599Y-80490997D01*
X59581879Y-80382565D01*
X59581880Y-80382564D01*
X59762194Y-80307876D01*
X59762195Y-80307876D01*
X59762197Y-80307875D01*
X59953613Y-80269800D01*
X60148787Y-80269800D01*
X60340203Y-80307875D01*
X60340203Y-80307875D01*
G37*
G36*
X53837803Y-80307875D02*
X53837805Y-80307876D01*
X53837806Y-80307876D01*
X54018120Y-80382564D01*
X54018121Y-80382565D01*
X54180401Y-80490997D01*
X54318403Y-80628999D01*
X54318405Y-80629002D01*
X54426836Y-80791280D01*
X54483964Y-80929200D01*
X54501525Y-80971597D01*
X54539600Y-81163013D01*
X54539600Y-81358185D01*
X54501524Y-81549606D01*
X54426836Y-81729920D01*
X54426835Y-81729921D01*
X54318403Y-81892201D01*
X54180401Y-82030203D01*
X54180398Y-82030205D01*
X54018120Y-82138636D01*
X53837806Y-82213324D01*
X53837805Y-82213324D01*
X53837803Y-82213325D01*
X53646387Y-82251400D01*
X53451213Y-82251400D01*
X53259797Y-82213325D01*
X53259795Y-82213324D01*
X53259794Y-82213324D01*
X53079480Y-82138636D01*
X52917202Y-82030205D01*
X52917199Y-82030203D01*
X52779197Y-81892201D01*
X52670765Y-81729921D01*
X52670764Y-81729920D01*
X52596076Y-81549606D01*
X52558000Y-81358185D01*
X52558000Y-81163013D01*
X52596075Y-80971597D01*
X52613636Y-80929200D01*
X52670764Y-80791280D01*
X52779195Y-80629002D01*
X52779197Y-80628999D01*
X52917199Y-80490997D01*
X53079479Y-80382565D01*
X53079480Y-80382564D01*
X53259794Y-80307876D01*
X53259795Y-80307876D01*
X53259797Y-80307875D01*
X53451213Y-80269800D01*
X53646387Y-80269800D01*
X53837803Y-80307875D01*
X53837803Y-80307875D01*
G37*
G36*
X47340203Y-80307875D02*
X47340205Y-80307876D01*
X47340206Y-80307876D01*
X47520520Y-80382564D01*
X47520521Y-80382565D01*
X47682801Y-80490997D01*
X47820803Y-80628999D01*
X47820805Y-80629002D01*
X47929236Y-80791280D01*
X47986364Y-80929200D01*
X48003925Y-80971597D01*
X48042000Y-81163013D01*
X48042000Y-81358185D01*
X48003924Y-81549606D01*
X47929236Y-81729920D01*
X47929235Y-81729921D01*
X47820803Y-81892201D01*
X47682801Y-82030203D01*
X47682798Y-82030205D01*
X47520520Y-82138636D01*
X47340206Y-82213324D01*
X47340205Y-82213324D01*
X47340203Y-82213325D01*
X47148787Y-82251400D01*
X46953613Y-82251400D01*
X46762197Y-82213325D01*
X46762195Y-82213324D01*
X46762194Y-82213324D01*
X46581880Y-82138636D01*
X46419602Y-82030205D01*
X46419599Y-82030203D01*
X46281597Y-81892201D01*
X46173165Y-81729921D01*
X46173164Y-81729920D01*
X46098476Y-81549606D01*
X46060400Y-81358185D01*
X46060400Y-81163013D01*
X46098475Y-80971597D01*
X46116036Y-80929200D01*
X46173164Y-80791280D01*
X46281595Y-80629002D01*
X46281597Y-80628999D01*
X46419599Y-80490997D01*
X46581879Y-80382565D01*
X46581880Y-80382564D01*
X46762194Y-80307876D01*
X46762195Y-80307876D01*
X46762197Y-80307875D01*
X46953613Y-80269800D01*
X47148787Y-80269800D01*
X47340203Y-80307875D01*
X47340203Y-80307875D01*
G37*
G36*
X27837803Y-80307875D02*
X27837805Y-80307876D01*
X27837806Y-80307876D01*
X28018120Y-80382564D01*
X28018121Y-80382565D01*
X28180401Y-80490997D01*
X28318403Y-80628999D01*
X28318405Y-80629002D01*
X28426836Y-80791280D01*
X28483964Y-80929200D01*
X28501525Y-80971597D01*
X28539600Y-81163013D01*
X28539600Y-81358185D01*
X28501524Y-81549606D01*
X28426836Y-81729920D01*
X28426835Y-81729921D01*
X28318403Y-81892201D01*
X28180401Y-82030203D01*
X28180398Y-82030205D01*
X28018120Y-82138636D01*
X27837806Y-82213324D01*
X27837805Y-82213324D01*
X27837803Y-82213325D01*
X27646387Y-82251400D01*
X27451213Y-82251400D01*
X27259797Y-82213325D01*
X27259795Y-82213324D01*
X27259794Y-82213324D01*
X27079480Y-82138636D01*
X26917202Y-82030205D01*
X26917199Y-82030203D01*
X26779197Y-81892201D01*
X26670765Y-81729921D01*
X26670764Y-81729920D01*
X26596076Y-81549606D01*
X26558000Y-81358185D01*
X26558000Y-81163013D01*
X26596075Y-80971597D01*
X26613636Y-80929200D01*
X26670764Y-80791280D01*
X26779195Y-80629002D01*
X26779197Y-80628999D01*
X26917199Y-80490997D01*
X27079479Y-80382565D01*
X27079480Y-80382564D01*
X27259794Y-80307876D01*
X27259795Y-80307876D01*
X27259797Y-80307875D01*
X27451213Y-80269800D01*
X27646387Y-80269800D01*
X27837803Y-80307875D01*
X27837803Y-80307875D01*
G37*
G36*
X40837803Y-80307875D02*
X40837805Y-80307876D01*
X40837806Y-80307876D01*
X41018120Y-80382564D01*
X41018121Y-80382565D01*
X41180401Y-80490997D01*
X41318403Y-80628999D01*
X41318405Y-80629002D01*
X41426836Y-80791280D01*
X41483964Y-80929200D01*
X41501525Y-80971597D01*
X41539600Y-81163013D01*
X41539600Y-81358185D01*
X41501524Y-81549606D01*
X41426836Y-81729920D01*
X41426835Y-81729921D01*
X41318403Y-81892201D01*
X41180401Y-82030203D01*
X41180398Y-82030205D01*
X41018120Y-82138636D01*
X40837806Y-82213324D01*
X40837805Y-82213324D01*
X40837803Y-82213325D01*
X40646387Y-82251400D01*
X40451213Y-82251400D01*
X40259797Y-82213325D01*
X40259795Y-82213324D01*
X40259794Y-82213324D01*
X40079480Y-82138636D01*
X39917202Y-82030205D01*
X39917199Y-82030203D01*
X39779197Y-81892201D01*
X39670765Y-81729921D01*
X39670764Y-81729920D01*
X39596076Y-81549606D01*
X39558000Y-81358185D01*
X39558000Y-81163013D01*
X39596075Y-80971597D01*
X39613636Y-80929200D01*
X39670764Y-80791280D01*
X39779195Y-80629002D01*
X39779197Y-80628999D01*
X39917199Y-80490997D01*
X40079479Y-80382565D01*
X40079480Y-80382564D01*
X40259794Y-80307876D01*
X40259795Y-80307876D01*
X40259797Y-80307875D01*
X40451213Y-80269800D01*
X40646387Y-80269800D01*
X40837803Y-80307875D01*
X40837803Y-80307875D01*
G37*
G36*
X65837803Y-80307875D02*
X65837805Y-80307876D01*
X65837806Y-80307876D01*
X66018120Y-80382564D01*
X66018121Y-80382565D01*
X66180401Y-80490997D01*
X66318403Y-80628999D01*
X66318405Y-80629002D01*
X66426836Y-80791280D01*
X66483964Y-80929200D01*
X66501525Y-80971597D01*
X66539600Y-81163013D01*
X66539600Y-81358185D01*
X66501524Y-81549606D01*
X66426836Y-81729920D01*
X66426835Y-81729921D01*
X66318403Y-81892201D01*
X66180401Y-82030203D01*
X66180398Y-82030205D01*
X66018120Y-82138636D01*
X65837806Y-82213324D01*
X65837805Y-82213324D01*
X65837803Y-82213325D01*
X65646387Y-82251400D01*
X65451213Y-82251400D01*
X65259797Y-82213325D01*
X65259795Y-82213324D01*
X65259794Y-82213324D01*
X65079480Y-82138636D01*
X64917202Y-82030205D01*
X64917199Y-82030203D01*
X64779197Y-81892201D01*
X64670765Y-81729921D01*
X64670764Y-81729920D01*
X64596076Y-81549606D01*
X64558000Y-81358185D01*
X64558000Y-81163013D01*
X64596075Y-80971597D01*
X64613636Y-80929200D01*
X64670764Y-80791280D01*
X64779195Y-80629002D01*
X64779197Y-80628999D01*
X64917199Y-80490997D01*
X65079479Y-80382565D01*
X65079480Y-80382564D01*
X65259794Y-80307876D01*
X65259795Y-80307876D01*
X65259797Y-80307875D01*
X65451213Y-80269800D01*
X65646387Y-80269800D01*
X65837803Y-80307875D01*
X65837803Y-80307875D01*
G37*
G36*
X72340203Y-80307875D02*
X72340205Y-80307876D01*
X72340206Y-80307876D01*
X72520520Y-80382564D01*
X72520521Y-80382565D01*
X72682801Y-80490997D01*
X72820803Y-80628999D01*
X72820805Y-80629002D01*
X72929236Y-80791280D01*
X72986364Y-80929200D01*
X73003925Y-80971597D01*
X73042000Y-81163013D01*
X73042000Y-81358185D01*
X73003924Y-81549606D01*
X72929236Y-81729920D01*
X72929235Y-81729921D01*
X72820803Y-81892201D01*
X72682801Y-82030203D01*
X72682798Y-82030205D01*
X72520520Y-82138636D01*
X72340206Y-82213324D01*
X72340205Y-82213324D01*
X72340203Y-82213325D01*
X72148787Y-82251400D01*
X71953613Y-82251400D01*
X71762197Y-82213325D01*
X71762195Y-82213324D01*
X71762194Y-82213324D01*
X71581880Y-82138636D01*
X71419602Y-82030205D01*
X71419599Y-82030203D01*
X71281597Y-81892201D01*
X71173165Y-81729921D01*
X71173164Y-81729920D01*
X71098476Y-81549606D01*
X71060400Y-81358185D01*
X71060400Y-81163013D01*
X71098475Y-80971597D01*
X71116036Y-80929200D01*
X71173164Y-80791280D01*
X71281595Y-80629002D01*
X71281597Y-80628999D01*
X71419599Y-80490997D01*
X71581879Y-80382565D01*
X71581880Y-80382564D01*
X71762194Y-80307876D01*
X71762195Y-80307876D01*
X71762197Y-80307875D01*
X71953613Y-80269800D01*
X72148787Y-80269800D01*
X72340203Y-80307875D01*
X72340203Y-80307875D01*
G37*
G36*
X34340203Y-80307875D02*
X34340205Y-80307876D01*
X34340206Y-80307876D01*
X34520520Y-80382564D01*
X34520521Y-80382565D01*
X34682801Y-80490997D01*
X34820803Y-80628999D01*
X34820805Y-80629002D01*
X34929236Y-80791280D01*
X34986364Y-80929200D01*
X35003925Y-80971597D01*
X35042000Y-81163013D01*
X35042000Y-81358185D01*
X35003924Y-81549606D01*
X34929236Y-81729920D01*
X34929235Y-81729921D01*
X34820803Y-81892201D01*
X34682801Y-82030203D01*
X34682798Y-82030205D01*
X34520520Y-82138636D01*
X34340206Y-82213324D01*
X34340205Y-82213324D01*
X34340203Y-82213325D01*
X34148787Y-82251400D01*
X33953613Y-82251400D01*
X33762197Y-82213325D01*
X33762195Y-82213324D01*
X33762194Y-82213324D01*
X33581880Y-82138636D01*
X33419602Y-82030205D01*
X33419599Y-82030203D01*
X33281597Y-81892201D01*
X33173165Y-81729921D01*
X33173164Y-81729920D01*
X33098476Y-81549606D01*
X33060400Y-81358185D01*
X33060400Y-81163013D01*
X33098475Y-80971597D01*
X33116036Y-80929200D01*
X33173164Y-80791280D01*
X33281595Y-80629002D01*
X33281597Y-80628999D01*
X33419599Y-80490997D01*
X33581879Y-80382565D01*
X33581880Y-80382564D01*
X33762194Y-80307876D01*
X33762195Y-80307876D01*
X33762197Y-80307875D01*
X33953613Y-80269800D01*
X34148787Y-80269800D01*
X34340203Y-80307875D01*
X34340203Y-80307875D01*
G37*
G36*
X5549003Y-78427275D02*
X5549005Y-78427276D01*
X5549006Y-78427276D01*
X5729320Y-78501964D01*
X5729321Y-78501965D01*
X5891601Y-78610397D01*
X6029603Y-78748399D01*
X6029605Y-78748402D01*
X6138036Y-78910680D01*
X6212724Y-79090994D01*
X6250800Y-79282415D01*
X6250800Y-79477585D01*
X6212724Y-79669006D01*
X6138036Y-79849320D01*
X6138035Y-79849321D01*
X6029603Y-80011601D01*
X5891601Y-80149603D01*
X5891598Y-80149605D01*
X5729320Y-80258036D01*
X5549006Y-80332724D01*
X5549005Y-80332724D01*
X5549003Y-80332725D01*
X5357587Y-80370800D01*
X5162413Y-80370800D01*
X4970997Y-80332725D01*
X4970995Y-80332724D01*
X4970994Y-80332724D01*
X4790680Y-80258036D01*
X4628402Y-80149605D01*
X4628399Y-80149603D01*
X4490397Y-80011601D01*
X4381965Y-79849321D01*
X4381964Y-79849320D01*
X4307276Y-79669006D01*
X4269200Y-79477585D01*
X4269200Y-79282415D01*
X4307276Y-79090994D01*
X4381964Y-78910680D01*
X4490395Y-78748402D01*
X4490397Y-78748399D01*
X4628399Y-78610397D01*
X4790679Y-78501965D01*
X4790680Y-78501964D01*
X4970994Y-78427276D01*
X4970995Y-78427276D01*
X4970997Y-78427275D01*
X5162413Y-78389200D01*
X5357587Y-78389200D01*
X5549003Y-78427275D01*
X5549003Y-78427275D01*
G37*
G36*
X8089003Y-78427275D02*
X8089005Y-78427276D01*
X8089006Y-78427276D01*
X8269320Y-78501964D01*
X8269321Y-78501965D01*
X8431601Y-78610397D01*
X8569603Y-78748399D01*
X8569605Y-78748402D01*
X8678036Y-78910680D01*
X8752724Y-79090994D01*
X8790800Y-79282415D01*
X8790800Y-79477585D01*
X8752724Y-79669006D01*
X8678036Y-79849320D01*
X8678035Y-79849321D01*
X8569603Y-80011601D01*
X8431601Y-80149603D01*
X8431598Y-80149605D01*
X8269320Y-80258036D01*
X8089006Y-80332724D01*
X8089005Y-80332724D01*
X8089003Y-80332725D01*
X7897587Y-80370800D01*
X7702413Y-80370800D01*
X7510997Y-80332725D01*
X7510995Y-80332724D01*
X7510994Y-80332724D01*
X7330680Y-80258036D01*
X7168402Y-80149605D01*
X7168399Y-80149603D01*
X7030397Y-80011601D01*
X6921965Y-79849321D01*
X6921964Y-79849320D01*
X6847276Y-79669006D01*
X6809200Y-79477585D01*
X6809200Y-79282415D01*
X6847276Y-79090994D01*
X6921964Y-78910680D01*
X7030395Y-78748402D01*
X7030397Y-78748399D01*
X7168399Y-78610397D01*
X7330679Y-78501965D01*
X7330680Y-78501964D01*
X7510994Y-78427276D01*
X7510995Y-78427276D01*
X7510997Y-78427275D01*
X7702413Y-78389200D01*
X7897587Y-78389200D01*
X8089003Y-78427275D01*
X8089003Y-78427275D01*
G37*
G36*
X8089003Y-75887275D02*
X8089005Y-75887276D01*
X8089006Y-75887276D01*
X8269320Y-75961964D01*
X8429410Y-76068933D01*
X8431601Y-76070397D01*
X8569603Y-76208399D01*
X8569605Y-76208402D01*
X8678036Y-76370680D01*
X8752724Y-76550994D01*
X8752725Y-76550997D01*
X8790800Y-76742413D01*
X8790800Y-76937587D01*
X8772736Y-77028403D01*
X8752724Y-77129006D01*
X8678036Y-77309320D01*
X8678035Y-77309321D01*
X8569603Y-77471601D01*
X8431601Y-77609603D01*
X8431598Y-77609605D01*
X8269320Y-77718036D01*
X8089006Y-77792724D01*
X8089005Y-77792724D01*
X8089003Y-77792725D01*
X7897587Y-77830800D01*
X7702413Y-77830800D01*
X7510997Y-77792725D01*
X7510995Y-77792724D01*
X7510994Y-77792724D01*
X7330680Y-77718036D01*
X7168402Y-77609605D01*
X7168399Y-77609603D01*
X7030397Y-77471601D01*
X6921965Y-77309321D01*
X6921964Y-77309320D01*
X6847276Y-77129006D01*
X6827265Y-77028403D01*
X6809200Y-76937587D01*
X6809200Y-76742413D01*
X6847275Y-76550997D01*
X6847276Y-76550994D01*
X6921964Y-76370680D01*
X7030395Y-76208402D01*
X7030397Y-76208399D01*
X7168399Y-76070397D01*
X7170590Y-76068933D01*
X7330680Y-75961964D01*
X7510994Y-75887276D01*
X7510995Y-75887276D01*
X7510997Y-75887275D01*
X7702413Y-75849200D01*
X7897587Y-75849200D01*
X8089003Y-75887275D01*
X8089003Y-75887275D01*
G37*
G36*
X5549003Y-75887275D02*
X5549005Y-75887276D01*
X5549006Y-75887276D01*
X5729320Y-75961964D01*
X5889410Y-76068933D01*
X5891601Y-76070397D01*
X6029603Y-76208399D01*
X6029605Y-76208402D01*
X6138036Y-76370680D01*
X6212724Y-76550994D01*
X6212725Y-76550997D01*
X6250800Y-76742413D01*
X6250800Y-76937587D01*
X6232736Y-77028403D01*
X6212724Y-77129006D01*
X6138036Y-77309320D01*
X6138035Y-77309321D01*
X6029603Y-77471601D01*
X5891601Y-77609603D01*
X5891598Y-77609605D01*
X5729320Y-77718036D01*
X5549006Y-77792724D01*
X5549005Y-77792724D01*
X5549003Y-77792725D01*
X5357587Y-77830800D01*
X5162413Y-77830800D01*
X4970997Y-77792725D01*
X4970995Y-77792724D01*
X4970994Y-77792724D01*
X4790680Y-77718036D01*
X4628402Y-77609605D01*
X4628399Y-77609603D01*
X4490397Y-77471601D01*
X4381965Y-77309321D01*
X4381964Y-77309320D01*
X4307276Y-77129006D01*
X4287265Y-77028403D01*
X4269200Y-76937587D01*
X4269200Y-76742413D01*
X4307275Y-76550997D01*
X4307276Y-76550994D01*
X4381964Y-76370680D01*
X4490395Y-76208402D01*
X4490397Y-76208399D01*
X4628399Y-76070397D01*
X4630590Y-76068933D01*
X4790680Y-75961964D01*
X4970994Y-75887276D01*
X4970995Y-75887276D01*
X4970997Y-75887275D01*
X5162413Y-75849200D01*
X5357587Y-75849200D01*
X5549003Y-75887275D01*
X5549003Y-75887275D01*
G37*
G36*
X53837803Y-75786675D02*
X53837805Y-75786676D01*
X53837806Y-75786676D01*
X54018120Y-75861364D01*
X54018121Y-75861365D01*
X54180401Y-75969797D01*
X54318403Y-76107799D01*
X54318405Y-76107802D01*
X54426836Y-76270080D01*
X54501524Y-76450394D01*
X54501525Y-76450397D01*
X54539600Y-76641813D01*
X54539600Y-76836987D01*
X54519590Y-76937585D01*
X54501524Y-77028406D01*
X54426836Y-77208720D01*
X54426835Y-77208721D01*
X54318403Y-77371001D01*
X54180401Y-77509003D01*
X54180398Y-77509005D01*
X54018120Y-77617436D01*
X53837806Y-77692124D01*
X53837805Y-77692124D01*
X53837803Y-77692125D01*
X53646387Y-77730200D01*
X53451213Y-77730200D01*
X53259797Y-77692125D01*
X53259795Y-77692124D01*
X53259794Y-77692124D01*
X53079480Y-77617436D01*
X52917202Y-77509005D01*
X52917199Y-77509003D01*
X52779197Y-77371001D01*
X52670765Y-77208721D01*
X52670764Y-77208720D01*
X52596076Y-77028406D01*
X52578011Y-76937585D01*
X52558000Y-76836987D01*
X52558000Y-76641813D01*
X52596075Y-76450397D01*
X52596076Y-76450394D01*
X52670764Y-76270080D01*
X52779195Y-76107802D01*
X52779197Y-76107799D01*
X52917199Y-75969797D01*
X53079479Y-75861365D01*
X53079480Y-75861364D01*
X53259794Y-75786676D01*
X53259795Y-75786676D01*
X53259797Y-75786675D01*
X53451213Y-75748600D01*
X53646387Y-75748600D01*
X53837803Y-75786675D01*
X53837803Y-75786675D01*
G37*
G36*
X72340203Y-75786675D02*
X72340205Y-75786676D01*
X72340206Y-75786676D01*
X72520520Y-75861364D01*
X72520521Y-75861365D01*
X72682801Y-75969797D01*
X72820803Y-76107799D01*
X72820805Y-76107802D01*
X72929236Y-76270080D01*
X73003924Y-76450394D01*
X73003925Y-76450397D01*
X73042000Y-76641813D01*
X73042000Y-76836987D01*
X73021990Y-76937585D01*
X73003924Y-77028406D01*
X72929236Y-77208720D01*
X72929235Y-77208721D01*
X72820803Y-77371001D01*
X72682801Y-77509003D01*
X72682798Y-77509005D01*
X72520520Y-77617436D01*
X72340206Y-77692124D01*
X72340205Y-77692124D01*
X72340203Y-77692125D01*
X72148787Y-77730200D01*
X71953613Y-77730200D01*
X71762197Y-77692125D01*
X71762195Y-77692124D01*
X71762194Y-77692124D01*
X71581880Y-77617436D01*
X71419602Y-77509005D01*
X71419599Y-77509003D01*
X71281597Y-77371001D01*
X71173165Y-77208721D01*
X71173164Y-77208720D01*
X71098476Y-77028406D01*
X71080411Y-76937585D01*
X71060400Y-76836987D01*
X71060400Y-76641813D01*
X71098475Y-76450397D01*
X71098476Y-76450394D01*
X71173164Y-76270080D01*
X71281595Y-76107802D01*
X71281597Y-76107799D01*
X71419599Y-75969797D01*
X71581879Y-75861365D01*
X71581880Y-75861364D01*
X71762194Y-75786676D01*
X71762195Y-75786676D01*
X71762197Y-75786675D01*
X71953613Y-75748600D01*
X72148787Y-75748600D01*
X72340203Y-75786675D01*
X72340203Y-75786675D01*
G37*
G36*
X65837803Y-75786675D02*
X65837805Y-75786676D01*
X65837806Y-75786676D01*
X66018120Y-75861364D01*
X66018121Y-75861365D01*
X66180401Y-75969797D01*
X66318403Y-76107799D01*
X66318405Y-76107802D01*
X66426836Y-76270080D01*
X66501524Y-76450394D01*
X66501525Y-76450397D01*
X66539600Y-76641813D01*
X66539600Y-76836987D01*
X66519590Y-76937585D01*
X66501524Y-77028406D01*
X66426836Y-77208720D01*
X66426835Y-77208721D01*
X66318403Y-77371001D01*
X66180401Y-77509003D01*
X66180398Y-77509005D01*
X66018120Y-77617436D01*
X65837806Y-77692124D01*
X65837805Y-77692124D01*
X65837803Y-77692125D01*
X65646387Y-77730200D01*
X65451213Y-77730200D01*
X65259797Y-77692125D01*
X65259795Y-77692124D01*
X65259794Y-77692124D01*
X65079480Y-77617436D01*
X64917202Y-77509005D01*
X64917199Y-77509003D01*
X64779197Y-77371001D01*
X64670765Y-77208721D01*
X64670764Y-77208720D01*
X64596076Y-77028406D01*
X64578011Y-76937585D01*
X64558000Y-76836987D01*
X64558000Y-76641813D01*
X64596075Y-76450397D01*
X64596076Y-76450394D01*
X64670764Y-76270080D01*
X64779195Y-76107802D01*
X64779197Y-76107799D01*
X64917199Y-75969797D01*
X65079479Y-75861365D01*
X65079480Y-75861364D01*
X65259794Y-75786676D01*
X65259795Y-75786676D01*
X65259797Y-75786675D01*
X65451213Y-75748600D01*
X65646387Y-75748600D01*
X65837803Y-75786675D01*
X65837803Y-75786675D01*
G37*
G36*
X60340203Y-75786675D02*
X60340205Y-75786676D01*
X60340206Y-75786676D01*
X60520520Y-75861364D01*
X60520521Y-75861365D01*
X60682801Y-75969797D01*
X60820803Y-76107799D01*
X60820805Y-76107802D01*
X60929236Y-76270080D01*
X61003924Y-76450394D01*
X61003925Y-76450397D01*
X61042000Y-76641813D01*
X61042000Y-76836987D01*
X61021990Y-76937585D01*
X61003924Y-77028406D01*
X60929236Y-77208720D01*
X60929235Y-77208721D01*
X60820803Y-77371001D01*
X60682801Y-77509003D01*
X60682798Y-77509005D01*
X60520520Y-77617436D01*
X60340206Y-77692124D01*
X60340205Y-77692124D01*
X60340203Y-77692125D01*
X60148787Y-77730200D01*
X59953613Y-77730200D01*
X59762197Y-77692125D01*
X59762195Y-77692124D01*
X59762194Y-77692124D01*
X59581880Y-77617436D01*
X59419602Y-77509005D01*
X59419599Y-77509003D01*
X59281597Y-77371001D01*
X59173165Y-77208721D01*
X59173164Y-77208720D01*
X59098476Y-77028406D01*
X59080411Y-76937585D01*
X59060400Y-76836987D01*
X59060400Y-76641813D01*
X59098475Y-76450397D01*
X59098476Y-76450394D01*
X59173164Y-76270080D01*
X59281595Y-76107802D01*
X59281597Y-76107799D01*
X59419599Y-75969797D01*
X59581879Y-75861365D01*
X59581880Y-75861364D01*
X59762194Y-75786676D01*
X59762195Y-75786676D01*
X59762197Y-75786675D01*
X59953613Y-75748600D01*
X60148787Y-75748600D01*
X60340203Y-75786675D01*
X60340203Y-75786675D01*
G37*
G36*
X47340203Y-75786675D02*
X47340205Y-75786676D01*
X47340206Y-75786676D01*
X47520520Y-75861364D01*
X47520521Y-75861365D01*
X47682801Y-75969797D01*
X47820803Y-76107799D01*
X47820805Y-76107802D01*
X47929236Y-76270080D01*
X48003924Y-76450394D01*
X48003925Y-76450397D01*
X48042000Y-76641813D01*
X48042000Y-76836987D01*
X48021990Y-76937585D01*
X48003924Y-77028406D01*
X47929236Y-77208720D01*
X47929235Y-77208721D01*
X47820803Y-77371001D01*
X47682801Y-77509003D01*
X47682798Y-77509005D01*
X47520520Y-77617436D01*
X47340206Y-77692124D01*
X47340205Y-77692124D01*
X47340203Y-77692125D01*
X47148787Y-77730200D01*
X46953613Y-77730200D01*
X46762197Y-77692125D01*
X46762195Y-77692124D01*
X46762194Y-77692124D01*
X46581880Y-77617436D01*
X46419602Y-77509005D01*
X46419599Y-77509003D01*
X46281597Y-77371001D01*
X46173165Y-77208721D01*
X46173164Y-77208720D01*
X46098476Y-77028406D01*
X46080411Y-76937585D01*
X46060400Y-76836987D01*
X46060400Y-76641813D01*
X46098475Y-76450397D01*
X46098476Y-76450394D01*
X46173164Y-76270080D01*
X46281595Y-76107802D01*
X46281597Y-76107799D01*
X46419599Y-75969797D01*
X46581879Y-75861365D01*
X46581880Y-75861364D01*
X46762194Y-75786676D01*
X46762195Y-75786676D01*
X46762197Y-75786675D01*
X46953613Y-75748600D01*
X47148787Y-75748600D01*
X47340203Y-75786675D01*
X47340203Y-75786675D01*
G37*
G36*
X34340203Y-75786675D02*
X34340205Y-75786676D01*
X34340206Y-75786676D01*
X34520520Y-75861364D01*
X34520521Y-75861365D01*
X34682801Y-75969797D01*
X34820803Y-76107799D01*
X34820805Y-76107802D01*
X34929236Y-76270080D01*
X35003924Y-76450394D01*
X35003925Y-76450397D01*
X35042000Y-76641813D01*
X35042000Y-76836987D01*
X35021990Y-76937585D01*
X35003924Y-77028406D01*
X34929236Y-77208720D01*
X34929235Y-77208721D01*
X34820803Y-77371001D01*
X34682801Y-77509003D01*
X34682798Y-77509005D01*
X34520520Y-77617436D01*
X34340206Y-77692124D01*
X34340205Y-77692124D01*
X34340203Y-77692125D01*
X34148787Y-77730200D01*
X33953613Y-77730200D01*
X33762197Y-77692125D01*
X33762195Y-77692124D01*
X33762194Y-77692124D01*
X33581880Y-77617436D01*
X33419602Y-77509005D01*
X33419599Y-77509003D01*
X33281597Y-77371001D01*
X33173165Y-77208721D01*
X33173164Y-77208720D01*
X33098476Y-77028406D01*
X33080411Y-76937585D01*
X33060400Y-76836987D01*
X33060400Y-76641813D01*
X33098475Y-76450397D01*
X33098476Y-76450394D01*
X33173164Y-76270080D01*
X33281595Y-76107802D01*
X33281597Y-76107799D01*
X33419599Y-75969797D01*
X33581879Y-75861365D01*
X33581880Y-75861364D01*
X33762194Y-75786676D01*
X33762195Y-75786676D01*
X33762197Y-75786675D01*
X33953613Y-75748600D01*
X34148787Y-75748600D01*
X34340203Y-75786675D01*
X34340203Y-75786675D01*
G37*
G36*
X27837803Y-75786675D02*
X27837805Y-75786676D01*
X27837806Y-75786676D01*
X28018120Y-75861364D01*
X28018121Y-75861365D01*
X28180401Y-75969797D01*
X28318403Y-76107799D01*
X28318405Y-76107802D01*
X28426836Y-76270080D01*
X28501524Y-76450394D01*
X28501525Y-76450397D01*
X28539600Y-76641813D01*
X28539600Y-76836987D01*
X28519590Y-76937585D01*
X28501524Y-77028406D01*
X28426836Y-77208720D01*
X28426835Y-77208721D01*
X28318403Y-77371001D01*
X28180401Y-77509003D01*
X28180398Y-77509005D01*
X28018120Y-77617436D01*
X27837806Y-77692124D01*
X27837805Y-77692124D01*
X27837803Y-77692125D01*
X27646387Y-77730200D01*
X27451213Y-77730200D01*
X27259797Y-77692125D01*
X27259795Y-77692124D01*
X27259794Y-77692124D01*
X27079480Y-77617436D01*
X26917202Y-77509005D01*
X26917199Y-77509003D01*
X26779197Y-77371001D01*
X26670765Y-77208721D01*
X26670764Y-77208720D01*
X26596076Y-77028406D01*
X26578011Y-76937585D01*
X26558000Y-76836987D01*
X26558000Y-76641813D01*
X26596075Y-76450397D01*
X26596076Y-76450394D01*
X26670764Y-76270080D01*
X26779195Y-76107802D01*
X26779197Y-76107799D01*
X26917199Y-75969797D01*
X27079479Y-75861365D01*
X27079480Y-75861364D01*
X27259794Y-75786676D01*
X27259795Y-75786676D01*
X27259797Y-75786675D01*
X27451213Y-75748600D01*
X27646387Y-75748600D01*
X27837803Y-75786675D01*
X27837803Y-75786675D01*
G37*
G36*
X40837803Y-75786675D02*
X40837805Y-75786676D01*
X40837806Y-75786676D01*
X41018120Y-75861364D01*
X41018121Y-75861365D01*
X41180401Y-75969797D01*
X41318403Y-76107799D01*
X41318405Y-76107802D01*
X41426836Y-76270080D01*
X41501524Y-76450394D01*
X41501525Y-76450397D01*
X41539600Y-76641813D01*
X41539600Y-76836987D01*
X41519590Y-76937585D01*
X41501524Y-77028406D01*
X41426836Y-77208720D01*
X41426835Y-77208721D01*
X41318403Y-77371001D01*
X41180401Y-77509003D01*
X41180398Y-77509005D01*
X41018120Y-77617436D01*
X40837806Y-77692124D01*
X40837805Y-77692124D01*
X40837803Y-77692125D01*
X40646387Y-77730200D01*
X40451213Y-77730200D01*
X40259797Y-77692125D01*
X40259795Y-77692124D01*
X40259794Y-77692124D01*
X40079480Y-77617436D01*
X39917202Y-77509005D01*
X39917199Y-77509003D01*
X39779197Y-77371001D01*
X39670765Y-77208721D01*
X39670764Y-77208720D01*
X39596076Y-77028406D01*
X39578011Y-76937585D01*
X39558000Y-76836987D01*
X39558000Y-76641813D01*
X39596075Y-76450397D01*
X39596076Y-76450394D01*
X39670764Y-76270080D01*
X39779195Y-76107802D01*
X39779197Y-76107799D01*
X39917199Y-75969797D01*
X40079479Y-75861365D01*
X40079480Y-75861364D01*
X40259794Y-75786676D01*
X40259795Y-75786676D01*
X40259797Y-75786675D01*
X40451213Y-75748600D01*
X40646387Y-75748600D01*
X40837803Y-75786675D01*
X40837803Y-75786675D01*
G37*
G36*
X5549003Y-73347275D02*
X5549005Y-73347276D01*
X5549006Y-73347276D01*
X5729320Y-73421964D01*
X5729321Y-73421965D01*
X5891601Y-73530397D01*
X6029603Y-73668399D01*
X6029605Y-73668402D01*
X6138036Y-73830680D01*
X6212724Y-74010994D01*
X6250800Y-74202415D01*
X6250800Y-74397585D01*
X6212724Y-74589006D01*
X6138036Y-74769320D01*
X6138035Y-74769321D01*
X6029603Y-74931601D01*
X5891601Y-75069603D01*
X5891598Y-75069605D01*
X5729320Y-75178036D01*
X5549006Y-75252724D01*
X5549005Y-75252724D01*
X5549003Y-75252725D01*
X5357587Y-75290800D01*
X5162413Y-75290800D01*
X4970997Y-75252725D01*
X4970995Y-75252724D01*
X4970994Y-75252724D01*
X4790680Y-75178036D01*
X4628402Y-75069605D01*
X4628399Y-75069603D01*
X4490397Y-74931601D01*
X4381965Y-74769321D01*
X4381964Y-74769320D01*
X4307276Y-74589006D01*
X4269200Y-74397585D01*
X4269200Y-74202415D01*
X4307276Y-74010994D01*
X4381964Y-73830680D01*
X4490395Y-73668402D01*
X4490397Y-73668399D01*
X4628399Y-73530397D01*
X4790679Y-73421965D01*
X4790680Y-73421964D01*
X4970994Y-73347276D01*
X4970995Y-73347276D01*
X4970997Y-73347275D01*
X5162413Y-73309200D01*
X5357587Y-73309200D01*
X5549003Y-73347275D01*
X5549003Y-73347275D01*
G37*
G36*
X8089003Y-73347275D02*
X8089005Y-73347276D01*
X8089006Y-73347276D01*
X8269320Y-73421964D01*
X8269321Y-73421965D01*
X8431601Y-73530397D01*
X8569603Y-73668399D01*
X8569605Y-73668402D01*
X8678036Y-73830680D01*
X8752724Y-74010994D01*
X8790800Y-74202415D01*
X8790800Y-74397585D01*
X8752724Y-74589006D01*
X8678036Y-74769320D01*
X8678035Y-74769321D01*
X8569603Y-74931601D01*
X8431601Y-75069603D01*
X8431598Y-75069605D01*
X8269320Y-75178036D01*
X8089006Y-75252724D01*
X8089005Y-75252724D01*
X8089003Y-75252725D01*
X7897587Y-75290800D01*
X7702413Y-75290800D01*
X7510997Y-75252725D01*
X7510995Y-75252724D01*
X7510994Y-75252724D01*
X7330680Y-75178036D01*
X7168402Y-75069605D01*
X7168399Y-75069603D01*
X7030397Y-74931601D01*
X6921965Y-74769321D01*
X6921964Y-74769320D01*
X6847276Y-74589006D01*
X6809200Y-74397585D01*
X6809200Y-74202415D01*
X6847276Y-74010994D01*
X6921964Y-73830680D01*
X7030395Y-73668402D01*
X7030397Y-73668399D01*
X7168399Y-73530397D01*
X7330679Y-73421965D01*
X7330680Y-73421964D01*
X7510994Y-73347276D01*
X7510995Y-73347276D01*
X7510997Y-73347275D01*
X7702413Y-73309200D01*
X7897587Y-73309200D01*
X8089003Y-73347275D01*
X8089003Y-73347275D01*
G37*
G36*
X65051460Y-73650440D02*
X64151900Y-73650440D01*
X64151900Y-72349560D01*
X65051460Y-72349560D01*
X65051460Y-73650440D01*
X65051460Y-73650440D01*
G37*
G36*
X55548940Y-73650440D02*
X54649380Y-73650440D01*
X54649380Y-72349560D01*
X55548940Y-72349560D01*
X55548940Y-73650440D01*
X55548940Y-73650440D01*
G37*
G36*
X53750620Y-73650440D02*
X52851060Y-73650440D01*
X52851060Y-72349560D01*
X53750620Y-72349560D01*
X53750620Y-73650440D01*
X53750620Y-73650440D01*
G37*
G36*
X66849780Y-73650440D02*
X65950220Y-73650440D01*
X65950220Y-72349560D01*
X66849780Y-72349560D01*
X66849780Y-73650440D01*
X66849780Y-73650440D01*
G37*
G36*
X27550620Y-73450440D02*
X26651060Y-73450440D01*
X26651060Y-72149560D01*
X27550620Y-72149560D01*
X27550620Y-73450440D01*
X27550620Y-73450440D01*
G37*
G36*
X29348940Y-73450440D02*
X28449380Y-73450440D01*
X28449380Y-72149560D01*
X29348940Y-72149560D01*
X29348940Y-73450440D01*
X29348940Y-73450440D01*
G37*
G36*
X44148940Y-73450440D02*
X43249380Y-73450440D01*
X43249380Y-72149560D01*
X44148940Y-72149560D01*
X44148940Y-73450440D01*
X44148940Y-73450440D01*
G37*
G36*
X42350620Y-73450440D02*
X41451060Y-73450440D01*
X41451060Y-72149560D01*
X42350620Y-72149560D01*
X42350620Y-73450440D01*
X42350620Y-73450440D01*
G37*
G36*
X5549003Y-70807275D02*
X5549005Y-70807276D01*
X5549006Y-70807276D01*
X5729320Y-70881964D01*
X5729321Y-70881965D01*
X5891601Y-70990397D01*
X6029603Y-71128399D01*
X6029605Y-71128402D01*
X6138036Y-71290680D01*
X6212724Y-71470994D01*
X6250800Y-71662415D01*
X6250800Y-71857585D01*
X6212724Y-72049006D01*
X6138036Y-72229320D01*
X6138035Y-72229321D01*
X6029603Y-72391601D01*
X5891601Y-72529603D01*
X5891598Y-72529605D01*
X5729320Y-72638036D01*
X5549006Y-72712724D01*
X5549005Y-72712724D01*
X5549003Y-72712725D01*
X5357587Y-72750800D01*
X5162413Y-72750800D01*
X4970997Y-72712725D01*
X4970995Y-72712724D01*
X4970994Y-72712724D01*
X4790680Y-72638036D01*
X4628402Y-72529605D01*
X4628399Y-72529603D01*
X4490397Y-72391601D01*
X4381965Y-72229321D01*
X4381964Y-72229320D01*
X4307276Y-72049006D01*
X4269200Y-71857585D01*
X4269200Y-71662415D01*
X4307276Y-71470994D01*
X4381964Y-71290680D01*
X4490395Y-71128402D01*
X4490397Y-71128399D01*
X4628399Y-70990397D01*
X4790679Y-70881965D01*
X4790680Y-70881964D01*
X4970994Y-70807276D01*
X4970995Y-70807276D01*
X4970997Y-70807275D01*
X5162413Y-70769200D01*
X5357587Y-70769200D01*
X5549003Y-70807275D01*
X5549003Y-70807275D01*
G37*
G36*
X8089003Y-70807275D02*
X8089005Y-70807276D01*
X8089006Y-70807276D01*
X8269320Y-70881964D01*
X8269321Y-70881965D01*
X8431601Y-70990397D01*
X8569603Y-71128399D01*
X8569605Y-71128402D01*
X8678036Y-71290680D01*
X8752724Y-71470994D01*
X8790800Y-71662415D01*
X8790800Y-71857585D01*
X8752724Y-72049006D01*
X8678036Y-72229320D01*
X8678035Y-72229321D01*
X8569603Y-72391601D01*
X8431601Y-72529603D01*
X8431598Y-72529605D01*
X8269320Y-72638036D01*
X8089006Y-72712724D01*
X8089005Y-72712724D01*
X8089003Y-72712725D01*
X7897587Y-72750800D01*
X7702413Y-72750800D01*
X7510997Y-72712725D01*
X7510995Y-72712724D01*
X7510994Y-72712724D01*
X7330680Y-72638036D01*
X7168402Y-72529605D01*
X7168399Y-72529603D01*
X7030397Y-72391601D01*
X6921965Y-72229321D01*
X6921964Y-72229320D01*
X6847276Y-72049006D01*
X6809200Y-71857585D01*
X6809200Y-71662415D01*
X6847276Y-71470994D01*
X6921964Y-71290680D01*
X7030395Y-71128402D01*
X7030397Y-71128399D01*
X7168399Y-70990397D01*
X7330679Y-70881965D01*
X7330680Y-70881964D01*
X7510994Y-70807276D01*
X7510995Y-70807276D01*
X7510997Y-70807275D01*
X7702413Y-70769200D01*
X7897587Y-70769200D01*
X8089003Y-70807275D01*
X8089003Y-70807275D01*
G37*
G36*
X8089003Y-68267275D02*
X8089005Y-68267276D01*
X8089006Y-68267276D01*
X8269320Y-68341964D01*
X8269321Y-68341965D01*
X8431601Y-68450397D01*
X8569603Y-68588399D01*
X8569605Y-68588402D01*
X8678036Y-68750680D01*
X8752724Y-68930994D01*
X8790800Y-69122415D01*
X8790800Y-69317585D01*
X8752724Y-69509006D01*
X8678036Y-69689320D01*
X8678035Y-69689321D01*
X8569603Y-69851601D01*
X8431601Y-69989603D01*
X8431598Y-69989605D01*
X8269320Y-70098036D01*
X8089006Y-70172724D01*
X8089005Y-70172724D01*
X8089003Y-70172725D01*
X7897587Y-70210800D01*
X7702413Y-70210800D01*
X7510997Y-70172725D01*
X7510995Y-70172724D01*
X7510994Y-70172724D01*
X7330680Y-70098036D01*
X7168402Y-69989605D01*
X7168399Y-69989603D01*
X7030397Y-69851601D01*
X6921965Y-69689321D01*
X6921964Y-69689320D01*
X6847276Y-69509006D01*
X6809200Y-69317585D01*
X6809200Y-69122415D01*
X6847276Y-68930994D01*
X6921964Y-68750680D01*
X7030395Y-68588402D01*
X7030397Y-68588399D01*
X7168399Y-68450397D01*
X7330679Y-68341965D01*
X7330680Y-68341964D01*
X7510994Y-68267276D01*
X7510995Y-68267276D01*
X7510997Y-68267275D01*
X7702413Y-68229200D01*
X7897587Y-68229200D01*
X8089003Y-68267275D01*
X8089003Y-68267275D01*
G37*
G36*
X5549003Y-68267275D02*
X5549005Y-68267276D01*
X5549006Y-68267276D01*
X5729320Y-68341964D01*
X5729321Y-68341965D01*
X5891601Y-68450397D01*
X6029603Y-68588399D01*
X6029605Y-68588402D01*
X6138036Y-68750680D01*
X6212724Y-68930994D01*
X6250800Y-69122415D01*
X6250800Y-69317585D01*
X6212724Y-69509006D01*
X6138036Y-69689320D01*
X6138035Y-69689321D01*
X6029603Y-69851601D01*
X5891601Y-69989603D01*
X5891598Y-69989605D01*
X5729320Y-70098036D01*
X5549006Y-70172724D01*
X5549005Y-70172724D01*
X5549003Y-70172725D01*
X5357587Y-70210800D01*
X5162413Y-70210800D01*
X4970997Y-70172725D01*
X4970995Y-70172724D01*
X4970994Y-70172724D01*
X4790680Y-70098036D01*
X4628402Y-69989605D01*
X4628399Y-69989603D01*
X4490397Y-69851601D01*
X4381965Y-69689321D01*
X4381964Y-69689320D01*
X4307276Y-69509006D01*
X4269200Y-69317585D01*
X4269200Y-69122415D01*
X4307276Y-68930994D01*
X4381964Y-68750680D01*
X4490395Y-68588402D01*
X4490397Y-68588399D01*
X4628399Y-68450397D01*
X4790679Y-68341965D01*
X4790680Y-68341964D01*
X4970994Y-68267276D01*
X4970995Y-68267276D01*
X4970997Y-68267275D01*
X5162413Y-68229200D01*
X5357587Y-68229200D01*
X5549003Y-68267275D01*
X5549003Y-68267275D01*
G37*
G36*
X5549003Y-65727275D02*
X5549005Y-65727276D01*
X5549006Y-65727276D01*
X5729320Y-65801964D01*
X5729321Y-65801965D01*
X5891601Y-65910397D01*
X6029603Y-66048399D01*
X6029605Y-66048402D01*
X6138036Y-66210680D01*
X6212724Y-66390994D01*
X6250800Y-66582415D01*
X6250800Y-66777585D01*
X6212724Y-66969006D01*
X6138036Y-67149320D01*
X6138035Y-67149321D01*
X6029603Y-67311601D01*
X5891601Y-67449603D01*
X5891598Y-67449605D01*
X5729320Y-67558036D01*
X5549006Y-67632724D01*
X5549005Y-67632724D01*
X5549003Y-67632725D01*
X5357587Y-67670800D01*
X5162413Y-67670800D01*
X4970997Y-67632725D01*
X4970995Y-67632724D01*
X4970994Y-67632724D01*
X4790680Y-67558036D01*
X4628402Y-67449605D01*
X4628399Y-67449603D01*
X4490397Y-67311601D01*
X4381965Y-67149321D01*
X4381964Y-67149320D01*
X4307276Y-66969006D01*
X4269200Y-66777585D01*
X4269200Y-66582415D01*
X4307276Y-66390994D01*
X4381964Y-66210680D01*
X4490395Y-66048402D01*
X4490397Y-66048399D01*
X4628399Y-65910397D01*
X4790679Y-65801965D01*
X4790680Y-65801964D01*
X4970994Y-65727276D01*
X4970995Y-65727276D01*
X4970997Y-65727275D01*
X5162413Y-65689200D01*
X5357587Y-65689200D01*
X5549003Y-65727275D01*
X5549003Y-65727275D01*
G37*
G36*
X8089003Y-65727275D02*
X8089005Y-65727276D01*
X8089006Y-65727276D01*
X8269320Y-65801964D01*
X8269321Y-65801965D01*
X8431601Y-65910397D01*
X8569603Y-66048399D01*
X8569605Y-66048402D01*
X8678036Y-66210680D01*
X8752724Y-66390994D01*
X8790800Y-66582415D01*
X8790800Y-66777585D01*
X8752724Y-66969006D01*
X8678036Y-67149320D01*
X8678035Y-67149321D01*
X8569603Y-67311601D01*
X8431601Y-67449603D01*
X8431598Y-67449605D01*
X8269320Y-67558036D01*
X8089006Y-67632724D01*
X8089005Y-67632724D01*
X8089003Y-67632725D01*
X7897587Y-67670800D01*
X7702413Y-67670800D01*
X7510997Y-67632725D01*
X7510995Y-67632724D01*
X7510994Y-67632724D01*
X7330680Y-67558036D01*
X7168402Y-67449605D01*
X7168399Y-67449603D01*
X7030397Y-67311601D01*
X6921965Y-67149321D01*
X6921964Y-67149320D01*
X6847276Y-66969006D01*
X6809200Y-66777585D01*
X6809200Y-66582415D01*
X6847276Y-66390994D01*
X6921964Y-66210680D01*
X7030395Y-66048402D01*
X7030397Y-66048399D01*
X7168399Y-65910397D01*
X7330679Y-65801965D01*
X7330680Y-65801964D01*
X7510994Y-65727276D01*
X7510995Y-65727276D01*
X7510997Y-65727275D01*
X7702413Y-65689200D01*
X7897587Y-65689200D01*
X8089003Y-65727275D01*
X8089003Y-65727275D01*
G37*
G36*
X58450440Y-66148940D02*
X57149560Y-66148940D01*
X57149560Y-65249380D01*
X58450440Y-65249380D01*
X58450440Y-66148940D01*
X58450440Y-66148940D01*
G37*
G36*
X61050440Y-66148940D02*
X59749560Y-66148940D01*
X59749560Y-65249380D01*
X61050440Y-65249380D01*
X61050440Y-66148940D01*
X61050440Y-66148940D01*
G37*
G36*
X55850440Y-66148940D02*
X54549560Y-66148940D01*
X54549560Y-65249380D01*
X55850440Y-65249380D01*
X55850440Y-66148940D01*
X55850440Y-66148940D01*
G37*
G36*
X45250440Y-65948940D02*
X43949560Y-65948940D01*
X43949560Y-65049380D01*
X45250440Y-65049380D01*
X45250440Y-65948940D01*
X45250440Y-65948940D01*
G37*
G36*
X77050440Y-65748940D02*
X75749560Y-65748940D01*
X75749560Y-64849380D01*
X77050440Y-64849380D01*
X77050440Y-65748940D01*
X77050440Y-65748940D01*
G37*
G36*
X42450440Y-65748940D02*
X41149560Y-65748940D01*
X41149560Y-64849380D01*
X42450440Y-64849380D01*
X42450440Y-65748940D01*
X42450440Y-65748940D01*
G37*
G36*
X39650440Y-65748940D02*
X38349560Y-65748940D01*
X38349560Y-64849380D01*
X39650440Y-64849380D01*
X39650440Y-65748940D01*
X39650440Y-65748940D01*
G37*
G36*
X71850440Y-65748940D02*
X70549560Y-65748940D01*
X70549560Y-64849380D01*
X71850440Y-64849380D01*
X71850440Y-65748940D01*
X71850440Y-65748940D01*
G37*
G36*
X74450440Y-65748940D02*
X73149560Y-65748940D01*
X73149560Y-64849380D01*
X74450440Y-64849380D01*
X74450440Y-65748940D01*
X74450440Y-65748940D01*
G37*
G36*
X29050440Y-65548940D02*
X27749560Y-65548940D01*
X27749560Y-64649380D01*
X29050440Y-64649380D01*
X29050440Y-65548940D01*
X29050440Y-65548940D01*
G37*
G36*
X26450440Y-65548940D02*
X25149560Y-65548940D01*
X25149560Y-64649380D01*
X26450440Y-64649380D01*
X26450440Y-65548940D01*
X26450440Y-65548940D01*
G37*
G36*
X23850440Y-65548940D02*
X22549560Y-65548940D01*
X22549560Y-64649380D01*
X23850440Y-64649380D01*
X23850440Y-65548940D01*
X23850440Y-65548940D01*
G37*
G36*
X8089003Y-63187275D02*
X8089005Y-63187276D01*
X8089006Y-63187276D01*
X8269320Y-63261964D01*
X8269321Y-63261965D01*
X8431601Y-63370397D01*
X8569603Y-63508399D01*
X8569605Y-63508402D01*
X8678036Y-63670680D01*
X8752724Y-63850994D01*
X8790800Y-64042415D01*
X8790800Y-64237585D01*
X8752724Y-64429006D01*
X8678036Y-64609320D01*
X8571067Y-64769410D01*
X8569603Y-64771601D01*
X8431601Y-64909603D01*
X8431598Y-64909605D01*
X8269320Y-65018036D01*
X8089006Y-65092724D01*
X8089005Y-65092724D01*
X8089003Y-65092725D01*
X7897587Y-65130800D01*
X7702413Y-65130800D01*
X7510997Y-65092725D01*
X7510995Y-65092724D01*
X7510994Y-65092724D01*
X7330680Y-65018036D01*
X7168402Y-64909605D01*
X7168399Y-64909603D01*
X7030397Y-64771601D01*
X7028933Y-64769410D01*
X6921964Y-64609320D01*
X6847276Y-64429006D01*
X6809200Y-64237585D01*
X6809200Y-64042415D01*
X6847276Y-63850994D01*
X6921964Y-63670680D01*
X7030395Y-63508402D01*
X7030397Y-63508399D01*
X7168399Y-63370397D01*
X7330679Y-63261965D01*
X7330680Y-63261964D01*
X7510994Y-63187276D01*
X7510995Y-63187276D01*
X7510997Y-63187275D01*
X7702413Y-63149200D01*
X7897587Y-63149200D01*
X8089003Y-63187275D01*
X8089003Y-63187275D01*
G37*
G36*
X5549003Y-63187275D02*
X5549005Y-63187276D01*
X5549006Y-63187276D01*
X5729320Y-63261964D01*
X5729321Y-63261965D01*
X5891601Y-63370397D01*
X6029603Y-63508399D01*
X6029605Y-63508402D01*
X6138036Y-63670680D01*
X6212724Y-63850994D01*
X6250800Y-64042415D01*
X6250800Y-64237585D01*
X6212724Y-64429006D01*
X6138036Y-64609320D01*
X6031067Y-64769410D01*
X6029603Y-64771601D01*
X5891601Y-64909603D01*
X5891598Y-64909605D01*
X5729320Y-65018036D01*
X5549006Y-65092724D01*
X5549005Y-65092724D01*
X5549003Y-65092725D01*
X5357587Y-65130800D01*
X5162413Y-65130800D01*
X4970997Y-65092725D01*
X4970995Y-65092724D01*
X4970994Y-65092724D01*
X4790680Y-65018036D01*
X4628402Y-64909605D01*
X4628399Y-64909603D01*
X4490397Y-64771601D01*
X4488933Y-64769410D01*
X4381964Y-64609320D01*
X4307276Y-64429006D01*
X4269200Y-64237585D01*
X4269200Y-64042415D01*
X4307276Y-63850994D01*
X4381964Y-63670680D01*
X4490395Y-63508402D01*
X4490397Y-63508399D01*
X4628399Y-63370397D01*
X4790679Y-63261965D01*
X4790680Y-63261964D01*
X4970994Y-63187276D01*
X4970995Y-63187276D01*
X4970997Y-63187275D01*
X5162413Y-63149200D01*
X5357587Y-63149200D01*
X5549003Y-63187275D01*
X5549003Y-63187275D01*
G37*
G36*
X55850440Y-64350620D02*
X54549560Y-64350620D01*
X54549560Y-63451060D01*
X55850440Y-63451060D01*
X55850440Y-64350620D01*
X55850440Y-64350620D01*
G37*
G36*
X58450440Y-64350620D02*
X57149560Y-64350620D01*
X57149560Y-63451060D01*
X58450440Y-63451060D01*
X58450440Y-64350620D01*
X58450440Y-64350620D01*
G37*
G36*
X61050440Y-64350620D02*
X59749560Y-64350620D01*
X59749560Y-63451060D01*
X61050440Y-63451060D01*
X61050440Y-64350620D01*
X61050440Y-64350620D01*
G37*
G36*
X45250440Y-64150620D02*
X43949560Y-64150620D01*
X43949560Y-63251060D01*
X45250440Y-63251060D01*
X45250440Y-64150620D01*
X45250440Y-64150620D01*
G37*
G36*
X39650440Y-63950620D02*
X38349560Y-63950620D01*
X38349560Y-63051060D01*
X39650440Y-63051060D01*
X39650440Y-63950620D01*
X39650440Y-63950620D01*
G37*
G36*
X71850440Y-63950620D02*
X70549560Y-63950620D01*
X70549560Y-63051060D01*
X71850440Y-63051060D01*
X71850440Y-63950620D01*
X71850440Y-63950620D01*
G37*
G36*
X77050440Y-63950620D02*
X75749560Y-63950620D01*
X75749560Y-63051060D01*
X77050440Y-63051060D01*
X77050440Y-63950620D01*
X77050440Y-63950620D01*
G37*
G36*
X74450440Y-63950620D02*
X73149560Y-63950620D01*
X73149560Y-63051060D01*
X74450440Y-63051060D01*
X74450440Y-63950620D01*
X74450440Y-63950620D01*
G37*
G36*
X42450440Y-63950620D02*
X41149560Y-63950620D01*
X41149560Y-63051060D01*
X42450440Y-63051060D01*
X42450440Y-63950620D01*
X42450440Y-63950620D01*
G37*
G36*
X29050440Y-63750620D02*
X27749560Y-63750620D01*
X27749560Y-62851060D01*
X29050440Y-62851060D01*
X29050440Y-63750620D01*
X29050440Y-63750620D01*
G37*
G36*
X23850440Y-63750620D02*
X22549560Y-63750620D01*
X22549560Y-62851060D01*
X23850440Y-62851060D01*
X23850440Y-63750620D01*
X23850440Y-63750620D01*
G37*
G36*
X26450440Y-63750620D02*
X25149560Y-63750620D01*
X25149560Y-62851060D01*
X26450440Y-62851060D01*
X26450440Y-63750620D01*
X26450440Y-63750620D01*
G37*
G36*
X8089003Y-60647275D02*
X8089005Y-60647276D01*
X8089006Y-60647276D01*
X8269320Y-60721964D01*
X8269321Y-60721965D01*
X8431601Y-60830397D01*
X8569603Y-60968399D01*
X8569605Y-60968402D01*
X8678036Y-61130680D01*
X8752724Y-61310994D01*
X8790800Y-61502415D01*
X8790800Y-61697585D01*
X8752724Y-61889006D01*
X8678036Y-62069320D01*
X8678035Y-62069321D01*
X8569603Y-62231601D01*
X8431601Y-62369603D01*
X8431598Y-62369605D01*
X8269320Y-62478036D01*
X8089006Y-62552724D01*
X8089005Y-62552724D01*
X8089003Y-62552725D01*
X7897587Y-62590800D01*
X7702413Y-62590800D01*
X7510997Y-62552725D01*
X7510995Y-62552724D01*
X7510994Y-62552724D01*
X7330680Y-62478036D01*
X7168402Y-62369605D01*
X7168399Y-62369603D01*
X7030397Y-62231601D01*
X6921965Y-62069321D01*
X6921964Y-62069320D01*
X6847276Y-61889006D01*
X6809200Y-61697585D01*
X6809200Y-61502415D01*
X6847276Y-61310994D01*
X6921964Y-61130680D01*
X7030395Y-60968402D01*
X7030397Y-60968399D01*
X7168399Y-60830397D01*
X7330679Y-60721965D01*
X7330680Y-60721964D01*
X7510994Y-60647276D01*
X7510995Y-60647276D01*
X7510997Y-60647275D01*
X7702413Y-60609200D01*
X7897587Y-60609200D01*
X8089003Y-60647275D01*
X8089003Y-60647275D01*
G37*
G36*
X5549003Y-60647275D02*
X5549005Y-60647276D01*
X5549006Y-60647276D01*
X5729320Y-60721964D01*
X5729321Y-60721965D01*
X5891601Y-60830397D01*
X6029603Y-60968399D01*
X6029605Y-60968402D01*
X6138036Y-61130680D01*
X6212724Y-61310994D01*
X6250800Y-61502415D01*
X6250800Y-61697585D01*
X6212724Y-61889006D01*
X6138036Y-62069320D01*
X6138035Y-62069321D01*
X6029603Y-62231601D01*
X5891601Y-62369603D01*
X5891598Y-62369605D01*
X5729320Y-62478036D01*
X5549006Y-62552724D01*
X5549005Y-62552724D01*
X5549003Y-62552725D01*
X5357587Y-62590800D01*
X5162413Y-62590800D01*
X4970997Y-62552725D01*
X4970995Y-62552724D01*
X4970994Y-62552724D01*
X4790680Y-62478036D01*
X4628402Y-62369605D01*
X4628399Y-62369603D01*
X4490397Y-62231601D01*
X4381965Y-62069321D01*
X4381964Y-62069320D01*
X4307276Y-61889006D01*
X4269200Y-61697585D01*
X4269200Y-61502415D01*
X4307276Y-61310994D01*
X4381964Y-61130680D01*
X4490395Y-60968402D01*
X4490397Y-60968399D01*
X4628399Y-60830397D01*
X4790679Y-60721965D01*
X4790680Y-60721964D01*
X4970994Y-60647276D01*
X4970995Y-60647276D01*
X4970997Y-60647275D01*
X5162413Y-60609200D01*
X5357587Y-60609200D01*
X5549003Y-60647275D01*
X5549003Y-60647275D01*
G37*
G36*
X39577396Y-59085546D02*
X39750466Y-59157234D01*
X39906230Y-59261312D01*
X40038688Y-59393770D01*
X40142766Y-59549534D01*
X40214454Y-59722604D01*
X40251000Y-59906333D01*
X40251000Y-60093667D01*
X40214454Y-60277396D01*
X40142766Y-60450466D01*
X40038688Y-60606230D01*
X39906230Y-60738688D01*
X39750466Y-60842766D01*
X39577396Y-60914454D01*
X39393667Y-60951000D01*
X39206333Y-60951000D01*
X39022604Y-60914454D01*
X38849534Y-60842766D01*
X38693770Y-60738688D01*
X38561312Y-60606230D01*
X38457234Y-60450466D01*
X38385546Y-60277396D01*
X38349000Y-60093667D01*
X38349000Y-59906333D01*
X38385546Y-59722604D01*
X38457234Y-59549534D01*
X38561312Y-59393770D01*
X38693770Y-59261312D01*
X38849534Y-59157234D01*
X39022604Y-59085546D01*
X39206333Y-59049000D01*
X39393667Y-59049000D01*
X39577396Y-59085546D01*
X39577396Y-59085546D01*
G37*
G36*
X60577396Y-59085546D02*
X60750466Y-59157234D01*
X60906230Y-59261312D01*
X61038688Y-59393770D01*
X61142766Y-59549534D01*
X61214454Y-59722604D01*
X61251000Y-59906333D01*
X61251000Y-60093667D01*
X61214454Y-60277396D01*
X61142766Y-60450466D01*
X61038688Y-60606230D01*
X60906230Y-60738688D01*
X60750466Y-60842766D01*
X60577396Y-60914454D01*
X60393667Y-60951000D01*
X60206333Y-60951000D01*
X60022604Y-60914454D01*
X59849534Y-60842766D01*
X59693770Y-60738688D01*
X59561312Y-60606230D01*
X59457234Y-60450466D01*
X59385546Y-60277396D01*
X59349000Y-60093667D01*
X59349000Y-59906333D01*
X59385546Y-59722604D01*
X59457234Y-59549534D01*
X59561312Y-59393770D01*
X59693770Y-59261312D01*
X59849534Y-59157234D01*
X60022604Y-59085546D01*
X60206333Y-59049000D01*
X60393667Y-59049000D01*
X60577396Y-59085546D01*
X60577396Y-59085546D01*
G37*
G36*
X44577396Y-59085546D02*
X44750466Y-59157234D01*
X44906230Y-59261312D01*
X45038688Y-59393770D01*
X45142766Y-59549534D01*
X45214454Y-59722604D01*
X45251000Y-59906333D01*
X45251000Y-60093667D01*
X45214454Y-60277396D01*
X45142766Y-60450466D01*
X45038688Y-60606230D01*
X44906230Y-60738688D01*
X44750466Y-60842766D01*
X44577396Y-60914454D01*
X44393667Y-60951000D01*
X44206333Y-60951000D01*
X44022604Y-60914454D01*
X43849534Y-60842766D01*
X43693770Y-60738688D01*
X43561312Y-60606230D01*
X43457234Y-60450466D01*
X43385546Y-60277396D01*
X43349000Y-60093667D01*
X43349000Y-59906333D01*
X43385546Y-59722604D01*
X43457234Y-59549534D01*
X43561312Y-59393770D01*
X43693770Y-59261312D01*
X43849534Y-59157234D01*
X44022604Y-59085546D01*
X44206333Y-59049000D01*
X44393667Y-59049000D01*
X44577396Y-59085546D01*
X44577396Y-59085546D01*
G37*
G36*
X42077396Y-59085546D02*
X42250466Y-59157234D01*
X42406230Y-59261312D01*
X42538688Y-59393770D01*
X42642766Y-59549534D01*
X42714454Y-59722604D01*
X42751000Y-59906333D01*
X42751000Y-60093667D01*
X42714454Y-60277396D01*
X42642766Y-60450466D01*
X42538688Y-60606230D01*
X42406230Y-60738688D01*
X42250466Y-60842766D01*
X42077396Y-60914454D01*
X41893667Y-60951000D01*
X41706333Y-60951000D01*
X41522604Y-60914454D01*
X41349534Y-60842766D01*
X41193770Y-60738688D01*
X41061312Y-60606230D01*
X40957234Y-60450466D01*
X40885546Y-60277396D01*
X40849000Y-60093667D01*
X40849000Y-59906333D01*
X40885546Y-59722604D01*
X40957234Y-59549534D01*
X41061312Y-59393770D01*
X41193770Y-59261312D01*
X41349534Y-59157234D01*
X41522604Y-59085546D01*
X41706333Y-59049000D01*
X41893667Y-59049000D01*
X42077396Y-59085546D01*
X42077396Y-59085546D01*
G37*
G36*
X23577396Y-59085546D02*
X23750466Y-59157234D01*
X23906230Y-59261312D01*
X24038688Y-59393770D01*
X24142766Y-59549534D01*
X24214454Y-59722604D01*
X24251000Y-59906333D01*
X24251000Y-60093667D01*
X24214454Y-60277396D01*
X24142766Y-60450466D01*
X24038688Y-60606230D01*
X23906230Y-60738688D01*
X23750466Y-60842766D01*
X23577396Y-60914454D01*
X23393667Y-60951000D01*
X23206333Y-60951000D01*
X23022604Y-60914454D01*
X22849534Y-60842766D01*
X22693770Y-60738688D01*
X22561312Y-60606230D01*
X22457234Y-60450466D01*
X22385546Y-60277396D01*
X22349000Y-60093667D01*
X22349000Y-59906333D01*
X22385546Y-59722604D01*
X22457234Y-59549534D01*
X22561312Y-59393770D01*
X22693770Y-59261312D01*
X22849534Y-59157234D01*
X23022604Y-59085546D01*
X23206333Y-59049000D01*
X23393667Y-59049000D01*
X23577396Y-59085546D01*
X23577396Y-59085546D01*
G37*
G36*
X26077396Y-59085546D02*
X26250466Y-59157234D01*
X26406230Y-59261312D01*
X26538688Y-59393770D01*
X26642766Y-59549534D01*
X26714454Y-59722604D01*
X26751000Y-59906333D01*
X26751000Y-60093667D01*
X26714454Y-60277396D01*
X26642766Y-60450466D01*
X26538688Y-60606230D01*
X26406230Y-60738688D01*
X26250466Y-60842766D01*
X26077396Y-60914454D01*
X25893667Y-60951000D01*
X25706333Y-60951000D01*
X25522604Y-60914454D01*
X25349534Y-60842766D01*
X25193770Y-60738688D01*
X25061312Y-60606230D01*
X24957234Y-60450466D01*
X24885546Y-60277396D01*
X24849000Y-60093667D01*
X24849000Y-59906333D01*
X24885546Y-59722604D01*
X24957234Y-59549534D01*
X25061312Y-59393770D01*
X25193770Y-59261312D01*
X25349534Y-59157234D01*
X25522604Y-59085546D01*
X25706333Y-59049000D01*
X25893667Y-59049000D01*
X26077396Y-59085546D01*
X26077396Y-59085546D01*
G37*
G36*
X28577396Y-59085546D02*
X28750466Y-59157234D01*
X28906230Y-59261312D01*
X29038688Y-59393770D01*
X29142766Y-59549534D01*
X29214454Y-59722604D01*
X29251000Y-59906333D01*
X29251000Y-60093667D01*
X29214454Y-60277396D01*
X29142766Y-60450466D01*
X29038688Y-60606230D01*
X28906230Y-60738688D01*
X28750466Y-60842766D01*
X28577396Y-60914454D01*
X28393667Y-60951000D01*
X28206333Y-60951000D01*
X28022604Y-60914454D01*
X27849534Y-60842766D01*
X27693770Y-60738688D01*
X27561312Y-60606230D01*
X27457234Y-60450466D01*
X27385546Y-60277396D01*
X27349000Y-60093667D01*
X27349000Y-59906333D01*
X27385546Y-59722604D01*
X27457234Y-59549534D01*
X27561312Y-59393770D01*
X27693770Y-59261312D01*
X27849534Y-59157234D01*
X28022604Y-59085546D01*
X28206333Y-59049000D01*
X28393667Y-59049000D01*
X28577396Y-59085546D01*
X28577396Y-59085546D01*
G37*
G36*
X71577396Y-59085546D02*
X71750466Y-59157234D01*
X71906230Y-59261312D01*
X72038688Y-59393770D01*
X72142766Y-59549534D01*
X72214454Y-59722604D01*
X72251000Y-59906333D01*
X72251000Y-60093667D01*
X72214454Y-60277396D01*
X72142766Y-60450466D01*
X72038688Y-60606230D01*
X71906230Y-60738688D01*
X71750466Y-60842766D01*
X71577396Y-60914454D01*
X71393667Y-60951000D01*
X71206333Y-60951000D01*
X71022604Y-60914454D01*
X70849534Y-60842766D01*
X70693770Y-60738688D01*
X70561312Y-60606230D01*
X70457234Y-60450466D01*
X70385546Y-60277396D01*
X70349000Y-60093667D01*
X70349000Y-59906333D01*
X70385546Y-59722604D01*
X70457234Y-59549534D01*
X70561312Y-59393770D01*
X70693770Y-59261312D01*
X70849534Y-59157234D01*
X71022604Y-59085546D01*
X71206333Y-59049000D01*
X71393667Y-59049000D01*
X71577396Y-59085546D01*
X71577396Y-59085546D01*
G37*
G36*
X74077396Y-59085546D02*
X74250466Y-59157234D01*
X74406230Y-59261312D01*
X74538688Y-59393770D01*
X74642766Y-59549534D01*
X74714454Y-59722604D01*
X74751000Y-59906333D01*
X74751000Y-60093667D01*
X74714454Y-60277396D01*
X74642766Y-60450466D01*
X74538688Y-60606230D01*
X74406230Y-60738688D01*
X74250466Y-60842766D01*
X74077396Y-60914454D01*
X73893667Y-60951000D01*
X73706333Y-60951000D01*
X73522604Y-60914454D01*
X73349534Y-60842766D01*
X73193770Y-60738688D01*
X73061312Y-60606230D01*
X72957234Y-60450466D01*
X72885546Y-60277396D01*
X72849000Y-60093667D01*
X72849000Y-59906333D01*
X72885546Y-59722604D01*
X72957234Y-59549534D01*
X73061312Y-59393770D01*
X73193770Y-59261312D01*
X73349534Y-59157234D01*
X73522604Y-59085546D01*
X73706333Y-59049000D01*
X73893667Y-59049000D01*
X74077396Y-59085546D01*
X74077396Y-59085546D01*
G37*
G36*
X76577396Y-59085546D02*
X76750466Y-59157234D01*
X76906230Y-59261312D01*
X77038688Y-59393770D01*
X77142766Y-59549534D01*
X77214454Y-59722604D01*
X77251000Y-59906333D01*
X77251000Y-60093667D01*
X77214454Y-60277396D01*
X77142766Y-60450466D01*
X77038688Y-60606230D01*
X76906230Y-60738688D01*
X76750466Y-60842766D01*
X76577396Y-60914454D01*
X76393667Y-60951000D01*
X76206333Y-60951000D01*
X76022604Y-60914454D01*
X75849534Y-60842766D01*
X75693770Y-60738688D01*
X75561312Y-60606230D01*
X75457234Y-60450466D01*
X75385546Y-60277396D01*
X75349000Y-60093667D01*
X75349000Y-59906333D01*
X75385546Y-59722604D01*
X75457234Y-59549534D01*
X75561312Y-59393770D01*
X75693770Y-59261312D01*
X75849534Y-59157234D01*
X76022604Y-59085546D01*
X76206333Y-59049000D01*
X76393667Y-59049000D01*
X76577396Y-59085546D01*
X76577396Y-59085546D01*
G37*
G36*
X58077396Y-59085546D02*
X58250466Y-59157234D01*
X58406230Y-59261312D01*
X58538688Y-59393770D01*
X58642766Y-59549534D01*
X58714454Y-59722604D01*
X58751000Y-59906333D01*
X58751000Y-60093667D01*
X58714454Y-60277396D01*
X58642766Y-60450466D01*
X58538688Y-60606230D01*
X58406230Y-60738688D01*
X58250466Y-60842766D01*
X58077396Y-60914454D01*
X57893667Y-60951000D01*
X57706333Y-60951000D01*
X57522604Y-60914454D01*
X57349534Y-60842766D01*
X57193770Y-60738688D01*
X57061312Y-60606230D01*
X56957234Y-60450466D01*
X56885546Y-60277396D01*
X56849000Y-60093667D01*
X56849000Y-59906333D01*
X56885546Y-59722604D01*
X56957234Y-59549534D01*
X57061312Y-59393770D01*
X57193770Y-59261312D01*
X57349534Y-59157234D01*
X57522604Y-59085546D01*
X57706333Y-59049000D01*
X57893667Y-59049000D01*
X58077396Y-59085546D01*
X58077396Y-59085546D01*
G37*
G36*
X55577396Y-59085546D02*
X55750466Y-59157234D01*
X55906230Y-59261312D01*
X56038688Y-59393770D01*
X56142766Y-59549534D01*
X56214454Y-59722604D01*
X56251000Y-59906333D01*
X56251000Y-60093667D01*
X56214454Y-60277396D01*
X56142766Y-60450466D01*
X56038688Y-60606230D01*
X55906230Y-60738688D01*
X55750466Y-60842766D01*
X55577396Y-60914454D01*
X55393667Y-60951000D01*
X55206333Y-60951000D01*
X55022604Y-60914454D01*
X54849534Y-60842766D01*
X54693770Y-60738688D01*
X54561312Y-60606230D01*
X54457234Y-60450466D01*
X54385546Y-60277396D01*
X54349000Y-60093667D01*
X54349000Y-59906333D01*
X54385546Y-59722604D01*
X54457234Y-59549534D01*
X54561312Y-59393770D01*
X54693770Y-59261312D01*
X54849534Y-59157234D01*
X55022604Y-59085546D01*
X55206333Y-59049000D01*
X55393667Y-59049000D01*
X55577396Y-59085546D01*
X55577396Y-59085546D01*
G37*
G36*
X5549003Y-58107275D02*
X5549005Y-58107276D01*
X5549006Y-58107276D01*
X5729320Y-58181964D01*
X5729321Y-58181965D01*
X5891601Y-58290397D01*
X6029603Y-58428399D01*
X6029605Y-58428402D01*
X6138036Y-58590680D01*
X6212724Y-58770994D01*
X6212725Y-58770997D01*
X6250800Y-58962413D01*
X6250800Y-59157587D01*
X6230168Y-59261312D01*
X6212724Y-59349006D01*
X6138036Y-59529320D01*
X6138035Y-59529321D01*
X6029603Y-59691601D01*
X5891601Y-59829603D01*
X5891598Y-59829605D01*
X5729320Y-59938036D01*
X5549006Y-60012724D01*
X5549005Y-60012724D01*
X5549003Y-60012725D01*
X5357587Y-60050800D01*
X5162413Y-60050800D01*
X4970997Y-60012725D01*
X4970995Y-60012724D01*
X4970994Y-60012724D01*
X4790680Y-59938036D01*
X4628402Y-59829605D01*
X4628399Y-59829603D01*
X4490397Y-59691601D01*
X4381965Y-59529321D01*
X4381964Y-59529320D01*
X4307276Y-59349006D01*
X4289833Y-59261312D01*
X4269200Y-59157587D01*
X4269200Y-58962413D01*
X4307275Y-58770997D01*
X4307276Y-58770994D01*
X4381964Y-58590680D01*
X4490395Y-58428402D01*
X4490397Y-58428399D01*
X4628399Y-58290397D01*
X4790679Y-58181965D01*
X4790680Y-58181964D01*
X4970994Y-58107276D01*
X4970995Y-58107276D01*
X4970997Y-58107275D01*
X5162413Y-58069200D01*
X5357587Y-58069200D01*
X5549003Y-58107275D01*
X5549003Y-58107275D01*
G37*
G36*
X8089003Y-58107275D02*
X8089005Y-58107276D01*
X8089006Y-58107276D01*
X8269320Y-58181964D01*
X8269321Y-58181965D01*
X8431601Y-58290397D01*
X8569603Y-58428399D01*
X8569605Y-58428402D01*
X8678036Y-58590680D01*
X8752724Y-58770994D01*
X8752725Y-58770997D01*
X8790800Y-58962413D01*
X8790800Y-59157587D01*
X8770168Y-59261312D01*
X8752724Y-59349006D01*
X8678036Y-59529320D01*
X8678035Y-59529321D01*
X8569603Y-59691601D01*
X8431601Y-59829603D01*
X8431598Y-59829605D01*
X8269320Y-59938036D01*
X8089006Y-60012724D01*
X8089005Y-60012724D01*
X8089003Y-60012725D01*
X7897587Y-60050800D01*
X7702413Y-60050800D01*
X7510997Y-60012725D01*
X7510995Y-60012724D01*
X7510994Y-60012724D01*
X7330680Y-59938036D01*
X7168402Y-59829605D01*
X7168399Y-59829603D01*
X7030397Y-59691601D01*
X6921965Y-59529321D01*
X6921964Y-59529320D01*
X6847276Y-59349006D01*
X6829833Y-59261312D01*
X6809200Y-59157587D01*
X6809200Y-58962413D01*
X6847275Y-58770997D01*
X6847276Y-58770994D01*
X6921964Y-58590680D01*
X7030395Y-58428402D01*
X7030397Y-58428399D01*
X7168399Y-58290397D01*
X7330679Y-58181965D01*
X7330680Y-58181964D01*
X7510994Y-58107276D01*
X7510995Y-58107276D01*
X7510997Y-58107275D01*
X7702413Y-58069200D01*
X7897587Y-58069200D01*
X8089003Y-58107275D01*
X8089003Y-58107275D01*
G37*
G36*
X78798252Y-51027818D02*
X78798254Y-51027819D01*
X78798255Y-51027819D01*
X79171513Y-51182427D01*
X79171514Y-51182428D01*
X79507439Y-51406886D01*
X79793114Y-51692561D01*
X79793116Y-51692564D01*
X80017573Y-52028487D01*
X80172181Y-52401745D01*
X80251000Y-52797994D01*
X80251000Y-53202006D01*
X80172181Y-53598255D01*
X80017573Y-53971513D01*
X80017572Y-53971514D01*
X79793114Y-54307439D01*
X79507439Y-54593114D01*
X79507436Y-54593116D01*
X79171513Y-54817573D01*
X78798255Y-54972181D01*
X78798254Y-54972181D01*
X78798252Y-54972182D01*
X78402007Y-55051000D01*
X77997993Y-55051000D01*
X77601748Y-54972182D01*
X77601746Y-54972181D01*
X77601745Y-54972181D01*
X77228487Y-54817573D01*
X76892564Y-54593116D01*
X76892561Y-54593114D01*
X76606886Y-54307439D01*
X76382428Y-53971514D01*
X76382427Y-53971513D01*
X76227819Y-53598255D01*
X76149000Y-53202006D01*
X76149000Y-52797994D01*
X76227819Y-52401745D01*
X76382427Y-52028487D01*
X76606884Y-51692564D01*
X76606886Y-51692561D01*
X76892561Y-51406886D01*
X77228486Y-51182428D01*
X77228487Y-51182427D01*
X77601745Y-51027819D01*
X77601746Y-51027819D01*
X77601748Y-51027818D01*
X77997993Y-50949000D01*
X78402007Y-50949000D01*
X78798252Y-51027818D01*
X78798252Y-51027818D01*
G37*
G36*
X69998252Y-51027818D02*
X69998254Y-51027819D01*
X69998255Y-51027819D01*
X70371513Y-51182427D01*
X70371514Y-51182428D01*
X70707439Y-51406886D01*
X70993114Y-51692561D01*
X70993116Y-51692564D01*
X71217573Y-52028487D01*
X71372181Y-52401745D01*
X71451000Y-52797994D01*
X71451000Y-53202006D01*
X71372181Y-53598255D01*
X71217573Y-53971513D01*
X71217572Y-53971514D01*
X70993114Y-54307439D01*
X70707439Y-54593114D01*
X70707436Y-54593116D01*
X70371513Y-54817573D01*
X69998255Y-54972181D01*
X69998254Y-54972181D01*
X69998252Y-54972182D01*
X69602007Y-55051000D01*
X69197993Y-55051000D01*
X68801748Y-54972182D01*
X68801746Y-54972181D01*
X68801745Y-54972181D01*
X68428487Y-54817573D01*
X68092564Y-54593116D01*
X68092561Y-54593114D01*
X67806886Y-54307439D01*
X67582428Y-53971514D01*
X67582427Y-53971513D01*
X67427819Y-53598255D01*
X67349000Y-53202006D01*
X67349000Y-52797994D01*
X67427819Y-52401745D01*
X67582427Y-52028487D01*
X67806884Y-51692564D01*
X67806886Y-51692561D01*
X68092561Y-51406886D01*
X68428486Y-51182428D01*
X68428487Y-51182427D01*
X68801745Y-51027819D01*
X68801746Y-51027819D01*
X68801748Y-51027818D01*
X69197993Y-50949000D01*
X69602007Y-50949000D01*
X69998252Y-51027818D01*
X69998252Y-51027818D01*
G37*
G36*
X30798252Y-51027818D02*
X30798254Y-51027819D01*
X30798255Y-51027819D01*
X31171513Y-51182427D01*
X31171514Y-51182428D01*
X31507439Y-51406886D01*
X31793114Y-51692561D01*
X31793116Y-51692564D01*
X32017573Y-52028487D01*
X32172181Y-52401745D01*
X32251000Y-52797994D01*
X32251000Y-53202006D01*
X32172181Y-53598255D01*
X32017573Y-53971513D01*
X32017572Y-53971514D01*
X31793114Y-54307439D01*
X31507439Y-54593114D01*
X31507436Y-54593116D01*
X31171513Y-54817573D01*
X30798255Y-54972181D01*
X30798254Y-54972181D01*
X30798252Y-54972182D01*
X30402007Y-55051000D01*
X29997993Y-55051000D01*
X29601748Y-54972182D01*
X29601746Y-54972181D01*
X29601745Y-54972181D01*
X29228487Y-54817573D01*
X28892564Y-54593116D01*
X28892561Y-54593114D01*
X28606886Y-54307439D01*
X28382428Y-53971514D01*
X28382427Y-53971513D01*
X28227819Y-53598255D01*
X28149000Y-53202006D01*
X28149000Y-52797994D01*
X28227819Y-52401745D01*
X28382427Y-52028487D01*
X28606884Y-51692564D01*
X28606886Y-51692561D01*
X28892561Y-51406886D01*
X29228486Y-51182428D01*
X29228487Y-51182427D01*
X29601745Y-51027819D01*
X29601746Y-51027819D01*
X29601748Y-51027818D01*
X29997993Y-50949000D01*
X30402007Y-50949000D01*
X30798252Y-51027818D01*
X30798252Y-51027818D01*
G37*
G36*
X46798252Y-51027818D02*
X46798254Y-51027819D01*
X46798255Y-51027819D01*
X47171513Y-51182427D01*
X47171514Y-51182428D01*
X47507439Y-51406886D01*
X47793114Y-51692561D01*
X47793116Y-51692564D01*
X48017573Y-52028487D01*
X48172181Y-52401745D01*
X48251000Y-52797994D01*
X48251000Y-53202006D01*
X48172181Y-53598255D01*
X48017573Y-53971513D01*
X48017572Y-53971514D01*
X47793114Y-54307439D01*
X47507439Y-54593114D01*
X47507436Y-54593116D01*
X47171513Y-54817573D01*
X46798255Y-54972181D01*
X46798254Y-54972181D01*
X46798252Y-54972182D01*
X46402007Y-55051000D01*
X45997993Y-55051000D01*
X45601748Y-54972182D01*
X45601746Y-54972181D01*
X45601745Y-54972181D01*
X45228487Y-54817573D01*
X44892564Y-54593116D01*
X44892561Y-54593114D01*
X44606886Y-54307439D01*
X44382428Y-53971514D01*
X44382427Y-53971513D01*
X44227819Y-53598255D01*
X44149000Y-53202006D01*
X44149000Y-52797994D01*
X44227819Y-52401745D01*
X44382427Y-52028487D01*
X44606884Y-51692564D01*
X44606886Y-51692561D01*
X44892561Y-51406886D01*
X45228486Y-51182428D01*
X45228487Y-51182427D01*
X45601745Y-51027819D01*
X45601746Y-51027819D01*
X45601748Y-51027818D01*
X45997993Y-50949000D01*
X46402007Y-50949000D01*
X46798252Y-51027818D01*
X46798252Y-51027818D01*
G37*
G36*
X53998252Y-51027818D02*
X53998254Y-51027819D01*
X53998255Y-51027819D01*
X54371513Y-51182427D01*
X54371514Y-51182428D01*
X54707439Y-51406886D01*
X54993114Y-51692561D01*
X54993116Y-51692564D01*
X55217573Y-52028487D01*
X55372181Y-52401745D01*
X55451000Y-52797994D01*
X55451000Y-53202006D01*
X55372181Y-53598255D01*
X55217573Y-53971513D01*
X55217572Y-53971514D01*
X54993114Y-54307439D01*
X54707439Y-54593114D01*
X54707436Y-54593116D01*
X54371513Y-54817573D01*
X53998255Y-54972181D01*
X53998254Y-54972181D01*
X53998252Y-54972182D01*
X53602007Y-55051000D01*
X53197993Y-55051000D01*
X52801748Y-54972182D01*
X52801746Y-54972181D01*
X52801745Y-54972181D01*
X52428487Y-54817573D01*
X52092564Y-54593116D01*
X52092561Y-54593114D01*
X51806886Y-54307439D01*
X51582428Y-53971514D01*
X51582427Y-53971513D01*
X51427819Y-53598255D01*
X51349000Y-53202006D01*
X51349000Y-52797994D01*
X51427819Y-52401745D01*
X51582427Y-52028487D01*
X51806884Y-51692564D01*
X51806886Y-51692561D01*
X52092561Y-51406886D01*
X52428486Y-51182428D01*
X52428487Y-51182427D01*
X52801745Y-51027819D01*
X52801746Y-51027819D01*
X52801748Y-51027818D01*
X53197993Y-50949000D01*
X53602007Y-50949000D01*
X53998252Y-51027818D01*
X53998252Y-51027818D01*
G37*
G36*
X21998252Y-51027818D02*
X21998254Y-51027819D01*
X21998255Y-51027819D01*
X22371513Y-51182427D01*
X22371514Y-51182428D01*
X22707439Y-51406886D01*
X22993114Y-51692561D01*
X22993116Y-51692564D01*
X23217573Y-52028487D01*
X23372181Y-52401745D01*
X23451000Y-52797994D01*
X23451000Y-53202006D01*
X23372181Y-53598255D01*
X23217573Y-53971513D01*
X23217572Y-53971514D01*
X22993114Y-54307439D01*
X22707439Y-54593114D01*
X22707436Y-54593116D01*
X22371513Y-54817573D01*
X21998255Y-54972181D01*
X21998254Y-54972181D01*
X21998252Y-54972182D01*
X21602007Y-55051000D01*
X21197993Y-55051000D01*
X20801748Y-54972182D01*
X20801746Y-54972181D01*
X20801745Y-54972181D01*
X20428487Y-54817573D01*
X20092564Y-54593116D01*
X20092561Y-54593114D01*
X19806886Y-54307439D01*
X19582428Y-53971514D01*
X19582427Y-53971513D01*
X19427819Y-53598255D01*
X19349000Y-53202006D01*
X19349000Y-52797994D01*
X19427819Y-52401745D01*
X19582427Y-52028487D01*
X19806884Y-51692564D01*
X19806886Y-51692561D01*
X20092561Y-51406886D01*
X20428486Y-51182428D01*
X20428487Y-51182427D01*
X20801745Y-51027819D01*
X20801746Y-51027819D01*
X20801748Y-51027818D01*
X21197993Y-50949000D01*
X21602007Y-50949000D01*
X21998252Y-51027818D01*
X21998252Y-51027818D01*
G37*
G36*
X62798252Y-51027818D02*
X62798254Y-51027819D01*
X62798255Y-51027819D01*
X63171513Y-51182427D01*
X63171514Y-51182428D01*
X63507439Y-51406886D01*
X63793114Y-51692561D01*
X63793116Y-51692564D01*
X64017573Y-52028487D01*
X64172181Y-52401745D01*
X64251000Y-52797994D01*
X64251000Y-53202006D01*
X64172181Y-53598255D01*
X64017573Y-53971513D01*
X64017572Y-53971514D01*
X63793114Y-54307439D01*
X63507439Y-54593114D01*
X63507436Y-54593116D01*
X63171513Y-54817573D01*
X62798255Y-54972181D01*
X62798254Y-54972181D01*
X62798252Y-54972182D01*
X62402007Y-55051000D01*
X61997993Y-55051000D01*
X61601748Y-54972182D01*
X61601746Y-54972181D01*
X61601745Y-54972181D01*
X61228487Y-54817573D01*
X60892564Y-54593116D01*
X60892561Y-54593114D01*
X60606886Y-54307439D01*
X60382428Y-53971514D01*
X60382427Y-53971513D01*
X60227819Y-53598255D01*
X60149000Y-53202006D01*
X60149000Y-52797994D01*
X60227819Y-52401745D01*
X60382427Y-52028487D01*
X60606884Y-51692564D01*
X60606886Y-51692561D01*
X60892561Y-51406886D01*
X61228486Y-51182428D01*
X61228487Y-51182427D01*
X61601745Y-51027819D01*
X61601746Y-51027819D01*
X61601748Y-51027818D01*
X61997993Y-50949000D01*
X62402007Y-50949000D01*
X62798252Y-51027818D01*
X62798252Y-51027818D01*
G37*
G36*
X37998252Y-51027818D02*
X37998254Y-51027819D01*
X37998255Y-51027819D01*
X38371513Y-51182427D01*
X38371514Y-51182428D01*
X38707439Y-51406886D01*
X38993114Y-51692561D01*
X38993116Y-51692564D01*
X39217573Y-52028487D01*
X39372181Y-52401745D01*
X39451000Y-52797994D01*
X39451000Y-53202006D01*
X39372181Y-53598255D01*
X39217573Y-53971513D01*
X39217572Y-53971514D01*
X38993114Y-54307439D01*
X38707439Y-54593114D01*
X38707436Y-54593116D01*
X38371513Y-54817573D01*
X37998255Y-54972181D01*
X37998254Y-54972181D01*
X37998252Y-54972182D01*
X37602007Y-55051000D01*
X37197993Y-55051000D01*
X36801748Y-54972182D01*
X36801746Y-54972181D01*
X36801745Y-54972181D01*
X36428487Y-54817573D01*
X36092564Y-54593116D01*
X36092561Y-54593114D01*
X35806886Y-54307439D01*
X35582428Y-53971514D01*
X35582427Y-53971513D01*
X35427819Y-53598255D01*
X35349000Y-53202006D01*
X35349000Y-52797994D01*
X35427819Y-52401745D01*
X35582427Y-52028487D01*
X35806884Y-51692564D01*
X35806886Y-51692561D01*
X36092561Y-51406886D01*
X36428486Y-51182428D01*
X36428487Y-51182427D01*
X36801745Y-51027819D01*
X36801746Y-51027819D01*
X36801748Y-51027818D01*
X37197993Y-50949000D01*
X37602007Y-50949000D01*
X37998252Y-51027818D01*
X37998252Y-51027818D01*
G37*
G36*
X50777396Y-43085546D02*
X50950466Y-43157234D01*
X51106230Y-43261312D01*
X51238688Y-43393770D01*
X51342766Y-43549534D01*
X51414454Y-43722604D01*
X51451000Y-43906333D01*
X51451000Y-44093667D01*
X51414454Y-44277396D01*
X51342766Y-44450466D01*
X51238688Y-44606230D01*
X51106230Y-44738688D01*
X50950466Y-44842766D01*
X50777396Y-44914454D01*
X50593667Y-44951000D01*
X50406333Y-44951000D01*
X50222604Y-44914454D01*
X50049534Y-44842766D01*
X49893770Y-44738688D01*
X49761312Y-44606230D01*
X49657234Y-44450466D01*
X49585546Y-44277396D01*
X49549000Y-44093667D01*
X49549000Y-43906333D01*
X49585546Y-43722604D01*
X49657234Y-43549534D01*
X49761312Y-43393770D01*
X49893770Y-43261312D01*
X50049534Y-43157234D01*
X50222604Y-43085546D01*
X50406333Y-43049000D01*
X50593667Y-43049000D01*
X50777396Y-43085546D01*
X50777396Y-43085546D01*
G37*
G36*
X45777396Y-43085546D02*
X45950466Y-43157234D01*
X46106230Y-43261312D01*
X46238688Y-43393770D01*
X46342766Y-43549534D01*
X46414454Y-43722604D01*
X46451000Y-43906333D01*
X46451000Y-44093667D01*
X46414454Y-44277396D01*
X46342766Y-44450466D01*
X46238688Y-44606230D01*
X46106230Y-44738688D01*
X45950466Y-44842766D01*
X45777396Y-44914454D01*
X45593667Y-44951000D01*
X45406333Y-44951000D01*
X45222604Y-44914454D01*
X45049534Y-44842766D01*
X44893770Y-44738688D01*
X44761312Y-44606230D01*
X44657234Y-44450466D01*
X44585546Y-44277396D01*
X44549000Y-44093667D01*
X44549000Y-43906333D01*
X44585546Y-43722604D01*
X44657234Y-43549534D01*
X44761312Y-43393770D01*
X44893770Y-43261312D01*
X45049534Y-43157234D01*
X45222604Y-43085546D01*
X45406333Y-43049000D01*
X45593667Y-43049000D01*
X45777396Y-43085546D01*
X45777396Y-43085546D01*
G37*
G36*
X48277396Y-43085546D02*
X48450466Y-43157234D01*
X48606230Y-43261312D01*
X48738688Y-43393770D01*
X48842766Y-43549534D01*
X48914454Y-43722604D01*
X48951000Y-43906333D01*
X48951000Y-44093667D01*
X48914454Y-44277396D01*
X48842766Y-44450466D01*
X48738688Y-44606230D01*
X48606230Y-44738688D01*
X48450466Y-44842766D01*
X48277396Y-44914454D01*
X48093667Y-44951000D01*
X47906333Y-44951000D01*
X47722604Y-44914454D01*
X47549534Y-44842766D01*
X47393770Y-44738688D01*
X47261312Y-44606230D01*
X47157234Y-44450466D01*
X47085546Y-44277396D01*
X47049000Y-44093667D01*
X47049000Y-43906333D01*
X47085546Y-43722604D01*
X47157234Y-43549534D01*
X47261312Y-43393770D01*
X47393770Y-43261312D01*
X47549534Y-43157234D01*
X47722604Y-43085546D01*
X47906333Y-43049000D01*
X48093667Y-43049000D01*
X48277396Y-43085546D01*
X48277396Y-43085546D01*
G37*
G36*
X39051460Y-44850440D02*
X38151900Y-44850440D01*
X38151900Y-43549560D01*
X39051460Y-43549560D01*
X39051460Y-44850440D01*
X39051460Y-44850440D01*
G37*
G36*
X40849780Y-44850440D02*
X39950220Y-44850440D01*
X39950220Y-43549560D01*
X40849780Y-43549560D01*
X40849780Y-44850440D01*
X40849780Y-44850440D01*
G37*
G36*
X54150620Y-44850440D02*
X53251060Y-44850440D01*
X53251060Y-43549560D01*
X54150620Y-43549560D01*
X54150620Y-44850440D01*
X54150620Y-44850440D01*
G37*
G36*
X55948940Y-44850440D02*
X55049380Y-44850440D01*
X55049380Y-43549560D01*
X55948940Y-43549560D01*
X55948940Y-44850440D01*
X55948940Y-44850440D01*
G37*
G36*
X82050440Y-42948940D02*
X80749560Y-42948940D01*
X80749560Y-42049380D01*
X82050440Y-42049380D01*
X82050440Y-42948940D01*
X82050440Y-42948940D01*
G37*
G36*
X87250440Y-42948940D02*
X85949560Y-42948940D01*
X85949560Y-42049380D01*
X87250440Y-42049380D01*
X87250440Y-42948940D01*
X87250440Y-42948940D01*
G37*
G36*
X84650440Y-42948940D02*
X83349560Y-42948940D01*
X83349560Y-42049380D01*
X84650440Y-42049380D01*
X84650440Y-42948940D01*
X84650440Y-42948940D01*
G37*
G36*
X64850440Y-42748940D02*
X63549560Y-42748940D01*
X63549560Y-41849380D01*
X64850440Y-41849380D01*
X64850440Y-42748940D01*
X64850440Y-42748940D01*
G37*
G36*
X69850440Y-42748940D02*
X68549560Y-42748940D01*
X68549560Y-41849380D01*
X69850440Y-41849380D01*
X69850440Y-42748940D01*
X69850440Y-42748940D01*
G37*
G36*
X67450440Y-42748940D02*
X66149560Y-42748940D01*
X66149560Y-41849380D01*
X67450440Y-41849380D01*
X67450440Y-42748940D01*
X67450440Y-42748940D01*
G37*
G36*
X10850440Y-42548940D02*
X9549560Y-42548940D01*
X9549560Y-41649380D01*
X10850440Y-41649380D01*
X10850440Y-42548940D01*
X10850440Y-42548940D01*
G37*
G36*
X31450440Y-42548940D02*
X30149560Y-42548940D01*
X30149560Y-41649380D01*
X31450440Y-41649380D01*
X31450440Y-42548940D01*
X31450440Y-42548940D01*
G37*
G36*
X34050440Y-42548940D02*
X32749560Y-42548940D01*
X32749560Y-41649380D01*
X34050440Y-41649380D01*
X34050440Y-42548940D01*
X34050440Y-42548940D01*
G37*
G36*
X28850440Y-42548940D02*
X27549560Y-42548940D01*
X27549560Y-41649380D01*
X28850440Y-41649380D01*
X28850440Y-42548940D01*
X28850440Y-42548940D01*
G37*
G36*
X15850440Y-42348940D02*
X14549560Y-42348940D01*
X14549560Y-41449380D01*
X15850440Y-41449380D01*
X15850440Y-42348940D01*
X15850440Y-42348940D01*
G37*
G36*
X13450440Y-42348940D02*
X12149560Y-42348940D01*
X12149560Y-41449380D01*
X13450440Y-41449380D01*
X13450440Y-42348940D01*
X13450440Y-42348940D01*
G37*
G36*
X82050440Y-41150620D02*
X80749560Y-41150620D01*
X80749560Y-40251060D01*
X82050440Y-40251060D01*
X82050440Y-41150620D01*
X82050440Y-41150620D01*
G37*
G36*
X84650440Y-41150620D02*
X83349560Y-41150620D01*
X83349560Y-40251060D01*
X84650440Y-40251060D01*
X84650440Y-41150620D01*
X84650440Y-41150620D01*
G37*
G36*
X87250440Y-41150620D02*
X85949560Y-41150620D01*
X85949560Y-40251060D01*
X87250440Y-40251060D01*
X87250440Y-41150620D01*
X87250440Y-41150620D01*
G37*
G36*
X69850440Y-40950620D02*
X68549560Y-40950620D01*
X68549560Y-40051060D01*
X69850440Y-40051060D01*
X69850440Y-40950620D01*
X69850440Y-40950620D01*
G37*
G36*
X64850440Y-40950620D02*
X63549560Y-40950620D01*
X63549560Y-40051060D01*
X64850440Y-40051060D01*
X64850440Y-40950620D01*
X64850440Y-40950620D01*
G37*
G36*
X67450440Y-40950620D02*
X66149560Y-40950620D01*
X66149560Y-40051060D01*
X67450440Y-40051060D01*
X67450440Y-40950620D01*
X67450440Y-40950620D01*
G37*
G36*
X10850440Y-40750620D02*
X9549560Y-40750620D01*
X9549560Y-39851060D01*
X10850440Y-39851060D01*
X10850440Y-40750620D01*
X10850440Y-40750620D01*
G37*
G36*
X28850440Y-40750620D02*
X27549560Y-40750620D01*
X27549560Y-39851060D01*
X28850440Y-39851060D01*
X28850440Y-40750620D01*
X28850440Y-40750620D01*
G37*
G36*
X34050440Y-40750620D02*
X32749560Y-40750620D01*
X32749560Y-39851060D01*
X34050440Y-39851060D01*
X34050440Y-40750620D01*
X34050440Y-40750620D01*
G37*
G36*
X31450440Y-40750620D02*
X30149560Y-40750620D01*
X30149560Y-39851060D01*
X31450440Y-39851060D01*
X31450440Y-40750620D01*
X31450440Y-40750620D01*
G37*
G36*
X13450440Y-40550620D02*
X12149560Y-40550620D01*
X12149560Y-39651060D01*
X13450440Y-39651060D01*
X13450440Y-40550620D01*
X13450440Y-40550620D01*
G37*
G36*
X15850440Y-40550620D02*
X14549560Y-40550620D01*
X14549560Y-39651060D01*
X15850440Y-39651060D01*
X15850440Y-40550620D01*
X15850440Y-40550620D01*
G37*
G36*
X44198252Y-35027818D02*
X44198254Y-35027819D01*
X44198255Y-35027819D01*
X44571513Y-35182427D01*
X44571514Y-35182428D01*
X44907439Y-35406886D01*
X45193114Y-35692561D01*
X45193116Y-35692564D01*
X45417573Y-36028487D01*
X45572181Y-36401745D01*
X45651000Y-36797994D01*
X45651000Y-37202006D01*
X45572181Y-37598255D01*
X45417573Y-37971513D01*
X45417572Y-37971514D01*
X45193114Y-38307439D01*
X44907439Y-38593114D01*
X44907436Y-38593116D01*
X44571513Y-38817573D01*
X44198255Y-38972181D01*
X44198254Y-38972181D01*
X44198252Y-38972182D01*
X43802007Y-39051000D01*
X43397993Y-39051000D01*
X43001748Y-38972182D01*
X43001746Y-38972181D01*
X43001745Y-38972181D01*
X42628487Y-38817573D01*
X42292564Y-38593116D01*
X42292561Y-38593114D01*
X42006886Y-38307439D01*
X41782428Y-37971514D01*
X41782427Y-37971513D01*
X41627819Y-37598255D01*
X41549000Y-37202006D01*
X41549000Y-36797994D01*
X41627819Y-36401745D01*
X41782427Y-36028487D01*
X42006884Y-35692564D01*
X42006886Y-35692561D01*
X42292561Y-35406886D01*
X42628486Y-35182428D01*
X42628487Y-35182427D01*
X43001745Y-35027819D01*
X43001746Y-35027819D01*
X43001748Y-35027818D01*
X43397993Y-34949000D01*
X43802007Y-34949000D01*
X44198252Y-35027818D01*
X44198252Y-35027818D01*
G37*
G36*
X52998252Y-35027818D02*
X52998254Y-35027819D01*
X52998255Y-35027819D01*
X53371513Y-35182427D01*
X53371514Y-35182428D01*
X53707439Y-35406886D01*
X53993114Y-35692561D01*
X53993116Y-35692564D01*
X54217573Y-36028487D01*
X54372181Y-36401745D01*
X54451000Y-36797994D01*
X54451000Y-37202006D01*
X54372181Y-37598255D01*
X54217573Y-37971513D01*
X54217572Y-37971514D01*
X53993114Y-38307439D01*
X53707439Y-38593114D01*
X53707436Y-38593116D01*
X53371513Y-38817573D01*
X52998255Y-38972181D01*
X52998254Y-38972181D01*
X52998252Y-38972182D01*
X52602007Y-39051000D01*
X52197993Y-39051000D01*
X51801748Y-38972182D01*
X51801746Y-38972181D01*
X51801745Y-38972181D01*
X51428487Y-38817573D01*
X51092564Y-38593116D01*
X51092561Y-38593114D01*
X50806886Y-38307439D01*
X50582428Y-37971514D01*
X50582427Y-37971513D01*
X50427819Y-37598255D01*
X50349000Y-37202006D01*
X50349000Y-36797994D01*
X50427819Y-36401745D01*
X50582427Y-36028487D01*
X50806884Y-35692564D01*
X50806886Y-35692561D01*
X51092561Y-35406886D01*
X51428486Y-35182428D01*
X51428487Y-35182427D01*
X51801745Y-35027819D01*
X51801746Y-35027819D01*
X51801748Y-35027818D01*
X52197993Y-34949000D01*
X52602007Y-34949000D01*
X52998252Y-35027818D01*
X52998252Y-35027818D01*
G37*
G36*
X81577396Y-36085546D02*
X81750466Y-36157234D01*
X81906230Y-36261312D01*
X82038688Y-36393770D01*
X82142766Y-36549534D01*
X82214454Y-36722604D01*
X82251000Y-36906333D01*
X82251000Y-37093667D01*
X82214454Y-37277396D01*
X82142766Y-37450466D01*
X82038688Y-37606230D01*
X81906230Y-37738688D01*
X81750466Y-37842766D01*
X81577396Y-37914454D01*
X81393667Y-37951000D01*
X81206333Y-37951000D01*
X81022604Y-37914454D01*
X80849534Y-37842766D01*
X80693770Y-37738688D01*
X80561312Y-37606230D01*
X80457234Y-37450466D01*
X80385546Y-37277396D01*
X80349000Y-37093667D01*
X80349000Y-36906333D01*
X80385546Y-36722604D01*
X80457234Y-36549534D01*
X80561312Y-36393770D01*
X80693770Y-36261312D01*
X80849534Y-36157234D01*
X81022604Y-36085546D01*
X81206333Y-36049000D01*
X81393667Y-36049000D01*
X81577396Y-36085546D01*
X81577396Y-36085546D01*
G37*
G36*
X31077396Y-36085546D02*
X31250466Y-36157234D01*
X31406230Y-36261312D01*
X31538688Y-36393770D01*
X31642766Y-36549534D01*
X31714454Y-36722604D01*
X31751000Y-36906333D01*
X31751000Y-37093667D01*
X31714454Y-37277396D01*
X31642766Y-37450466D01*
X31538688Y-37606230D01*
X31406230Y-37738688D01*
X31250466Y-37842766D01*
X31077396Y-37914454D01*
X30893667Y-37951000D01*
X30706333Y-37951000D01*
X30522604Y-37914454D01*
X30349534Y-37842766D01*
X30193770Y-37738688D01*
X30061312Y-37606230D01*
X29957234Y-37450466D01*
X29885546Y-37277396D01*
X29849000Y-37093667D01*
X29849000Y-36906333D01*
X29885546Y-36722604D01*
X29957234Y-36549534D01*
X30061312Y-36393770D01*
X30193770Y-36261312D01*
X30349534Y-36157234D01*
X30522604Y-36085546D01*
X30706333Y-36049000D01*
X30893667Y-36049000D01*
X31077396Y-36085546D01*
X31077396Y-36085546D01*
G37*
G36*
X67077396Y-36085546D02*
X67250466Y-36157234D01*
X67406230Y-36261312D01*
X67538688Y-36393770D01*
X67642766Y-36549534D01*
X67714454Y-36722604D01*
X67751000Y-36906333D01*
X67751000Y-37093667D01*
X67714454Y-37277396D01*
X67642766Y-37450466D01*
X67538688Y-37606230D01*
X67406230Y-37738688D01*
X67250466Y-37842766D01*
X67077396Y-37914454D01*
X66893667Y-37951000D01*
X66706333Y-37951000D01*
X66522604Y-37914454D01*
X66349534Y-37842766D01*
X66193770Y-37738688D01*
X66061312Y-37606230D01*
X65957234Y-37450466D01*
X65885546Y-37277396D01*
X65849000Y-37093667D01*
X65849000Y-36906333D01*
X65885546Y-36722604D01*
X65957234Y-36549534D01*
X66061312Y-36393770D01*
X66193770Y-36261312D01*
X66349534Y-36157234D01*
X66522604Y-36085546D01*
X66706333Y-36049000D01*
X66893667Y-36049000D01*
X67077396Y-36085546D01*
X67077396Y-36085546D01*
G37*
G36*
X64577396Y-36085546D02*
X64750466Y-36157234D01*
X64906230Y-36261312D01*
X65038688Y-36393770D01*
X65142766Y-36549534D01*
X65214454Y-36722604D01*
X65251000Y-36906333D01*
X65251000Y-37093667D01*
X65214454Y-37277396D01*
X65142766Y-37450466D01*
X65038688Y-37606230D01*
X64906230Y-37738688D01*
X64750466Y-37842766D01*
X64577396Y-37914454D01*
X64393667Y-37951000D01*
X64206333Y-37951000D01*
X64022604Y-37914454D01*
X63849534Y-37842766D01*
X63693770Y-37738688D01*
X63561312Y-37606230D01*
X63457234Y-37450466D01*
X63385546Y-37277396D01*
X63349000Y-37093667D01*
X63349000Y-36906333D01*
X63385546Y-36722604D01*
X63457234Y-36549534D01*
X63561312Y-36393770D01*
X63693770Y-36261312D01*
X63849534Y-36157234D01*
X64022604Y-36085546D01*
X64206333Y-36049000D01*
X64393667Y-36049000D01*
X64577396Y-36085546D01*
X64577396Y-36085546D01*
G37*
G36*
X69577396Y-36085546D02*
X69750466Y-36157234D01*
X69906230Y-36261312D01*
X70038688Y-36393770D01*
X70142766Y-36549534D01*
X70214454Y-36722604D01*
X70251000Y-36906333D01*
X70251000Y-37093667D01*
X70214454Y-37277396D01*
X70142766Y-37450466D01*
X70038688Y-37606230D01*
X69906230Y-37738688D01*
X69750466Y-37842766D01*
X69577396Y-37914454D01*
X69393667Y-37951000D01*
X69206333Y-37951000D01*
X69022604Y-37914454D01*
X68849534Y-37842766D01*
X68693770Y-37738688D01*
X68561312Y-37606230D01*
X68457234Y-37450466D01*
X68385546Y-37277396D01*
X68349000Y-37093667D01*
X68349000Y-36906333D01*
X68385546Y-36722604D01*
X68457234Y-36549534D01*
X68561312Y-36393770D01*
X68693770Y-36261312D01*
X68849534Y-36157234D01*
X69022604Y-36085546D01*
X69206333Y-36049000D01*
X69393667Y-36049000D01*
X69577396Y-36085546D01*
X69577396Y-36085546D01*
G37*
G36*
X33577396Y-36085546D02*
X33750466Y-36157234D01*
X33906230Y-36261312D01*
X34038688Y-36393770D01*
X34142766Y-36549534D01*
X34214454Y-36722604D01*
X34251000Y-36906333D01*
X34251000Y-37093667D01*
X34214454Y-37277396D01*
X34142766Y-37450466D01*
X34038688Y-37606230D01*
X33906230Y-37738688D01*
X33750466Y-37842766D01*
X33577396Y-37914454D01*
X33393667Y-37951000D01*
X33206333Y-37951000D01*
X33022604Y-37914454D01*
X32849534Y-37842766D01*
X32693770Y-37738688D01*
X32561312Y-37606230D01*
X32457234Y-37450466D01*
X32385546Y-37277396D01*
X32349000Y-37093667D01*
X32349000Y-36906333D01*
X32385546Y-36722604D01*
X32457234Y-36549534D01*
X32561312Y-36393770D01*
X32693770Y-36261312D01*
X32849534Y-36157234D01*
X33022604Y-36085546D01*
X33206333Y-36049000D01*
X33393667Y-36049000D01*
X33577396Y-36085546D01*
X33577396Y-36085546D01*
G37*
G36*
X28577396Y-36085546D02*
X28750466Y-36157234D01*
X28906230Y-36261312D01*
X29038688Y-36393770D01*
X29142766Y-36549534D01*
X29214454Y-36722604D01*
X29251000Y-36906333D01*
X29251000Y-37093667D01*
X29214454Y-37277396D01*
X29142766Y-37450466D01*
X29038688Y-37606230D01*
X28906230Y-37738688D01*
X28750466Y-37842766D01*
X28577396Y-37914454D01*
X28393667Y-37951000D01*
X28206333Y-37951000D01*
X28022604Y-37914454D01*
X27849534Y-37842766D01*
X27693770Y-37738688D01*
X27561312Y-37606230D01*
X27457234Y-37450466D01*
X27385546Y-37277396D01*
X27349000Y-37093667D01*
X27349000Y-36906333D01*
X27385546Y-36722604D01*
X27457234Y-36549534D01*
X27561312Y-36393770D01*
X27693770Y-36261312D01*
X27849534Y-36157234D01*
X28022604Y-36085546D01*
X28206333Y-36049000D01*
X28393667Y-36049000D01*
X28577396Y-36085546D01*
X28577396Y-36085546D01*
G37*
G36*
X15577396Y-36085546D02*
X15750466Y-36157234D01*
X15906230Y-36261312D01*
X16038688Y-36393770D01*
X16142766Y-36549534D01*
X16214454Y-36722604D01*
X16251000Y-36906333D01*
X16251000Y-37093667D01*
X16214454Y-37277396D01*
X16142766Y-37450466D01*
X16038688Y-37606230D01*
X15906230Y-37738688D01*
X15750466Y-37842766D01*
X15577396Y-37914454D01*
X15393667Y-37951000D01*
X15206333Y-37951000D01*
X15022604Y-37914454D01*
X14849534Y-37842766D01*
X14693770Y-37738688D01*
X14561312Y-37606230D01*
X14457234Y-37450466D01*
X14385546Y-37277396D01*
X14349000Y-37093667D01*
X14349000Y-36906333D01*
X14385546Y-36722604D01*
X14457234Y-36549534D01*
X14561312Y-36393770D01*
X14693770Y-36261312D01*
X14849534Y-36157234D01*
X15022604Y-36085546D01*
X15206333Y-36049000D01*
X15393667Y-36049000D01*
X15577396Y-36085546D01*
X15577396Y-36085546D01*
G37*
G36*
X86577396Y-36085546D02*
X86750466Y-36157234D01*
X86906230Y-36261312D01*
X87038688Y-36393770D01*
X87142766Y-36549534D01*
X87214454Y-36722604D01*
X87251000Y-36906333D01*
X87251000Y-37093667D01*
X87214454Y-37277396D01*
X87142766Y-37450466D01*
X87038688Y-37606230D01*
X86906230Y-37738688D01*
X86750466Y-37842766D01*
X86577396Y-37914454D01*
X86393667Y-37951000D01*
X86206333Y-37951000D01*
X86022604Y-37914454D01*
X85849534Y-37842766D01*
X85693770Y-37738688D01*
X85561312Y-37606230D01*
X85457234Y-37450466D01*
X85385546Y-37277396D01*
X85349000Y-37093667D01*
X85349000Y-36906333D01*
X85385546Y-36722604D01*
X85457234Y-36549534D01*
X85561312Y-36393770D01*
X85693770Y-36261312D01*
X85849534Y-36157234D01*
X86022604Y-36085546D01*
X86206333Y-36049000D01*
X86393667Y-36049000D01*
X86577396Y-36085546D01*
X86577396Y-36085546D01*
G37*
G36*
X84077396Y-36085546D02*
X84250466Y-36157234D01*
X84406230Y-36261312D01*
X84538688Y-36393770D01*
X84642766Y-36549534D01*
X84714454Y-36722604D01*
X84751000Y-36906333D01*
X84751000Y-37093667D01*
X84714454Y-37277396D01*
X84642766Y-37450466D01*
X84538688Y-37606230D01*
X84406230Y-37738688D01*
X84250466Y-37842766D01*
X84077396Y-37914454D01*
X83893667Y-37951000D01*
X83706333Y-37951000D01*
X83522604Y-37914454D01*
X83349534Y-37842766D01*
X83193770Y-37738688D01*
X83061312Y-37606230D01*
X82957234Y-37450466D01*
X82885546Y-37277396D01*
X82849000Y-37093667D01*
X82849000Y-36906333D01*
X82885546Y-36722604D01*
X82957234Y-36549534D01*
X83061312Y-36393770D01*
X83193770Y-36261312D01*
X83349534Y-36157234D01*
X83522604Y-36085546D01*
X83706333Y-36049000D01*
X83893667Y-36049000D01*
X84077396Y-36085546D01*
X84077396Y-36085546D01*
G37*
G36*
X13077396Y-36085546D02*
X13250466Y-36157234D01*
X13406230Y-36261312D01*
X13538688Y-36393770D01*
X13642766Y-36549534D01*
X13714454Y-36722604D01*
X13751000Y-36906333D01*
X13751000Y-37093667D01*
X13714454Y-37277396D01*
X13642766Y-37450466D01*
X13538688Y-37606230D01*
X13406230Y-37738688D01*
X13250466Y-37842766D01*
X13077396Y-37914454D01*
X12893667Y-37951000D01*
X12706333Y-37951000D01*
X12522604Y-37914454D01*
X12349534Y-37842766D01*
X12193770Y-37738688D01*
X12061312Y-37606230D01*
X11957234Y-37450466D01*
X11885546Y-37277396D01*
X11849000Y-37093667D01*
X11849000Y-36906333D01*
X11885546Y-36722604D01*
X11957234Y-36549534D01*
X12061312Y-36393770D01*
X12193770Y-36261312D01*
X12349534Y-36157234D01*
X12522604Y-36085546D01*
X12706333Y-36049000D01*
X12893667Y-36049000D01*
X13077396Y-36085546D01*
X13077396Y-36085546D01*
G37*
G36*
X10577396Y-36085546D02*
X10750466Y-36157234D01*
X10906230Y-36261312D01*
X11038688Y-36393770D01*
X11142766Y-36549534D01*
X11214454Y-36722604D01*
X11251000Y-36906333D01*
X11251000Y-37093667D01*
X11214454Y-37277396D01*
X11142766Y-37450466D01*
X11038688Y-37606230D01*
X10906230Y-37738688D01*
X10750466Y-37842766D01*
X10577396Y-37914454D01*
X10393667Y-37951000D01*
X10206333Y-37951000D01*
X10022604Y-37914454D01*
X9849534Y-37842766D01*
X9693770Y-37738688D01*
X9561312Y-37606230D01*
X9457234Y-37450466D01*
X9385546Y-37277396D01*
X9349000Y-37093667D01*
X9349000Y-36906333D01*
X9385546Y-36722604D01*
X9457234Y-36549534D01*
X9561312Y-36393770D01*
X9693770Y-36261312D01*
X9849534Y-36157234D01*
X10022604Y-36085546D01*
X10206333Y-36049000D01*
X10393667Y-36049000D01*
X10577396Y-36085546D01*
X10577396Y-36085546D01*
G37*
G36*
X71798252Y-28027818D02*
X71798254Y-28027819D01*
X71798255Y-28027819D01*
X72171513Y-28182427D01*
X72171514Y-28182428D01*
X72507439Y-28406886D01*
X72793114Y-28692561D01*
X72793116Y-28692564D01*
X73017573Y-29028487D01*
X73172181Y-29401745D01*
X73251000Y-29797994D01*
X73251000Y-30202006D01*
X73172181Y-30598255D01*
X73017573Y-30971513D01*
X73017572Y-30971514D01*
X72793114Y-31307439D01*
X72507439Y-31593114D01*
X72507436Y-31593116D01*
X72171513Y-31817573D01*
X71798255Y-31972181D01*
X71798254Y-31972181D01*
X71798252Y-31972182D01*
X71402007Y-32051000D01*
X70997993Y-32051000D01*
X70601748Y-31972182D01*
X70601746Y-31972181D01*
X70601745Y-31972181D01*
X70228487Y-31817573D01*
X69892564Y-31593116D01*
X69892561Y-31593114D01*
X69606886Y-31307439D01*
X69382428Y-30971514D01*
X69382427Y-30971513D01*
X69227819Y-30598255D01*
X69149000Y-30202006D01*
X69149000Y-29797994D01*
X69227819Y-29401745D01*
X69382427Y-29028487D01*
X69606884Y-28692564D01*
X69606886Y-28692561D01*
X69892561Y-28406886D01*
X70228486Y-28182428D01*
X70228487Y-28182427D01*
X70601745Y-28027819D01*
X70601746Y-28027819D01*
X70601748Y-28027818D01*
X70997993Y-27949000D01*
X71402007Y-27949000D01*
X71798252Y-28027818D01*
X71798252Y-28027818D01*
G37*
G36*
X62998252Y-28027818D02*
X62998254Y-28027819D01*
X62998255Y-28027819D01*
X63371513Y-28182427D01*
X63371514Y-28182428D01*
X63707439Y-28406886D01*
X63993114Y-28692561D01*
X63993116Y-28692564D01*
X64217573Y-29028487D01*
X64372181Y-29401745D01*
X64451000Y-29797994D01*
X64451000Y-30202006D01*
X64372181Y-30598255D01*
X64217573Y-30971513D01*
X64217572Y-30971514D01*
X63993114Y-31307439D01*
X63707439Y-31593114D01*
X63707436Y-31593116D01*
X63371513Y-31817573D01*
X62998255Y-31972181D01*
X62998254Y-31972181D01*
X62998252Y-31972182D01*
X62602007Y-32051000D01*
X62197993Y-32051000D01*
X61801748Y-31972182D01*
X61801746Y-31972181D01*
X61801745Y-31972181D01*
X61428487Y-31817573D01*
X61092564Y-31593116D01*
X61092561Y-31593114D01*
X60806886Y-31307439D01*
X60582428Y-30971514D01*
X60582427Y-30971513D01*
X60427819Y-30598255D01*
X60349000Y-30202006D01*
X60349000Y-29797994D01*
X60427819Y-29401745D01*
X60582427Y-29028487D01*
X60806884Y-28692564D01*
X60806886Y-28692561D01*
X61092561Y-28406886D01*
X61428486Y-28182428D01*
X61428487Y-28182427D01*
X61801745Y-28027819D01*
X61801746Y-28027819D01*
X61801748Y-28027818D01*
X62197993Y-27949000D01*
X62602007Y-27949000D01*
X62998252Y-28027818D01*
X62998252Y-28027818D01*
G37*
G36*
X8998252Y-28027818D02*
X8998254Y-28027819D01*
X8998255Y-28027819D01*
X9371513Y-28182427D01*
X9371514Y-28182428D01*
X9707439Y-28406886D01*
X9993114Y-28692561D01*
X9993116Y-28692564D01*
X10217573Y-29028487D01*
X10372181Y-29401745D01*
X10451000Y-29797994D01*
X10451000Y-30202006D01*
X10372181Y-30598255D01*
X10217573Y-30971513D01*
X10217572Y-30971514D01*
X9993114Y-31307439D01*
X9707439Y-31593114D01*
X9707436Y-31593116D01*
X9371513Y-31817573D01*
X8998255Y-31972181D01*
X8998254Y-31972181D01*
X8998252Y-31972182D01*
X8602007Y-32051000D01*
X8197993Y-32051000D01*
X7801748Y-31972182D01*
X7801746Y-31972181D01*
X7801745Y-31972181D01*
X7428487Y-31817573D01*
X7092564Y-31593116D01*
X7092561Y-31593114D01*
X6806886Y-31307439D01*
X6582428Y-30971514D01*
X6582427Y-30971513D01*
X6427819Y-30598255D01*
X6349000Y-30202006D01*
X6349000Y-29797994D01*
X6427819Y-29401745D01*
X6582427Y-29028487D01*
X6806884Y-28692564D01*
X6806886Y-28692561D01*
X7092561Y-28406886D01*
X7428486Y-28182428D01*
X7428487Y-28182427D01*
X7801745Y-28027819D01*
X7801746Y-28027819D01*
X7801748Y-28027818D01*
X8197993Y-27949000D01*
X8602007Y-27949000D01*
X8998252Y-28027818D01*
X8998252Y-28027818D01*
G37*
G36*
X17798252Y-28027818D02*
X17798254Y-28027819D01*
X17798255Y-28027819D01*
X18171513Y-28182427D01*
X18171514Y-28182428D01*
X18507439Y-28406886D01*
X18793114Y-28692561D01*
X18793116Y-28692564D01*
X19017573Y-29028487D01*
X19172181Y-29401745D01*
X19251000Y-29797994D01*
X19251000Y-30202006D01*
X19172181Y-30598255D01*
X19017573Y-30971513D01*
X19017572Y-30971514D01*
X18793114Y-31307439D01*
X18507439Y-31593114D01*
X18507436Y-31593116D01*
X18171513Y-31817573D01*
X17798255Y-31972181D01*
X17798254Y-31972181D01*
X17798252Y-31972182D01*
X17402007Y-32051000D01*
X16997993Y-32051000D01*
X16601748Y-31972182D01*
X16601746Y-31972181D01*
X16601745Y-31972181D01*
X16228487Y-31817573D01*
X15892564Y-31593116D01*
X15892561Y-31593114D01*
X15606886Y-31307439D01*
X15382428Y-30971514D01*
X15382427Y-30971513D01*
X15227819Y-30598255D01*
X15149000Y-30202006D01*
X15149000Y-29797994D01*
X15227819Y-29401745D01*
X15382427Y-29028487D01*
X15606884Y-28692564D01*
X15606886Y-28692561D01*
X15892561Y-28406886D01*
X16228486Y-28182428D01*
X16228487Y-28182427D01*
X16601745Y-28027819D01*
X16601746Y-28027819D01*
X16601748Y-28027818D01*
X16997993Y-27949000D01*
X17402007Y-27949000D01*
X17798252Y-28027818D01*
X17798252Y-28027818D01*
G37*
G36*
X26998252Y-28027818D02*
X26998254Y-28027819D01*
X26998255Y-28027819D01*
X27371513Y-28182427D01*
X27371514Y-28182428D01*
X27707439Y-28406886D01*
X27993114Y-28692561D01*
X27993116Y-28692564D01*
X28217573Y-29028487D01*
X28372181Y-29401745D01*
X28451000Y-29797994D01*
X28451000Y-30202006D01*
X28372181Y-30598255D01*
X28217573Y-30971513D01*
X28217572Y-30971514D01*
X27993114Y-31307439D01*
X27707439Y-31593114D01*
X27707436Y-31593116D01*
X27371513Y-31817573D01*
X26998255Y-31972181D01*
X26998254Y-31972181D01*
X26998252Y-31972182D01*
X26602007Y-32051000D01*
X26197993Y-32051000D01*
X25801748Y-31972182D01*
X25801746Y-31972181D01*
X25801745Y-31972181D01*
X25428487Y-31817573D01*
X25092564Y-31593116D01*
X25092561Y-31593114D01*
X24806886Y-31307439D01*
X24582428Y-30971514D01*
X24582427Y-30971513D01*
X24427819Y-30598255D01*
X24349000Y-30202006D01*
X24349000Y-29797994D01*
X24427819Y-29401745D01*
X24582427Y-29028487D01*
X24806884Y-28692564D01*
X24806886Y-28692561D01*
X25092561Y-28406886D01*
X25428486Y-28182428D01*
X25428487Y-28182427D01*
X25801745Y-28027819D01*
X25801746Y-28027819D01*
X25801748Y-28027818D01*
X26197993Y-27949000D01*
X26602007Y-27949000D01*
X26998252Y-28027818D01*
X26998252Y-28027818D01*
G37*
G36*
X35798252Y-28027818D02*
X35798254Y-28027819D01*
X35798255Y-28027819D01*
X36171513Y-28182427D01*
X36171514Y-28182428D01*
X36507439Y-28406886D01*
X36793114Y-28692561D01*
X36793116Y-28692564D01*
X37017573Y-29028487D01*
X37172181Y-29401745D01*
X37251000Y-29797994D01*
X37251000Y-30202006D01*
X37172181Y-30598255D01*
X37017573Y-30971513D01*
X37017572Y-30971514D01*
X36793114Y-31307439D01*
X36507439Y-31593114D01*
X36507436Y-31593116D01*
X36171513Y-31817573D01*
X35798255Y-31972181D01*
X35798254Y-31972181D01*
X35798252Y-31972182D01*
X35402007Y-32051000D01*
X34997993Y-32051000D01*
X34601748Y-31972182D01*
X34601746Y-31972181D01*
X34601745Y-31972181D01*
X34228487Y-31817573D01*
X33892564Y-31593116D01*
X33892561Y-31593114D01*
X33606886Y-31307439D01*
X33382428Y-30971514D01*
X33382427Y-30971513D01*
X33227819Y-30598255D01*
X33149000Y-30202006D01*
X33149000Y-29797994D01*
X33227819Y-29401745D01*
X33382427Y-29028487D01*
X33606884Y-28692564D01*
X33606886Y-28692561D01*
X33892561Y-28406886D01*
X34228486Y-28182428D01*
X34228487Y-28182427D01*
X34601745Y-28027819D01*
X34601746Y-28027819D01*
X34601748Y-28027818D01*
X34997993Y-27949000D01*
X35402007Y-27949000D01*
X35798252Y-28027818D01*
X35798252Y-28027818D01*
G37*
G36*
X79998252Y-28027818D02*
X79998254Y-28027819D01*
X79998255Y-28027819D01*
X80371513Y-28182427D01*
X80371514Y-28182428D01*
X80707439Y-28406886D01*
X80993114Y-28692561D01*
X80993116Y-28692564D01*
X81217573Y-29028487D01*
X81372181Y-29401745D01*
X81451000Y-29797994D01*
X81451000Y-30202006D01*
X81372181Y-30598255D01*
X81217573Y-30971513D01*
X81217572Y-30971514D01*
X80993114Y-31307439D01*
X80707439Y-31593114D01*
X80707436Y-31593116D01*
X80371513Y-31817573D01*
X79998255Y-31972181D01*
X79998254Y-31972181D01*
X79998252Y-31972182D01*
X79602007Y-32051000D01*
X79197993Y-32051000D01*
X78801748Y-31972182D01*
X78801746Y-31972181D01*
X78801745Y-31972181D01*
X78428487Y-31817573D01*
X78092564Y-31593116D01*
X78092561Y-31593114D01*
X77806886Y-31307439D01*
X77582428Y-30971514D01*
X77582427Y-30971513D01*
X77427819Y-30598255D01*
X77349000Y-30202006D01*
X77349000Y-29797994D01*
X77427819Y-29401745D01*
X77582427Y-29028487D01*
X77806884Y-28692564D01*
X77806886Y-28692561D01*
X78092561Y-28406886D01*
X78428486Y-28182428D01*
X78428487Y-28182427D01*
X78801745Y-28027819D01*
X78801746Y-28027819D01*
X78801748Y-28027818D01*
X79197993Y-27949000D01*
X79602007Y-27949000D01*
X79998252Y-28027818D01*
X79998252Y-28027818D01*
G37*
G36*
X88798252Y-28027818D02*
X88798254Y-28027819D01*
X88798255Y-28027819D01*
X89171513Y-28182427D01*
X89171514Y-28182428D01*
X89507439Y-28406886D01*
X89793114Y-28692561D01*
X89793116Y-28692564D01*
X90017573Y-29028487D01*
X90172181Y-29401745D01*
X90251000Y-29797994D01*
X90251000Y-30202006D01*
X90172181Y-30598255D01*
X90017573Y-30971513D01*
X90017572Y-30971514D01*
X89793114Y-31307439D01*
X89507439Y-31593114D01*
X89507436Y-31593116D01*
X89171513Y-31817573D01*
X88798255Y-31972181D01*
X88798254Y-31972181D01*
X88798252Y-31972182D01*
X88402007Y-32051000D01*
X87997993Y-32051000D01*
X87601748Y-31972182D01*
X87601746Y-31972181D01*
X87601745Y-31972181D01*
X87228487Y-31817573D01*
X86892564Y-31593116D01*
X86892561Y-31593114D01*
X86606886Y-31307439D01*
X86382428Y-30971514D01*
X86382427Y-30971513D01*
X86227819Y-30598255D01*
X86149000Y-30202006D01*
X86149000Y-29797994D01*
X86227819Y-29401745D01*
X86382427Y-29028487D01*
X86606884Y-28692564D01*
X86606886Y-28692561D01*
X86892561Y-28406886D01*
X87228486Y-28182428D01*
X87228487Y-28182427D01*
X87601745Y-28027819D01*
X87601746Y-28027819D01*
X87601748Y-28027818D01*
X87997993Y-27949000D01*
X88402007Y-27949000D01*
X88798252Y-28027818D01*
X88798252Y-28027818D01*
G37*
G36*
X55450440Y-29548940D02*
X54149560Y-29548940D01*
X54149560Y-28649380D01*
X55450440Y-28649380D01*
X55450440Y-29548940D01*
X55450440Y-29548940D01*
G37*
G36*
X42050440Y-29148940D02*
X40749560Y-29148940D01*
X40749560Y-28249380D01*
X42050440Y-28249380D01*
X42050440Y-29148940D01*
X42050440Y-29148940D01*
G37*
G36*
X48277396Y-26085546D02*
X48450466Y-26157234D01*
X48606230Y-26261312D01*
X48738688Y-26393770D01*
X48842766Y-26549534D01*
X48914454Y-26722604D01*
X48951000Y-26906333D01*
X48951000Y-27093667D01*
X48914454Y-27277396D01*
X48842766Y-27450466D01*
X48738688Y-27606230D01*
X48606230Y-27738688D01*
X48450466Y-27842766D01*
X48277396Y-27914454D01*
X48093667Y-27951000D01*
X47906333Y-27951000D01*
X47722604Y-27914454D01*
X47549534Y-27842766D01*
X47393770Y-27738688D01*
X47261312Y-27606230D01*
X47157234Y-27450466D01*
X47085546Y-27277396D01*
X47049000Y-27093667D01*
X47049000Y-26906333D01*
X47085546Y-26722604D01*
X47157234Y-26549534D01*
X47261312Y-26393770D01*
X47393770Y-26261312D01*
X47549534Y-26157234D01*
X47722604Y-26085546D01*
X47906333Y-26049000D01*
X48093667Y-26049000D01*
X48277396Y-26085546D01*
X48277396Y-26085546D01*
G37*
G36*
X50777396Y-26085546D02*
X50950466Y-26157234D01*
X51106230Y-26261312D01*
X51238688Y-26393770D01*
X51342766Y-26549534D01*
X51414454Y-26722604D01*
X51451000Y-26906333D01*
X51451000Y-27093667D01*
X51414454Y-27277396D01*
X51342766Y-27450466D01*
X51238688Y-27606230D01*
X51106230Y-27738688D01*
X50950466Y-27842766D01*
X50777396Y-27914454D01*
X50593667Y-27951000D01*
X50406333Y-27951000D01*
X50222604Y-27914454D01*
X50049534Y-27842766D01*
X49893770Y-27738688D01*
X49761312Y-27606230D01*
X49657234Y-27450466D01*
X49585546Y-27277396D01*
X49549000Y-27093667D01*
X49549000Y-26906333D01*
X49585546Y-26722604D01*
X49657234Y-26549534D01*
X49761312Y-26393770D01*
X49893770Y-26261312D01*
X50049534Y-26157234D01*
X50222604Y-26085546D01*
X50406333Y-26049000D01*
X50593667Y-26049000D01*
X50777396Y-26085546D01*
X50777396Y-26085546D01*
G37*
G36*
X45777396Y-26085546D02*
X45950466Y-26157234D01*
X46106230Y-26261312D01*
X46238688Y-26393770D01*
X46342766Y-26549534D01*
X46414454Y-26722604D01*
X46451000Y-26906333D01*
X46451000Y-27093667D01*
X46414454Y-27277396D01*
X46342766Y-27450466D01*
X46238688Y-27606230D01*
X46106230Y-27738688D01*
X45950466Y-27842766D01*
X45777396Y-27914454D01*
X45593667Y-27951000D01*
X45406333Y-27951000D01*
X45222604Y-27914454D01*
X45049534Y-27842766D01*
X44893770Y-27738688D01*
X44761312Y-27606230D01*
X44657234Y-27450466D01*
X44585546Y-27277396D01*
X44549000Y-27093667D01*
X44549000Y-26906333D01*
X44585546Y-26722604D01*
X44657234Y-26549534D01*
X44761312Y-26393770D01*
X44893770Y-26261312D01*
X45049534Y-26157234D01*
X45222604Y-26085546D01*
X45406333Y-26049000D01*
X45593667Y-26049000D01*
X45777396Y-26085546D01*
X45777396Y-26085546D01*
G37*
G36*
X55450440Y-27750620D02*
X54149560Y-27750620D01*
X54149560Y-26851060D01*
X55450440Y-26851060D01*
X55450440Y-27750620D01*
X55450440Y-27750620D01*
G37*
G36*
X42050440Y-27350620D02*
X40749560Y-27350620D01*
X40749560Y-26451060D01*
X42050440Y-26451060D01*
X42050440Y-27350620D01*
X42050440Y-27350620D01*
G37*
G36*
X52998252Y-18027818D02*
X52998254Y-18027819D01*
X52998255Y-18027819D01*
X53371513Y-18182427D01*
X53371514Y-18182428D01*
X53707439Y-18406886D01*
X53993114Y-18692561D01*
X53993116Y-18692564D01*
X54217573Y-19028487D01*
X54372181Y-19401745D01*
X54451000Y-19797994D01*
X54451000Y-20202006D01*
X54372181Y-20598255D01*
X54217573Y-20971513D01*
X54217572Y-20971514D01*
X53993114Y-21307439D01*
X53707439Y-21593114D01*
X53707436Y-21593116D01*
X53371513Y-21817573D01*
X52998255Y-21972181D01*
X52998254Y-21972181D01*
X52998252Y-21972182D01*
X52602007Y-22051000D01*
X52197993Y-22051000D01*
X51801748Y-21972182D01*
X51801746Y-21972181D01*
X51801745Y-21972181D01*
X51428487Y-21817573D01*
X51092564Y-21593116D01*
X51092561Y-21593114D01*
X50806886Y-21307439D01*
X50582428Y-20971514D01*
X50582427Y-20971513D01*
X50427819Y-20598255D01*
X50349000Y-20202006D01*
X50349000Y-19797994D01*
X50427819Y-19401745D01*
X50582427Y-19028487D01*
X50806884Y-18692564D01*
X50806886Y-18692561D01*
X51092561Y-18406886D01*
X51428486Y-18182428D01*
X51428487Y-18182427D01*
X51801745Y-18027819D01*
X51801746Y-18027819D01*
X51801748Y-18027818D01*
X52197993Y-17949000D01*
X52602007Y-17949000D01*
X52998252Y-18027818D01*
X52998252Y-18027818D01*
G37*
G36*
X44198252Y-18027818D02*
X44198254Y-18027819D01*
X44198255Y-18027819D01*
X44571513Y-18182427D01*
X44571514Y-18182428D01*
X44907439Y-18406886D01*
X45193114Y-18692561D01*
X45193116Y-18692564D01*
X45417573Y-19028487D01*
X45572181Y-19401745D01*
X45651000Y-19797994D01*
X45651000Y-20202006D01*
X45572181Y-20598255D01*
X45417573Y-20971513D01*
X45417572Y-20971514D01*
X45193114Y-21307439D01*
X44907439Y-21593114D01*
X44907436Y-21593116D01*
X44571513Y-21817573D01*
X44198255Y-21972181D01*
X44198254Y-21972181D01*
X44198252Y-21972182D01*
X43802007Y-22051000D01*
X43397993Y-22051000D01*
X43001748Y-21972182D01*
X43001746Y-21972181D01*
X43001745Y-21972181D01*
X42628487Y-21817573D01*
X42292564Y-21593116D01*
X42292561Y-21593114D01*
X42006886Y-21307439D01*
X41782428Y-20971514D01*
X41782427Y-20971513D01*
X41627819Y-20598255D01*
X41549000Y-20202006D01*
X41549000Y-19797994D01*
X41627819Y-19401745D01*
X41782427Y-19028487D01*
X42006884Y-18692564D01*
X42006886Y-18692561D01*
X42292561Y-18406886D01*
X42628486Y-18182428D01*
X42628487Y-18182427D01*
X43001745Y-18027819D01*
X43001746Y-18027819D01*
X43001748Y-18027818D01*
X43397993Y-17949000D01*
X43802007Y-17949000D01*
X44198252Y-18027818D01*
X44198252Y-18027818D01*
G37*
G36*
X84650440Y-21748940D02*
X83349560Y-21748940D01*
X83349560Y-20849380D01*
X84650440Y-20849380D01*
X84650440Y-21748940D01*
X84650440Y-21748940D01*
G37*
G36*
X67450440Y-21748940D02*
X66149560Y-21748940D01*
X66149560Y-20849380D01*
X67450440Y-20849380D01*
X67450440Y-21748940D01*
X67450440Y-21748940D01*
G37*
G36*
X65050440Y-21748940D02*
X63749560Y-21748940D01*
X63749560Y-20849380D01*
X65050440Y-20849380D01*
X65050440Y-21748940D01*
X65050440Y-21748940D01*
G37*
G36*
X87050440Y-21748940D02*
X85749560Y-21748940D01*
X85749560Y-20849380D01*
X87050440Y-20849380D01*
X87050440Y-21748940D01*
X87050440Y-21748940D01*
G37*
G36*
X82050440Y-21748940D02*
X80749560Y-21748940D01*
X80749560Y-20849380D01*
X82050440Y-20849380D01*
X82050440Y-21748940D01*
X82050440Y-21748940D01*
G37*
G36*
X70050440Y-21748940D02*
X68749560Y-21748940D01*
X68749560Y-20849380D01*
X70050440Y-20849380D01*
X70050440Y-21748940D01*
X70050440Y-21748940D01*
G37*
G36*
X34050440Y-21548940D02*
X32749560Y-21548940D01*
X32749560Y-20649380D01*
X34050440Y-20649380D01*
X34050440Y-21548940D01*
X34050440Y-21548940D01*
G37*
G36*
X31250440Y-21548940D02*
X29949560Y-21548940D01*
X29949560Y-20649380D01*
X31250440Y-20649380D01*
X31250440Y-21548940D01*
X31250440Y-21548940D01*
G37*
G36*
X28650440Y-21348940D02*
X27349560Y-21348940D01*
X27349560Y-20449380D01*
X28650440Y-20449380D01*
X28650440Y-21348940D01*
X28650440Y-21348940D01*
G37*
G36*
X13450440Y-21148940D02*
X12149560Y-21148940D01*
X12149560Y-20249380D01*
X13450440Y-20249380D01*
X13450440Y-21148940D01*
X13450440Y-21148940D01*
G37*
G36*
X10850440Y-21148940D02*
X9549560Y-21148940D01*
X9549560Y-20249380D01*
X10850440Y-20249380D01*
X10850440Y-21148940D01*
X10850440Y-21148940D01*
G37*
G36*
X16250440Y-21148940D02*
X14949560Y-21148940D01*
X14949560Y-20249380D01*
X16250440Y-20249380D01*
X16250440Y-21148940D01*
X16250440Y-21148940D01*
G37*
G36*
X87050440Y-19950620D02*
X85749560Y-19950620D01*
X85749560Y-19051060D01*
X87050440Y-19051060D01*
X87050440Y-19950620D01*
X87050440Y-19950620D01*
G37*
G36*
X82050440Y-19950620D02*
X80749560Y-19950620D01*
X80749560Y-19051060D01*
X82050440Y-19051060D01*
X82050440Y-19950620D01*
X82050440Y-19950620D01*
G37*
G36*
X70050440Y-19950620D02*
X68749560Y-19950620D01*
X68749560Y-19051060D01*
X70050440Y-19051060D01*
X70050440Y-19950620D01*
X70050440Y-19950620D01*
G37*
G36*
X65050440Y-19950620D02*
X63749560Y-19950620D01*
X63749560Y-19051060D01*
X65050440Y-19051060D01*
X65050440Y-19950620D01*
X65050440Y-19950620D01*
G37*
G36*
X67450440Y-19950620D02*
X66149560Y-19950620D01*
X66149560Y-19051060D01*
X67450440Y-19051060D01*
X67450440Y-19950620D01*
X67450440Y-19950620D01*
G37*
G36*
X84650440Y-19950620D02*
X83349560Y-19950620D01*
X83349560Y-19051060D01*
X84650440Y-19051060D01*
X84650440Y-19950620D01*
X84650440Y-19950620D01*
G37*
G36*
X34050440Y-19750620D02*
X32749560Y-19750620D01*
X32749560Y-18851060D01*
X34050440Y-18851060D01*
X34050440Y-19750620D01*
X34050440Y-19750620D01*
G37*
G36*
X31250440Y-19750620D02*
X29949560Y-19750620D01*
X29949560Y-18851060D01*
X31250440Y-18851060D01*
X31250440Y-19750620D01*
X31250440Y-19750620D01*
G37*
G36*
X28650440Y-19550620D02*
X27349560Y-19550620D01*
X27349560Y-18651060D01*
X28650440Y-18651060D01*
X28650440Y-19550620D01*
X28650440Y-19550620D01*
G37*
G36*
X10850440Y-19350620D02*
X9549560Y-19350620D01*
X9549560Y-18451060D01*
X10850440Y-18451060D01*
X10850440Y-19350620D01*
X10850440Y-19350620D01*
G37*
G36*
X13450440Y-19350620D02*
X12149560Y-19350620D01*
X12149560Y-18451060D01*
X13450440Y-18451060D01*
X13450440Y-19350620D01*
X13450440Y-19350620D01*
G37*
G36*
X16250440Y-19350620D02*
X14949560Y-19350620D01*
X14949560Y-18451060D01*
X16250440Y-18451060D01*
X16250440Y-19350620D01*
X16250440Y-19350620D01*
G37*
G36*
X33577396Y-15085546D02*
X33750466Y-15157234D01*
X33906230Y-15261312D01*
X34038688Y-15393770D01*
X34142766Y-15549534D01*
X34214454Y-15722604D01*
X34251000Y-15906333D01*
X34251000Y-16093667D01*
X34214454Y-16277396D01*
X34142766Y-16450466D01*
X34038688Y-16606230D01*
X33906230Y-16738688D01*
X33750466Y-16842766D01*
X33577396Y-16914454D01*
X33393667Y-16951000D01*
X33206333Y-16951000D01*
X33022604Y-16914454D01*
X32849534Y-16842766D01*
X32693770Y-16738688D01*
X32561312Y-16606230D01*
X32457234Y-16450466D01*
X32385546Y-16277396D01*
X32349000Y-16093667D01*
X32349000Y-15906333D01*
X32385546Y-15722604D01*
X32457234Y-15549534D01*
X32561312Y-15393770D01*
X32693770Y-15261312D01*
X32849534Y-15157234D01*
X33022604Y-15085546D01*
X33206333Y-15049000D01*
X33393667Y-15049000D01*
X33577396Y-15085546D01*
X33577396Y-15085546D01*
G37*
G36*
X81577396Y-15085546D02*
X81750466Y-15157234D01*
X81906230Y-15261312D01*
X82038688Y-15393770D01*
X82142766Y-15549534D01*
X82214454Y-15722604D01*
X82251000Y-15906333D01*
X82251000Y-16093667D01*
X82214454Y-16277396D01*
X82142766Y-16450466D01*
X82038688Y-16606230D01*
X81906230Y-16738688D01*
X81750466Y-16842766D01*
X81577396Y-16914454D01*
X81393667Y-16951000D01*
X81206333Y-16951000D01*
X81022604Y-16914454D01*
X80849534Y-16842766D01*
X80693770Y-16738688D01*
X80561312Y-16606230D01*
X80457234Y-16450466D01*
X80385546Y-16277396D01*
X80349000Y-16093667D01*
X80349000Y-15906333D01*
X80385546Y-15722604D01*
X80457234Y-15549534D01*
X80561312Y-15393770D01*
X80693770Y-15261312D01*
X80849534Y-15157234D01*
X81022604Y-15085546D01*
X81206333Y-15049000D01*
X81393667Y-15049000D01*
X81577396Y-15085546D01*
X81577396Y-15085546D01*
G37*
G36*
X84077396Y-15085546D02*
X84250466Y-15157234D01*
X84406230Y-15261312D01*
X84538688Y-15393770D01*
X84642766Y-15549534D01*
X84714454Y-15722604D01*
X84751000Y-15906333D01*
X84751000Y-16093667D01*
X84714454Y-16277396D01*
X84642766Y-16450466D01*
X84538688Y-16606230D01*
X84406230Y-16738688D01*
X84250466Y-16842766D01*
X84077396Y-16914454D01*
X83893667Y-16951000D01*
X83706333Y-16951000D01*
X83522604Y-16914454D01*
X83349534Y-16842766D01*
X83193770Y-16738688D01*
X83061312Y-16606230D01*
X82957234Y-16450466D01*
X82885546Y-16277396D01*
X82849000Y-16093667D01*
X82849000Y-15906333D01*
X82885546Y-15722604D01*
X82957234Y-15549534D01*
X83061312Y-15393770D01*
X83193770Y-15261312D01*
X83349534Y-15157234D01*
X83522604Y-15085546D01*
X83706333Y-15049000D01*
X83893667Y-15049000D01*
X84077396Y-15085546D01*
X84077396Y-15085546D01*
G37*
G36*
X86577396Y-15085546D02*
X86750466Y-15157234D01*
X86906230Y-15261312D01*
X87038688Y-15393770D01*
X87142766Y-15549534D01*
X87214454Y-15722604D01*
X87251000Y-15906333D01*
X87251000Y-16093667D01*
X87214454Y-16277396D01*
X87142766Y-16450466D01*
X87038688Y-16606230D01*
X86906230Y-16738688D01*
X86750466Y-16842766D01*
X86577396Y-16914454D01*
X86393667Y-16951000D01*
X86206333Y-16951000D01*
X86022604Y-16914454D01*
X85849534Y-16842766D01*
X85693770Y-16738688D01*
X85561312Y-16606230D01*
X85457234Y-16450466D01*
X85385546Y-16277396D01*
X85349000Y-16093667D01*
X85349000Y-15906333D01*
X85385546Y-15722604D01*
X85457234Y-15549534D01*
X85561312Y-15393770D01*
X85693770Y-15261312D01*
X85849534Y-15157234D01*
X86022604Y-15085546D01*
X86206333Y-15049000D01*
X86393667Y-15049000D01*
X86577396Y-15085546D01*
X86577396Y-15085546D01*
G37*
G36*
X64577396Y-15085546D02*
X64750466Y-15157234D01*
X64906230Y-15261312D01*
X65038688Y-15393770D01*
X65142766Y-15549534D01*
X65214454Y-15722604D01*
X65251000Y-15906333D01*
X65251000Y-16093667D01*
X65214454Y-16277396D01*
X65142766Y-16450466D01*
X65038688Y-16606230D01*
X64906230Y-16738688D01*
X64750466Y-16842766D01*
X64577396Y-16914454D01*
X64393667Y-16951000D01*
X64206333Y-16951000D01*
X64022604Y-16914454D01*
X63849534Y-16842766D01*
X63693770Y-16738688D01*
X63561312Y-16606230D01*
X63457234Y-16450466D01*
X63385546Y-16277396D01*
X63349000Y-16093667D01*
X63349000Y-15906333D01*
X63385546Y-15722604D01*
X63457234Y-15549534D01*
X63561312Y-15393770D01*
X63693770Y-15261312D01*
X63849534Y-15157234D01*
X64022604Y-15085546D01*
X64206333Y-15049000D01*
X64393667Y-15049000D01*
X64577396Y-15085546D01*
X64577396Y-15085546D01*
G37*
G36*
X67077396Y-15085546D02*
X67250466Y-15157234D01*
X67406230Y-15261312D01*
X67538688Y-15393770D01*
X67642766Y-15549534D01*
X67714454Y-15722604D01*
X67751000Y-15906333D01*
X67751000Y-16093667D01*
X67714454Y-16277396D01*
X67642766Y-16450466D01*
X67538688Y-16606230D01*
X67406230Y-16738688D01*
X67250466Y-16842766D01*
X67077396Y-16914454D01*
X66893667Y-16951000D01*
X66706333Y-16951000D01*
X66522604Y-16914454D01*
X66349534Y-16842766D01*
X66193770Y-16738688D01*
X66061312Y-16606230D01*
X65957234Y-16450466D01*
X65885546Y-16277396D01*
X65849000Y-16093667D01*
X65849000Y-15906333D01*
X65885546Y-15722604D01*
X65957234Y-15549534D01*
X66061312Y-15393770D01*
X66193770Y-15261312D01*
X66349534Y-15157234D01*
X66522604Y-15085546D01*
X66706333Y-15049000D01*
X66893667Y-15049000D01*
X67077396Y-15085546D01*
X67077396Y-15085546D01*
G37*
G36*
X69577396Y-15085546D02*
X69750466Y-15157234D01*
X69906230Y-15261312D01*
X70038688Y-15393770D01*
X70142766Y-15549534D01*
X70214454Y-15722604D01*
X70251000Y-15906333D01*
X70251000Y-16093667D01*
X70214454Y-16277396D01*
X70142766Y-16450466D01*
X70038688Y-16606230D01*
X69906230Y-16738688D01*
X69750466Y-16842766D01*
X69577396Y-16914454D01*
X69393667Y-16951000D01*
X69206333Y-16951000D01*
X69022604Y-16914454D01*
X68849534Y-16842766D01*
X68693770Y-16738688D01*
X68561312Y-16606230D01*
X68457234Y-16450466D01*
X68385546Y-16277396D01*
X68349000Y-16093667D01*
X68349000Y-15906333D01*
X68385546Y-15722604D01*
X68457234Y-15549534D01*
X68561312Y-15393770D01*
X68693770Y-15261312D01*
X68849534Y-15157234D01*
X69022604Y-15085546D01*
X69206333Y-15049000D01*
X69393667Y-15049000D01*
X69577396Y-15085546D01*
X69577396Y-15085546D01*
G37*
G36*
X31077396Y-15085546D02*
X31250466Y-15157234D01*
X31406230Y-15261312D01*
X31538688Y-15393770D01*
X31642766Y-15549534D01*
X31714454Y-15722604D01*
X31751000Y-15906333D01*
X31751000Y-16093667D01*
X31714454Y-16277396D01*
X31642766Y-16450466D01*
X31538688Y-16606230D01*
X31406230Y-16738688D01*
X31250466Y-16842766D01*
X31077396Y-16914454D01*
X30893667Y-16951000D01*
X30706333Y-16951000D01*
X30522604Y-16914454D01*
X30349534Y-16842766D01*
X30193770Y-16738688D01*
X30061312Y-16606230D01*
X29957234Y-16450466D01*
X29885546Y-16277396D01*
X29849000Y-16093667D01*
X29849000Y-15906333D01*
X29885546Y-15722604D01*
X29957234Y-15549534D01*
X30061312Y-15393770D01*
X30193770Y-15261312D01*
X30349534Y-15157234D01*
X30522604Y-15085546D01*
X30706333Y-15049000D01*
X30893667Y-15049000D01*
X31077396Y-15085546D01*
X31077396Y-15085546D01*
G37*
G36*
X15577396Y-15085546D02*
X15750466Y-15157234D01*
X15906230Y-15261312D01*
X16038688Y-15393770D01*
X16142766Y-15549534D01*
X16214454Y-15722604D01*
X16251000Y-15906333D01*
X16251000Y-16093667D01*
X16214454Y-16277396D01*
X16142766Y-16450466D01*
X16038688Y-16606230D01*
X15906230Y-16738688D01*
X15750466Y-16842766D01*
X15577396Y-16914454D01*
X15393667Y-16951000D01*
X15206333Y-16951000D01*
X15022604Y-16914454D01*
X14849534Y-16842766D01*
X14693770Y-16738688D01*
X14561312Y-16606230D01*
X14457234Y-16450466D01*
X14385546Y-16277396D01*
X14349000Y-16093667D01*
X14349000Y-15906333D01*
X14385546Y-15722604D01*
X14457234Y-15549534D01*
X14561312Y-15393770D01*
X14693770Y-15261312D01*
X14849534Y-15157234D01*
X15022604Y-15085546D01*
X15206333Y-15049000D01*
X15393667Y-15049000D01*
X15577396Y-15085546D01*
X15577396Y-15085546D01*
G37*
G36*
X13077396Y-15085546D02*
X13250466Y-15157234D01*
X13406230Y-15261312D01*
X13538688Y-15393770D01*
X13642766Y-15549534D01*
X13714454Y-15722604D01*
X13751000Y-15906333D01*
X13751000Y-16093667D01*
X13714454Y-16277396D01*
X13642766Y-16450466D01*
X13538688Y-16606230D01*
X13406230Y-16738688D01*
X13250466Y-16842766D01*
X13077396Y-16914454D01*
X12893667Y-16951000D01*
X12706333Y-16951000D01*
X12522604Y-16914454D01*
X12349534Y-16842766D01*
X12193770Y-16738688D01*
X12061312Y-16606230D01*
X11957234Y-16450466D01*
X11885546Y-16277396D01*
X11849000Y-16093667D01*
X11849000Y-15906333D01*
X11885546Y-15722604D01*
X11957234Y-15549534D01*
X12061312Y-15393770D01*
X12193770Y-15261312D01*
X12349534Y-15157234D01*
X12522604Y-15085546D01*
X12706333Y-15049000D01*
X12893667Y-15049000D01*
X13077396Y-15085546D01*
X13077396Y-15085546D01*
G37*
G36*
X28577396Y-15085546D02*
X28750466Y-15157234D01*
X28906230Y-15261312D01*
X29038688Y-15393770D01*
X29142766Y-15549534D01*
X29214454Y-15722604D01*
X29251000Y-15906333D01*
X29251000Y-16093667D01*
X29214454Y-16277396D01*
X29142766Y-16450466D01*
X29038688Y-16606230D01*
X28906230Y-16738688D01*
X28750466Y-16842766D01*
X28577396Y-16914454D01*
X28393667Y-16951000D01*
X28206333Y-16951000D01*
X28022604Y-16914454D01*
X27849534Y-16842766D01*
X27693770Y-16738688D01*
X27561312Y-16606230D01*
X27457234Y-16450466D01*
X27385546Y-16277396D01*
X27349000Y-16093667D01*
X27349000Y-15906333D01*
X27385546Y-15722604D01*
X27457234Y-15549534D01*
X27561312Y-15393770D01*
X27693770Y-15261312D01*
X27849534Y-15157234D01*
X28022604Y-15085546D01*
X28206333Y-15049000D01*
X28393667Y-15049000D01*
X28577396Y-15085546D01*
X28577396Y-15085546D01*
G37*
G36*
X10577396Y-15085546D02*
X10750466Y-15157234D01*
X10906230Y-15261312D01*
X11038688Y-15393770D01*
X11142766Y-15549534D01*
X11214454Y-15722604D01*
X11251000Y-15906333D01*
X11251000Y-16093667D01*
X11214454Y-16277396D01*
X11142766Y-16450466D01*
X11038688Y-16606230D01*
X10906230Y-16738688D01*
X10750466Y-16842766D01*
X10577396Y-16914454D01*
X10393667Y-16951000D01*
X10206333Y-16951000D01*
X10022604Y-16914454D01*
X9849534Y-16842766D01*
X9693770Y-16738688D01*
X9561312Y-16606230D01*
X9457234Y-16450466D01*
X9385546Y-16277396D01*
X9349000Y-16093667D01*
X9349000Y-15906333D01*
X9385546Y-15722604D01*
X9457234Y-15549534D01*
X9561312Y-15393770D01*
X9693770Y-15261312D01*
X9849534Y-15157234D01*
X10022604Y-15085546D01*
X10206333Y-15049000D01*
X10393667Y-15049000D01*
X10577396Y-15085546D01*
X10577396Y-15085546D01*
G37*
G36*
X79998252Y-7027818D02*
X79998254Y-7027819D01*
X79998255Y-7027819D01*
X80371513Y-7182427D01*
X80371514Y-7182428D01*
X80707439Y-7406886D01*
X80993114Y-7692561D01*
X80993116Y-7692564D01*
X81217573Y-8028487D01*
X81372181Y-8401745D01*
X81451000Y-8797994D01*
X81451000Y-9202006D01*
X81372181Y-9598255D01*
X81217573Y-9971513D01*
X81217572Y-9971514D01*
X80993114Y-10307439D01*
X80707439Y-10593114D01*
X80707436Y-10593116D01*
X80371513Y-10817573D01*
X79998255Y-10972181D01*
X79998254Y-10972181D01*
X79998252Y-10972182D01*
X79602007Y-11051000D01*
X79197993Y-11051000D01*
X78801748Y-10972182D01*
X78801746Y-10972181D01*
X78801745Y-10972181D01*
X78428487Y-10817573D01*
X78092564Y-10593116D01*
X78092561Y-10593114D01*
X77806886Y-10307439D01*
X77582428Y-9971514D01*
X77582427Y-9971513D01*
X77427819Y-9598255D01*
X77349000Y-9202006D01*
X77349000Y-8797994D01*
X77427819Y-8401745D01*
X77582427Y-8028487D01*
X77806884Y-7692564D01*
X77806886Y-7692561D01*
X78092561Y-7406886D01*
X78428486Y-7182428D01*
X78428487Y-7182427D01*
X78801745Y-7027819D01*
X78801746Y-7027819D01*
X78801748Y-7027818D01*
X79197993Y-6949000D01*
X79602007Y-6949000D01*
X79998252Y-7027818D01*
X79998252Y-7027818D01*
G37*
G36*
X26998252Y-7027818D02*
X26998254Y-7027819D01*
X26998255Y-7027819D01*
X27371513Y-7182427D01*
X27371514Y-7182428D01*
X27707439Y-7406886D01*
X27993114Y-7692561D01*
X27993116Y-7692564D01*
X28217573Y-8028487D01*
X28372181Y-8401745D01*
X28451000Y-8797994D01*
X28451000Y-9202006D01*
X28372181Y-9598255D01*
X28217573Y-9971513D01*
X28217572Y-9971514D01*
X27993114Y-10307439D01*
X27707439Y-10593114D01*
X27707436Y-10593116D01*
X27371513Y-10817573D01*
X26998255Y-10972181D01*
X26998254Y-10972181D01*
X26998252Y-10972182D01*
X26602007Y-11051000D01*
X26197993Y-11051000D01*
X25801748Y-10972182D01*
X25801746Y-10972181D01*
X25801745Y-10972181D01*
X25428487Y-10817573D01*
X25092564Y-10593116D01*
X25092561Y-10593114D01*
X24806886Y-10307439D01*
X24582428Y-9971514D01*
X24582427Y-9971513D01*
X24427819Y-9598255D01*
X24349000Y-9202006D01*
X24349000Y-8797994D01*
X24427819Y-8401745D01*
X24582427Y-8028487D01*
X24806884Y-7692564D01*
X24806886Y-7692561D01*
X25092561Y-7406886D01*
X25428486Y-7182428D01*
X25428487Y-7182427D01*
X25801745Y-7027819D01*
X25801746Y-7027819D01*
X25801748Y-7027818D01*
X26197993Y-6949000D01*
X26602007Y-6949000D01*
X26998252Y-7027818D01*
X26998252Y-7027818D01*
G37*
G36*
X35798252Y-7027818D02*
X35798254Y-7027819D01*
X35798255Y-7027819D01*
X36171513Y-7182427D01*
X36171514Y-7182428D01*
X36507439Y-7406886D01*
X36793114Y-7692561D01*
X36793116Y-7692564D01*
X37017573Y-8028487D01*
X37172181Y-8401745D01*
X37251000Y-8797994D01*
X37251000Y-9202006D01*
X37172181Y-9598255D01*
X37017573Y-9971513D01*
X37017572Y-9971514D01*
X36793114Y-10307439D01*
X36507439Y-10593114D01*
X36507436Y-10593116D01*
X36171513Y-10817573D01*
X35798255Y-10972181D01*
X35798254Y-10972181D01*
X35798252Y-10972182D01*
X35402007Y-11051000D01*
X34997993Y-11051000D01*
X34601748Y-10972182D01*
X34601746Y-10972181D01*
X34601745Y-10972181D01*
X34228487Y-10817573D01*
X33892564Y-10593116D01*
X33892561Y-10593114D01*
X33606886Y-10307439D01*
X33382428Y-9971514D01*
X33382427Y-9971513D01*
X33227819Y-9598255D01*
X33149000Y-9202006D01*
X33149000Y-8797994D01*
X33227819Y-8401745D01*
X33382427Y-8028487D01*
X33606884Y-7692564D01*
X33606886Y-7692561D01*
X33892561Y-7406886D01*
X34228486Y-7182428D01*
X34228487Y-7182427D01*
X34601745Y-7027819D01*
X34601746Y-7027819D01*
X34601748Y-7027818D01*
X34997993Y-6949000D01*
X35402007Y-6949000D01*
X35798252Y-7027818D01*
X35798252Y-7027818D01*
G37*
G36*
X71798252Y-7027818D02*
X71798254Y-7027819D01*
X71798255Y-7027819D01*
X72171513Y-7182427D01*
X72171514Y-7182428D01*
X72507439Y-7406886D01*
X72793114Y-7692561D01*
X72793116Y-7692564D01*
X73017573Y-8028487D01*
X73172181Y-8401745D01*
X73251000Y-8797994D01*
X73251000Y-9202006D01*
X73172181Y-9598255D01*
X73017573Y-9971513D01*
X73017572Y-9971514D01*
X72793114Y-10307439D01*
X72507439Y-10593114D01*
X72507436Y-10593116D01*
X72171513Y-10817573D01*
X71798255Y-10972181D01*
X71798254Y-10972181D01*
X71798252Y-10972182D01*
X71402007Y-11051000D01*
X70997993Y-11051000D01*
X70601748Y-10972182D01*
X70601746Y-10972181D01*
X70601745Y-10972181D01*
X70228487Y-10817573D01*
X69892564Y-10593116D01*
X69892561Y-10593114D01*
X69606886Y-10307439D01*
X69382428Y-9971514D01*
X69382427Y-9971513D01*
X69227819Y-9598255D01*
X69149000Y-9202006D01*
X69149000Y-8797994D01*
X69227819Y-8401745D01*
X69382427Y-8028487D01*
X69606884Y-7692564D01*
X69606886Y-7692561D01*
X69892561Y-7406886D01*
X70228486Y-7182428D01*
X70228487Y-7182427D01*
X70601745Y-7027819D01*
X70601746Y-7027819D01*
X70601748Y-7027818D01*
X70997993Y-6949000D01*
X71402007Y-6949000D01*
X71798252Y-7027818D01*
X71798252Y-7027818D01*
G37*
G36*
X62998252Y-7027818D02*
X62998254Y-7027819D01*
X62998255Y-7027819D01*
X63371513Y-7182427D01*
X63371514Y-7182428D01*
X63707439Y-7406886D01*
X63993114Y-7692561D01*
X63993116Y-7692564D01*
X64217573Y-8028487D01*
X64372181Y-8401745D01*
X64451000Y-8797994D01*
X64451000Y-9202006D01*
X64372181Y-9598255D01*
X64217573Y-9971513D01*
X64217572Y-9971514D01*
X63993114Y-10307439D01*
X63707439Y-10593114D01*
X63707436Y-10593116D01*
X63371513Y-10817573D01*
X62998255Y-10972181D01*
X62998254Y-10972181D01*
X62998252Y-10972182D01*
X62602007Y-11051000D01*
X62197993Y-11051000D01*
X61801748Y-10972182D01*
X61801746Y-10972181D01*
X61801745Y-10972181D01*
X61428487Y-10817573D01*
X61092564Y-10593116D01*
X61092561Y-10593114D01*
X60806886Y-10307439D01*
X60582428Y-9971514D01*
X60582427Y-9971513D01*
X60427819Y-9598255D01*
X60349000Y-9202006D01*
X60349000Y-8797994D01*
X60427819Y-8401745D01*
X60582427Y-8028487D01*
X60806884Y-7692564D01*
X60806886Y-7692561D01*
X61092561Y-7406886D01*
X61428486Y-7182428D01*
X61428487Y-7182427D01*
X61801745Y-7027819D01*
X61801746Y-7027819D01*
X61801748Y-7027818D01*
X62197993Y-6949000D01*
X62602007Y-6949000D01*
X62998252Y-7027818D01*
X62998252Y-7027818D01*
G37*
G36*
X17798252Y-7027818D02*
X17798254Y-7027819D01*
X17798255Y-7027819D01*
X18171513Y-7182427D01*
X18171514Y-7182428D01*
X18507439Y-7406886D01*
X18793114Y-7692561D01*
X18793116Y-7692564D01*
X19017573Y-8028487D01*
X19172181Y-8401745D01*
X19251000Y-8797994D01*
X19251000Y-9202006D01*
X19172181Y-9598255D01*
X19017573Y-9971513D01*
X19017572Y-9971514D01*
X18793114Y-10307439D01*
X18507439Y-10593114D01*
X18507436Y-10593116D01*
X18171513Y-10817573D01*
X17798255Y-10972181D01*
X17798254Y-10972181D01*
X17798252Y-10972182D01*
X17402007Y-11051000D01*
X16997993Y-11051000D01*
X16601748Y-10972182D01*
X16601746Y-10972181D01*
X16601745Y-10972181D01*
X16228487Y-10817573D01*
X15892564Y-10593116D01*
X15892561Y-10593114D01*
X15606886Y-10307439D01*
X15382428Y-9971514D01*
X15382427Y-9971513D01*
X15227819Y-9598255D01*
X15149000Y-9202006D01*
X15149000Y-8797994D01*
X15227819Y-8401745D01*
X15382427Y-8028487D01*
X15606884Y-7692564D01*
X15606886Y-7692561D01*
X15892561Y-7406886D01*
X16228486Y-7182428D01*
X16228487Y-7182427D01*
X16601745Y-7027819D01*
X16601746Y-7027819D01*
X16601748Y-7027818D01*
X16997993Y-6949000D01*
X17402007Y-6949000D01*
X17798252Y-7027818D01*
X17798252Y-7027818D01*
G37*
G36*
X8998252Y-7027818D02*
X8998254Y-7027819D01*
X8998255Y-7027819D01*
X9371513Y-7182427D01*
X9371514Y-7182428D01*
X9707439Y-7406886D01*
X9993114Y-7692561D01*
X9993116Y-7692564D01*
X10217573Y-8028487D01*
X10372181Y-8401745D01*
X10451000Y-8797994D01*
X10451000Y-9202006D01*
X10372181Y-9598255D01*
X10217573Y-9971513D01*
X10217572Y-9971514D01*
X9993114Y-10307439D01*
X9707439Y-10593114D01*
X9707436Y-10593116D01*
X9371513Y-10817573D01*
X8998255Y-10972181D01*
X8998254Y-10972181D01*
X8998252Y-10972182D01*
X8602007Y-11051000D01*
X8197993Y-11051000D01*
X7801748Y-10972182D01*
X7801746Y-10972181D01*
X7801745Y-10972181D01*
X7428487Y-10817573D01*
X7092564Y-10593116D01*
X7092561Y-10593114D01*
X6806886Y-10307439D01*
X6582428Y-9971514D01*
X6582427Y-9971513D01*
X6427819Y-9598255D01*
X6349000Y-9202006D01*
X6349000Y-8797994D01*
X6427819Y-8401745D01*
X6582427Y-8028487D01*
X6806884Y-7692564D01*
X6806886Y-7692561D01*
X7092561Y-7406886D01*
X7428486Y-7182428D01*
X7428487Y-7182427D01*
X7801745Y-7027819D01*
X7801746Y-7027819D01*
X7801748Y-7027818D01*
X8197993Y-6949000D01*
X8602007Y-6949000D01*
X8998252Y-7027818D01*
X8998252Y-7027818D01*
G37*
G36*
X88798252Y-7027818D02*
X88798254Y-7027819D01*
X88798255Y-7027819D01*
X89171513Y-7182427D01*
X89171514Y-7182428D01*
X89507439Y-7406886D01*
X89793114Y-7692561D01*
X89793116Y-7692564D01*
X90017573Y-8028487D01*
X90172181Y-8401745D01*
X90251000Y-8797994D01*
X90251000Y-9202006D01*
X90172181Y-9598255D01*
X90017573Y-9971513D01*
X90017572Y-9971514D01*
X89793114Y-10307439D01*
X89507439Y-10593114D01*
X89507436Y-10593116D01*
X89171513Y-10817573D01*
X88798255Y-10972181D01*
X88798254Y-10972181D01*
X88798252Y-10972182D01*
X88402007Y-11051000D01*
X87997993Y-11051000D01*
X87601748Y-10972182D01*
X87601746Y-10972181D01*
X87601745Y-10972181D01*
X87228487Y-10817573D01*
X86892564Y-10593116D01*
X86892561Y-10593114D01*
X86606886Y-10307439D01*
X86382428Y-9971514D01*
X86382427Y-9971513D01*
X86227819Y-9598255D01*
X86149000Y-9202006D01*
X86149000Y-8797994D01*
X86227819Y-8401745D01*
X86382427Y-8028487D01*
X86606884Y-7692564D01*
X86606886Y-7692561D01*
X86892561Y-7406886D01*
X87228486Y-7182428D01*
X87228487Y-7182427D01*
X87601745Y-7027819D01*
X87601746Y-7027819D01*
X87601748Y-7027818D01*
X87997993Y-6949000D01*
X88402007Y-6949000D01*
X88798252Y-7027818D01*
X88798252Y-7027818D01*
G37*
M02*
