G04 #@! TF.GenerationSoftware,KiCad,Pcbnew,5.0.2-bee76a0~70~ubuntu18.04.1*
G04 #@! TF.CreationDate,2019-12-02T21:24:14-05:00*
G04 #@! TF.ProjectId,control,636f6e74-726f-46c2-9e6b-696361645f70,rev?*
G04 #@! TF.SameCoordinates,Original*
G04 #@! TF.FileFunction,Paste,Top*
G04 #@! TF.FilePolarity,Positive*
%FSLAX46Y46*%
G04 Gerber Fmt 4.6, Leading zero omitted, Abs format (unit mm)*
G04 Created by KiCad (PCBNEW 5.0.2-bee76a0~70~ubuntu18.04.1) date Mon 02 Dec 2019 09:24:14 PM EST*
%MOMM*%
%LPD*%
G01*
G04 APERTURE LIST*
%ADD10R,1.198880X0.797560*%
%ADD11C,1.879600*%
%ADD12R,0.797560X1.198880*%
G04 APERTURE END LIST*
D10*
G04 #@! TO.C,C1*
X12800000Y-18900840D03*
X12800000Y-20699160D03*
G04 #@! TD*
G04 #@! TO.C,C2*
X25800000Y-65099160D03*
X25800000Y-63300840D03*
G04 #@! TD*
G04 #@! TO.C,C3*
X66800000Y-19500840D03*
X66800000Y-21299160D03*
G04 #@! TD*
G04 #@! TO.C,C4*
X30600000Y-21099160D03*
X30600000Y-19300840D03*
G04 #@! TD*
G04 #@! TO.C,C5*
X41800000Y-63500840D03*
X41800000Y-65299160D03*
G04 #@! TD*
G04 #@! TO.C,C6*
X84000000Y-21299160D03*
X84000000Y-19500840D03*
G04 #@! TD*
G04 #@! TO.C,C7*
X12800000Y-40100840D03*
X12800000Y-41899160D03*
G04 #@! TD*
G04 #@! TO.C,C8*
X57800000Y-65699160D03*
X57800000Y-63900840D03*
G04 #@! TD*
G04 #@! TO.C,C9*
X66800000Y-42299160D03*
X66800000Y-40500840D03*
G04 #@! TD*
G04 #@! TO.C,C10*
X30800000Y-42099160D03*
X30800000Y-40300840D03*
G04 #@! TD*
G04 #@! TO.C,C11*
X73800000Y-65299160D03*
X73800000Y-63500840D03*
G04 #@! TD*
G04 #@! TO.C,C12*
X84000000Y-40700840D03*
X84000000Y-42499160D03*
G04 #@! TD*
D11*
G04 #@! TO.C,J1*
X7800000Y-87000000D03*
X5260000Y-87000000D03*
X7800000Y-84460000D03*
X5260000Y-84460000D03*
X7800000Y-81920000D03*
X5260000Y-81920000D03*
X7800000Y-79380000D03*
X5260000Y-79380000D03*
X7800000Y-76840000D03*
X5260000Y-76840000D03*
X7800000Y-74300000D03*
X5260000Y-74300000D03*
X7800000Y-71760000D03*
X5260000Y-71760000D03*
X7800000Y-69220000D03*
X5260000Y-69220000D03*
X7800000Y-66680000D03*
X5260000Y-66680000D03*
X7800000Y-64140000D03*
X5260000Y-64140000D03*
X7800000Y-61600000D03*
X5260000Y-61600000D03*
X7800000Y-59060000D03*
X5260000Y-59060000D03*
G04 #@! TD*
D12*
G04 #@! TO.C,R1*
X27100840Y-72800000D03*
X28899160Y-72800000D03*
G04 #@! TD*
D10*
G04 #@! TO.C,R2*
X23600000Y-90200000D03*
X23600000Y-88401680D03*
G04 #@! TD*
D12*
G04 #@! TO.C,R3*
X43699160Y-72800000D03*
X41900840Y-72800000D03*
G04 #@! TD*
D10*
G04 #@! TO.C,R4*
X38200000Y-88001680D03*
X38200000Y-89800000D03*
G04 #@! TD*
D12*
G04 #@! TO.C,R5*
X53300840Y-73000000D03*
X55099160Y-73000000D03*
G04 #@! TD*
D10*
G04 #@! TO.C,R6*
X50600000Y-90400000D03*
X50600000Y-88601680D03*
G04 #@! TD*
D12*
G04 #@! TO.C,R7*
X66400000Y-73000000D03*
X64601680Y-73000000D03*
G04 #@! TD*
D10*
G04 #@! TO.C,R8*
X63200000Y-88201680D03*
X63200000Y-90000000D03*
G04 #@! TD*
G04 #@! TO.C,R9*
X15600000Y-20699160D03*
X15600000Y-18900840D03*
G04 #@! TD*
G04 #@! TO.C,R10*
X10200000Y-20699160D03*
X10200000Y-18900840D03*
G04 #@! TD*
G04 #@! TO.C,R11*
X28400000Y-65099160D03*
X28400000Y-63300840D03*
G04 #@! TD*
G04 #@! TO.C,R12*
X23200000Y-65099160D03*
X23200000Y-63300840D03*
G04 #@! TD*
G04 #@! TO.C,R13*
X69400000Y-21299160D03*
X69400000Y-19500840D03*
G04 #@! TD*
G04 #@! TO.C,R14*
X64400000Y-19500840D03*
X64400000Y-21299160D03*
G04 #@! TD*
G04 #@! TO.C,R15*
X33400000Y-19300840D03*
X33400000Y-21099160D03*
G04 #@! TD*
G04 #@! TO.C,R16*
X28000000Y-19100840D03*
X28000000Y-20899160D03*
G04 #@! TD*
G04 #@! TO.C,R17*
X44600000Y-63700840D03*
X44600000Y-65499160D03*
G04 #@! TD*
G04 #@! TO.C,R18*
X39000000Y-63500840D03*
X39000000Y-65299160D03*
G04 #@! TD*
G04 #@! TO.C,R19*
X86400000Y-19500840D03*
X86400000Y-21299160D03*
G04 #@! TD*
G04 #@! TO.C,R20*
X81400000Y-19500840D03*
X81400000Y-21299160D03*
G04 #@! TD*
G04 #@! TO.C,R21*
X15200000Y-40100840D03*
X15200000Y-41899160D03*
G04 #@! TD*
G04 #@! TO.C,R22*
X10200000Y-42099160D03*
X10200000Y-40300840D03*
G04 #@! TD*
G04 #@! TO.C,R23*
X60400000Y-65699160D03*
X60400000Y-63900840D03*
G04 #@! TD*
G04 #@! TO.C,R24*
X55200000Y-65699160D03*
X55200000Y-63900840D03*
G04 #@! TD*
G04 #@! TO.C,R25*
X69200000Y-42299160D03*
X69200000Y-40500840D03*
G04 #@! TD*
G04 #@! TO.C,R26*
X64200000Y-42299160D03*
X64200000Y-40500840D03*
G04 #@! TD*
G04 #@! TO.C,R27*
X33400000Y-40300840D03*
X33400000Y-42099160D03*
G04 #@! TD*
G04 #@! TO.C,R28*
X28200000Y-40300840D03*
X28200000Y-42099160D03*
G04 #@! TD*
G04 #@! TO.C,R29*
X76400000Y-65299160D03*
X76400000Y-63500840D03*
G04 #@! TD*
G04 #@! TO.C,R30*
X71200000Y-63500840D03*
X71200000Y-65299160D03*
G04 #@! TD*
G04 #@! TO.C,R31*
X86600000Y-42499160D03*
X86600000Y-40700840D03*
G04 #@! TD*
G04 #@! TO.C,R32*
X81400000Y-42499160D03*
X81400000Y-40700840D03*
G04 #@! TD*
D11*
G04 #@! TO.C,S1*
X34051200Y-81260600D03*
X27548800Y-81260600D03*
X34051200Y-76739400D03*
X27548800Y-76739400D03*
G04 #@! TD*
G04 #@! TO.C,S2*
X27548800Y-86739400D03*
X34051200Y-86739400D03*
X27548800Y-91260600D03*
X34051200Y-91260600D03*
G04 #@! TD*
G04 #@! TO.C,S3*
X40548800Y-76739400D03*
X47051200Y-76739400D03*
X40548800Y-81260600D03*
X47051200Y-81260600D03*
G04 #@! TD*
G04 #@! TO.C,S4*
X47051200Y-91260600D03*
X40548800Y-91260600D03*
X47051200Y-86739400D03*
X40548800Y-86739400D03*
G04 #@! TD*
G04 #@! TO.C,S5*
X60051200Y-81260600D03*
X53548800Y-81260600D03*
X60051200Y-76739400D03*
X53548800Y-76739400D03*
G04 #@! TD*
G04 #@! TO.C,S6*
X53548800Y-86739400D03*
X60051200Y-86739400D03*
X53548800Y-91260600D03*
X60051200Y-91260600D03*
G04 #@! TD*
G04 #@! TO.C,S7*
X65548800Y-76739400D03*
X72051200Y-76739400D03*
X65548800Y-81260600D03*
X72051200Y-81260600D03*
G04 #@! TD*
G04 #@! TO.C,S8*
X72051200Y-91260600D03*
X65548800Y-91260600D03*
X72051200Y-86739400D03*
X65548800Y-86739400D03*
G04 #@! TD*
D10*
G04 #@! TO.C,R33*
X54800000Y-27300840D03*
X54800000Y-29099160D03*
G04 #@! TD*
G04 #@! TO.C,R34*
X41400000Y-26900840D03*
X41400000Y-28699160D03*
G04 #@! TD*
D12*
G04 #@! TO.C,R35*
X55499160Y-44200000D03*
X53700840Y-44200000D03*
G04 #@! TD*
G04 #@! TO.C,R36*
X38601680Y-44200000D03*
X40400000Y-44200000D03*
G04 #@! TD*
M02*
