G04 #@! TF.GenerationSoftware,KiCad,Pcbnew,5.0.2-bee76a0~70~ubuntu18.04.1*
G04 #@! TF.CreationDate,2019-12-02T21:24:14-05:00*
G04 #@! TF.ProjectId,control,636f6e74-726f-46c2-9e6b-696361645f70,rev?*
G04 #@! TF.SameCoordinates,Original*
G04 #@! TF.FileFunction,Soldermask,Bot*
G04 #@! TF.FilePolarity,Negative*
%FSLAX46Y46*%
G04 Gerber Fmt 4.6, Leading zero omitted, Abs format (unit mm)*
G04 Created by KiCad (PCBNEW 5.0.2-bee76a0~70~ubuntu18.04.1) date Mon 02 Dec 2019 09:24:14 PM EST*
%MOMM*%
%LPD*%
G01*
G04 APERTURE LIST*
%ADD10C,0.100000*%
G04 APERTURE END LIST*
D10*
G36*
X23577396Y-59085546D02*
X23750466Y-59157234D01*
X23906230Y-59261312D01*
X24038688Y-59393770D01*
X24142766Y-59549534D01*
X24214454Y-59722604D01*
X24251000Y-59906333D01*
X24251000Y-60093667D01*
X24214454Y-60277396D01*
X24142766Y-60450466D01*
X24038688Y-60606230D01*
X23906230Y-60738688D01*
X23750466Y-60842766D01*
X23577396Y-60914454D01*
X23393667Y-60951000D01*
X23206333Y-60951000D01*
X23022604Y-60914454D01*
X22849534Y-60842766D01*
X22693770Y-60738688D01*
X22561312Y-60606230D01*
X22457234Y-60450466D01*
X22385546Y-60277396D01*
X22349000Y-60093667D01*
X22349000Y-59906333D01*
X22385546Y-59722604D01*
X22457234Y-59549534D01*
X22561312Y-59393770D01*
X22693770Y-59261312D01*
X22849534Y-59157234D01*
X23022604Y-59085546D01*
X23206333Y-59049000D01*
X23393667Y-59049000D01*
X23577396Y-59085546D01*
X23577396Y-59085546D01*
G37*
G36*
X26077396Y-59085546D02*
X26250466Y-59157234D01*
X26406230Y-59261312D01*
X26538688Y-59393770D01*
X26642766Y-59549534D01*
X26714454Y-59722604D01*
X26751000Y-59906333D01*
X26751000Y-60093667D01*
X26714454Y-60277396D01*
X26642766Y-60450466D01*
X26538688Y-60606230D01*
X26406230Y-60738688D01*
X26250466Y-60842766D01*
X26077396Y-60914454D01*
X25893667Y-60951000D01*
X25706333Y-60951000D01*
X25522604Y-60914454D01*
X25349534Y-60842766D01*
X25193770Y-60738688D01*
X25061312Y-60606230D01*
X24957234Y-60450466D01*
X24885546Y-60277396D01*
X24849000Y-60093667D01*
X24849000Y-59906333D01*
X24885546Y-59722604D01*
X24957234Y-59549534D01*
X25061312Y-59393770D01*
X25193770Y-59261312D01*
X25349534Y-59157234D01*
X25522604Y-59085546D01*
X25706333Y-59049000D01*
X25893667Y-59049000D01*
X26077396Y-59085546D01*
X26077396Y-59085546D01*
G37*
G36*
X28577396Y-59085546D02*
X28750466Y-59157234D01*
X28906230Y-59261312D01*
X29038688Y-59393770D01*
X29142766Y-59549534D01*
X29214454Y-59722604D01*
X29251000Y-59906333D01*
X29251000Y-60093667D01*
X29214454Y-60277396D01*
X29142766Y-60450466D01*
X29038688Y-60606230D01*
X28906230Y-60738688D01*
X28750466Y-60842766D01*
X28577396Y-60914454D01*
X28393667Y-60951000D01*
X28206333Y-60951000D01*
X28022604Y-60914454D01*
X27849534Y-60842766D01*
X27693770Y-60738688D01*
X27561312Y-60606230D01*
X27457234Y-60450466D01*
X27385546Y-60277396D01*
X27349000Y-60093667D01*
X27349000Y-59906333D01*
X27385546Y-59722604D01*
X27457234Y-59549534D01*
X27561312Y-59393770D01*
X27693770Y-59261312D01*
X27849534Y-59157234D01*
X28022604Y-59085546D01*
X28206333Y-59049000D01*
X28393667Y-59049000D01*
X28577396Y-59085546D01*
X28577396Y-59085546D01*
G37*
G36*
X39577396Y-59085546D02*
X39750466Y-59157234D01*
X39906230Y-59261312D01*
X40038688Y-59393770D01*
X40142766Y-59549534D01*
X40214454Y-59722604D01*
X40251000Y-59906333D01*
X40251000Y-60093667D01*
X40214454Y-60277396D01*
X40142766Y-60450466D01*
X40038688Y-60606230D01*
X39906230Y-60738688D01*
X39750466Y-60842766D01*
X39577396Y-60914454D01*
X39393667Y-60951000D01*
X39206333Y-60951000D01*
X39022604Y-60914454D01*
X38849534Y-60842766D01*
X38693770Y-60738688D01*
X38561312Y-60606230D01*
X38457234Y-60450466D01*
X38385546Y-60277396D01*
X38349000Y-60093667D01*
X38349000Y-59906333D01*
X38385546Y-59722604D01*
X38457234Y-59549534D01*
X38561312Y-59393770D01*
X38693770Y-59261312D01*
X38849534Y-59157234D01*
X39022604Y-59085546D01*
X39206333Y-59049000D01*
X39393667Y-59049000D01*
X39577396Y-59085546D01*
X39577396Y-59085546D01*
G37*
G36*
X42077396Y-59085546D02*
X42250466Y-59157234D01*
X42406230Y-59261312D01*
X42538688Y-59393770D01*
X42642766Y-59549534D01*
X42714454Y-59722604D01*
X42751000Y-59906333D01*
X42751000Y-60093667D01*
X42714454Y-60277396D01*
X42642766Y-60450466D01*
X42538688Y-60606230D01*
X42406230Y-60738688D01*
X42250466Y-60842766D01*
X42077396Y-60914454D01*
X41893667Y-60951000D01*
X41706333Y-60951000D01*
X41522604Y-60914454D01*
X41349534Y-60842766D01*
X41193770Y-60738688D01*
X41061312Y-60606230D01*
X40957234Y-60450466D01*
X40885546Y-60277396D01*
X40849000Y-60093667D01*
X40849000Y-59906333D01*
X40885546Y-59722604D01*
X40957234Y-59549534D01*
X41061312Y-59393770D01*
X41193770Y-59261312D01*
X41349534Y-59157234D01*
X41522604Y-59085546D01*
X41706333Y-59049000D01*
X41893667Y-59049000D01*
X42077396Y-59085546D01*
X42077396Y-59085546D01*
G37*
G36*
X44577396Y-59085546D02*
X44750466Y-59157234D01*
X44906230Y-59261312D01*
X45038688Y-59393770D01*
X45142766Y-59549534D01*
X45214454Y-59722604D01*
X45251000Y-59906333D01*
X45251000Y-60093667D01*
X45214454Y-60277396D01*
X45142766Y-60450466D01*
X45038688Y-60606230D01*
X44906230Y-60738688D01*
X44750466Y-60842766D01*
X44577396Y-60914454D01*
X44393667Y-60951000D01*
X44206333Y-60951000D01*
X44022604Y-60914454D01*
X43849534Y-60842766D01*
X43693770Y-60738688D01*
X43561312Y-60606230D01*
X43457234Y-60450466D01*
X43385546Y-60277396D01*
X43349000Y-60093667D01*
X43349000Y-59906333D01*
X43385546Y-59722604D01*
X43457234Y-59549534D01*
X43561312Y-59393770D01*
X43693770Y-59261312D01*
X43849534Y-59157234D01*
X44022604Y-59085546D01*
X44206333Y-59049000D01*
X44393667Y-59049000D01*
X44577396Y-59085546D01*
X44577396Y-59085546D01*
G37*
G36*
X60577396Y-59085546D02*
X60750466Y-59157234D01*
X60906230Y-59261312D01*
X61038688Y-59393770D01*
X61142766Y-59549534D01*
X61214454Y-59722604D01*
X61251000Y-59906333D01*
X61251000Y-60093667D01*
X61214454Y-60277396D01*
X61142766Y-60450466D01*
X61038688Y-60606230D01*
X60906230Y-60738688D01*
X60750466Y-60842766D01*
X60577396Y-60914454D01*
X60393667Y-60951000D01*
X60206333Y-60951000D01*
X60022604Y-60914454D01*
X59849534Y-60842766D01*
X59693770Y-60738688D01*
X59561312Y-60606230D01*
X59457234Y-60450466D01*
X59385546Y-60277396D01*
X59349000Y-60093667D01*
X59349000Y-59906333D01*
X59385546Y-59722604D01*
X59457234Y-59549534D01*
X59561312Y-59393770D01*
X59693770Y-59261312D01*
X59849534Y-59157234D01*
X60022604Y-59085546D01*
X60206333Y-59049000D01*
X60393667Y-59049000D01*
X60577396Y-59085546D01*
X60577396Y-59085546D01*
G37*
G36*
X58077396Y-59085546D02*
X58250466Y-59157234D01*
X58406230Y-59261312D01*
X58538688Y-59393770D01*
X58642766Y-59549534D01*
X58714454Y-59722604D01*
X58751000Y-59906333D01*
X58751000Y-60093667D01*
X58714454Y-60277396D01*
X58642766Y-60450466D01*
X58538688Y-60606230D01*
X58406230Y-60738688D01*
X58250466Y-60842766D01*
X58077396Y-60914454D01*
X57893667Y-60951000D01*
X57706333Y-60951000D01*
X57522604Y-60914454D01*
X57349534Y-60842766D01*
X57193770Y-60738688D01*
X57061312Y-60606230D01*
X56957234Y-60450466D01*
X56885546Y-60277396D01*
X56849000Y-60093667D01*
X56849000Y-59906333D01*
X56885546Y-59722604D01*
X56957234Y-59549534D01*
X57061312Y-59393770D01*
X57193770Y-59261312D01*
X57349534Y-59157234D01*
X57522604Y-59085546D01*
X57706333Y-59049000D01*
X57893667Y-59049000D01*
X58077396Y-59085546D01*
X58077396Y-59085546D01*
G37*
G36*
X55577396Y-59085546D02*
X55750466Y-59157234D01*
X55906230Y-59261312D01*
X56038688Y-59393770D01*
X56142766Y-59549534D01*
X56214454Y-59722604D01*
X56251000Y-59906333D01*
X56251000Y-60093667D01*
X56214454Y-60277396D01*
X56142766Y-60450466D01*
X56038688Y-60606230D01*
X55906230Y-60738688D01*
X55750466Y-60842766D01*
X55577396Y-60914454D01*
X55393667Y-60951000D01*
X55206333Y-60951000D01*
X55022604Y-60914454D01*
X54849534Y-60842766D01*
X54693770Y-60738688D01*
X54561312Y-60606230D01*
X54457234Y-60450466D01*
X54385546Y-60277396D01*
X54349000Y-60093667D01*
X54349000Y-59906333D01*
X54385546Y-59722604D01*
X54457234Y-59549534D01*
X54561312Y-59393770D01*
X54693770Y-59261312D01*
X54849534Y-59157234D01*
X55022604Y-59085546D01*
X55206333Y-59049000D01*
X55393667Y-59049000D01*
X55577396Y-59085546D01*
X55577396Y-59085546D01*
G37*
G36*
X76577396Y-59085546D02*
X76750466Y-59157234D01*
X76906230Y-59261312D01*
X77038688Y-59393770D01*
X77142766Y-59549534D01*
X77214454Y-59722604D01*
X77251000Y-59906333D01*
X77251000Y-60093667D01*
X77214454Y-60277396D01*
X77142766Y-60450466D01*
X77038688Y-60606230D01*
X76906230Y-60738688D01*
X76750466Y-60842766D01*
X76577396Y-60914454D01*
X76393667Y-60951000D01*
X76206333Y-60951000D01*
X76022604Y-60914454D01*
X75849534Y-60842766D01*
X75693770Y-60738688D01*
X75561312Y-60606230D01*
X75457234Y-60450466D01*
X75385546Y-60277396D01*
X75349000Y-60093667D01*
X75349000Y-59906333D01*
X75385546Y-59722604D01*
X75457234Y-59549534D01*
X75561312Y-59393770D01*
X75693770Y-59261312D01*
X75849534Y-59157234D01*
X76022604Y-59085546D01*
X76206333Y-59049000D01*
X76393667Y-59049000D01*
X76577396Y-59085546D01*
X76577396Y-59085546D01*
G37*
G36*
X71577396Y-59085546D02*
X71750466Y-59157234D01*
X71906230Y-59261312D01*
X72038688Y-59393770D01*
X72142766Y-59549534D01*
X72214454Y-59722604D01*
X72251000Y-59906333D01*
X72251000Y-60093667D01*
X72214454Y-60277396D01*
X72142766Y-60450466D01*
X72038688Y-60606230D01*
X71906230Y-60738688D01*
X71750466Y-60842766D01*
X71577396Y-60914454D01*
X71393667Y-60951000D01*
X71206333Y-60951000D01*
X71022604Y-60914454D01*
X70849534Y-60842766D01*
X70693770Y-60738688D01*
X70561312Y-60606230D01*
X70457234Y-60450466D01*
X70385546Y-60277396D01*
X70349000Y-60093667D01*
X70349000Y-59906333D01*
X70385546Y-59722604D01*
X70457234Y-59549534D01*
X70561312Y-59393770D01*
X70693770Y-59261312D01*
X70849534Y-59157234D01*
X71022604Y-59085546D01*
X71206333Y-59049000D01*
X71393667Y-59049000D01*
X71577396Y-59085546D01*
X71577396Y-59085546D01*
G37*
G36*
X74077396Y-59085546D02*
X74250466Y-59157234D01*
X74406230Y-59261312D01*
X74538688Y-59393770D01*
X74642766Y-59549534D01*
X74714454Y-59722604D01*
X74751000Y-59906333D01*
X74751000Y-60093667D01*
X74714454Y-60277396D01*
X74642766Y-60450466D01*
X74538688Y-60606230D01*
X74406230Y-60738688D01*
X74250466Y-60842766D01*
X74077396Y-60914454D01*
X73893667Y-60951000D01*
X73706333Y-60951000D01*
X73522604Y-60914454D01*
X73349534Y-60842766D01*
X73193770Y-60738688D01*
X73061312Y-60606230D01*
X72957234Y-60450466D01*
X72885546Y-60277396D01*
X72849000Y-60093667D01*
X72849000Y-59906333D01*
X72885546Y-59722604D01*
X72957234Y-59549534D01*
X73061312Y-59393770D01*
X73193770Y-59261312D01*
X73349534Y-59157234D01*
X73522604Y-59085546D01*
X73706333Y-59049000D01*
X73893667Y-59049000D01*
X74077396Y-59085546D01*
X74077396Y-59085546D01*
G37*
G36*
X62798252Y-51027818D02*
X62798254Y-51027819D01*
X62798255Y-51027819D01*
X63171513Y-51182427D01*
X63171514Y-51182428D01*
X63507439Y-51406886D01*
X63793114Y-51692561D01*
X63793116Y-51692564D01*
X64017573Y-52028487D01*
X64172181Y-52401745D01*
X64251000Y-52797994D01*
X64251000Y-53202006D01*
X64172181Y-53598255D01*
X64017573Y-53971513D01*
X64017572Y-53971514D01*
X63793114Y-54307439D01*
X63507439Y-54593114D01*
X63507436Y-54593116D01*
X63171513Y-54817573D01*
X62798255Y-54972181D01*
X62798254Y-54972181D01*
X62798252Y-54972182D01*
X62402007Y-55051000D01*
X61997993Y-55051000D01*
X61601748Y-54972182D01*
X61601746Y-54972181D01*
X61601745Y-54972181D01*
X61228487Y-54817573D01*
X60892564Y-54593116D01*
X60892561Y-54593114D01*
X60606886Y-54307439D01*
X60382428Y-53971514D01*
X60382427Y-53971513D01*
X60227819Y-53598255D01*
X60149000Y-53202006D01*
X60149000Y-52797994D01*
X60227819Y-52401745D01*
X60382427Y-52028487D01*
X60606884Y-51692564D01*
X60606886Y-51692561D01*
X60892561Y-51406886D01*
X61228486Y-51182428D01*
X61228487Y-51182427D01*
X61601745Y-51027819D01*
X61601746Y-51027819D01*
X61601748Y-51027818D01*
X61997993Y-50949000D01*
X62402007Y-50949000D01*
X62798252Y-51027818D01*
X62798252Y-51027818D01*
G37*
G36*
X69998252Y-51027818D02*
X69998254Y-51027819D01*
X69998255Y-51027819D01*
X70371513Y-51182427D01*
X70371514Y-51182428D01*
X70707439Y-51406886D01*
X70993114Y-51692561D01*
X70993116Y-51692564D01*
X71217573Y-52028487D01*
X71372181Y-52401745D01*
X71451000Y-52797994D01*
X71451000Y-53202006D01*
X71372181Y-53598255D01*
X71217573Y-53971513D01*
X71217572Y-53971514D01*
X70993114Y-54307439D01*
X70707439Y-54593114D01*
X70707436Y-54593116D01*
X70371513Y-54817573D01*
X69998255Y-54972181D01*
X69998254Y-54972181D01*
X69998252Y-54972182D01*
X69602007Y-55051000D01*
X69197993Y-55051000D01*
X68801748Y-54972182D01*
X68801746Y-54972181D01*
X68801745Y-54972181D01*
X68428487Y-54817573D01*
X68092564Y-54593116D01*
X68092561Y-54593114D01*
X67806886Y-54307439D01*
X67582428Y-53971514D01*
X67582427Y-53971513D01*
X67427819Y-53598255D01*
X67349000Y-53202006D01*
X67349000Y-52797994D01*
X67427819Y-52401745D01*
X67582427Y-52028487D01*
X67806884Y-51692564D01*
X67806886Y-51692561D01*
X68092561Y-51406886D01*
X68428486Y-51182428D01*
X68428487Y-51182427D01*
X68801745Y-51027819D01*
X68801746Y-51027819D01*
X68801748Y-51027818D01*
X69197993Y-50949000D01*
X69602007Y-50949000D01*
X69998252Y-51027818D01*
X69998252Y-51027818D01*
G37*
G36*
X78798252Y-51027818D02*
X78798254Y-51027819D01*
X78798255Y-51027819D01*
X79171513Y-51182427D01*
X79171514Y-51182428D01*
X79507439Y-51406886D01*
X79793114Y-51692561D01*
X79793116Y-51692564D01*
X80017573Y-52028487D01*
X80172181Y-52401745D01*
X80251000Y-52797994D01*
X80251000Y-53202006D01*
X80172181Y-53598255D01*
X80017573Y-53971513D01*
X80017572Y-53971514D01*
X79793114Y-54307439D01*
X79507439Y-54593114D01*
X79507436Y-54593116D01*
X79171513Y-54817573D01*
X78798255Y-54972181D01*
X78798254Y-54972181D01*
X78798252Y-54972182D01*
X78402007Y-55051000D01*
X77997993Y-55051000D01*
X77601748Y-54972182D01*
X77601746Y-54972181D01*
X77601745Y-54972181D01*
X77228487Y-54817573D01*
X76892564Y-54593116D01*
X76892561Y-54593114D01*
X76606886Y-54307439D01*
X76382428Y-53971514D01*
X76382427Y-53971513D01*
X76227819Y-53598255D01*
X76149000Y-53202006D01*
X76149000Y-52797994D01*
X76227819Y-52401745D01*
X76382427Y-52028487D01*
X76606884Y-51692564D01*
X76606886Y-51692561D01*
X76892561Y-51406886D01*
X77228486Y-51182428D01*
X77228487Y-51182427D01*
X77601745Y-51027819D01*
X77601746Y-51027819D01*
X77601748Y-51027818D01*
X77997993Y-50949000D01*
X78402007Y-50949000D01*
X78798252Y-51027818D01*
X78798252Y-51027818D01*
G37*
G36*
X21998252Y-51027818D02*
X21998254Y-51027819D01*
X21998255Y-51027819D01*
X22371513Y-51182427D01*
X22371514Y-51182428D01*
X22707439Y-51406886D01*
X22993114Y-51692561D01*
X22993116Y-51692564D01*
X23217573Y-52028487D01*
X23372181Y-52401745D01*
X23451000Y-52797994D01*
X23451000Y-53202006D01*
X23372181Y-53598255D01*
X23217573Y-53971513D01*
X23217572Y-53971514D01*
X22993114Y-54307439D01*
X22707439Y-54593114D01*
X22707436Y-54593116D01*
X22371513Y-54817573D01*
X21998255Y-54972181D01*
X21998254Y-54972181D01*
X21998252Y-54972182D01*
X21602007Y-55051000D01*
X21197993Y-55051000D01*
X20801748Y-54972182D01*
X20801746Y-54972181D01*
X20801745Y-54972181D01*
X20428487Y-54817573D01*
X20092564Y-54593116D01*
X20092561Y-54593114D01*
X19806886Y-54307439D01*
X19582428Y-53971514D01*
X19582427Y-53971513D01*
X19427819Y-53598255D01*
X19349000Y-53202006D01*
X19349000Y-52797994D01*
X19427819Y-52401745D01*
X19582427Y-52028487D01*
X19806884Y-51692564D01*
X19806886Y-51692561D01*
X20092561Y-51406886D01*
X20428486Y-51182428D01*
X20428487Y-51182427D01*
X20801745Y-51027819D01*
X20801746Y-51027819D01*
X20801748Y-51027818D01*
X21197993Y-50949000D01*
X21602007Y-50949000D01*
X21998252Y-51027818D01*
X21998252Y-51027818D01*
G37*
G36*
X53998252Y-51027818D02*
X53998254Y-51027819D01*
X53998255Y-51027819D01*
X54371513Y-51182427D01*
X54371514Y-51182428D01*
X54707439Y-51406886D01*
X54993114Y-51692561D01*
X54993116Y-51692564D01*
X55217573Y-52028487D01*
X55372181Y-52401745D01*
X55451000Y-52797994D01*
X55451000Y-53202006D01*
X55372181Y-53598255D01*
X55217573Y-53971513D01*
X55217572Y-53971514D01*
X54993114Y-54307439D01*
X54707439Y-54593114D01*
X54707436Y-54593116D01*
X54371513Y-54817573D01*
X53998255Y-54972181D01*
X53998254Y-54972181D01*
X53998252Y-54972182D01*
X53602007Y-55051000D01*
X53197993Y-55051000D01*
X52801748Y-54972182D01*
X52801746Y-54972181D01*
X52801745Y-54972181D01*
X52428487Y-54817573D01*
X52092564Y-54593116D01*
X52092561Y-54593114D01*
X51806886Y-54307439D01*
X51582428Y-53971514D01*
X51582427Y-53971513D01*
X51427819Y-53598255D01*
X51349000Y-53202006D01*
X51349000Y-52797994D01*
X51427819Y-52401745D01*
X51582427Y-52028487D01*
X51806884Y-51692564D01*
X51806886Y-51692561D01*
X52092561Y-51406886D01*
X52428486Y-51182428D01*
X52428487Y-51182427D01*
X52801745Y-51027819D01*
X52801746Y-51027819D01*
X52801748Y-51027818D01*
X53197993Y-50949000D01*
X53602007Y-50949000D01*
X53998252Y-51027818D01*
X53998252Y-51027818D01*
G37*
G36*
X30798252Y-51027818D02*
X30798254Y-51027819D01*
X30798255Y-51027819D01*
X31171513Y-51182427D01*
X31171514Y-51182428D01*
X31507439Y-51406886D01*
X31793114Y-51692561D01*
X31793116Y-51692564D01*
X32017573Y-52028487D01*
X32172181Y-52401745D01*
X32251000Y-52797994D01*
X32251000Y-53202006D01*
X32172181Y-53598255D01*
X32017573Y-53971513D01*
X32017572Y-53971514D01*
X31793114Y-54307439D01*
X31507439Y-54593114D01*
X31507436Y-54593116D01*
X31171513Y-54817573D01*
X30798255Y-54972181D01*
X30798254Y-54972181D01*
X30798252Y-54972182D01*
X30402007Y-55051000D01*
X29997993Y-55051000D01*
X29601748Y-54972182D01*
X29601746Y-54972181D01*
X29601745Y-54972181D01*
X29228487Y-54817573D01*
X28892564Y-54593116D01*
X28892561Y-54593114D01*
X28606886Y-54307439D01*
X28382428Y-53971514D01*
X28382427Y-53971513D01*
X28227819Y-53598255D01*
X28149000Y-53202006D01*
X28149000Y-52797994D01*
X28227819Y-52401745D01*
X28382427Y-52028487D01*
X28606884Y-51692564D01*
X28606886Y-51692561D01*
X28892561Y-51406886D01*
X29228486Y-51182428D01*
X29228487Y-51182427D01*
X29601745Y-51027819D01*
X29601746Y-51027819D01*
X29601748Y-51027818D01*
X29997993Y-50949000D01*
X30402007Y-50949000D01*
X30798252Y-51027818D01*
X30798252Y-51027818D01*
G37*
G36*
X46798252Y-51027818D02*
X46798254Y-51027819D01*
X46798255Y-51027819D01*
X47171513Y-51182427D01*
X47171514Y-51182428D01*
X47507439Y-51406886D01*
X47793114Y-51692561D01*
X47793116Y-51692564D01*
X48017573Y-52028487D01*
X48172181Y-52401745D01*
X48251000Y-52797994D01*
X48251000Y-53202006D01*
X48172181Y-53598255D01*
X48017573Y-53971513D01*
X48017572Y-53971514D01*
X47793114Y-54307439D01*
X47507439Y-54593114D01*
X47507436Y-54593116D01*
X47171513Y-54817573D01*
X46798255Y-54972181D01*
X46798254Y-54972181D01*
X46798252Y-54972182D01*
X46402007Y-55051000D01*
X45997993Y-55051000D01*
X45601748Y-54972182D01*
X45601746Y-54972181D01*
X45601745Y-54972181D01*
X45228487Y-54817573D01*
X44892564Y-54593116D01*
X44892561Y-54593114D01*
X44606886Y-54307439D01*
X44382428Y-53971514D01*
X44382427Y-53971513D01*
X44227819Y-53598255D01*
X44149000Y-53202006D01*
X44149000Y-52797994D01*
X44227819Y-52401745D01*
X44382427Y-52028487D01*
X44606884Y-51692564D01*
X44606886Y-51692561D01*
X44892561Y-51406886D01*
X45228486Y-51182428D01*
X45228487Y-51182427D01*
X45601745Y-51027819D01*
X45601746Y-51027819D01*
X45601748Y-51027818D01*
X45997993Y-50949000D01*
X46402007Y-50949000D01*
X46798252Y-51027818D01*
X46798252Y-51027818D01*
G37*
G36*
X37998252Y-51027818D02*
X37998254Y-51027819D01*
X37998255Y-51027819D01*
X38371513Y-51182427D01*
X38371514Y-51182428D01*
X38707439Y-51406886D01*
X38993114Y-51692561D01*
X38993116Y-51692564D01*
X39217573Y-52028487D01*
X39372181Y-52401745D01*
X39451000Y-52797994D01*
X39451000Y-53202006D01*
X39372181Y-53598255D01*
X39217573Y-53971513D01*
X39217572Y-53971514D01*
X38993114Y-54307439D01*
X38707439Y-54593114D01*
X38707436Y-54593116D01*
X38371513Y-54817573D01*
X37998255Y-54972181D01*
X37998254Y-54972181D01*
X37998252Y-54972182D01*
X37602007Y-55051000D01*
X37197993Y-55051000D01*
X36801748Y-54972182D01*
X36801746Y-54972181D01*
X36801745Y-54972181D01*
X36428487Y-54817573D01*
X36092564Y-54593116D01*
X36092561Y-54593114D01*
X35806886Y-54307439D01*
X35582428Y-53971514D01*
X35582427Y-53971513D01*
X35427819Y-53598255D01*
X35349000Y-53202006D01*
X35349000Y-52797994D01*
X35427819Y-52401745D01*
X35582427Y-52028487D01*
X35806884Y-51692564D01*
X35806886Y-51692561D01*
X36092561Y-51406886D01*
X36428486Y-51182428D01*
X36428487Y-51182427D01*
X36801745Y-51027819D01*
X36801746Y-51027819D01*
X36801748Y-51027818D01*
X37197993Y-50949000D01*
X37602007Y-50949000D01*
X37998252Y-51027818D01*
X37998252Y-51027818D01*
G37*
G36*
X50777396Y-43085546D02*
X50950466Y-43157234D01*
X51106230Y-43261312D01*
X51238688Y-43393770D01*
X51342766Y-43549534D01*
X51414454Y-43722604D01*
X51451000Y-43906333D01*
X51451000Y-44093667D01*
X51414454Y-44277396D01*
X51342766Y-44450466D01*
X51238688Y-44606230D01*
X51106230Y-44738688D01*
X50950466Y-44842766D01*
X50777396Y-44914454D01*
X50593667Y-44951000D01*
X50406333Y-44951000D01*
X50222604Y-44914454D01*
X50049534Y-44842766D01*
X49893770Y-44738688D01*
X49761312Y-44606230D01*
X49657234Y-44450466D01*
X49585546Y-44277396D01*
X49549000Y-44093667D01*
X49549000Y-43906333D01*
X49585546Y-43722604D01*
X49657234Y-43549534D01*
X49761312Y-43393770D01*
X49893770Y-43261312D01*
X50049534Y-43157234D01*
X50222604Y-43085546D01*
X50406333Y-43049000D01*
X50593667Y-43049000D01*
X50777396Y-43085546D01*
X50777396Y-43085546D01*
G37*
G36*
X48277396Y-43085546D02*
X48450466Y-43157234D01*
X48606230Y-43261312D01*
X48738688Y-43393770D01*
X48842766Y-43549534D01*
X48914454Y-43722604D01*
X48951000Y-43906333D01*
X48951000Y-44093667D01*
X48914454Y-44277396D01*
X48842766Y-44450466D01*
X48738688Y-44606230D01*
X48606230Y-44738688D01*
X48450466Y-44842766D01*
X48277396Y-44914454D01*
X48093667Y-44951000D01*
X47906333Y-44951000D01*
X47722604Y-44914454D01*
X47549534Y-44842766D01*
X47393770Y-44738688D01*
X47261312Y-44606230D01*
X47157234Y-44450466D01*
X47085546Y-44277396D01*
X47049000Y-44093667D01*
X47049000Y-43906333D01*
X47085546Y-43722604D01*
X47157234Y-43549534D01*
X47261312Y-43393770D01*
X47393770Y-43261312D01*
X47549534Y-43157234D01*
X47722604Y-43085546D01*
X47906333Y-43049000D01*
X48093667Y-43049000D01*
X48277396Y-43085546D01*
X48277396Y-43085546D01*
G37*
G36*
X45777396Y-43085546D02*
X45950466Y-43157234D01*
X46106230Y-43261312D01*
X46238688Y-43393770D01*
X46342766Y-43549534D01*
X46414454Y-43722604D01*
X46451000Y-43906333D01*
X46451000Y-44093667D01*
X46414454Y-44277396D01*
X46342766Y-44450466D01*
X46238688Y-44606230D01*
X46106230Y-44738688D01*
X45950466Y-44842766D01*
X45777396Y-44914454D01*
X45593667Y-44951000D01*
X45406333Y-44951000D01*
X45222604Y-44914454D01*
X45049534Y-44842766D01*
X44893770Y-44738688D01*
X44761312Y-44606230D01*
X44657234Y-44450466D01*
X44585546Y-44277396D01*
X44549000Y-44093667D01*
X44549000Y-43906333D01*
X44585546Y-43722604D01*
X44657234Y-43549534D01*
X44761312Y-43393770D01*
X44893770Y-43261312D01*
X45049534Y-43157234D01*
X45222604Y-43085546D01*
X45406333Y-43049000D01*
X45593667Y-43049000D01*
X45777396Y-43085546D01*
X45777396Y-43085546D01*
G37*
G36*
X52998252Y-35027818D02*
X52998254Y-35027819D01*
X52998255Y-35027819D01*
X53371513Y-35182427D01*
X53371514Y-35182428D01*
X53707439Y-35406886D01*
X53993114Y-35692561D01*
X53993116Y-35692564D01*
X54217573Y-36028487D01*
X54372181Y-36401745D01*
X54451000Y-36797994D01*
X54451000Y-37202006D01*
X54372181Y-37598255D01*
X54217573Y-37971513D01*
X54217572Y-37971514D01*
X53993114Y-38307439D01*
X53707439Y-38593114D01*
X53707436Y-38593116D01*
X53371513Y-38817573D01*
X52998255Y-38972181D01*
X52998254Y-38972181D01*
X52998252Y-38972182D01*
X52602007Y-39051000D01*
X52197993Y-39051000D01*
X51801748Y-38972182D01*
X51801746Y-38972181D01*
X51801745Y-38972181D01*
X51428487Y-38817573D01*
X51092564Y-38593116D01*
X51092561Y-38593114D01*
X50806886Y-38307439D01*
X50582428Y-37971514D01*
X50582427Y-37971513D01*
X50427819Y-37598255D01*
X50349000Y-37202006D01*
X50349000Y-36797994D01*
X50427819Y-36401745D01*
X50582427Y-36028487D01*
X50806884Y-35692564D01*
X50806886Y-35692561D01*
X51092561Y-35406886D01*
X51428486Y-35182428D01*
X51428487Y-35182427D01*
X51801745Y-35027819D01*
X51801746Y-35027819D01*
X51801748Y-35027818D01*
X52197993Y-34949000D01*
X52602007Y-34949000D01*
X52998252Y-35027818D01*
X52998252Y-35027818D01*
G37*
G36*
X44198252Y-35027818D02*
X44198254Y-35027819D01*
X44198255Y-35027819D01*
X44571513Y-35182427D01*
X44571514Y-35182428D01*
X44907439Y-35406886D01*
X45193114Y-35692561D01*
X45193116Y-35692564D01*
X45417573Y-36028487D01*
X45572181Y-36401745D01*
X45651000Y-36797994D01*
X45651000Y-37202006D01*
X45572181Y-37598255D01*
X45417573Y-37971513D01*
X45417572Y-37971514D01*
X45193114Y-38307439D01*
X44907439Y-38593114D01*
X44907436Y-38593116D01*
X44571513Y-38817573D01*
X44198255Y-38972181D01*
X44198254Y-38972181D01*
X44198252Y-38972182D01*
X43802007Y-39051000D01*
X43397993Y-39051000D01*
X43001748Y-38972182D01*
X43001746Y-38972181D01*
X43001745Y-38972181D01*
X42628487Y-38817573D01*
X42292564Y-38593116D01*
X42292561Y-38593114D01*
X42006886Y-38307439D01*
X41782428Y-37971514D01*
X41782427Y-37971513D01*
X41627819Y-37598255D01*
X41549000Y-37202006D01*
X41549000Y-36797994D01*
X41627819Y-36401745D01*
X41782427Y-36028487D01*
X42006884Y-35692564D01*
X42006886Y-35692561D01*
X42292561Y-35406886D01*
X42628486Y-35182428D01*
X42628487Y-35182427D01*
X43001745Y-35027819D01*
X43001746Y-35027819D01*
X43001748Y-35027818D01*
X43397993Y-34949000D01*
X43802007Y-34949000D01*
X44198252Y-35027818D01*
X44198252Y-35027818D01*
G37*
G36*
X84077396Y-36085546D02*
X84250466Y-36157234D01*
X84406230Y-36261312D01*
X84538688Y-36393770D01*
X84642766Y-36549534D01*
X84714454Y-36722604D01*
X84751000Y-36906333D01*
X84751000Y-37093667D01*
X84714454Y-37277396D01*
X84642766Y-37450466D01*
X84538688Y-37606230D01*
X84406230Y-37738688D01*
X84250466Y-37842766D01*
X84077396Y-37914454D01*
X83893667Y-37951000D01*
X83706333Y-37951000D01*
X83522604Y-37914454D01*
X83349534Y-37842766D01*
X83193770Y-37738688D01*
X83061312Y-37606230D01*
X82957234Y-37450466D01*
X82885546Y-37277396D01*
X82849000Y-37093667D01*
X82849000Y-36906333D01*
X82885546Y-36722604D01*
X82957234Y-36549534D01*
X83061312Y-36393770D01*
X83193770Y-36261312D01*
X83349534Y-36157234D01*
X83522604Y-36085546D01*
X83706333Y-36049000D01*
X83893667Y-36049000D01*
X84077396Y-36085546D01*
X84077396Y-36085546D01*
G37*
G36*
X86577396Y-36085546D02*
X86750466Y-36157234D01*
X86906230Y-36261312D01*
X87038688Y-36393770D01*
X87142766Y-36549534D01*
X87214454Y-36722604D01*
X87251000Y-36906333D01*
X87251000Y-37093667D01*
X87214454Y-37277396D01*
X87142766Y-37450466D01*
X87038688Y-37606230D01*
X86906230Y-37738688D01*
X86750466Y-37842766D01*
X86577396Y-37914454D01*
X86393667Y-37951000D01*
X86206333Y-37951000D01*
X86022604Y-37914454D01*
X85849534Y-37842766D01*
X85693770Y-37738688D01*
X85561312Y-37606230D01*
X85457234Y-37450466D01*
X85385546Y-37277396D01*
X85349000Y-37093667D01*
X85349000Y-36906333D01*
X85385546Y-36722604D01*
X85457234Y-36549534D01*
X85561312Y-36393770D01*
X85693770Y-36261312D01*
X85849534Y-36157234D01*
X86022604Y-36085546D01*
X86206333Y-36049000D01*
X86393667Y-36049000D01*
X86577396Y-36085546D01*
X86577396Y-36085546D01*
G37*
G36*
X81577396Y-36085546D02*
X81750466Y-36157234D01*
X81906230Y-36261312D01*
X82038688Y-36393770D01*
X82142766Y-36549534D01*
X82214454Y-36722604D01*
X82251000Y-36906333D01*
X82251000Y-37093667D01*
X82214454Y-37277396D01*
X82142766Y-37450466D01*
X82038688Y-37606230D01*
X81906230Y-37738688D01*
X81750466Y-37842766D01*
X81577396Y-37914454D01*
X81393667Y-37951000D01*
X81206333Y-37951000D01*
X81022604Y-37914454D01*
X80849534Y-37842766D01*
X80693770Y-37738688D01*
X80561312Y-37606230D01*
X80457234Y-37450466D01*
X80385546Y-37277396D01*
X80349000Y-37093667D01*
X80349000Y-36906333D01*
X80385546Y-36722604D01*
X80457234Y-36549534D01*
X80561312Y-36393770D01*
X80693770Y-36261312D01*
X80849534Y-36157234D01*
X81022604Y-36085546D01*
X81206333Y-36049000D01*
X81393667Y-36049000D01*
X81577396Y-36085546D01*
X81577396Y-36085546D01*
G37*
G36*
X69577396Y-36085546D02*
X69750466Y-36157234D01*
X69906230Y-36261312D01*
X70038688Y-36393770D01*
X70142766Y-36549534D01*
X70214454Y-36722604D01*
X70251000Y-36906333D01*
X70251000Y-37093667D01*
X70214454Y-37277396D01*
X70142766Y-37450466D01*
X70038688Y-37606230D01*
X69906230Y-37738688D01*
X69750466Y-37842766D01*
X69577396Y-37914454D01*
X69393667Y-37951000D01*
X69206333Y-37951000D01*
X69022604Y-37914454D01*
X68849534Y-37842766D01*
X68693770Y-37738688D01*
X68561312Y-37606230D01*
X68457234Y-37450466D01*
X68385546Y-37277396D01*
X68349000Y-37093667D01*
X68349000Y-36906333D01*
X68385546Y-36722604D01*
X68457234Y-36549534D01*
X68561312Y-36393770D01*
X68693770Y-36261312D01*
X68849534Y-36157234D01*
X69022604Y-36085546D01*
X69206333Y-36049000D01*
X69393667Y-36049000D01*
X69577396Y-36085546D01*
X69577396Y-36085546D01*
G37*
G36*
X67077396Y-36085546D02*
X67250466Y-36157234D01*
X67406230Y-36261312D01*
X67538688Y-36393770D01*
X67642766Y-36549534D01*
X67714454Y-36722604D01*
X67751000Y-36906333D01*
X67751000Y-37093667D01*
X67714454Y-37277396D01*
X67642766Y-37450466D01*
X67538688Y-37606230D01*
X67406230Y-37738688D01*
X67250466Y-37842766D01*
X67077396Y-37914454D01*
X66893667Y-37951000D01*
X66706333Y-37951000D01*
X66522604Y-37914454D01*
X66349534Y-37842766D01*
X66193770Y-37738688D01*
X66061312Y-37606230D01*
X65957234Y-37450466D01*
X65885546Y-37277396D01*
X65849000Y-37093667D01*
X65849000Y-36906333D01*
X65885546Y-36722604D01*
X65957234Y-36549534D01*
X66061312Y-36393770D01*
X66193770Y-36261312D01*
X66349534Y-36157234D01*
X66522604Y-36085546D01*
X66706333Y-36049000D01*
X66893667Y-36049000D01*
X67077396Y-36085546D01*
X67077396Y-36085546D01*
G37*
G36*
X64577396Y-36085546D02*
X64750466Y-36157234D01*
X64906230Y-36261312D01*
X65038688Y-36393770D01*
X65142766Y-36549534D01*
X65214454Y-36722604D01*
X65251000Y-36906333D01*
X65251000Y-37093667D01*
X65214454Y-37277396D01*
X65142766Y-37450466D01*
X65038688Y-37606230D01*
X64906230Y-37738688D01*
X64750466Y-37842766D01*
X64577396Y-37914454D01*
X64393667Y-37951000D01*
X64206333Y-37951000D01*
X64022604Y-37914454D01*
X63849534Y-37842766D01*
X63693770Y-37738688D01*
X63561312Y-37606230D01*
X63457234Y-37450466D01*
X63385546Y-37277396D01*
X63349000Y-37093667D01*
X63349000Y-36906333D01*
X63385546Y-36722604D01*
X63457234Y-36549534D01*
X63561312Y-36393770D01*
X63693770Y-36261312D01*
X63849534Y-36157234D01*
X64022604Y-36085546D01*
X64206333Y-36049000D01*
X64393667Y-36049000D01*
X64577396Y-36085546D01*
X64577396Y-36085546D01*
G37*
G36*
X31077396Y-36085546D02*
X31250466Y-36157234D01*
X31406230Y-36261312D01*
X31538688Y-36393770D01*
X31642766Y-36549534D01*
X31714454Y-36722604D01*
X31751000Y-36906333D01*
X31751000Y-37093667D01*
X31714454Y-37277396D01*
X31642766Y-37450466D01*
X31538688Y-37606230D01*
X31406230Y-37738688D01*
X31250466Y-37842766D01*
X31077396Y-37914454D01*
X30893667Y-37951000D01*
X30706333Y-37951000D01*
X30522604Y-37914454D01*
X30349534Y-37842766D01*
X30193770Y-37738688D01*
X30061312Y-37606230D01*
X29957234Y-37450466D01*
X29885546Y-37277396D01*
X29849000Y-37093667D01*
X29849000Y-36906333D01*
X29885546Y-36722604D01*
X29957234Y-36549534D01*
X30061312Y-36393770D01*
X30193770Y-36261312D01*
X30349534Y-36157234D01*
X30522604Y-36085546D01*
X30706333Y-36049000D01*
X30893667Y-36049000D01*
X31077396Y-36085546D01*
X31077396Y-36085546D01*
G37*
G36*
X13077396Y-36085546D02*
X13250466Y-36157234D01*
X13406230Y-36261312D01*
X13538688Y-36393770D01*
X13642766Y-36549534D01*
X13714454Y-36722604D01*
X13751000Y-36906333D01*
X13751000Y-37093667D01*
X13714454Y-37277396D01*
X13642766Y-37450466D01*
X13538688Y-37606230D01*
X13406230Y-37738688D01*
X13250466Y-37842766D01*
X13077396Y-37914454D01*
X12893667Y-37951000D01*
X12706333Y-37951000D01*
X12522604Y-37914454D01*
X12349534Y-37842766D01*
X12193770Y-37738688D01*
X12061312Y-37606230D01*
X11957234Y-37450466D01*
X11885546Y-37277396D01*
X11849000Y-37093667D01*
X11849000Y-36906333D01*
X11885546Y-36722604D01*
X11957234Y-36549534D01*
X12061312Y-36393770D01*
X12193770Y-36261312D01*
X12349534Y-36157234D01*
X12522604Y-36085546D01*
X12706333Y-36049000D01*
X12893667Y-36049000D01*
X13077396Y-36085546D01*
X13077396Y-36085546D01*
G37*
G36*
X28577396Y-36085546D02*
X28750466Y-36157234D01*
X28906230Y-36261312D01*
X29038688Y-36393770D01*
X29142766Y-36549534D01*
X29214454Y-36722604D01*
X29251000Y-36906333D01*
X29251000Y-37093667D01*
X29214454Y-37277396D01*
X29142766Y-37450466D01*
X29038688Y-37606230D01*
X28906230Y-37738688D01*
X28750466Y-37842766D01*
X28577396Y-37914454D01*
X28393667Y-37951000D01*
X28206333Y-37951000D01*
X28022604Y-37914454D01*
X27849534Y-37842766D01*
X27693770Y-37738688D01*
X27561312Y-37606230D01*
X27457234Y-37450466D01*
X27385546Y-37277396D01*
X27349000Y-37093667D01*
X27349000Y-36906333D01*
X27385546Y-36722604D01*
X27457234Y-36549534D01*
X27561312Y-36393770D01*
X27693770Y-36261312D01*
X27849534Y-36157234D01*
X28022604Y-36085546D01*
X28206333Y-36049000D01*
X28393667Y-36049000D01*
X28577396Y-36085546D01*
X28577396Y-36085546D01*
G37*
G36*
X15577396Y-36085546D02*
X15750466Y-36157234D01*
X15906230Y-36261312D01*
X16038688Y-36393770D01*
X16142766Y-36549534D01*
X16214454Y-36722604D01*
X16251000Y-36906333D01*
X16251000Y-37093667D01*
X16214454Y-37277396D01*
X16142766Y-37450466D01*
X16038688Y-37606230D01*
X15906230Y-37738688D01*
X15750466Y-37842766D01*
X15577396Y-37914454D01*
X15393667Y-37951000D01*
X15206333Y-37951000D01*
X15022604Y-37914454D01*
X14849534Y-37842766D01*
X14693770Y-37738688D01*
X14561312Y-37606230D01*
X14457234Y-37450466D01*
X14385546Y-37277396D01*
X14349000Y-37093667D01*
X14349000Y-36906333D01*
X14385546Y-36722604D01*
X14457234Y-36549534D01*
X14561312Y-36393770D01*
X14693770Y-36261312D01*
X14849534Y-36157234D01*
X15022604Y-36085546D01*
X15206333Y-36049000D01*
X15393667Y-36049000D01*
X15577396Y-36085546D01*
X15577396Y-36085546D01*
G37*
G36*
X10577396Y-36085546D02*
X10750466Y-36157234D01*
X10906230Y-36261312D01*
X11038688Y-36393770D01*
X11142766Y-36549534D01*
X11214454Y-36722604D01*
X11251000Y-36906333D01*
X11251000Y-37093667D01*
X11214454Y-37277396D01*
X11142766Y-37450466D01*
X11038688Y-37606230D01*
X10906230Y-37738688D01*
X10750466Y-37842766D01*
X10577396Y-37914454D01*
X10393667Y-37951000D01*
X10206333Y-37951000D01*
X10022604Y-37914454D01*
X9849534Y-37842766D01*
X9693770Y-37738688D01*
X9561312Y-37606230D01*
X9457234Y-37450466D01*
X9385546Y-37277396D01*
X9349000Y-37093667D01*
X9349000Y-36906333D01*
X9385546Y-36722604D01*
X9457234Y-36549534D01*
X9561312Y-36393770D01*
X9693770Y-36261312D01*
X9849534Y-36157234D01*
X10022604Y-36085546D01*
X10206333Y-36049000D01*
X10393667Y-36049000D01*
X10577396Y-36085546D01*
X10577396Y-36085546D01*
G37*
G36*
X33577396Y-36085546D02*
X33750466Y-36157234D01*
X33906230Y-36261312D01*
X34038688Y-36393770D01*
X34142766Y-36549534D01*
X34214454Y-36722604D01*
X34251000Y-36906333D01*
X34251000Y-37093667D01*
X34214454Y-37277396D01*
X34142766Y-37450466D01*
X34038688Y-37606230D01*
X33906230Y-37738688D01*
X33750466Y-37842766D01*
X33577396Y-37914454D01*
X33393667Y-37951000D01*
X33206333Y-37951000D01*
X33022604Y-37914454D01*
X32849534Y-37842766D01*
X32693770Y-37738688D01*
X32561312Y-37606230D01*
X32457234Y-37450466D01*
X32385546Y-37277396D01*
X32349000Y-37093667D01*
X32349000Y-36906333D01*
X32385546Y-36722604D01*
X32457234Y-36549534D01*
X32561312Y-36393770D01*
X32693770Y-36261312D01*
X32849534Y-36157234D01*
X33022604Y-36085546D01*
X33206333Y-36049000D01*
X33393667Y-36049000D01*
X33577396Y-36085546D01*
X33577396Y-36085546D01*
G37*
G36*
X62998252Y-28027818D02*
X62998254Y-28027819D01*
X62998255Y-28027819D01*
X63371513Y-28182427D01*
X63371514Y-28182428D01*
X63707439Y-28406886D01*
X63993114Y-28692561D01*
X63993116Y-28692564D01*
X64217573Y-29028487D01*
X64372181Y-29401745D01*
X64451000Y-29797994D01*
X64451000Y-30202006D01*
X64372181Y-30598255D01*
X64217573Y-30971513D01*
X64217572Y-30971514D01*
X63993114Y-31307439D01*
X63707439Y-31593114D01*
X63707436Y-31593116D01*
X63371513Y-31817573D01*
X62998255Y-31972181D01*
X62998254Y-31972181D01*
X62998252Y-31972182D01*
X62602007Y-32051000D01*
X62197993Y-32051000D01*
X61801748Y-31972182D01*
X61801746Y-31972181D01*
X61801745Y-31972181D01*
X61428487Y-31817573D01*
X61092564Y-31593116D01*
X61092561Y-31593114D01*
X60806886Y-31307439D01*
X60582428Y-30971514D01*
X60582427Y-30971513D01*
X60427819Y-30598255D01*
X60349000Y-30202006D01*
X60349000Y-29797994D01*
X60427819Y-29401745D01*
X60582427Y-29028487D01*
X60806884Y-28692564D01*
X60806886Y-28692561D01*
X61092561Y-28406886D01*
X61428486Y-28182428D01*
X61428487Y-28182427D01*
X61801745Y-28027819D01*
X61801746Y-28027819D01*
X61801748Y-28027818D01*
X62197993Y-27949000D01*
X62602007Y-27949000D01*
X62998252Y-28027818D01*
X62998252Y-28027818D01*
G37*
G36*
X17798252Y-28027818D02*
X17798254Y-28027819D01*
X17798255Y-28027819D01*
X18171513Y-28182427D01*
X18171514Y-28182428D01*
X18507439Y-28406886D01*
X18793114Y-28692561D01*
X18793116Y-28692564D01*
X19017573Y-29028487D01*
X19172181Y-29401745D01*
X19251000Y-29797994D01*
X19251000Y-30202006D01*
X19172181Y-30598255D01*
X19017573Y-30971513D01*
X19017572Y-30971514D01*
X18793114Y-31307439D01*
X18507439Y-31593114D01*
X18507436Y-31593116D01*
X18171513Y-31817573D01*
X17798255Y-31972181D01*
X17798254Y-31972181D01*
X17798252Y-31972182D01*
X17402007Y-32051000D01*
X16997993Y-32051000D01*
X16601748Y-31972182D01*
X16601746Y-31972181D01*
X16601745Y-31972181D01*
X16228487Y-31817573D01*
X15892564Y-31593116D01*
X15892561Y-31593114D01*
X15606886Y-31307439D01*
X15382428Y-30971514D01*
X15382427Y-30971513D01*
X15227819Y-30598255D01*
X15149000Y-30202006D01*
X15149000Y-29797994D01*
X15227819Y-29401745D01*
X15382427Y-29028487D01*
X15606884Y-28692564D01*
X15606886Y-28692561D01*
X15892561Y-28406886D01*
X16228486Y-28182428D01*
X16228487Y-28182427D01*
X16601745Y-28027819D01*
X16601746Y-28027819D01*
X16601748Y-28027818D01*
X16997993Y-27949000D01*
X17402007Y-27949000D01*
X17798252Y-28027818D01*
X17798252Y-28027818D01*
G37*
G36*
X71798252Y-28027818D02*
X71798254Y-28027819D01*
X71798255Y-28027819D01*
X72171513Y-28182427D01*
X72171514Y-28182428D01*
X72507439Y-28406886D01*
X72793114Y-28692561D01*
X72793116Y-28692564D01*
X73017573Y-29028487D01*
X73172181Y-29401745D01*
X73251000Y-29797994D01*
X73251000Y-30202006D01*
X73172181Y-30598255D01*
X73017573Y-30971513D01*
X73017572Y-30971514D01*
X72793114Y-31307439D01*
X72507439Y-31593114D01*
X72507436Y-31593116D01*
X72171513Y-31817573D01*
X71798255Y-31972181D01*
X71798254Y-31972181D01*
X71798252Y-31972182D01*
X71402007Y-32051000D01*
X70997993Y-32051000D01*
X70601748Y-31972182D01*
X70601746Y-31972181D01*
X70601745Y-31972181D01*
X70228487Y-31817573D01*
X69892564Y-31593116D01*
X69892561Y-31593114D01*
X69606886Y-31307439D01*
X69382428Y-30971514D01*
X69382427Y-30971513D01*
X69227819Y-30598255D01*
X69149000Y-30202006D01*
X69149000Y-29797994D01*
X69227819Y-29401745D01*
X69382427Y-29028487D01*
X69606884Y-28692564D01*
X69606886Y-28692561D01*
X69892561Y-28406886D01*
X70228486Y-28182428D01*
X70228487Y-28182427D01*
X70601745Y-28027819D01*
X70601746Y-28027819D01*
X70601748Y-28027818D01*
X70997993Y-27949000D01*
X71402007Y-27949000D01*
X71798252Y-28027818D01*
X71798252Y-28027818D01*
G37*
G36*
X35798252Y-28027818D02*
X35798254Y-28027819D01*
X35798255Y-28027819D01*
X36171513Y-28182427D01*
X36171514Y-28182428D01*
X36507439Y-28406886D01*
X36793114Y-28692561D01*
X36793116Y-28692564D01*
X37017573Y-29028487D01*
X37172181Y-29401745D01*
X37251000Y-29797994D01*
X37251000Y-30202006D01*
X37172181Y-30598255D01*
X37017573Y-30971513D01*
X37017572Y-30971514D01*
X36793114Y-31307439D01*
X36507439Y-31593114D01*
X36507436Y-31593116D01*
X36171513Y-31817573D01*
X35798255Y-31972181D01*
X35798254Y-31972181D01*
X35798252Y-31972182D01*
X35402007Y-32051000D01*
X34997993Y-32051000D01*
X34601748Y-31972182D01*
X34601746Y-31972181D01*
X34601745Y-31972181D01*
X34228487Y-31817573D01*
X33892564Y-31593116D01*
X33892561Y-31593114D01*
X33606886Y-31307439D01*
X33382428Y-30971514D01*
X33382427Y-30971513D01*
X33227819Y-30598255D01*
X33149000Y-30202006D01*
X33149000Y-29797994D01*
X33227819Y-29401745D01*
X33382427Y-29028487D01*
X33606884Y-28692564D01*
X33606886Y-28692561D01*
X33892561Y-28406886D01*
X34228486Y-28182428D01*
X34228487Y-28182427D01*
X34601745Y-28027819D01*
X34601746Y-28027819D01*
X34601748Y-28027818D01*
X34997993Y-27949000D01*
X35402007Y-27949000D01*
X35798252Y-28027818D01*
X35798252Y-28027818D01*
G37*
G36*
X88798252Y-28027818D02*
X88798254Y-28027819D01*
X88798255Y-28027819D01*
X89171513Y-28182427D01*
X89171514Y-28182428D01*
X89507439Y-28406886D01*
X89793114Y-28692561D01*
X89793116Y-28692564D01*
X90017573Y-29028487D01*
X90172181Y-29401745D01*
X90251000Y-29797994D01*
X90251000Y-30202006D01*
X90172181Y-30598255D01*
X90017573Y-30971513D01*
X90017572Y-30971514D01*
X89793114Y-31307439D01*
X89507439Y-31593114D01*
X89507436Y-31593116D01*
X89171513Y-31817573D01*
X88798255Y-31972181D01*
X88798254Y-31972181D01*
X88798252Y-31972182D01*
X88402007Y-32051000D01*
X87997993Y-32051000D01*
X87601748Y-31972182D01*
X87601746Y-31972181D01*
X87601745Y-31972181D01*
X87228487Y-31817573D01*
X86892564Y-31593116D01*
X86892561Y-31593114D01*
X86606886Y-31307439D01*
X86382428Y-30971514D01*
X86382427Y-30971513D01*
X86227819Y-30598255D01*
X86149000Y-30202006D01*
X86149000Y-29797994D01*
X86227819Y-29401745D01*
X86382427Y-29028487D01*
X86606884Y-28692564D01*
X86606886Y-28692561D01*
X86892561Y-28406886D01*
X87228486Y-28182428D01*
X87228487Y-28182427D01*
X87601745Y-28027819D01*
X87601746Y-28027819D01*
X87601748Y-28027818D01*
X87997993Y-27949000D01*
X88402007Y-27949000D01*
X88798252Y-28027818D01*
X88798252Y-28027818D01*
G37*
G36*
X79998252Y-28027818D02*
X79998254Y-28027819D01*
X79998255Y-28027819D01*
X80371513Y-28182427D01*
X80371514Y-28182428D01*
X80707439Y-28406886D01*
X80993114Y-28692561D01*
X80993116Y-28692564D01*
X81217573Y-29028487D01*
X81372181Y-29401745D01*
X81451000Y-29797994D01*
X81451000Y-30202006D01*
X81372181Y-30598255D01*
X81217573Y-30971513D01*
X81217572Y-30971514D01*
X80993114Y-31307439D01*
X80707439Y-31593114D01*
X80707436Y-31593116D01*
X80371513Y-31817573D01*
X79998255Y-31972181D01*
X79998254Y-31972181D01*
X79998252Y-31972182D01*
X79602007Y-32051000D01*
X79197993Y-32051000D01*
X78801748Y-31972182D01*
X78801746Y-31972181D01*
X78801745Y-31972181D01*
X78428487Y-31817573D01*
X78092564Y-31593116D01*
X78092561Y-31593114D01*
X77806886Y-31307439D01*
X77582428Y-30971514D01*
X77582427Y-30971513D01*
X77427819Y-30598255D01*
X77349000Y-30202006D01*
X77349000Y-29797994D01*
X77427819Y-29401745D01*
X77582427Y-29028487D01*
X77806884Y-28692564D01*
X77806886Y-28692561D01*
X78092561Y-28406886D01*
X78428486Y-28182428D01*
X78428487Y-28182427D01*
X78801745Y-28027819D01*
X78801746Y-28027819D01*
X78801748Y-28027818D01*
X79197993Y-27949000D01*
X79602007Y-27949000D01*
X79998252Y-28027818D01*
X79998252Y-28027818D01*
G37*
G36*
X8998252Y-28027818D02*
X8998254Y-28027819D01*
X8998255Y-28027819D01*
X9371513Y-28182427D01*
X9371514Y-28182428D01*
X9707439Y-28406886D01*
X9993114Y-28692561D01*
X9993116Y-28692564D01*
X10217573Y-29028487D01*
X10372181Y-29401745D01*
X10451000Y-29797994D01*
X10451000Y-30202006D01*
X10372181Y-30598255D01*
X10217573Y-30971513D01*
X10217572Y-30971514D01*
X9993114Y-31307439D01*
X9707439Y-31593114D01*
X9707436Y-31593116D01*
X9371513Y-31817573D01*
X8998255Y-31972181D01*
X8998254Y-31972181D01*
X8998252Y-31972182D01*
X8602007Y-32051000D01*
X8197993Y-32051000D01*
X7801748Y-31972182D01*
X7801746Y-31972181D01*
X7801745Y-31972181D01*
X7428487Y-31817573D01*
X7092564Y-31593116D01*
X7092561Y-31593114D01*
X6806886Y-31307439D01*
X6582428Y-30971514D01*
X6582427Y-30971513D01*
X6427819Y-30598255D01*
X6349000Y-30202006D01*
X6349000Y-29797994D01*
X6427819Y-29401745D01*
X6582427Y-29028487D01*
X6806884Y-28692564D01*
X6806886Y-28692561D01*
X7092561Y-28406886D01*
X7428486Y-28182428D01*
X7428487Y-28182427D01*
X7801745Y-28027819D01*
X7801746Y-28027819D01*
X7801748Y-28027818D01*
X8197993Y-27949000D01*
X8602007Y-27949000D01*
X8998252Y-28027818D01*
X8998252Y-28027818D01*
G37*
G36*
X26998252Y-28027818D02*
X26998254Y-28027819D01*
X26998255Y-28027819D01*
X27371513Y-28182427D01*
X27371514Y-28182428D01*
X27707439Y-28406886D01*
X27993114Y-28692561D01*
X27993116Y-28692564D01*
X28217573Y-29028487D01*
X28372181Y-29401745D01*
X28451000Y-29797994D01*
X28451000Y-30202006D01*
X28372181Y-30598255D01*
X28217573Y-30971513D01*
X28217572Y-30971514D01*
X27993114Y-31307439D01*
X27707439Y-31593114D01*
X27707436Y-31593116D01*
X27371513Y-31817573D01*
X26998255Y-31972181D01*
X26998254Y-31972181D01*
X26998252Y-31972182D01*
X26602007Y-32051000D01*
X26197993Y-32051000D01*
X25801748Y-31972182D01*
X25801746Y-31972181D01*
X25801745Y-31972181D01*
X25428487Y-31817573D01*
X25092564Y-31593116D01*
X25092561Y-31593114D01*
X24806886Y-31307439D01*
X24582428Y-30971514D01*
X24582427Y-30971513D01*
X24427819Y-30598255D01*
X24349000Y-30202006D01*
X24349000Y-29797994D01*
X24427819Y-29401745D01*
X24582427Y-29028487D01*
X24806884Y-28692564D01*
X24806886Y-28692561D01*
X25092561Y-28406886D01*
X25428486Y-28182428D01*
X25428487Y-28182427D01*
X25801745Y-28027819D01*
X25801746Y-28027819D01*
X25801748Y-28027818D01*
X26197993Y-27949000D01*
X26602007Y-27949000D01*
X26998252Y-28027818D01*
X26998252Y-28027818D01*
G37*
G36*
X50777396Y-26085546D02*
X50950466Y-26157234D01*
X51106230Y-26261312D01*
X51238688Y-26393770D01*
X51342766Y-26549534D01*
X51414454Y-26722604D01*
X51451000Y-26906333D01*
X51451000Y-27093667D01*
X51414454Y-27277396D01*
X51342766Y-27450466D01*
X51238688Y-27606230D01*
X51106230Y-27738688D01*
X50950466Y-27842766D01*
X50777396Y-27914454D01*
X50593667Y-27951000D01*
X50406333Y-27951000D01*
X50222604Y-27914454D01*
X50049534Y-27842766D01*
X49893770Y-27738688D01*
X49761312Y-27606230D01*
X49657234Y-27450466D01*
X49585546Y-27277396D01*
X49549000Y-27093667D01*
X49549000Y-26906333D01*
X49585546Y-26722604D01*
X49657234Y-26549534D01*
X49761312Y-26393770D01*
X49893770Y-26261312D01*
X50049534Y-26157234D01*
X50222604Y-26085546D01*
X50406333Y-26049000D01*
X50593667Y-26049000D01*
X50777396Y-26085546D01*
X50777396Y-26085546D01*
G37*
G36*
X45777396Y-26085546D02*
X45950466Y-26157234D01*
X46106230Y-26261312D01*
X46238688Y-26393770D01*
X46342766Y-26549534D01*
X46414454Y-26722604D01*
X46451000Y-26906333D01*
X46451000Y-27093667D01*
X46414454Y-27277396D01*
X46342766Y-27450466D01*
X46238688Y-27606230D01*
X46106230Y-27738688D01*
X45950466Y-27842766D01*
X45777396Y-27914454D01*
X45593667Y-27951000D01*
X45406333Y-27951000D01*
X45222604Y-27914454D01*
X45049534Y-27842766D01*
X44893770Y-27738688D01*
X44761312Y-27606230D01*
X44657234Y-27450466D01*
X44585546Y-27277396D01*
X44549000Y-27093667D01*
X44549000Y-26906333D01*
X44585546Y-26722604D01*
X44657234Y-26549534D01*
X44761312Y-26393770D01*
X44893770Y-26261312D01*
X45049534Y-26157234D01*
X45222604Y-26085546D01*
X45406333Y-26049000D01*
X45593667Y-26049000D01*
X45777396Y-26085546D01*
X45777396Y-26085546D01*
G37*
G36*
X48277396Y-26085546D02*
X48450466Y-26157234D01*
X48606230Y-26261312D01*
X48738688Y-26393770D01*
X48842766Y-26549534D01*
X48914454Y-26722604D01*
X48951000Y-26906333D01*
X48951000Y-27093667D01*
X48914454Y-27277396D01*
X48842766Y-27450466D01*
X48738688Y-27606230D01*
X48606230Y-27738688D01*
X48450466Y-27842766D01*
X48277396Y-27914454D01*
X48093667Y-27951000D01*
X47906333Y-27951000D01*
X47722604Y-27914454D01*
X47549534Y-27842766D01*
X47393770Y-27738688D01*
X47261312Y-27606230D01*
X47157234Y-27450466D01*
X47085546Y-27277396D01*
X47049000Y-27093667D01*
X47049000Y-26906333D01*
X47085546Y-26722604D01*
X47157234Y-26549534D01*
X47261312Y-26393770D01*
X47393770Y-26261312D01*
X47549534Y-26157234D01*
X47722604Y-26085546D01*
X47906333Y-26049000D01*
X48093667Y-26049000D01*
X48277396Y-26085546D01*
X48277396Y-26085546D01*
G37*
G36*
X44198252Y-18027818D02*
X44198254Y-18027819D01*
X44198255Y-18027819D01*
X44571513Y-18182427D01*
X44571514Y-18182428D01*
X44907439Y-18406886D01*
X45193114Y-18692561D01*
X45193116Y-18692564D01*
X45417573Y-19028487D01*
X45572181Y-19401745D01*
X45651000Y-19797994D01*
X45651000Y-20202006D01*
X45572181Y-20598255D01*
X45417573Y-20971513D01*
X45417572Y-20971514D01*
X45193114Y-21307439D01*
X44907439Y-21593114D01*
X44907436Y-21593116D01*
X44571513Y-21817573D01*
X44198255Y-21972181D01*
X44198254Y-21972181D01*
X44198252Y-21972182D01*
X43802007Y-22051000D01*
X43397993Y-22051000D01*
X43001748Y-21972182D01*
X43001746Y-21972181D01*
X43001745Y-21972181D01*
X42628487Y-21817573D01*
X42292564Y-21593116D01*
X42292561Y-21593114D01*
X42006886Y-21307439D01*
X41782428Y-20971514D01*
X41782427Y-20971513D01*
X41627819Y-20598255D01*
X41549000Y-20202006D01*
X41549000Y-19797994D01*
X41627819Y-19401745D01*
X41782427Y-19028487D01*
X42006884Y-18692564D01*
X42006886Y-18692561D01*
X42292561Y-18406886D01*
X42628486Y-18182428D01*
X42628487Y-18182427D01*
X43001745Y-18027819D01*
X43001746Y-18027819D01*
X43001748Y-18027818D01*
X43397993Y-17949000D01*
X43802007Y-17949000D01*
X44198252Y-18027818D01*
X44198252Y-18027818D01*
G37*
G36*
X52998252Y-18027818D02*
X52998254Y-18027819D01*
X52998255Y-18027819D01*
X53371513Y-18182427D01*
X53371514Y-18182428D01*
X53707439Y-18406886D01*
X53993114Y-18692561D01*
X53993116Y-18692564D01*
X54217573Y-19028487D01*
X54372181Y-19401745D01*
X54451000Y-19797994D01*
X54451000Y-20202006D01*
X54372181Y-20598255D01*
X54217573Y-20971513D01*
X54217572Y-20971514D01*
X53993114Y-21307439D01*
X53707439Y-21593114D01*
X53707436Y-21593116D01*
X53371513Y-21817573D01*
X52998255Y-21972181D01*
X52998254Y-21972181D01*
X52998252Y-21972182D01*
X52602007Y-22051000D01*
X52197993Y-22051000D01*
X51801748Y-21972182D01*
X51801746Y-21972181D01*
X51801745Y-21972181D01*
X51428487Y-21817573D01*
X51092564Y-21593116D01*
X51092561Y-21593114D01*
X50806886Y-21307439D01*
X50582428Y-20971514D01*
X50582427Y-20971513D01*
X50427819Y-20598255D01*
X50349000Y-20202006D01*
X50349000Y-19797994D01*
X50427819Y-19401745D01*
X50582427Y-19028487D01*
X50806884Y-18692564D01*
X50806886Y-18692561D01*
X51092561Y-18406886D01*
X51428486Y-18182428D01*
X51428487Y-18182427D01*
X51801745Y-18027819D01*
X51801746Y-18027819D01*
X51801748Y-18027818D01*
X52197993Y-17949000D01*
X52602007Y-17949000D01*
X52998252Y-18027818D01*
X52998252Y-18027818D01*
G37*
G36*
X67077396Y-15085546D02*
X67250466Y-15157234D01*
X67406230Y-15261312D01*
X67538688Y-15393770D01*
X67642766Y-15549534D01*
X67714454Y-15722604D01*
X67751000Y-15906333D01*
X67751000Y-16093667D01*
X67714454Y-16277396D01*
X67642766Y-16450466D01*
X67538688Y-16606230D01*
X67406230Y-16738688D01*
X67250466Y-16842766D01*
X67077396Y-16914454D01*
X66893667Y-16951000D01*
X66706333Y-16951000D01*
X66522604Y-16914454D01*
X66349534Y-16842766D01*
X66193770Y-16738688D01*
X66061312Y-16606230D01*
X65957234Y-16450466D01*
X65885546Y-16277396D01*
X65849000Y-16093667D01*
X65849000Y-15906333D01*
X65885546Y-15722604D01*
X65957234Y-15549534D01*
X66061312Y-15393770D01*
X66193770Y-15261312D01*
X66349534Y-15157234D01*
X66522604Y-15085546D01*
X66706333Y-15049000D01*
X66893667Y-15049000D01*
X67077396Y-15085546D01*
X67077396Y-15085546D01*
G37*
G36*
X13077396Y-15085546D02*
X13250466Y-15157234D01*
X13406230Y-15261312D01*
X13538688Y-15393770D01*
X13642766Y-15549534D01*
X13714454Y-15722604D01*
X13751000Y-15906333D01*
X13751000Y-16093667D01*
X13714454Y-16277396D01*
X13642766Y-16450466D01*
X13538688Y-16606230D01*
X13406230Y-16738688D01*
X13250466Y-16842766D01*
X13077396Y-16914454D01*
X12893667Y-16951000D01*
X12706333Y-16951000D01*
X12522604Y-16914454D01*
X12349534Y-16842766D01*
X12193770Y-16738688D01*
X12061312Y-16606230D01*
X11957234Y-16450466D01*
X11885546Y-16277396D01*
X11849000Y-16093667D01*
X11849000Y-15906333D01*
X11885546Y-15722604D01*
X11957234Y-15549534D01*
X12061312Y-15393770D01*
X12193770Y-15261312D01*
X12349534Y-15157234D01*
X12522604Y-15085546D01*
X12706333Y-15049000D01*
X12893667Y-15049000D01*
X13077396Y-15085546D01*
X13077396Y-15085546D01*
G37*
G36*
X10577396Y-15085546D02*
X10750466Y-15157234D01*
X10906230Y-15261312D01*
X11038688Y-15393770D01*
X11142766Y-15549534D01*
X11214454Y-15722604D01*
X11251000Y-15906333D01*
X11251000Y-16093667D01*
X11214454Y-16277396D01*
X11142766Y-16450466D01*
X11038688Y-16606230D01*
X10906230Y-16738688D01*
X10750466Y-16842766D01*
X10577396Y-16914454D01*
X10393667Y-16951000D01*
X10206333Y-16951000D01*
X10022604Y-16914454D01*
X9849534Y-16842766D01*
X9693770Y-16738688D01*
X9561312Y-16606230D01*
X9457234Y-16450466D01*
X9385546Y-16277396D01*
X9349000Y-16093667D01*
X9349000Y-15906333D01*
X9385546Y-15722604D01*
X9457234Y-15549534D01*
X9561312Y-15393770D01*
X9693770Y-15261312D01*
X9849534Y-15157234D01*
X10022604Y-15085546D01*
X10206333Y-15049000D01*
X10393667Y-15049000D01*
X10577396Y-15085546D01*
X10577396Y-15085546D01*
G37*
G36*
X86577396Y-15085546D02*
X86750466Y-15157234D01*
X86906230Y-15261312D01*
X87038688Y-15393770D01*
X87142766Y-15549534D01*
X87214454Y-15722604D01*
X87251000Y-15906333D01*
X87251000Y-16093667D01*
X87214454Y-16277396D01*
X87142766Y-16450466D01*
X87038688Y-16606230D01*
X86906230Y-16738688D01*
X86750466Y-16842766D01*
X86577396Y-16914454D01*
X86393667Y-16951000D01*
X86206333Y-16951000D01*
X86022604Y-16914454D01*
X85849534Y-16842766D01*
X85693770Y-16738688D01*
X85561312Y-16606230D01*
X85457234Y-16450466D01*
X85385546Y-16277396D01*
X85349000Y-16093667D01*
X85349000Y-15906333D01*
X85385546Y-15722604D01*
X85457234Y-15549534D01*
X85561312Y-15393770D01*
X85693770Y-15261312D01*
X85849534Y-15157234D01*
X86022604Y-15085546D01*
X86206333Y-15049000D01*
X86393667Y-15049000D01*
X86577396Y-15085546D01*
X86577396Y-15085546D01*
G37*
G36*
X84077396Y-15085546D02*
X84250466Y-15157234D01*
X84406230Y-15261312D01*
X84538688Y-15393770D01*
X84642766Y-15549534D01*
X84714454Y-15722604D01*
X84751000Y-15906333D01*
X84751000Y-16093667D01*
X84714454Y-16277396D01*
X84642766Y-16450466D01*
X84538688Y-16606230D01*
X84406230Y-16738688D01*
X84250466Y-16842766D01*
X84077396Y-16914454D01*
X83893667Y-16951000D01*
X83706333Y-16951000D01*
X83522604Y-16914454D01*
X83349534Y-16842766D01*
X83193770Y-16738688D01*
X83061312Y-16606230D01*
X82957234Y-16450466D01*
X82885546Y-16277396D01*
X82849000Y-16093667D01*
X82849000Y-15906333D01*
X82885546Y-15722604D01*
X82957234Y-15549534D01*
X83061312Y-15393770D01*
X83193770Y-15261312D01*
X83349534Y-15157234D01*
X83522604Y-15085546D01*
X83706333Y-15049000D01*
X83893667Y-15049000D01*
X84077396Y-15085546D01*
X84077396Y-15085546D01*
G37*
G36*
X81577396Y-15085546D02*
X81750466Y-15157234D01*
X81906230Y-15261312D01*
X82038688Y-15393770D01*
X82142766Y-15549534D01*
X82214454Y-15722604D01*
X82251000Y-15906333D01*
X82251000Y-16093667D01*
X82214454Y-16277396D01*
X82142766Y-16450466D01*
X82038688Y-16606230D01*
X81906230Y-16738688D01*
X81750466Y-16842766D01*
X81577396Y-16914454D01*
X81393667Y-16951000D01*
X81206333Y-16951000D01*
X81022604Y-16914454D01*
X80849534Y-16842766D01*
X80693770Y-16738688D01*
X80561312Y-16606230D01*
X80457234Y-16450466D01*
X80385546Y-16277396D01*
X80349000Y-16093667D01*
X80349000Y-15906333D01*
X80385546Y-15722604D01*
X80457234Y-15549534D01*
X80561312Y-15393770D01*
X80693770Y-15261312D01*
X80849534Y-15157234D01*
X81022604Y-15085546D01*
X81206333Y-15049000D01*
X81393667Y-15049000D01*
X81577396Y-15085546D01*
X81577396Y-15085546D01*
G37*
G36*
X69577396Y-15085546D02*
X69750466Y-15157234D01*
X69906230Y-15261312D01*
X70038688Y-15393770D01*
X70142766Y-15549534D01*
X70214454Y-15722604D01*
X70251000Y-15906333D01*
X70251000Y-16093667D01*
X70214454Y-16277396D01*
X70142766Y-16450466D01*
X70038688Y-16606230D01*
X69906230Y-16738688D01*
X69750466Y-16842766D01*
X69577396Y-16914454D01*
X69393667Y-16951000D01*
X69206333Y-16951000D01*
X69022604Y-16914454D01*
X68849534Y-16842766D01*
X68693770Y-16738688D01*
X68561312Y-16606230D01*
X68457234Y-16450466D01*
X68385546Y-16277396D01*
X68349000Y-16093667D01*
X68349000Y-15906333D01*
X68385546Y-15722604D01*
X68457234Y-15549534D01*
X68561312Y-15393770D01*
X68693770Y-15261312D01*
X68849534Y-15157234D01*
X69022604Y-15085546D01*
X69206333Y-15049000D01*
X69393667Y-15049000D01*
X69577396Y-15085546D01*
X69577396Y-15085546D01*
G37*
G36*
X31077396Y-15085546D02*
X31250466Y-15157234D01*
X31406230Y-15261312D01*
X31538688Y-15393770D01*
X31642766Y-15549534D01*
X31714454Y-15722604D01*
X31751000Y-15906333D01*
X31751000Y-16093667D01*
X31714454Y-16277396D01*
X31642766Y-16450466D01*
X31538688Y-16606230D01*
X31406230Y-16738688D01*
X31250466Y-16842766D01*
X31077396Y-16914454D01*
X30893667Y-16951000D01*
X30706333Y-16951000D01*
X30522604Y-16914454D01*
X30349534Y-16842766D01*
X30193770Y-16738688D01*
X30061312Y-16606230D01*
X29957234Y-16450466D01*
X29885546Y-16277396D01*
X29849000Y-16093667D01*
X29849000Y-15906333D01*
X29885546Y-15722604D01*
X29957234Y-15549534D01*
X30061312Y-15393770D01*
X30193770Y-15261312D01*
X30349534Y-15157234D01*
X30522604Y-15085546D01*
X30706333Y-15049000D01*
X30893667Y-15049000D01*
X31077396Y-15085546D01*
X31077396Y-15085546D01*
G37*
G36*
X28577396Y-15085546D02*
X28750466Y-15157234D01*
X28906230Y-15261312D01*
X29038688Y-15393770D01*
X29142766Y-15549534D01*
X29214454Y-15722604D01*
X29251000Y-15906333D01*
X29251000Y-16093667D01*
X29214454Y-16277396D01*
X29142766Y-16450466D01*
X29038688Y-16606230D01*
X28906230Y-16738688D01*
X28750466Y-16842766D01*
X28577396Y-16914454D01*
X28393667Y-16951000D01*
X28206333Y-16951000D01*
X28022604Y-16914454D01*
X27849534Y-16842766D01*
X27693770Y-16738688D01*
X27561312Y-16606230D01*
X27457234Y-16450466D01*
X27385546Y-16277396D01*
X27349000Y-16093667D01*
X27349000Y-15906333D01*
X27385546Y-15722604D01*
X27457234Y-15549534D01*
X27561312Y-15393770D01*
X27693770Y-15261312D01*
X27849534Y-15157234D01*
X28022604Y-15085546D01*
X28206333Y-15049000D01*
X28393667Y-15049000D01*
X28577396Y-15085546D01*
X28577396Y-15085546D01*
G37*
G36*
X15577396Y-15085546D02*
X15750466Y-15157234D01*
X15906230Y-15261312D01*
X16038688Y-15393770D01*
X16142766Y-15549534D01*
X16214454Y-15722604D01*
X16251000Y-15906333D01*
X16251000Y-16093667D01*
X16214454Y-16277396D01*
X16142766Y-16450466D01*
X16038688Y-16606230D01*
X15906230Y-16738688D01*
X15750466Y-16842766D01*
X15577396Y-16914454D01*
X15393667Y-16951000D01*
X15206333Y-16951000D01*
X15022604Y-16914454D01*
X14849534Y-16842766D01*
X14693770Y-16738688D01*
X14561312Y-16606230D01*
X14457234Y-16450466D01*
X14385546Y-16277396D01*
X14349000Y-16093667D01*
X14349000Y-15906333D01*
X14385546Y-15722604D01*
X14457234Y-15549534D01*
X14561312Y-15393770D01*
X14693770Y-15261312D01*
X14849534Y-15157234D01*
X15022604Y-15085546D01*
X15206333Y-15049000D01*
X15393667Y-15049000D01*
X15577396Y-15085546D01*
X15577396Y-15085546D01*
G37*
G36*
X33577396Y-15085546D02*
X33750466Y-15157234D01*
X33906230Y-15261312D01*
X34038688Y-15393770D01*
X34142766Y-15549534D01*
X34214454Y-15722604D01*
X34251000Y-15906333D01*
X34251000Y-16093667D01*
X34214454Y-16277396D01*
X34142766Y-16450466D01*
X34038688Y-16606230D01*
X33906230Y-16738688D01*
X33750466Y-16842766D01*
X33577396Y-16914454D01*
X33393667Y-16951000D01*
X33206333Y-16951000D01*
X33022604Y-16914454D01*
X32849534Y-16842766D01*
X32693770Y-16738688D01*
X32561312Y-16606230D01*
X32457234Y-16450466D01*
X32385546Y-16277396D01*
X32349000Y-16093667D01*
X32349000Y-15906333D01*
X32385546Y-15722604D01*
X32457234Y-15549534D01*
X32561312Y-15393770D01*
X32693770Y-15261312D01*
X32849534Y-15157234D01*
X33022604Y-15085546D01*
X33206333Y-15049000D01*
X33393667Y-15049000D01*
X33577396Y-15085546D01*
X33577396Y-15085546D01*
G37*
G36*
X64577396Y-15085546D02*
X64750466Y-15157234D01*
X64906230Y-15261312D01*
X65038688Y-15393770D01*
X65142766Y-15549534D01*
X65214454Y-15722604D01*
X65251000Y-15906333D01*
X65251000Y-16093667D01*
X65214454Y-16277396D01*
X65142766Y-16450466D01*
X65038688Y-16606230D01*
X64906230Y-16738688D01*
X64750466Y-16842766D01*
X64577396Y-16914454D01*
X64393667Y-16951000D01*
X64206333Y-16951000D01*
X64022604Y-16914454D01*
X63849534Y-16842766D01*
X63693770Y-16738688D01*
X63561312Y-16606230D01*
X63457234Y-16450466D01*
X63385546Y-16277396D01*
X63349000Y-16093667D01*
X63349000Y-15906333D01*
X63385546Y-15722604D01*
X63457234Y-15549534D01*
X63561312Y-15393770D01*
X63693770Y-15261312D01*
X63849534Y-15157234D01*
X64022604Y-15085546D01*
X64206333Y-15049000D01*
X64393667Y-15049000D01*
X64577396Y-15085546D01*
X64577396Y-15085546D01*
G37*
G36*
X17798252Y-7027818D02*
X17798254Y-7027819D01*
X17798255Y-7027819D01*
X18171513Y-7182427D01*
X18171514Y-7182428D01*
X18507439Y-7406886D01*
X18793114Y-7692561D01*
X18793116Y-7692564D01*
X19017573Y-8028487D01*
X19172181Y-8401745D01*
X19251000Y-8797994D01*
X19251000Y-9202006D01*
X19172181Y-9598255D01*
X19017573Y-9971513D01*
X19017572Y-9971514D01*
X18793114Y-10307439D01*
X18507439Y-10593114D01*
X18507436Y-10593116D01*
X18171513Y-10817573D01*
X17798255Y-10972181D01*
X17798254Y-10972181D01*
X17798252Y-10972182D01*
X17402007Y-11051000D01*
X16997993Y-11051000D01*
X16601748Y-10972182D01*
X16601746Y-10972181D01*
X16601745Y-10972181D01*
X16228487Y-10817573D01*
X15892564Y-10593116D01*
X15892561Y-10593114D01*
X15606886Y-10307439D01*
X15382428Y-9971514D01*
X15382427Y-9971513D01*
X15227819Y-9598255D01*
X15149000Y-9202006D01*
X15149000Y-8797994D01*
X15227819Y-8401745D01*
X15382427Y-8028487D01*
X15606884Y-7692564D01*
X15606886Y-7692561D01*
X15892561Y-7406886D01*
X16228486Y-7182428D01*
X16228487Y-7182427D01*
X16601745Y-7027819D01*
X16601746Y-7027819D01*
X16601748Y-7027818D01*
X16997993Y-6949000D01*
X17402007Y-6949000D01*
X17798252Y-7027818D01*
X17798252Y-7027818D01*
G37*
G36*
X26998252Y-7027818D02*
X26998254Y-7027819D01*
X26998255Y-7027819D01*
X27371513Y-7182427D01*
X27371514Y-7182428D01*
X27707439Y-7406886D01*
X27993114Y-7692561D01*
X27993116Y-7692564D01*
X28217573Y-8028487D01*
X28372181Y-8401745D01*
X28451000Y-8797994D01*
X28451000Y-9202006D01*
X28372181Y-9598255D01*
X28217573Y-9971513D01*
X28217572Y-9971514D01*
X27993114Y-10307439D01*
X27707439Y-10593114D01*
X27707436Y-10593116D01*
X27371513Y-10817573D01*
X26998255Y-10972181D01*
X26998254Y-10972181D01*
X26998252Y-10972182D01*
X26602007Y-11051000D01*
X26197993Y-11051000D01*
X25801748Y-10972182D01*
X25801746Y-10972181D01*
X25801745Y-10972181D01*
X25428487Y-10817573D01*
X25092564Y-10593116D01*
X25092561Y-10593114D01*
X24806886Y-10307439D01*
X24582428Y-9971514D01*
X24582427Y-9971513D01*
X24427819Y-9598255D01*
X24349000Y-9202006D01*
X24349000Y-8797994D01*
X24427819Y-8401745D01*
X24582427Y-8028487D01*
X24806884Y-7692564D01*
X24806886Y-7692561D01*
X25092561Y-7406886D01*
X25428486Y-7182428D01*
X25428487Y-7182427D01*
X25801745Y-7027819D01*
X25801746Y-7027819D01*
X25801748Y-7027818D01*
X26197993Y-6949000D01*
X26602007Y-6949000D01*
X26998252Y-7027818D01*
X26998252Y-7027818D01*
G37*
G36*
X35798252Y-7027818D02*
X35798254Y-7027819D01*
X35798255Y-7027819D01*
X36171513Y-7182427D01*
X36171514Y-7182428D01*
X36507439Y-7406886D01*
X36793114Y-7692561D01*
X36793116Y-7692564D01*
X37017573Y-8028487D01*
X37172181Y-8401745D01*
X37251000Y-8797994D01*
X37251000Y-9202006D01*
X37172181Y-9598255D01*
X37017573Y-9971513D01*
X37017572Y-9971514D01*
X36793114Y-10307439D01*
X36507439Y-10593114D01*
X36507436Y-10593116D01*
X36171513Y-10817573D01*
X35798255Y-10972181D01*
X35798254Y-10972181D01*
X35798252Y-10972182D01*
X35402007Y-11051000D01*
X34997993Y-11051000D01*
X34601748Y-10972182D01*
X34601746Y-10972181D01*
X34601745Y-10972181D01*
X34228487Y-10817573D01*
X33892564Y-10593116D01*
X33892561Y-10593114D01*
X33606886Y-10307439D01*
X33382428Y-9971514D01*
X33382427Y-9971513D01*
X33227819Y-9598255D01*
X33149000Y-9202006D01*
X33149000Y-8797994D01*
X33227819Y-8401745D01*
X33382427Y-8028487D01*
X33606884Y-7692564D01*
X33606886Y-7692561D01*
X33892561Y-7406886D01*
X34228486Y-7182428D01*
X34228487Y-7182427D01*
X34601745Y-7027819D01*
X34601746Y-7027819D01*
X34601748Y-7027818D01*
X34997993Y-6949000D01*
X35402007Y-6949000D01*
X35798252Y-7027818D01*
X35798252Y-7027818D01*
G37*
G36*
X71798252Y-7027818D02*
X71798254Y-7027819D01*
X71798255Y-7027819D01*
X72171513Y-7182427D01*
X72171514Y-7182428D01*
X72507439Y-7406886D01*
X72793114Y-7692561D01*
X72793116Y-7692564D01*
X73017573Y-8028487D01*
X73172181Y-8401745D01*
X73251000Y-8797994D01*
X73251000Y-9202006D01*
X73172181Y-9598255D01*
X73017573Y-9971513D01*
X73017572Y-9971514D01*
X72793114Y-10307439D01*
X72507439Y-10593114D01*
X72507436Y-10593116D01*
X72171513Y-10817573D01*
X71798255Y-10972181D01*
X71798254Y-10972181D01*
X71798252Y-10972182D01*
X71402007Y-11051000D01*
X70997993Y-11051000D01*
X70601748Y-10972182D01*
X70601746Y-10972181D01*
X70601745Y-10972181D01*
X70228487Y-10817573D01*
X69892564Y-10593116D01*
X69892561Y-10593114D01*
X69606886Y-10307439D01*
X69382428Y-9971514D01*
X69382427Y-9971513D01*
X69227819Y-9598255D01*
X69149000Y-9202006D01*
X69149000Y-8797994D01*
X69227819Y-8401745D01*
X69382427Y-8028487D01*
X69606884Y-7692564D01*
X69606886Y-7692561D01*
X69892561Y-7406886D01*
X70228486Y-7182428D01*
X70228487Y-7182427D01*
X70601745Y-7027819D01*
X70601746Y-7027819D01*
X70601748Y-7027818D01*
X70997993Y-6949000D01*
X71402007Y-6949000D01*
X71798252Y-7027818D01*
X71798252Y-7027818D01*
G37*
G36*
X8998252Y-7027818D02*
X8998254Y-7027819D01*
X8998255Y-7027819D01*
X9371513Y-7182427D01*
X9371514Y-7182428D01*
X9707439Y-7406886D01*
X9993114Y-7692561D01*
X9993116Y-7692564D01*
X10217573Y-8028487D01*
X10372181Y-8401745D01*
X10451000Y-8797994D01*
X10451000Y-9202006D01*
X10372181Y-9598255D01*
X10217573Y-9971513D01*
X10217572Y-9971514D01*
X9993114Y-10307439D01*
X9707439Y-10593114D01*
X9707436Y-10593116D01*
X9371513Y-10817573D01*
X8998255Y-10972181D01*
X8998254Y-10972181D01*
X8998252Y-10972182D01*
X8602007Y-11051000D01*
X8197993Y-11051000D01*
X7801748Y-10972182D01*
X7801746Y-10972181D01*
X7801745Y-10972181D01*
X7428487Y-10817573D01*
X7092564Y-10593116D01*
X7092561Y-10593114D01*
X6806886Y-10307439D01*
X6582428Y-9971514D01*
X6582427Y-9971513D01*
X6427819Y-9598255D01*
X6349000Y-9202006D01*
X6349000Y-8797994D01*
X6427819Y-8401745D01*
X6582427Y-8028487D01*
X6806884Y-7692564D01*
X6806886Y-7692561D01*
X7092561Y-7406886D01*
X7428486Y-7182428D01*
X7428487Y-7182427D01*
X7801745Y-7027819D01*
X7801746Y-7027819D01*
X7801748Y-7027818D01*
X8197993Y-6949000D01*
X8602007Y-6949000D01*
X8998252Y-7027818D01*
X8998252Y-7027818D01*
G37*
G36*
X79998252Y-7027818D02*
X79998254Y-7027819D01*
X79998255Y-7027819D01*
X80371513Y-7182427D01*
X80371514Y-7182428D01*
X80707439Y-7406886D01*
X80993114Y-7692561D01*
X80993116Y-7692564D01*
X81217573Y-8028487D01*
X81372181Y-8401745D01*
X81451000Y-8797994D01*
X81451000Y-9202006D01*
X81372181Y-9598255D01*
X81217573Y-9971513D01*
X81217572Y-9971514D01*
X80993114Y-10307439D01*
X80707439Y-10593114D01*
X80707436Y-10593116D01*
X80371513Y-10817573D01*
X79998255Y-10972181D01*
X79998254Y-10972181D01*
X79998252Y-10972182D01*
X79602007Y-11051000D01*
X79197993Y-11051000D01*
X78801748Y-10972182D01*
X78801746Y-10972181D01*
X78801745Y-10972181D01*
X78428487Y-10817573D01*
X78092564Y-10593116D01*
X78092561Y-10593114D01*
X77806886Y-10307439D01*
X77582428Y-9971514D01*
X77582427Y-9971513D01*
X77427819Y-9598255D01*
X77349000Y-9202006D01*
X77349000Y-8797994D01*
X77427819Y-8401745D01*
X77582427Y-8028487D01*
X77806884Y-7692564D01*
X77806886Y-7692561D01*
X78092561Y-7406886D01*
X78428486Y-7182428D01*
X78428487Y-7182427D01*
X78801745Y-7027819D01*
X78801746Y-7027819D01*
X78801748Y-7027818D01*
X79197993Y-6949000D01*
X79602007Y-6949000D01*
X79998252Y-7027818D01*
X79998252Y-7027818D01*
G37*
G36*
X88798252Y-7027818D02*
X88798254Y-7027819D01*
X88798255Y-7027819D01*
X89171513Y-7182427D01*
X89171514Y-7182428D01*
X89507439Y-7406886D01*
X89793114Y-7692561D01*
X89793116Y-7692564D01*
X90017573Y-8028487D01*
X90172181Y-8401745D01*
X90251000Y-8797994D01*
X90251000Y-9202006D01*
X90172181Y-9598255D01*
X90017573Y-9971513D01*
X90017572Y-9971514D01*
X89793114Y-10307439D01*
X89507439Y-10593114D01*
X89507436Y-10593116D01*
X89171513Y-10817573D01*
X88798255Y-10972181D01*
X88798254Y-10972181D01*
X88798252Y-10972182D01*
X88402007Y-11051000D01*
X87997993Y-11051000D01*
X87601748Y-10972182D01*
X87601746Y-10972181D01*
X87601745Y-10972181D01*
X87228487Y-10817573D01*
X86892564Y-10593116D01*
X86892561Y-10593114D01*
X86606886Y-10307439D01*
X86382428Y-9971514D01*
X86382427Y-9971513D01*
X86227819Y-9598255D01*
X86149000Y-9202006D01*
X86149000Y-8797994D01*
X86227819Y-8401745D01*
X86382427Y-8028487D01*
X86606884Y-7692564D01*
X86606886Y-7692561D01*
X86892561Y-7406886D01*
X87228486Y-7182428D01*
X87228487Y-7182427D01*
X87601745Y-7027819D01*
X87601746Y-7027819D01*
X87601748Y-7027818D01*
X87997993Y-6949000D01*
X88402007Y-6949000D01*
X88798252Y-7027818D01*
X88798252Y-7027818D01*
G37*
G36*
X62998252Y-7027818D02*
X62998254Y-7027819D01*
X62998255Y-7027819D01*
X63371513Y-7182427D01*
X63371514Y-7182428D01*
X63707439Y-7406886D01*
X63993114Y-7692561D01*
X63993116Y-7692564D01*
X64217573Y-8028487D01*
X64372181Y-8401745D01*
X64451000Y-8797994D01*
X64451000Y-9202006D01*
X64372181Y-9598255D01*
X64217573Y-9971513D01*
X64217572Y-9971514D01*
X63993114Y-10307439D01*
X63707439Y-10593114D01*
X63707436Y-10593116D01*
X63371513Y-10817573D01*
X62998255Y-10972181D01*
X62998254Y-10972181D01*
X62998252Y-10972182D01*
X62602007Y-11051000D01*
X62197993Y-11051000D01*
X61801748Y-10972182D01*
X61801746Y-10972181D01*
X61801745Y-10972181D01*
X61428487Y-10817573D01*
X61092564Y-10593116D01*
X61092561Y-10593114D01*
X60806886Y-10307439D01*
X60582428Y-9971514D01*
X60582427Y-9971513D01*
X60427819Y-9598255D01*
X60349000Y-9202006D01*
X60349000Y-8797994D01*
X60427819Y-8401745D01*
X60582427Y-8028487D01*
X60806884Y-7692564D01*
X60806886Y-7692561D01*
X61092561Y-7406886D01*
X61428486Y-7182428D01*
X61428487Y-7182427D01*
X61801745Y-7027819D01*
X61801746Y-7027819D01*
X61801748Y-7027818D01*
X62197993Y-6949000D01*
X62602007Y-6949000D01*
X62998252Y-7027818D01*
X62998252Y-7027818D01*
G37*
M02*
